<svg xmlns="http://www.w3.org/2000/svg" xmlns:xlink="http://www.w3.org/1999/xlink" width="1128.3" height="786.8"><style><![CDATA[.I{opacity:.1}.J{enable-background:new}.K{fill:#ffa84c}.L{fill:#444053}]]></style><g class="K"><path d="M655.7 124.5c-72.3-2.5-141.2-25.9-206.9-51.4s-131-53.9-201.5-67.4C201.9-3 149.9-4.2 113.4 20.1 78.2 43.5 66.8 83.9 60.7 121.5c-4.6 28.2-7.3 57.9 5.3 84.4 8.8 18.3 24.3 33.8 35 51.3 37.4 61.1 11 136.5-29.6 196.3-19 28-41.1 54.7-55.7 84.5s-21.4 64-8.5 94.4c12.7 30.1 43 52.8 75.9 68.7 66.6 32.3 145.2 41.5 221.9 46.8 169.6 11.6 340.2 6.6 510.3 1.5 62.9-1.9 126.2-3.8 188.1-13.5 34.4-5.4 69.9-14 94.9-34.7 31.7-26.3 39.6-70.8 18.3-103.8-35.6-55.3-134.1-69-159-128.4-13.7-32.7.4-69 20.3-99.3 42.7-65 114.3-122 118.1-196.3 2.6-51-31.8-102.1-85.1-126.3C955 21.9 877.6 25.1 836.4 67c-42.4 43.1-116.9 59.7-180.7 57.5z" class="I J"/><path d="M902.6 681.9c-4.1-1.3-8.3-1.8-12.6-1.3-5.2.6-4.4 8.4.8 8.1 2.6-.2 5.2-.7 7.7-1.4l4.1-5.4zm1.6.1c1.9 3.8 2.9 8 3.1 12.3.2 5.2-7.7 5.6-8.1.4-.2-2.6 0-5.2.3-7.8l4.7-4.9zm11.8-16.9s-2.5-7.9-18-4.9c-7 1.4-6.8 11.4.2 12.5h.3c10.2 1.5 13.7-2.6 17.5-7.6zm1.6-.4s8.3.7 8.8 16.4c.2 7.1-9.6 9.2-12.2 2.7 0-.1-.1-.2-.1-.3-3.7-9.7-.5-14 3.5-18.8zm11.1-20.3c-1.2-5.9-5.5-10.6-11.2-12.5-10.5-3.3-16 12.4-5.8 16.3 4.2 1.5 8.7 2.2 13.2 1.9l3.8-5.7zm12.7-26.2s-4.2-10-15.2-12c-11.6-2.1-15.2 15.3-3.7 18.1 5.2 1.1 10.5 1.2 15.7.1l3.2-6.2zm7.8-25.7c-3.6-5.7-9.4-9.7-16-11-10-1.9-13.4 13.1-3.5 15.7 6.2 1.5 12.6 1.4 18.7-.3l.8-4.4zm7.2-25.1c-3.2-5.3-8.2-9.2-14-11.1-10-3.1-14.9 12.1-5 15.4 5.9 2 12.3 1.9 18.1-.1l.9-4.2zm3.1-22.9s-4-9.4-12.2-14.3c-9.1-5.5-17.7 8-9 14.1 5.4 3.8 12.3 6.4 20.3 4.6l.9-4.4zm1.5-27.1s-4.4-9.5-12.9-14c-9.5-5-17.7 8.8-8.8 14.8 5.8 3.9 13.1 6.4 20.8 3.4l.9-4.2zm-.9-24.8a62.52 62.52 0 0 0-12-13.7c-6.6-5.4-15 4.3-8.7 10.1 5.8 5.3 13 9.8 20.5 9.4l.2-5.8zm-2.6-23.7c-3.8-6.4-8.3-12.3-13.6-17.5-5.2-5-12.8 2.6-8 7.9 5.6 6 13.1 12.2 22.2 14.9l-.6-5.3zm-4.8-27.9c-3.1-4.8-6.7-9.3-10.8-13.4-5.2-5.1-13.1 2.6-8.1 7.9 5.3 5.6 12.2 10.9 20.3 12.7l-1.4-7.2zm-4.2-26.1c-3.2-4.3-6.7-8.5-10.4-12.4-4.2-4.3-10.9 1.8-6.9 6.3 4.6 5.3 10.6 10.1 17.4 10.8l-.1-4.7zm-4.4-24.1c-2.9-5.7-6.3-11.2-10-16.5-3.1-4.3-9.7.3-6.7 4.7 3.9 5.8 9.2 11.5 16.3 14.2l.4-2.4zm-3.7-32.2s-2.5-4.2-6-9.1c-3.3-4.5-10.1.1-7.1 4.8 3.4 5.2 7.7 9.6 12.6 10.5l.5-6.2z"/><path d="M938.7 337.4l-3.1-15.6c-.8-4.1-7-3.1-6.5 1 1.1 8.4 4 16.8 10.3 22.3l-.7-7.7zm1.9-44.5c-.7-1.6-2.5-2.3-4-1.6-1.3.5-2.1 1.9-1.8 3.3.7 4.3 1.8 8.6 3.2 12.8l2.6-14.5zm-11.2 351.2c5.7-1.9 11.9-.5 16.4 3.5 8 7.5-2.8 20-11.3 13.1-3.4-2.9-6.2-6.5-8.2-10.5l3.1-6.1zm12.8-26.8s10.5-2.5 18.7 5.1c8.6 8.1-3.3 21.3-12.4 13.7-4-3.5-7.2-7.7-9.4-12.5l3.1-6.3zm7.6-23.1c5.5-3.9 12.4-5.5 19-4.2 10 2 7.5 17.1-2.6 15.8-6.3-.9-12.2-3.4-17.3-7.3l.9-4.3zm7.1-26.7c4.9-3.7 11-5.5 17.1-5.1 10.5.9 9.3 16.8-1.1 16.1a28.81 28.81 0 0 1-16.8-6.8l.8-4.2zm2.5-22.3s5.5-8.6 14.4-12.1c9.8-3.9 16.1 10.8 6.6 15.4-6 2.8-13.2 4.3-20.9 1.2l-.1-4.5zm.3-28.2s5.6-8.8 14.6-12.2c10-3.8 16.4 11 6.8 15.8-6.3 3.1-13.8 4.6-21.1.6l-.3-4.2z"/><path d="M957.8 492.4c2.1-5.7 5.1-11.1 8.8-15.9 5.3-6.7 15.6 1 10.7 8-4.5 6.4-10.6 12.3-18 13.6l-1.5-5.7zm-.7-23.6c1.8-7.2 4.6-14.1 8.1-20.7 3.6-6.2 13.1-1.1 9.8 5.4-3.7 7.3-9.2 15.4-17.1 20.5l-.8-5.2zm-5.8-29.1c2.2-5.5 4.9-10.8 8.3-15.8 4.1-6 13.3-.1 9.5 6.1-4.1 6.8-9.9 13.6-17.6 17l-.2-7.3zm-4.7-24.9c1.1-5.3 2.6-10.5 4.3-15.6 2-5.7 10.6-2.9 8.9 2.8-2 6.8-5.4 13.5-11.3 17.1l-1.9-4.3zm-3.2-24.5c1.5-6.2 3.5-12.4 6-18.3 2.1-4.9 9.5-1.9 7.6 3-2.4 6.5-6.4 13.3-12.6 17.6l-1-2.3zm-4.8-29.4s.9-4.8 2.7-10.5c1.6-5.3 9.6-3.2 8.3 2.2-1.5 6-4 11.6-8.4 14.1l-2.6-5.8zm1.1-24.6l5.4-15c1.4-4 7.4-2.1 6.3 2-2.3 8.1-6.4 16-13.5 20.5l1.8-7.5zm6.8-41.8l2.2-1.8c2.7-2.2 6.1 1.6 3.6 4-4.4 4-9.4 7.1-14.8 9.4l9-11.6zm-.3-8.7c3.3-6.6 6.9-13.1 10.8-19.3.5-1 .1-2.2-.8-2.7-.8-.4-1.8-.3-2.4.4-3.2 4.4-6.3 10.8-8.7 20.2l1.1 1.4z"/></g><g class="L"><path d="M940 365.2l1.2-.1c-5-46.6-2.9-75.4 5.8-80.9l-.6-1c-9.3 5.9-11.5 34.2-6.4 82z"/><path d="M957.2 475.4l1.7-.3-2.2-13c-7.3-37.8-12.9-72.8-15.8-99.4l-1.3-1c2.8 26.6 8 62.8 15.3 100.7.9 4.3 1.6 8.7 2.3 13z"/><path d="M876.2 711c.3-.2 26.9-20.6 50.3-59.7 13.7-22.9 23.7-47.8 29.6-73.8 7.4-32.5 7.6-70.4 2.3-105.8l-1.6 1.3c12 79.6-10.9 141.4-32.3 177.1-23.2 38.7-49.5 58.9-49.8 59.1l1.5 1.8z"/></g><ellipse cx="194" cy="698" rx="66.6" ry="12.8" class="K"/><g fill="#3f3d56"><ellipse cx="192.9" cy="692.5" rx="7.8" ry="10.1"/><ellipse cx="192.9" cy="680.1" rx="7.8" ry="10.1"/><ellipse cx="192.9" cy="667.7" rx="7.8" ry="10.1"/><ellipse cx="192.9" cy="655.3" rx="7.8" ry="10.1"/><ellipse cx="192.9" cy="642.9" rx="7.8" ry="10.1"/><ellipse cx="192.9" cy="630.5" rx="7.8" ry="10.1"/><ellipse cx="192.9" cy="618.2" rx="7.8" ry="10.1"/></g><path d="M221.9 533.3c1.1-1.3 2-2.8 2.9-4.3l-20.4-3.3 22 .2c4.3-9.3 4.5-19.9.7-29.4l-29.5 15.3 27.2-20c-10.2-17.8-32.9-23.9-50.7-13.6-17.8 10.2-23.9 32.9-13.6 50.7.9 1.6 1.9 3.1 3 4.5-1.6 2.1-3.1 4.4-4.2 6.8l26.4 13.7-28.2-9.5c-4 11.9-1.8 25 6 34.8-12.7 16.1-9.9 39.4 6.2 52.1s39.4 9.9 52.1-6.2a37.1 37.1 0 0 0 0-45.9c10.7-13.4 10.7-32.4.1-45.9z" class="K"/><path d="M155.6 556.3c0 8.3 2.8 16.4 7.9 22.9-12.7 16.1-9.9 39.4 6.2 52.1s39.4 9.9 52.1-6.2a37.1 37.1 0 0 0 0-45.9c5.1-6.3-66.2-27.1-66.2-22.9z" class="I J"/><path d="M232,261.2V703c0,8.5,6.9,15.4,15.4,15.4h633.9c8.5,0,15.4-6.9,15.4-15.4V261.2H232z" fill="#fff"/><path d="M293.2 300.8h141.6c4.8 0 8.6 3.9 8.6 8.6v76c0 4.8-3.9 8.6-8.6 8.6H293.2c-4.8 0-8.6-3.9-8.6-8.6v-76c0-4.7 3.8-8.6 8.6-8.6zm200.3 0h141.6c4.8 0 8.7 3.9 8.7 8.6v76c0 4.8-3.9 8.6-8.7 8.6H493.5c-4.8 0-8.6-3.9-8.6-8.6v-76c0-4.7 3.9-8.6 8.6-8.6z" class="I J"/><path d="M295.4 302.1h137.1c4.8 0 8.6 3.9 8.6 8.6V384c0 4.8-3.9 8.6-8.6 8.6H295.4c-4.8 0-8.6-3.9-8.6-8.6v-73.3c0-4.7 3.9-8.6 8.6-8.6z" class="K"/><path d="M833.2 392.7H696.1c-4.8 0-8.7-3.9-8.7-8.6v-73.3c0-4.8 3.9-8.6 8.7-8.6h137.1c4.8 0 8.7 3.9 8.7 8.6v73.3c-.1 4.8-3.9 8.6-8.7 8.6z" class="I J L"/><path d="M632.9 392.7H495.8c-4.8 0-8.7-3.9-8.7-8.6v-73.3c0-4.8 3.9-8.6 8.7-8.6h137.1c4.8 0 8.7 3.9 8.7 8.6v73.3c-.1 4.8-3.9 8.6-8.7 8.6z" class="K"/><path d="M295.4 433h137.1c4.8 0 8.6 3.9 8.6 8.6V515c0 4.8-3.9 8.7-8.6 8.7H295.4c-4.8 0-8.6-3.9-8.6-8.7v-73.3c0-4.8 3.9-8.7 8.6-8.7zm537.8 90.7H696.1a8.71 8.71 0 0 1-8.7-8.7v-73.3a8.71 8.71 0 0 1 8.7-8.7h137.1a8.71 8.71 0 0 1 8.7 8.7V515c-.1 4.8-3.9 8.7-8.7 8.7zm-200.3 0H495.8a8.71 8.71 0 0 1-8.7-8.7v-73.3a8.71 8.71 0 0 1 8.7-8.7h137.1a8.71 8.71 0 0 1 8.7 8.7V515c-.1 4.8-3.9 8.7-8.7 8.7zM295.4 564h137.1c4.8 0 8.6 3.9 8.6 8.7V646c0 4.8-3.9 8.7-8.6 8.7H295.4c-4.8 0-8.6-3.9-8.6-8.7v-73.3c0-4.9 3.9-8.7 8.6-8.7zm537.8 90.6H696.1a8.71 8.71 0 0 1-8.7-8.7v-73.3a8.71 8.71 0 0 1 8.7-8.7h137.1a8.71 8.71 0 0 1 8.7 8.7V646c-.1 4.7-3.9 8.6-8.7 8.6zm-200.3 0H495.8a8.71 8.71 0 0 1-8.7-8.7v-73.3a8.71 8.71 0 0 1 8.7-8.7h137.1a8.71 8.71 0 0 1 8.7 8.7V646c-.1 4.7-3.9 8.6-8.7 8.6z" class="I L J"/><path d="M232 183.2v80.2h664.7v-80.2a15.41 15.41 0 0 0-15.4-15.4H247.4a15.41 15.41 0 0 0-15.4 15.4zM396.5 207c-6.8 0-12.3-5.5-12.3-12.3s5.5-12.3 12.3-12.3 12.3 5.5 12.3 12.3-5.5 12.3-12.3 12.3zm335.7 0c-6.8 0-12.3-5.5-12.3-12.3s5.5-12.3 12.3-12.3 12.3 5.5 12.3 12.3S739 207 732.2 207z" class="K"/><path d="M396.5 180.1c-8 0-14.6 6.5-14.6 14.5s6.5 14.6 14.5 14.6 14.6-6.5 14.6-14.5c0-8.1-6.5-14.6-14.5-14.6zm0 26.9c-6.8 0-12.3-5.5-12.3-12.3s5.5-12.3 12.3-12.3 12.3 5.5 12.3 12.3-5.5 12.3-12.3 12.3zm335.7-26.9c-8 0-14.5 6.5-14.5 14.5s6.5 14.6 14.5 14.6 14.5-6.5 14.5-14.5c0-8.1-6.5-14.6-14.5-14.6zm0 26.9c-6.8 0-12.3-5.5-12.3-12.3s5.5-12.3 12.3-12.3 12.3 5.5 12.3 12.3S739 207 732.2 207z" class="I J"/><g class="K J"><circle cx="1033.1" cy="419.9" r="15.3" class="I"/><circle cx="1087.7" cy="351.8" r="25.6" class="I"/><circle cx="1053.8" cy="476.1" r="25.6" class="I"/><circle cx="36.3" cy="345.6" r="36.3" class="I"/></g><g fill="#8e5624"><use xlink:href="#B"/><use xlink:href="#B" x="201"/></g><g class="K"><path d="M199.2 287.1s-24.3-29.4-40.7-7.9c0 0-4.1 2.6-2.7 7.1 0 0 1.5-1.3 3.6 2 .8 1.2 1.7 2.2 2.7 3.1 1.4 1.3 3.1 2.1 5 2.3 0 0 10.5 4.8 26.2-4 0 0 4.9-.4 5.5-1.1l-6.3-2.8s-1.8 4.8-5.9 6.1c0 0 5.9-5.8 5-6.6-.2-.2-3.4-1.4-3.4-1.4s-3.3 8.3-9.6 10.2c0 0 8-6 8.3-10.6l-5-1.5s-3 8.9-10.1 11.4c0 0 8.2-6.6 9-11.6l-5.2-.8s-3.2 8.6-9 10.6c0 0 8.6-8.5 7.9-10.7 0 0-4.7-.4-6 0 0 0-2.4 6.1-5.9 7 0 0 5.1-6.3 4.6-6.9 0 0-6.3 1.1-9.3 3.3 2.6-2.2 5.7-3.6 9.1-4.3-1.7-1.2-3.7-1.9-5.8-2.1 0 0 3.1-2.2 7.3 1.8 0 0 5-.6 5.7-.2 0 0-3.5-4.5-7.1-6 0 0 4.7-.2 8.4 6.2l5.2.7s-4.4-6.2-7.5-7.8c0 0 4.9.6 8.8 8.1l4.9 1.4s-3.4-5.7-6.4-8.2c0 0 4.4 1.5 7.8 8.6l3.2 1.3s-2.5-4.1-3.4-5.2-.6-1.4-.6-1.4a16.48 16.48 0 0 1 5.4 7.1c-.3 0 6.1 3.2 6.3 2.8zm-12.5 122.7s-24.3-29.4-40.7-7.9c0 0-4.1 2.6-2.7 7.1 0 0 1.5-1.3 3.6 2 .7 1.1 1.7 2.2 2.7 3.1 1.4 1.3 3.1 2.1 4.9 2.3 0 0 10.5 4.8 26.1-4.1 0 0 4.9-.3 5.5-1.1l-6.4-2.9s-1.8 4.8-5.9 6.1c0 0 5.9-5.8 5-6.6-.2-.2-3.4-1.4-3.4-1.4s-3.3 8.3-9.6 10.2c0 0 8-6 8.3-10.6l-5-1.5s-3 8.9-10.1 11.4c0 0 8.2-6.6 9-11.6l-5.2-.8s-3.2 8.6-9 10.6c0 0 8.6-8.5 7.9-10.7 0 0-4.7-.4-6 0 0 0-2.4 6.1-5.9 7 0 0 5.1-6.3 4.5-7 0 0-6.3 1.1-9.3 3.3 2.6-2.2 5.7-3.6 9.1-4.3-1.7-1.2-3.7-1.9-5.8-2.1 0 0 3.2-2.2 7.4 1.9 0 0 5-.6 5.7-.2 0 0-3.5-4.5-7.1-6 0 0 4.7-.2 8.4 6.2l5.2.7s-4.4-6.2-7.5-7.8c0 0 4.9.6 8.8 8.1l4.9 1.4s-3.4-5.7-6.4-8.2c0 0 4.4 1.5 7.8 8.6l3.2 1.3s-2.5-4.1-3.4-5.2-.6-1.4-.6-1.4c2.4 1.9 4.2 4.4 5.4 7.1 0 .2 6.4 3.3 6.6 3zm100.1-295s-6.1-37.6-31.1-27.4c0 0-4.7.2-5.9 4.8 0 0 1.9-.4 2.1 3.6.1 1.3.3 2.8.7 4 .5 1.8 1.6 3.4 3.2 4.5 0 0 6.7 9.5 24.6 9.8 0 0 4.4 2.2 5.3 1.8l-4.1-5.7s-4 3.2-8.2 2.3c0 0 8.1-2 7.7-3.2-.1-.2-2.3-2.9-2.3-2.9s-7.1 5.4-13.4 3.9c0 0 10-1.1 12.6-5l-3.5-3.8s-7.2 6.1-14.4 4.7c0 0 10.4-1.5 13.6-5.5l-4-3.3s-7 5.8-13.1 4.5c0 0 11.8-3 12.2-5.3 0 0-3.9-2.8-5.2-3.1 0 0-5.2 4-8.6 3 0 0 7.7-2.9 7.5-3.7 0 0-6-2.3-9.7-1.9a18.99 18.99 0 0 1 10 .9c-.8-1.9-2.3-3.6-4-4.7 0 0 3.8-.3 5.4 5.4 0 0 4.6 2 5.1 2.7 0 0-.7-5.7-3-8.8 0 0 4.1 2.2 4.2 9.6l4.1 3.3s-.7-7.6-2.5-10.5c0 0 3.9 2.9 3.4 11.4l3.5 3.7s0-6.6-1.4-10.2c0 0 3 3.5 2.4 11.3l2 2.8-.2-6.2c-.1-1.3.2-1.5.2-1.5 1.2 2.8 1.5 5.9 1 8.9-.5.1 3.4 6.1 3.8 5.8zM1000.1 220s17.9-33.6-8.3-40.7c0 0-3.9-2.8-7.6.3 0 0 1.8.9-.4 4-.8 1.1-1.4 2.4-1.9 3.7-.7 1.7-.8 3.7-.2 5.5 0 0-.4 11.5 13.7 22.6 0 0 2.2 4.3 3.1 4.7l.2-6.9s-5.1.1-7.9-3c0 0 7.7 3.3 8 2.1.1-.2-.1-3.7-.1-3.7s-8.9.2-13-4.9c0 0 8.6 5.1 13 3.7l-.5-5.2s-9.4.5-14.4-5c0 0 9.2 5 14.2 3.9l-1.2-5.1s-9.1.4-13.2-4.3c0 0 11.2 4.7 12.9 3.2 0 0-1.4-4.6-2.4-5.6 0 0-6.6.1-8.7-2.8 0 0 7.8 2.4 8.2 1.6 0 0-3.3-5.5-6.6-7.3 3.1 1.6 5.6 3.9 7.4 6.7.5-2.1.4-4.2-.3-6.1 0 0 3.3 2.1 1.1 7.5 0 0 2.5 4.3 2.4 5.2 0 0 2.8-5.1 2.9-8.9 0 0 2 4.3-2.5 10.2l1.4 5.1s4.1-6.5 4.4-9.8c0 0 1.4 4.6-4.1 11.2l.6 5.2s4-5.3 5.1-9c0 0 .3 4.6-5 10.5v3.5s2.8-3.9 3.5-5.1c.7-1.1 1-1.1 1-1.1-.8 3-2.4 5.6-4.6 7.6-.1-.6-.6 6.4-.2 6.5z" class="I J"/><path d="M128.3 150.7s-4.3 37.9 22.6 34.8c0 0 4.7 1.1 7-3 0 0-2-.1-1.1-4 .3-1.4.5-2.8.4-4.1 0-1.9-.7-3.7-1.9-5.2 0 0-3.9-11-21.1-16 0 0-3.7-3.3-4.6-3.2l2.4 6.6s4.7-1.9 8.5 0c0 0-8.3-.3-8.1 1 0 .3 1.4 3.4 1.4 3.4s8.3-3.3 14-.2c0 0-9.9-1.6-13.4 1.4l2.4 4.6s8.5-4 15.2-.7c0 0-10.4-1.3-14.6 1.6l2.9 4.2s8.4-3.7 13.9-.9c0 0-12.2-.3-13.2 1.8 0 0 2.9 3.7 4.2 4.3 0 0 6.1-2.6 9.1-.6 0 0-8.1.6-8.2 1.6 0 0 5.2 3.8 8.8 4.4-3.4-.3-6.6-1.6-9.3-3.6.3 2.1 1.2 4 2.6 5.6 0 0-3.8-.8-3.8-6.5 0 0-3.9-3.2-4.1-4 0 0-.8 5.7.6 9.3 0 0-3.4-3.2-1.4-10.4l-3.1-4.2s-1.5 7.6-.4 10.8c0 0-3-3.9-.2-12l-2.4-4.6s-1.7 6.4-1.4 10.2c0 0-2-4.1.8-11.6l-1.2-3.2-1.4 6.1c-.3 1.4-.6 1.4-.6 1.4-.3-3 .2-6 1.4-8.8-.2.3-2.4-6.5-2.7-6.3zm276.4-28.6s-3.8 10.9 6.3 25.7m511 3.8s37.8 5.1 35.2-21.9c0 0 1.2-4.6-2.8-7.1 0 0-.2 2-4 1-1.4-.3-2.8-.5-4.1-.4-1.9-.1-3.7.7-5.2 1.8 0 0-11 3.7-16.4 20.8 0 0-3.3 3.6-3.3 4.5l6.6-2.3s-1.8-4.8.2-8.5c0 0-.4 8.3.8 8.2.3 0 3.5-1.3 3.5-1.3s-3.1-8.3.1-14c0 0-1.8 9.8 1.1 13.5l4.6-2.3s-3.8-8.6-.4-15.2c0 0-1.5 10.4 1.3 14.7l4.3-2.9s-3.5-8.5-.6-14c0 0-.6 12.2 1.6 13.2 0 0 3.8-2.9 4.4-4.2 0 0-2.4-6.1-.4-9.1 0 0 .5 8.1 1.4 8.2 0 0 3.9-5.1 4.6-8.7-.4 3.4-1.7 6.5-3.7 9.3 2.1-.2 4.1-1.1 5.6-2.4 0 0-.8 3.8-6.6 3.7 0 0-3.3 3.8-4.1 4 0 0 5.7.9 9.4-.4 0 0-3.3 3.4-10.4 1.2l-4.3 3s7.5 1.6 10.8.6c0 0-3.9 2.9-12 0l-4.6 2.3s6.3 1.8 10.2 1.6c0 0-4.2 1.9-11.6-1l-3.2 1.2 6 1.6c1.4.3 1.4.6 1.4.6-3 .3-6-.3-8.8-1.6.1-.1-6.8 2-6.6 2.3zm11 57.2s-11.5-.4-22.7 13.7"/></g><defs ><path id="B" d="M418 297.9l-7.3-7.3a3.8 3.8 0 0 0-5.4 0l-45.5 45.1-19.3-19.4a3.8 3.8 0 0 0-5.4 0l-7.3 7.3c-1.5 1.5-1.5 4 0 5.5l29.3 29.5c1.5 1.5 3.9 1.5 5.5 0l55.6-55.1a4.05 4.05 0 0 0-.2-5.6c.1.1 0 .1 0 0z"/></defs></svg>