<svg xmlns="http://www.w3.org/2000/svg" xmlns:xlink="http://www.w3.org/1999/xlink" width="903.8" height="657.1"><style><![CDATA[.Q{enable-background:new}.R{opacity:.1}.S{fill:#f8bdc5}.T{fill:#ffa84c}.U{fill:#40414d}.V{stroke-miterlimit:10}]]></style><ellipse cx="63.9" cy="514.6" rx="45" ry="16" class="Q R"/><ellipse cx="790.8" cy="580.7" rx="45" ry="16" class="Q R"/><path d="M789 583s12-40.8-2.3-70.9a64.33 64.33 0 0 1-5.2-40.5c1.3-6.5 3.2-12.9 5.7-19" fill="none" stroke="#535461" stroke-width="2" class="V"/><path d="M778.4 433.6c0 5 9.1 19.5 9.1 19.5s9.1-14.5 9.1-19.5-4.1-9.1-9.1-9.1-9.1 4.1-9.1 9.1zm-15 27.8c2.7 4.2 18.2 11.5 18.2 11.5s-.3-17.1-3-21.3-8.3-5.4-12.5-2.7c-4.2 2.6-5.4 8.3-2.7 12.5zm.7 47.3c4.5 2.3 21.5.7 21.5.7s-8.9-14.6-13.3-16.9c-4.5-2.3-9.9-.5-12.2 4s-.5 10 4 12.2zm8.5 35.8c4 3 21.1 4.3 21.1 4.3s-6.3-15.9-10.3-18.9-9.7-2.1-12.7 1.9c-2.9 4-2.1 9.7 1.9 12.7zm28.1-70.7c-3.6 3.5-20.3 7.1-20.3 7.1s4.1-16.6 7.7-20.1 9.3-3.4 12.8.2 3.3 9.3-.2 12.8zm9.5 41.9c-4.5 2.3-21.5.7-21.5.7s8.9-14.6 13.3-16.8c4.5-2.3 9.9-.5 12.2 4s.4 9.9-4 12.1zm3.6 42c-4 3-21.1 4.3-21.1 4.3s6.3-15.9 10.3-18.9 9.7-2.1 12.7 1.9c3 4.1 2.1 9.7-1.9 12.7z" class="T"/><path d="M63.9 514.7s25.7-87.1-4.8-151.3c-12.8-26.9-17-57.1-11.1-86.4 2.8-13.9 6.9-27.4 12.2-40.5" fill="none" stroke="#535461" stroke-width="2" class="V"/><path d="M41.2 195.9c0 10.7 19.3 41.7 19.3 41.7s19.3-31 19.3-41.7-8.6-19.3-19.3-19.4-19.3 8.7-19.3 19.4zM9.3 255.1c5.8 9 38.9 24.5 38.9 24.5s-.6-36.5-6.4-45.5c-6-8.8-18-11.1-26.9-5.1-8.6 5.8-11 17.3-5.6 26.1zm1.3 101.1c9.5 4.8 45.9 1.5 45.9 1.5s-19-31.2-28.5-36-21.2-1-26 8.6c-4.7 9.5-.9 21.1 8.6 25.9zm18.3 76.3c8.6 6.3 45 9.2 45 9.2s-13.4-34-22-40.3c-8.6-6.4-20.7-4.5-27 4s-4.6 20.7 4 27.1zm59.8-150.9c-7.7 7.4-43.4 15.1-43.4 15.1s8.7-35.5 16.4-42.9c7.7-7.5 19.9-7.3 27.4.4s7.3 19.9-.4 27.4zm20.3 89.5c-9.5 4.8-45.9 1.5-45.9 1.5s19-31.2 28.5-36 21.2-1 26 8.6.9 21.1-8.6 25.9zm7.7 89.6c-8.6 6.3-45 9.2-45 9.2s13.4-34 22-40.3c8.6-6.4 20.7-4.5 27 4s4.6 20.8-4 27.1zm346.7-117.9l55.7-7.2c2.3-.3 4-1.1 3.9-1.9s-2-1.1-4.3-.8l-55.6 8c-1.5.2-2.7.8-2.6 1.3 0 .5 1.3.8 2.9.6zm-.4.9l55.9-5.8c2.3-.2 4.2.2 4.3.9.1.8-1.7 1.5-4 1.7l-56 5c-1.5.1-2.8-.2-2.8-.7-.1-.4 1.1-.9 2.6-1.1z" class="T"/><path d="M265.4 402.6H279v194.9h-13.6zm296.9 0h13.6v194.9h-13.6z" class="U"/><path d="M260.3 386.8h314c12.2 0 22 9.8 22 22v2.9h-358v-2.9c0-12.2 9.8-22 22-22z" fill="#dfe6f5"/><path d="M259.3 386.8h314c12.2 0 22 9.8 22 22v2.9h-358v-2.9c0-12.2 9.8-22 22-22z" class="Q R"/><path d="M260.3 382.2h314c12.2 0 22 9.8 22 22v2.9h-358v-2.9c0-12.1 9.8-22 22-22z" fill="#dfe6f5"/><g fill="#ffd77c" stroke="#ffab50"><circle cx="417.3" cy="339.2" r="27.2"/><circle cx="417.3" cy="339.2" r="21.5"/><circle cx="417.3" cy="339.2" r="16.4"/><circle cx="417.3" cy="339.2" r="9.2"/><circle cx="401.4" cy="353.9" r="27.2"/><circle cx="401.4" cy="353.9" r="21.5"/><circle cx="401.4" cy="353.9" r="16.4"/><circle cx="401.4" cy="353.9" r="9.2"/><circle cx="433.1" cy="353.9" r="27.2"/><circle cx="433.1" cy="353.9" r="21.5"/><circle cx="433.1" cy="353.9" r="16.4"/><circle cx="433.1" cy="353.9" r="9.2"/></g><path d="M360.6 346h113.3v5.3c0 22.1-17.9 40-40 40h-33.3c-22.1 0-40-17.9-40-40V346z" class="T"/><path d="M463.7 346c-.6 24.6-20.7 44.2-45.3 44.2h-22.5c3.3.7 6.6 1.1 10 1.1h22.7c25 0 45.3-20.3 45.3-45.3h-10.2z" class="Q R"/><path d="M274.5 551h294.6v13.6H274.5zm-122.3-47.4h11.9v108.2h-11.9zm93.9 0H258v108.2h-11.9z" class="U"/><path d="M267.5 485.8c0 7.2-24.5 13.1-54.7 13.1s-53.5-5.8-53.5-13.1 23.3-13.1 53.5-13.1 54.7 5.9 54.7 13.1z" fill="#f6c6cd"/><g class="U"><path d="M142.7 485.8h124.8v10.9a10.5 10.5 0 0 1-10.5 10.5h-96.3c-9.9 0-18-8.1-18-18v-3.4z"/><path d="M121.5 360.7l2.6-.6c3.8-.9 7.5 1.5 8.4 5.3l31.2 138.1-3.9.9c-6.8 1.5-13.6-2.7-15.1-9.6L116.2 369c-.9-3.7 1.5-7.5 5.3-8.3zm550.9 144.8h11.9v108.2h-11.9zm-93.9 0h11.9v108.2h-11.9z"/></g><path d="M569 487.7c0 7.2 24.5 13.1 54.7 13.1s53.5-5.8 53.5-13.1-23.3-13.1-53.5-13.1-54.7 5.9-54.7 13.1z" fill="#f6c6cd"/><g class="U"><path d="M675.8 509.1h-96.3a10.5 10.5 0 0 1-10.5-10.5v-10.9h124.8v3.4c0 9.9-8 18-18 18z"/><path d="M676.8 506.3l-3.9-.9 31.2-138.1c.9-3.8 4.6-6.1 8.4-5.3l2.6.6c3.8.9 6.1 4.6 5.3 8.4L692 496.8c-1.6 6.7-8.4 11-15.2 9.5z"/></g><linearGradient id="A" gradientUnits="userSpaceOnUse" x1="587.91" y1="612.702" x2="587.91" y2="185.75"><stop offset="0" stop-color="gray" stop-opacity=".25"/><stop offset=".54" stop-color="gray" stop-opacity=".12"/><stop offset="1" stop-color="gray" stop-opacity=".1"/></linearGradient><path d="M681.1 445.6l3.5-1.1s-6-40.1-5.9-76v-3.1l.3-6.6.2-8c.3-34.6-13.3-49.2-13.3-49.2s-16-22.8-25.6-27.3c-.8-2.6-1.8-5.9-2.6-9.8l.9-.6c4-2.9 7.8-6.1 11.3-9.5 4.9-4.6 9.6-10.2 9.4-16.6 0-.6 0-1.2-.1-1.9-.9-7.6-8.9-13.4-12.1-20.7-2.7-6.1-1.9-12.9-4.3-19s-10.6-11.9-16.8-8.7c-2.3 1.2-3.7 3.3-5.6 4.9-4.7 4-12.4 4.4-18.9 2.5s-8.4-9.2-17.5-9.3c.8.3 1.6.6 2.3 1.1-.8-.1-1.5-.2-2.3-.2 3.8 1.2 6.5 4.5 6.9 8.4 0 .2 0 .5-.1.7-3.6 2-8.4.8-12.7.8s-9.3 2.1-8.8 5.7c-.1.4-.1.8 0 1.2.6 2.7 4.2 4.7 4.6 7.2v.2c-8 4-16.7 6.5-25.7 7.5-.3 0-.2.4.3.9h-.3c-1.6.2 9.8 9.2 11.1 9.8 4.8 2.2 10.5 3.8 15.5 5.4l.4.1a31.45 31.45 0 0 0-2.6 12.5c0 15.4 11.1 28.3 26.1 32a292.83 292.83 0 0 1 8.4 10.4h-.1s-17.2 22.9-16.7 57.2c0 4.3.2 8.6.7 12.8-11.1-.6-34.9-3.5-53-16.8-24.4-17.9-51.7-12.5-46-1.8s34.8 19.6 39.5 20.5c.4.1 1.5.3 2.9.7-5.8 1.1-9.7 3-9.5 5.6.5 4.9 25.4 20.5 40.4 21.4 9.9.6 21.9 3.7 31.3 6.3.9 20.5-4.1 26.7-4.1 26.7s1.5.9 3.9 2.2l-1 3c-6.1 3.5-13.6 7.2-20.5 8.7-8.7 1.8-17.2 4.6-25.2 8.4l-33.8 16.3c-6.1 2.8-10.4 8.7-11.2 15.4-.7 6.9 1.3 15.6 12.7 22.5.7 5.6 4.1 12.2 13.2 18.2 17.5 11.6 63.5 46.5 69.8 51.3.1 8.5-1 25.6-11.5 28.2-13.2 3.3-2.6 16 8.1 15.5 2.5 1 5.3 1.2 7.9.6 11.3-2.7 52.6-17 55.4-38.4.1-.9.2-1.9.2-2.8.2-3.7-.7-7.3-2.6-10.4.4 1 .8 2 1.1 3-3.4-7.8-11.8-12.7-18.2-15.5v-.2c-1-.4-2-.7-2.8-1 0-.6 0-1.2-.1-1.7l-64.8-44.7s28.2-23.2 57.3-19.7 33.8-1.7 33.8-1.7 14.9-14.2 16.4-30.6l.9-.3c-.2.3-.3-.7-.4-2.6z" fill="url(#A)"/><use xlink:href="#C" fill="#b8616e"/><use xlink:href="#C" opacity=".05" class="Q"/><use xlink:href="#C" x="5.3" y="0.9" fill="#b8616e"/><path d="M634.6 545.1l-24.7 18.6.2 3.3c9.3-2.6 29.7-9.4 30-20-1.8-.8-3.6-1.4-5.5-1.9z" class="Q R"/><path d="M608.5 291h10.6v8h-10.6z" class="S"/><use xlink:href="#D" fill="#758ac8"/><use xlink:href="#D" class="Q R"/><use xlink:href="#E" class="S"/><use xlink:href="#E" opacity=".05" class="Q"/><path d="M602.8 411.6l-10.6 31.8s-59.7 36.7-64.5 41.5c-3.8 3.8-8.8 18.6 8.8 30.9s66.3 51.3 66.3 51.3 37.1-8 34.5-23l-61-44.2s26.5-23 53.9-19.5 31.8-1.8 31.8-1.8 21.2-21.2 14.1-41.5-73.3-25.5-73.3-25.5z" fill="#758ac8"/><path d="M589.5 267.6s30.1 32.7 28.3 42.4 23.9-28.3 23.9-28.3-8-19.5-6.2-40.7l-46 26.6z" class="S"/><path d="M615.8 297.6l6.5-6.2c4.5-3.7 8.7-7.9 12.4-12.4 6.2-8 29.2 26.5 29.2 26.5s14.1 15.9 12.4 53.9 2.2 88.8 2.2 88.8l-5.3 1.5c-9.1 3-19.2 1.6-27.1-3.8-7.1-4.9-16-10-22.8-10.5-13.3-.9-25.2-8.4-25.2-8.4s5.8-13.7-3.1-57.9 13.7-75.6 13.7-75.6 1.6 9.7 7.1 4.1z" class="Q R"/><path d="M681.5 444.3l-5.3 1.8-3.2 1c-9.1 3.1-19.2 1.6-27.1-3.8-7-4.9-16-10-22.8-10.5-13.2-.9-28.2-10.6-28.2-10.6s8.8-11.5 0-55.7 13.7-75.6 13.7-75.6 1.8 9.6 7.2 3.9c2-2.2 4.2-4.2 6.5-6.2 4.5-3.7 8.7-7.9 12.4-12.4 6.2-8 29.2 26.5 29.2 26.5s14.1 15.9 12.4 53.9a246.37 246.37 0 0 0-.3 12.3c-.2 35.8 5.5 75.4 5.5 75.4z" fill="#5e52ad"/><path d="M631.1 357.7l.9 19.5s-46.9 2.6-56.6-7.1 26.5 28.6 34.5 30.9c7.5 2.2 26.9 4.2 37.1 4.4 5.9.2 11.4-3.1 14-8.5 1.2-2.6 1.6-5.5 1.1-8.3-1.8-11.5 0-36.3 0-36.3l-31 5.4z" class="Q R"/><path d="M631.1 355.9l.9 19.5s-46.9 2.6-56.6-7.1-44.9-7.6-44.2 0c.4 4.9 23.9 20.3 38 21.2s32.7 7.4 40.7 9.7c7.5 2.2 26.9 4.2 37.1 4.4 5.9.2 11.4-3.1 14-8.5 1.2-2.6 1.6-5.5 1.1-8.3-1.8-11.5 0-36.3 0-36.3l-31 5.4z" class="S"/><use xlink:href="#F" class="Q R"/><use xlink:href="#F" y="-0.9" fill="#5e52ad"/><path d="M634.2 260c-1.4-7 1.5-9.2 2.2-18.1l-46 26.5s5.3 5.7 11.3 13.1c2.7.7 5.4 1 8.2 1 12 .1 18.6-12.9 24.3-22.5z" class="Q R"/><circle cx="609" cy="249" r="32.7" class="S"/><use xlink:href="#G" class="Q R"/><use xlink:href="#G" y="-0.9" fill="#916168"/><path d="M656.2 559.5c1.4 3.3 1.9 6.9 1.4 10.4-2.7 21.2-41.5 35.4-52.2 38-5.6 1.4-11.7-1.9-14.2-5.8 1.6 4.6 8.7 9.2 15.1 7.6 10.6-2.7 49.5-16.8 52.2-38 .6-4.3-.2-8.5-2.3-12.2z" fill="#fff" class="Q R"/><g class="T"><path d="M268.7 108.8s-38-2.3-33.6 24.4c0 0-.9 4.7 3.4 6.9 0 0 .1-2 3.9-1.3 1.4.2 2.8.3 4.1.2 1.9-.1 3.6-.9 5.1-2.1 0 0 10.7-4.4 14.8-21.9 0 0 3.1-3.8 3-4.8L263 113s2.2 4.6.5 8.5c0 0-.2-8.3-1.4-8.1-.3 0-3.3 1.6-3.3 1.6s3.8 8.1.9 13.9c0 0 1.1-9.9-2.1-13.4L253 118s4.4 8.3 1.4 15.1c0 0 .8-10.4-2.4-14.5l-4.1 3.2s4.2 8.2 1.6 13.9c0 0-.3-12.1-2.5-13.1 0 0-3.6 3.2-4.1 4.5 0 0 2.8 6 1.1 9.1 0 0-1.1-8.1-2-8.1 0 0-3.6 5.4-3.9 9 .2-3.4 1.2-6.7 3.1-9.5a11.13 11.13 0 0 0-5.5 2.8s.5-3.8 6.3-4.1c0 0 3-4.1 3.7-4.3 0 0-5.8-.5-9.3 1.1 0 0 3.1-3.6 10.3-2l4-3.3s-7.6-1-10.8.1c0 0 3.7-3.2 11.9-.9l4.4-2.6s-6.5-1.4-10.3-.9c0 0 4.1-2.2 11.6.2l3.2-1.4-6.1-1.1c-1.4-.2-1.5-.5-1.5-.5 3-.5 6.1-.2 8.9 1 .1-.1 6.8-2.5 6.7-2.9z"/><path d="M384.1 242.1s-38-2.3-33.6 24.4c0 0-.9 4.7 3.4 6.9 0 0 .1-2 3.9-1.3 1.4.2 2.8.3 4.1.2 1.8-.1 3.6-.9 5-2.1 0 0 10.7-4.4 14.9-21.9 0 0 3.1-3.8 3-4.8l-6.4 2.7s2.2 4.6.5 8.5c0 0-.2-8.3-1.4-8.1-.3 0-3.3 1.6-3.3 1.6s3.8 8.1.9 13.9c0 0 1.1-9.9-2.1-13.4l-4.5 2.6s4.4 8.3 1.4 15.1c0 0 .8-10.4-2.4-14.5l-4.1 3.2s4.1 8.2 1.6 13.9c0 0-.3-12.1-2.5-13.1 0 0-3.6 3.2-4.1 4.5 0 0 2.8 6 1.1 9.1 0 0-1.1-8.1-2-8.1 0 0-3.6 5.4-3.9 9 .2-3.4 1.2-6.7 3.1-9.5a11.13 11.13 0 0 0-5.5 2.8s.6-3.8 6.3-4.1c0 0 3-4.1 3.7-4.3 0 0-5.8-.5-9.3 1.1 0 0 3.1-3.6 10.3-2l4-3.3s-7.6-1-10.8.1c0 0 3.7-3.2 11.9-.9l4.4-2.6s-6.5-1.4-10.3-.9c0 0 4.1-2.2 11.6.2l3.2-1.4-6.1-1.1c-1.4-.2-1.5-.5-1.5-.5 3-.5 6.1-.2 8.9 1 0 0 6.8-2.5 6.6-2.9zm-230.8-23.7s8.8-37.1-18.3-37.2c0 0-4.5-1.7-7.3 2.2 0 0 1.9.4.6 4.1a13.67 13.67 0 0 0-.9 4 8.19 8.19 0 0 0 1.2 5.3s2.5 11.3 19 18.4c0 0 3.2 3.7 4.2 3.7l-1.6-6.8s-4.9 1.4-8.4-1c0 0 8.2 1.2 8.2 0 0-.3-1-3.6-1-3.6s-8.6 2.3-13.9-1.5c0 0 9.6 2.8 13.5.2l-1.8-4.9s-9 2.9-15.2-1.2c0 0 10.2 2.5 14.7.1l-2.5-4.6s-8.8 2.7-13.9-.8c0 0 12 1.7 13.3-.2 0 0-2.5-4.1-3.7-4.8 0 0-6.4 1.8-9.2-.5 0 0 8.2.3 8.3-.6 0 0-4.7-4.4-8.2-5.4 3.3.8 6.4 2.4 8.9 4.7 0-2.1-.7-4.1-1.9-5.9 0 0 3.6 1.2 3 7 0 0 3.5 3.6 3.6 4.4 0 0 1.5-5.6.5-9.3 0 0 3 3.6.2 10.5l2.6 4.6s2.3-7.3 1.7-10.7c0 0 2.5 4.2-1.2 11.9l1.8 4.8s2.5-6.1 2.6-10c0 0 1.5 4.4-2.2 11.4l.9 3.3s1.7-4.5 2.1-5.9.8-1.4.8-1.4c0 3-.9 6-2.5 8.6.2.2 1.6 7.2 2 7.1zm-83.2 12.7s-30.5-22.8-41.4 1.9c0 0-3.3 3.5-.9 7.6 0 0 1.1-1.6 4 1.1 1 .9 2.1 1.8 3.3 2.4 1.6.9 3.5 1.3 5.4 1 0 0 11.4 2.2 24.4-10.1 0 0 4.7-1.5 5.1-2.4l-6.9-1.2s-.7 5.1-4.3 7.3c0 0 4.4-7.1 3.3-7.6-.2-.1-3.7-.5-3.7-.5s-1.3 8.8-6.9 12.1c0 0 6.4-7.7 5.6-12.3l-5.2-.3s-.9 9.4-7.1 13.4c0 0 6.4-8.3 6-13.4l-5.2.4s-1 9.1-6.3 12.5c0 0 6.4-10.3 5.1-12.3 0 0-4.7.7-5.9 1.5 0 0-.9 6.5-4.1 8.2 0 0 3.5-7.4 2.8-7.9 0 0-5.9 2.5-8.3 5.4 2-2.7 4.7-4.9 7.8-6.3-1.9-.8-4.1-1-6.1-.6 0 0 2.5-2.9 7.6 0 0 0 4.7-1.8 5.5-1.5 0 0-4.5-3.6-8.3-4.2 0 0 4.5-1.3 9.7 4l5.2-.5s-5.8-5-9.1-5.8c0 0 4.8-.6 10.4 5.8l5.1.2s-4.6-4.7-8.1-6.4c0 0 4.6.4 9.6 6.5l3.4.5-4.5-4.3c-1-.9-.9-1.3-.9-1.3a16 16 0 0 1 6.9 5.7c-.1.2 6.8 1.8 7 1.4zM171.7 19s-30.5-22.8-41.4 1.9c0 0-3.3 3.4-.9 7.6 0 0 1.1-1.6 4 1.1 1 .9 2.1 1.8 3.3 2.4 1.6.9 3.5 1.3 5.4 1 0 0 11.4 2.2 24.4-10.1 0 0 4.7-1.5 5.1-2.4l-6.9-1.2s-.7 5.1-4.3 7.3c0 0 4.4-7.1 3.3-7.6-.2-.1-3.7-.5-3.7-.5s-1.3 8.8-6.9 12.2c0 0 6.4-7.7 5.6-12.3l-5.2-.3s-.9 9.4-7.1 13.4c0 0 6.4-8.3 6-13.4l-5.2.4s-1.1 9.1-6.3 12.5c0 0 6.4-10.3 5.1-12.3 0 0-4.7.7-5.9 1.4 0 0-.9 6.5-4.1 8.2 0 0 3.5-7.3 2.8-7.9 0 0-5.9 2.5-8.3 5.4 2-2.7 4.7-4.9 7.8-6.3-1.9-.8-4.1-1-6.1-.6 0 0 2.5-2.9 7.6.1 0 0 4.7-1.8 5.5-1.6 0 0-4.5-3.6-8.3-4.2 0 0 4.5-1.3 9.7 4l5.2-.5s-5.8-5-9.1-5.8c0 0 4.8-.6 10.4 5.8l5.1.2s-4.6-4.7-8.1-6.4c0 0 4.6.4 9.6 6.5l3.4.6-4.5-4.2c-1-.9-.9-1.2-.9-1.2a16 16 0 0 1 6.9 5.7c-.1-.1 6.8 1.4 7 1.1zm116.6 28.9S276.1 11.8 253.1 26c0 0-4.7 1-5.1 5.7 0 0 1.8-.7 2.7 3.1.3 1.4.8 2.7 1.4 3.9.8 1.7 2.2 3 3.8 3.9 0 0 8.1 8.3 25.9 5.5 0 0 4.7 1.4 5.5.9l-5-4.9s-3.5 3.8-7.7 3.6c0 0 7.6-3.3 7-4.4-.1-.2-2.7-2.5-2.7-2.5s-6.1 6.5-12.6 6.1c0 0 9.6-2.7 11.6-7l-4.1-3.2s-6.1 7.2-13.5 7c0 0 10-3.2 12.5-7.7l-4.5-2.6s-6 6.9-12.2 6.7c0 0 11.1-4.9 11.2-7.2 0 0-4.3-2.1-5.7-2.2 0 0-4.5 4.9-8 4.4 0 0 7.1-4.1 6.8-4.9 0 0-6.3-1.3-9.8-.3 3.2-1.1 6.7-1.4 10-.8-1.1-1.8-2.8-3.2-4.7-4 0 0 3.7-.9 6.2 4.3 0 0 4.9 1.2 5.4 1.8 0 0-1.7-5.5-4.5-8.2 0 0 4.5 1.5 5.7 8.8l4.6 2.5s-1.9-7.4-4.2-10c0 0 4.3 2.2 5.3 10.7l4.1 3.1s-1.1-6.5-3.1-9.9c0 0 3.6 2.9 4.2 10.8l2.5 2.4s-.9-4.7-1.3-6.1-.1-1.4-.1-1.4c1.6 2.6 2.4 5.6 2.4 8.6 0 .5 4.8 5.6 5.2 5.4zm-79.6 1.8s-37.9-4.2-34.8 22.7c0 0-1.1 4.7 3 7 0 0 .2-2 4-1.1 1.4.3 2.7.4 4.1.4 1.9 0 3.7-.7 5.2-1.8 0 0 10.9-3.9 16-21.1 0 0 3.3-3.7 3.2-4.6l-6.5 2.4s2 4.7 0 8.5c0 0 .2-8.3-1-8.2-.3 0-3.4 1.4-3.4 1.4s3.4 8.3.2 14c0 0 1.6-9.9-1.4-13.4l-4.7 2.4s4 8.6.7 15.2c0 0 1.3-10.4-1.6-14.6l-4.3 3s3.7 8.4.9 13.9c0 0 .3-12.1-1.8-13.2 0 0-3.7 3-4.3 4.2 0 0 2.5 6.1.6 9.2 0 0-.7-8.1-1.5-8.2 0 0-3.8 5.2-4.4 8.8.3-3.4 1.6-6.6 3.6-9.4-2.1.3-4 1.2-5.6 2.5 0 0 .7-3.8 6.5-3.8 0 0 3.2-3.9 4-4.1 0 0-5.7-.8-9.3.6 0 0 3.3-3.4 10.4-1.4l4.2-3.1s-7.6-1.5-10.8-.5c0 0 3.9-3 11.9-.3l4.5-2.4s-6.4-1.7-10.3-1.4c0 0 4.2-2 11.6.8l3.2-1.3s-4.7-1.2-6.1-1.4-1.4-.6-1.4-.6c3-.3 6.1.2 8.8 1.4-.1 0 6.6-2.1 6.6-2.5zm260.9 31.5s-30.5-22.8-41.4 1.9c0 0-3.3 3.4-.9 7.6 0 0 1.1-1.6 4 1.1 1 .9 2.1 1.8 3.3 2.4 1.6.9 3.5 1.3 5.4 1 0 0 11.4 2.2 24.5-10.1 0 0 4.7-1.5 5.1-2.4l-6.9-1.2s-.7 5.1-4.3 7.3c0 0 4.4-7.1 3.3-7.6-.2-.1-3.7-.5-3.7-.5s-1.3 8.8-6.9 12.1c0 0 6.4-7.7 5.6-12.3l-5.2-.3s-.9 9.4-7.1 13.4c0 0 6.4-8.3 6-13.4l-5.2.4s-1 9.1-6.3 12.4c0 0 6.4-10.3 5.1-12.3 0 0-4.7.7-5.9 1.4 0 0-.9 6.5-4.1 8.2 0 0 3.5-7.4 2.8-7.9 0 0-5.9 2.5-8.3 5.4 2-2.7 4.7-4.9 7.8-6.3-1.9-.8-4.1-1-6.1-.6 0 0 2.5-2.9 7.6.1 0 0 4.7-1.8 5.5-1.6 0 0-4.5-3.6-8.3-4.2 0 0 4.5-1.3 9.7 4l5.2-.5s-5.8-5-9.1-5.8c0 0 4.8-.6 10.4 5.8l5.1.2s-4.6-4.7-8.1-6.4c0 0 4.6.4 9.6 6.5l3.4.6-4.5-4.3c-1-.9-.9-1.2-.9-1.2a16 16 0 0 1 6.9 5.7c-.1.3 6.8 1.8 6.9 1.4zM493.2 246s-10.5-36.6-34.2-23.5c0 0-4.7.7-5.3 5.5 0 0 1.9-.6 2.5 3.2.2 1.4.6 2.7 1.2 4 .7 1.7 2 3.2 3.7 4.1 0 0 7.7 8.6 25.6 6.7 0 0 4.6 1.6 5.5 1.2l-4.7-5.1s-3.6 3.6-7.8 3.3c0 0 7.8-3 7.2-4.1-.1-.2-2.6-2.6-2.6-2.6s-6.3 6.3-12.8 5.5c0 0 9.7-2.3 11.9-6.4l-4-3.4s-6.4 6.9-13.8 6.4c0 0 10.1-2.8 12.9-7.1l-4.4-2.8s-6.3 6.6-12.5 6.1c0 0 11.3-4.4 11.5-6.7 0 0-4.2-2.3-5.6-2.4 0 0-4.7 4.7-8.2 4.1 0 0 7.3-3.7 7-4.6 0 0-6.2-1.6-9.8-.7a18.88 18.88 0 0 1 10-.3c-1.1-1.8-2.6-3.3-4.5-4.2 0 0 3.8-.8 6 4.6 0 0 4.8 1.4 5.3 2.1 0 0-1.5-5.6-4.1-8.4 0 0 4.4 1.7 5.3 9.1l4.5 2.7s-1.6-7.5-3.7-10.1c0 0 4.2 2.4 4.8 10.9l4 3.3s-.8-6.6-2.6-10c0 0 3.4 3.1 3.7 11l2.4 2.5s-.7-4.8-1-6.1 0-1.5 0-1.5c1.5 2.7 2.2 5.7 2 8.7-.3-.1 4.2 5.3 4.6 5zm-234.4 82.6s-20.4-32.2-39.4-12.9c0 0-4.3 2-3.6 6.8 0 0 1.7-1.1 3.3 2.4.6 1.2 1.4 2.4 2.3 3.5 1.2 1.4 2.8 2.5 4.7 2.9 0 0 9.8 6.1 26.5-.8 0 0 4.9.3 5.6-.4l-6-3.6s-2.5 4.5-6.6 5.4c0 0 6.6-5 5.7-5.9-.2-.2-3.3-1.8-3.3-1.8s-4.3 7.8-10.8 8.9c0 0 8.7-5 9.6-9.5l-4.8-2.1s-4.2 8.5-11.4 10c0 0 8.9-5.5 10.3-10.4l-5-1.4s-4.2 8.2-10.3 9.4c0 0 9.6-7.4 9.1-9.7 0 0-4.7-1-6-.7 0 0-3.2 5.8-6.8 6.2 0 0 5.9-5.6 5.4-6.4 0 0-6.4.3-9.6 2.1 2.9-1.8 6.1-2.9 9.5-3.1a11.13 11.13 0 0 0-5.5-2.8s3.4-1.8 7 2.7c0 0 5 0 5.7.5 0 0-3-5-6.3-6.9 0 0 4.7.4 7.6 7.2l5 1.3s-3.6-6.8-6.4-8.7c0 0 4.7 1.1 7.7 9.1l4.7 2s-2.7-6-5.3-8.9c0 0 4.2 2 6.7 9.5l3 1.7s-2-4.4-2.7-5.6-.4-1.5-.4-1.5c2.2 2.1 3.7 4.8 4.4 7.8.1 0 6.1 4 6.4 3.7z" class="Q R"/><path d="M393 164.1s-19.4-32.8-39-14.1c0 0-4.4 1.9-3.8 6.6 0 0 1.7-1.1 3.3 2.5.6 1.3 1.3 2.5 2.2 3.5 1.1 1.5 2.8 2.5 4.6 3 0 0 9.7 6.4 26.5 0 0 0 4.9.4 5.6-.2l-5.9-3.8s-2.6 4.4-6.8 5.1c0 0 6.8-4.8 5.9-5.7-.2-.2-3.2-1.9-3.2-1.9s-4.6 7.6-11 8.6c0 0 8.8-4.7 9.9-9.2l-4.7-2.2s-4.4 8.3-11.7 9.7c0 0 9.1-5.2 10.7-10.1l-4.9-1.6s-4.5 8-10.6 9.1c0 0 9.9-7.1 9.4-9.4 0 0-4.6-1.2-6-.9 0 0-3.3 5.7-6.9 6 0 0 6.1-5.4 5.6-6.2 0 0-6.4.1-9.7 1.8 2.9-1.8 6.2-2.7 9.6-2.8-1.5-1.5-3.4-2.5-5.4-2.9 0 0 3.5-1.7 7 2.9 0 0 5 .2 5.7.7 0 0-2.8-5-6.1-7.1 0 0 4.7.5 7.4 7.4l5 1.5s-3.4-6.9-6.2-8.9c0 0 4.7 1.3 7.4 9.4l4.7 2.2s-2.5-6.1-5-9c0 0 4.1 2.1 6.4 9.7l2.9 1.8-2.5-5.7c-.6-1.3-.4-1.5-.4-1.5 2.1 2.2 3.5 4.9 4.2 7.9-.2.1 5.6 4.2 5.8 3.8zm-122.9 69s1-38.1-25.5-32.7c0 0-4.7-.7-6.7 3.6 0 0 2 0 1.4 3.9-.2 1.4-.2 2.8-.1 4.1.2 1.9 1 3.6 2.3 5 0 0 4.8 10.5 22.4 14.1 0 0 3.9 3 4.9 2.8l-3-6.3s-4.5 2.3-8.5.8c0 0 8.3-.5 8.1-1.7 0-.3-1.7-3.3-1.7-3.3s-7.9 4-13.9 1.4c0 0 10 .8 13.3-2.5l-2.8-4.4s-8.2 4.7-15.1 1.9c0 0 10.5.4 14.4-2.9l-3.3-4s-8.1 4.4-13.8 2.1c0 0 12.1-.7 13-2.9 0 0-3.3-3.5-4.6-4 0 0-5.9 3-9.1 1.4 0 0 8-1.3 8-2.2 0 0-5.5-3.4-9.2-3.6 3.4.1 6.7 1 9.7 2.8-.5-2-1.5-3.9-3-5.4 0 0 3.8.4 4.3 6.2 0 0 4.2 2.8 4.4 3.6 0 0 .3-5.8-1.4-9.2 0 0 3.7 3 2.3 10.2l3.4 3.9s.8-7.6-.5-10.8c0 0 3.3 3.6 1.3 11.9l2.8 4.3s1.2-6.5.5-10.3c0 0 2.3 4 .2 11.6l1.5 3.1s.8-4.8.9-6.2.5-1.5.5-1.5c.6 3 .4 6.1-.7 8.9.2-.2 2.9 6.4 3.3 6.3z"/><path d="M527.6 106.9c-57.7-2-112.6-20.6-165.1-41S258 22.9 201.7 12.1C165.5 5.2 124 4.2 94.9 23.6c-28.1 18.7-37.2 50.9-42 80.9-3.8 22.5-5.9 46.2 4.1 67.3 7 14.6 19.4 26.9 28 41 29.8 48.8 8.7 108.9-23.6 156.6-15.2 22.3-32.8 43.7-44.5 67.4C5.2 460.6-.2 487.9 10 512.2c10.1 24.1 34.3 42.1 60.5 54.8 53.2 25.8 115.9 33.2 177.1 37.4 135.4 9.3 271.4 5.3 407.1 1.2 50.2-1.5 100.7-3 150.1-10.8 27.4-4.3 55.8-11.2 75.7-27.7 25.3-21 31.6-56.5 14.6-82.8-28.4-44.1-107-55.1-126.9-102.4-10.9-26.1.3-55.1 16.2-79.3 34.1-51.9 91.2-97.4 94.2-156.6 2.1-40.7-25.4-81.5-67.9-100.7C766.3 25.1 704.6 27.6 671.8 61c-33.9 34.4-93.3 47.6-144.2 45.9z" class="Q R"/></g><defs ><path id="C" d="M601.9 561.9s2.7 29.2-10.6 32.7-.9 17.7 9.7 15 49.5-16.8 52.2-38-26.5-28.3-26.5-28.3l-24.8 18.6z"/><path id="D" d="M609 419.6s-16.8 13.2-30.7 16.4c-8.2 1.8-16.2 4.6-23.8 8.3l-31.8 16.2c-5.9 3-9.8 8.7-10.5 15.2-.9 9 2.7 20.8 24.3 27.9l68.1 56.6 21.2-17.7-72.5-55.7 55.7-34.5v-32.7z"/><path id="E" d="M599.3 360.4s-32.7.9-55.7-16.8-48.6-12.4-43.3-1.8 32.7 19.5 37.1 20.3 68.1 18.6 68.1 18.6l-6.2-20.3z"/><path id="F" d="M641.7 299.4s-20.3 2.6-17.7 32.7 6.2 32.7 6.2 32.7 30.1-2.6 33.6-3.5 1.8-33.6 1.8-33.6-.9-29.2-23.9-28.3z"/><path id="G" d="M617.2 239c-5 3.2-5.1 10.4-1.8 15.4s8.8 8.3 14.1 11.4c1.5.9 3.3 1.8 5 1.6 1.3-.3 2.6-.9 3.6-1.8 3.7-2.9 7.3-6 10.7-9.4 4.9-4.8 9.5-10.7 8.8-17.3-.9-7.6-8.3-13.3-11.4-20.4-2.5-6-1.8-12.7-4-18.9s-10-11.8-15.8-8.6c-2.2 1.2-3.5 3.3-5.3 4.9-4.5 3.9-11.7 4.3-17.8 2.5s-7.9-9.1-16.4-9.2c4.2 1.5 7.1 5.9 6.4 9.9-3.4 1.9-7.9.8-12 .8s-9 2.2-8.3 5.9c.6 3 5 5.2 4.3 8.2-7.5 4-15.7 6.5-24.1 7.4-1.5.2 9.2 9.1 10.4 9.7 4.5 2.1 9.8 3.7 14.6 5.4 12.9 4.4 26 6 39 2.5z"/></defs></svg>