<svg xmlns="http://www.w3.org/2000/svg" width="1009.5" height="789.9"><style><![CDATA[.H{enable-background:new}.I{opacity:.1}.J{fill:#ffa84c}]]></style><g class="J"><ellipse cx="354.1" cy="741.3" rx="176.1" ry="33.4" class="H I"/><path d="M586.6 111.4c-64.7-2.2-126.4-23.1-185.2-46S284.2 17.2 221 5.1C180.4-2.7 133.9-3.8 101.2 18 69.7 39 59.5 75.1 54 108.7c-4.1 25.3-6.5 51.9 4.7 75.5 7.8 16.4 21.7 30.2 31.4 46 33.5 54.7 9.8 122.2-26.4 175.6-17 25.1-36.8 49-49.9 75.6C.6 508.1-5.4 538.7 6.1 566c11.4 27 38.5 47.2 67.9 61.5 59.7 29 130 37.2 198.6 41.9 151.8 10.4 304.5 5.9 456.7 1.4 56.3-1.7 112.9-3.3 168.3-12.1 30.8-4.8 62.6-12.5 84.9-31.1 28.4-23.5 35.4-63.4 16.4-92.9-31.9-49.5-120-61.8-142.3-114.9-12.3-29.2.3-61.8 18.2-88.9 38.2-58.2 102.3-109.2 105.7-175.7 2.3-45.7-28.5-91.4-76.1-113-49.9-22.7-119.2-19.8-156 17.7-38 38.6-104.7 53.5-161.8 51.5z" class="H I"/><path d="M286.9 407.2l181.5-29.5v171.9l-172.5-9.1z"/></g><path d="M286.9 407.2l181.5-29.5v171.9l-172.5-9.1z" opacity=".05" class="H"/><path d="M468.4 377.7L686.1 394l-12 149.5-205.7 6.1z" class="J"/><path d="M468.4 377.7L686.1 394l-12 149.5-205.7 6.1z" class="H I"/><g class="J"><path d="M535.4 325.2l-67 52.5L686.1 394l35.6-53.7z"/><path d="M221.1 349.9L384.6 330l83.8 47.7-181.5 29.5z"/><path d="M508.2 422.3v235l-85-8.7-37-3.8-11.3-1.2-37-3.8-51-5.2V407.2l181.5 12.4z"/><path d="M686.1 394v229.1L618 636.2l-33.2 6.4-76.6 14.7v-235z"/></g><path d="M686.1 394v229.1L618 636.2l-33.2 6.4-76.6 14.7v-235z" opacity=".05" class="H"/><path d="M221.1 456.7l65.8-49.5 221.3 15.1-32.6 54.9z" class="J"/><path d="M221.1 456.7l65.8-49.5 221.3 15.1-32.6 54.9z" fill="#fff" class="H I"/><path d="M686.1 394l-177.9 28.3 57.9 51.9 190.6-32z" class="J"/><path d="M686.1 394l-177.9 28.3 57.9 51.9 190.6-32zM618 636.2l-33.2 6.4v-49l31.1-7.8zm-194.8-20v32.4l-37-3.8v-28.6zm-48.3 10.2v17.2l-37-3.8v-13.4z" class="I H" fill="#fff"/><g class="J"><path d="M653.8 112.4s-38-2.3-33.6 24.4c0 0-.9 4.7 3.4 6.9 0 0 .1-2 3.9-1.3 1.4.2 2.8.3 4.1.2 1.9-.1 3.6-.9 5.1-2.1 0 0 10.7-4.4 14.8-21.9 0 0 3.1-3.8 3-4.8l-6.4 2.8s2.2 4.6.5 8.5c0 0-.2-8.3-1.4-8.1-.3 0-3.3 1.6-3.3 1.6s3.8 8.1.9 13.9c0 0 1.1-9.9-2.1-13.4l-4.5 2.6s4.4 8.3 1.4 15.1c0 0 .8-10.4-2.4-14.5l-4.1 3.2s4.2 8.2 1.6 13.9c0 0-.3-12.1-2.5-13.1 0 0-3.6 3.2-4.1 4.5 0 0 2.8 6 1.1 9.1 0 0-1.1-8.1-2-8.1 0 0-3.6 5.4-3.9 9 .2-3.4 1.2-6.7 3.1-9.5a11.13 11.13 0 0 0-5.5 2.8s.5-3.8 6.3-4.1c0 0 3-4.1 3.7-4.3 0 0-5.8-.5-9.3 1.1 0 0 3.1-3.6 10.3-2l4-3.3s-7.6-1-10.8.1c0 0 3.7-3.2 11.9-.9l4.4-2.6s-6.5-1.4-10.3-.9c0 0 4.1-2.2 11.6.2l3.2-1.4-6.1-1.1c-1.4-.2-1.5-.5-1.5-.5 3-.5 6.1-.2 8.9 1 0-.2 6.7-2.6 6.6-3z"/><path d="M769.2 245.7s-38-2.3-33.6 24.4c0 0-.9 4.7 3.4 6.9 0 0 .1-2 3.9-1.3 1.4.2 2.8.3 4.1.2 1.8-.1 3.6-.9 5-2.1 0 0 10.7-4.4 14.9-21.9 0 0 3.1-3.8 3-4.8l-6.4 2.7s2.2 4.6.5 8.5c0 0-.2-8.3-1.4-8.1-.3 0-3.3 1.6-3.3 1.6s3.8 8.1.9 13.9c0 0 1.1-9.9-2.1-13.4l-4.5 2.6s4.4 8.3 1.4 15.1c0 0 .8-10.4-2.4-14.5l-4.1 3.2s4.1 8.2 1.6 13.9c0 0-.3-12.1-2.5-13.1 0 0-3.6 3.2-4.1 4.5 0 0 2.8 6 1.1 9.1 0 0-1.1-8.1-2-8.1 0 0-3.6 5.4-3.9 9 .2-3.4 1.2-6.7 3.1-9.5a11.13 11.13 0 0 0-5.5 2.8s.6-3.8 6.3-4.1c0 0 3-4.1 3.7-4.3 0 0-5.8-.5-9.3 1.1 0 0 3.1-3.6 10.3-2l4-3.3s-7.6-1-10.8.1c0 0 3.7-3.2 11.9-.9l4.4-2.6s-6.5-1.4-10.3-.9c0 0 4.1-2.2 11.6.2l3.2-1.4-6.1-1.1c-1.4-.2-1.5-.5-1.5-.5 3-.5 6.1-.2 8.9 1 0 0 6.8-2.5 6.6-2.9zm-230.8-23.6s8.8-37.1-18.3-37.2c0 0-4.5-1.7-7.3 2.2 0 0 1.9.4.6 4.1a13.67 13.67 0 0 0-.9 4 8.19 8.19 0 0 0 1.2 5.3s2.5 11.3 19 18.4c0 0 3.2 3.7 4.2 3.7l-1.6-6.8s-4.9 1.4-8.4-1c0 0 8.2 1.2 8.2 0 0-.3-1-3.6-1-3.6s-8.6 2.3-13.9-1.5c0 0 9.6 2.8 13.5.2l-1.8-4.9s-9 2.9-15.2-1.2c0 0 10.2 2.5 14.7.1l-2.5-4.6s-8.8 2.7-13.9-.8c0 0 12 1.7 13.3-.2 0 0-2.5-4.1-3.7-4.8 0 0-6.4 1.8-9.2-.5 0 0 8.2.3 8.3-.6 0 0-4.7-4.4-8.2-5.4 3.3.8 6.4 2.4 8.9 4.7 0-2.1-.7-4.1-1.9-5.9 0 0 3.6 1.2 3 7 0 0 3.5 3.6 3.6 4.4 0 0 1.5-5.6.5-9.3 0 0 3 3.6.2 10.5l2.6 4.6s2.3-7.3 1.7-10.7c0 0 2.5 4.2-1.2 11.9l1.8 4.8s2.5-6.1 2.6-10c0 0 1.5 4.4-2.2 11.4l.9 3.3s1.7-4.5 2.1-5.9.8-1.4.8-1.4c0 3-.9 6-2.5 8.6.2.1 1.6 7.1 2 7.1zm-83.2 12.6s-30.5-22.8-41.4 1.9c0 0-3.3 3.5-.9 7.6 0 0 1.1-1.6 4 1.1 1 .9 2.1 1.8 3.3 2.4 1.6.9 3.5 1.3 5.4 1 0 0 11.4 2.2 24.4-10.1 0 0 4.7-1.5 5.1-2.4l-6.9-1.2s-.7 5.1-4.3 7.3c0 0 4.4-7.1 3.3-7.6-.2-.1-3.7-.5-3.7-.5s-1.3 8.8-6.9 12.1c0 0 6.4-7.7 5.6-12.3l-5.2-.3s-.9 9.4-7.1 13.4c0 0 6.4-8.3 6-13.4l-5.2.4s-1 9.1-6.3 12.5c0 0 6.4-10.3 5.1-12.3 0 0-4.7.7-5.9 1.5 0 0-.9 6.5-4.1 8.2 0 0 3.5-7.4 2.8-7.9 0 0-5.9 2.5-8.3 5.4 2-2.7 4.7-4.9 7.8-6.3-1.9-.8-4.1-1-6.1-.6 0 0 2.5-2.9 7.6 0 0 0 4.7-1.8 5.5-1.5 0 0-4.5-3.6-8.3-4.2 0 0 4.5-1.3 9.7 4l5.2-.5s-5.8-5-9.1-5.8c0 0 4.8-.6 10.4 5.8l5.1.2s-4.6-4.7-8.1-6.4c0 0 4.6.4 9.6 6.5l3.4.5-4.5-4.3c-1-.9-.9-1.3-.9-1.3a16 16 0 0 1 6.9 5.7c-.1.2 6.8 1.8 7 1.4zM556.8 22.6s-30.5-22.8-41.4 1.9c0 0-3.3 3.4-.9 7.6 0 0 1.1-1.6 4 1.1 1 .9 2.1 1.8 3.3 2.4 1.6.9 3.5 1.3 5.4 1 0 0 11.4 2.2 24.4-10.1 0 0 4.7-1.5 5.1-2.4l-6.9-1.2s-.7 5.1-4.3 7.3c0 0 4.4-7.1 3.3-7.6-.2-.1-3.7-.5-3.7-.5s-1.3 8.8-6.9 12.2c0 0 6.4-7.7 5.6-12.3l-5.2-.3s-.9 9.4-7.1 13.4c0 0 6.4-8.3 6-13.4l-5.2.4s-1.1 9.1-6.3 12.5c0 0 6.4-10.3 5.1-12.3 0 0-4.7.7-5.9 1.4 0 0-.9 6.5-4.1 8.2 0 0 3.5-7.3 2.8-7.9 0 0-5.9 2.5-8.3 5.4 2-2.7 4.7-4.9 7.8-6.3-1.9-.8-4.1-1-6.1-.6 0 0 2.5-2.9 7.6.1 0 0 4.7-1.8 5.5-1.6 0 0-4.5-3.6-8.3-4.2 0 0 4.5-1.3 9.7 4l5.2-.5s-5.8-5-9.1-5.8c0 0 4.8-.6 10.4 5.8l5.1.2s-4.6-4.7-8.1-6.4c0 0 4.6.4 9.6 6.5l3.4.6-4.5-4.2c-1-.9-.9-1.2-.9-1.2a16 16 0 0 1 6.9 5.7c-.1 0 6.8 1.5 7 1.1zm116.6 28.9s-12.2-36.1-35.2-21.9c0 0-4.7 1-5.1 5.7 0 0 1.8-.7 2.7 3.1.3 1.4.8 2.7 1.4 3.9.8 1.7 2.2 3 3.8 3.9 0 0 8.1 8.3 25.9 5.5 0 0 4.7 1.4 5.5.9l-5-4.9s-3.5 3.8-7.7 3.6c0 0 7.6-3.3 7-4.4-.1-.2-2.7-2.5-2.7-2.5s-6.1 6.5-12.6 6.1c0 0 9.6-2.7 11.6-7l-4.1-3.2s-6.1 7.2-13.5 7c0 0 10-3.2 12.5-7.7l-4.5-2.6s-6 6.9-12.2 6.7c0 0 11.1-4.9 11.2-7.2 0 0-4.3-2.1-5.7-2.2 0 0-4.5 4.9-8 4.4 0 0 7.1-4.1 6.8-4.9 0 0-6.3-1.3-9.8-.3 3.2-1.1 6.7-1.4 10-.8-1.1-1.8-2.8-3.2-4.7-4 0 0 3.7-.9 6.2 4.3 0 0 4.9 1.2 5.4 1.8 0 0-1.7-5.5-4.5-8.2 0 0 4.5 1.5 5.7 8.8l4.6 2.5s-1.9-7.4-4.2-10c0 0 4.3 2.2 5.3 10.7l4.1 3.1s-1.1-6.5-3.1-9.9c0 0 3.6 2.9 4.2 10.8l2.5 2.4s-.9-4.7-1.3-6.1-.1-1.4-.1-1.4c1.6 2.6 2.4 5.6 2.4 8.6 0 .5 4.8 5.7 5.2 5.4zm-79.6 1.8S555.9 49.1 559 76c0 0-1.1 4.7 3 7 0 0 .2-2 4-1.1 1.4.3 2.7.4 4.1.4 1.9 0 3.7-.7 5.2-1.8 0 0 10.9-3.9 16-21.1 0 0 3.3-3.7 3.2-4.6l-6.5 2.4s2 4.7 0 8.5c0 0 .2-8.3-1-8.2-.3 0-3.4 1.4-3.4 1.4s3.4 8.3.2 14c0 0 1.6-9.9-1.4-13.4l-4.7 2.4s4 8.6.7 15.2c0 0 1.3-10.4-1.6-14.6l-4.3 3s3.7 8.4.9 13.9c0 0 .3-12.1-1.8-13.2 0 0-3.7 3-4.3 4.2 0 0 2.5 6.1.6 9.2 0 0-.7-8.1-1.5-8.2 0 0-3.8 5.2-4.4 8.8.3-3.4 1.6-6.6 3.6-9.4-2.1.3-4 1.2-5.6 2.5 0 0 .7-3.8 6.5-3.8 0 0 3.2-3.9 4-4.1 0 0-5.7-.8-9.3.6 0 0 3.3-3.4 10.4-1.4l4.2-3.1S568.2 60 565 61c0 0 3.9-3 11.9-.3l4.5-2.4s-6.4-1.7-10.3-1.4c0 0 4.2-2 11.6.8l3.2-1.3s-4.7-1.2-6.1-1.4-1.4-.6-1.4-.6c3-.3 6.1.2 8.8 1.4-.1.1 6.6-2.1 6.6-2.5zm331.6 294.2s-37.9-4.2-34.8 22.6c0 0-1.1 4.7 3 7 0 0 .2-2 4-1.1 1.4.3 2.7.4 4.1.4 1.9 0 3.7-.7 5.2-1.8 0 0 10.9-3.9 16-21.1 0 0 3.3-3.7 3.2-4.6l-6.5 2.4s2 4.7 0 8.5c0 0 .2-8.3-1-8.2-.3 0-3.4 1.4-3.4 1.4s3.4 8.3.2 14c0 0 1.6-9.9-1.4-13.4l-4.7 2.4s4 8.5.7 15.2c0 0 1.3-10.4-1.6-14.6l-4.3 3s3.7 8.4.9 13.9c0 0 .3-12.1-1.8-13.2 0 0-3.7 3-4.3 4.2 0 0 2.5 6.1.6 9.1 0 0-.7-8.1-1.5-8.2 0 0-3.8 5.2-4.4 8.8.3-3.4 1.6-6.6 3.6-9.4-2.1.3-4 1.2-5.6 2.5 0 0 .7-3.8 6.5-3.8 0 0 3.2-3.9 4-4.1 0 0-5.7-.8-9.3.6 0 0 3.3-3.4 10.4-1.4l4.2-3.1s-7.5-1.4-10.8-.4c0 0 3.9-3 11.9-.3l4.5-2.4s-6.4-1.7-10.3-1.4c0 0 4.2-2 11.6.8l3.2-1.3s-4.7-1.2-6.1-1.4-1.4-.6-1.4-.6a15.66 15.66 0 0 1 8.8 1.4c-.1.2 6.7-2 6.6-2.4zm57.9 35.4s-37.9-4.2-34.8 22.6c0 0-1.1 4.7 3 7 0 0 .2-2 4-1.1 1.3.3 2.7.4 4.1.4 1.9 0 3.7-.7 5.1-1.8 0 0 10.9-3.9 15.9-21.1 0 0 3.3-3.6 3.2-4.6l-6.6 2.4s2 4.7 0 8.5c0 0 .2-8.3-1-8.2-.3 0-3.4 1.4-3.4 1.4s3.4 8.3.2 14c0 0 1.6-9.9-1.4-13.4l-4.7 2.4s4 8.5.7 15.2c0 0 1.3-10.4-1.6-14.6l-4.3 3s3.7 8.4.9 13.9c0 0 .3-12.1-1.8-13.2 0 0-3.7 3-4.3 4.2 0 0 2.5 6.1.6 9.1 0 0-.7-8.1-1.6-8.2 0 0-3.8 5.2-4.4 8.8.3-3.4 1.6-6.6 3.6-9.4-2.1.3-4 1.2-5.6 2.5 0 0 .8-3.8 6.6-3.8 0 0 3.2-3.9 4-4.1 0 0-5.7-.8-9.3.6 0 0 3.3-3.4 10.4-1.4l4.2-3.1s-7.5-1.4-10.8-.4c0 0 3.9-3 11.9-.3l4.5-2.4s-6.4-1.7-10.3-1.4c0 0 4.2-2 11.6.8l3.2-1.3s-4.7-1.2-6.1-1.4-1.4-.6-1.4-.6c3-.3 6.1.2 8.8 1.4.2.2 7-2 6.9-2.4zM854.7 84.8s-30.5-22.8-41.4 1.9c0 0-3.3 3.4-.9 7.6 0 0 1.1-1.6 4 1.1 1 .9 2.1 1.8 3.3 2.4 1.6.9 3.5 1.3 5.4 1 0 0 11.4 2.2 24.5-10.1 0 0 4.7-1.5 5.1-2.4l-6.9-1.2s-.7 5.1-4.3 7.3c0 0 4.4-7.1 3.3-7.6-.2-.1-3.7-.5-3.7-.5s-1.3 8.8-6.9 12.1c0 0 6.4-7.7 5.6-12.3l-5.2-.3s-.9 9.4-7.1 13.4c0 0 6.4-8.3 6-13.4l-5.2.4s-1 9.1-6.3 12.4c0 0 6.4-10.3 5.1-12.3 0 0-4.7.7-5.9 1.4 0 0-.9 6.5-4.1 8.2 0 0 3.5-7.4 2.8-7.9 0 0-5.9 2.5-8.3 5.4 2-2.7 4.7-4.9 7.8-6.3-1.9-.8-4.1-1-6.1-.6 0 0 2.5-2.9 7.6.1 0 0 4.7-1.8 5.5-1.6 0 0-4.5-3.6-8.3-4.2 0 0 4.5-1.3 9.7 4l5.2-.5s-5.8-5-9.1-5.8c0 0 4.8-.6 10.4 5.8l5.1.2s-4.6-4.7-8.1-6.4c0 0 4.6.4 9.6 6.5l3.4.6-4.5-4.3c-1-.9-.9-1.2-.9-1.2a16 16 0 0 1 6.9 5.7c-.1.3 6.8 1.9 6.9 1.4zm23.6 164.9s-10.5-36.6-34.2-23.5c0 0-4.7.7-5.3 5.5 0 0 1.9-.6 2.5 3.2.2 1.4.6 2.7 1.2 4 .7 1.7 2 3.2 3.7 4.1 0 0 7.7 8.6 25.6 6.7 0 0 4.6 1.6 5.5 1.2l-4.7-5.1s-3.6 3.6-7.8 3.3c0 0 7.8-3 7.2-4.1-.1-.2-2.6-2.6-2.6-2.6s-6.3 6.3-12.8 5.5c0 0 9.7-2.3 11.9-6.4l-4-3.4s-6.4 6.9-13.8 6.4c0 0 10.1-2.8 12.9-7.1l-4.4-2.8s-6.3 6.6-12.5 6.1c0 0 11.3-4.4 11.5-6.7 0 0-4.2-2.3-5.6-2.4 0 0-4.7 4.7-8.2 4.1 0 0 7.3-3.7 7-4.6 0 0-6.2-1.6-9.8-.7a18.88 18.88 0 0 1 10-.3c-1.1-1.8-2.6-3.3-4.5-4.2 0 0 3.8-.8 6 4.6 0 0 4.8 1.4 5.3 2.1 0 0-1.5-5.6-4.1-8.4 0 0 4.4 1.7 5.3 9.1l4.5 2.7s-1.6-7.5-3.7-10.1c0 0 4.2 2.4 4.8 10.9l4 3.3s-.8-6.6-2.6-10c0 0 3.4 3.1 3.7 11l2.4 2.5s-.7-4.8-1-6.1 0-1.5 0-1.5c1.5 2.7 2.2 5.7 2 8.7-.3-.2 4.2 5.2 4.6 5zm-234.4 82.5s-20.4-32.2-39.4-12.9c0 0-4.3 2-3.6 6.8 0 0 1.7-1.1 3.3 2.4.6 1.2 1.4 2.4 2.3 3.5 1.2 1.4 2.8 2.5 4.7 2.9 0 0 9.8 6.1 26.5-.8 0 0 4.9.3 5.6-.4l-6-3.6s-2.5 4.5-6.6 5.4c0 0 6.6-5 5.7-5.9-.2-.2-3.3-1.8-3.3-1.8s-4.3 7.8-10.8 8.9c0 0 8.7-5 9.6-9.5l-4.8-2.1s-4.2 8.5-11.4 10c0 0 8.9-5.5 10.3-10.4l-5-1.4s-4.2 8.2-10.3 9.4c0 0 9.6-7.4 9.1-9.7 0 0-4.7-1-6-.7 0 0-3.2 5.8-6.8 6.2 0 0 5.9-5.6 5.4-6.4 0 0-6.4.3-9.6 2.1 2.9-1.8 6.1-2.9 9.5-3.1a11.13 11.13 0 0 0-5.5-2.8s3.4-1.8 7 2.7c0 0 5 0 5.7.5 0 0-3-5-6.3-6.9 0 0 4.7.4 7.6 7.2l5 1.3s-3.6-6.8-6.4-8.7c0 0 4.7 1.1 7.7 9.1l4.7 2s-2.7-6-5.3-8.9c0 0 4.2 2 6.7 9.5l3 1.7s-2-4.4-2.7-5.6-.4-1.5-.4-1.5c2.2 2.1 3.7 4.8 4.4 7.8.1.1 6.1 4 6.4 3.7z" class="H I"/><path d="M778.1 167.8s-19.4-32.8-39-14.1c0 0-4.4 1.9-3.8 6.6 0 0 1.7-1.1 3.3 2.5.6 1.3 1.3 2.5 2.2 3.5 1.1 1.5 2.8 2.5 4.6 3 0 0 9.7 6.4 26.5 0 0 0 4.9.4 5.6-.2l-5.9-3.8s-2.6 4.4-6.8 5.1c0 0 6.8-4.8 5.9-5.7-.2-.2-3.2-1.9-3.2-1.9s-4.6 7.6-11 8.6c0 0 8.8-4.7 9.9-9.2l-4.7-2.2s-4.4 8.3-11.7 9.7c0 0 9.1-5.2 10.7-10.1l-4.9-1.6s-4.5 8-10.6 9.1c0 0 9.9-7.1 9.4-9.4 0 0-4.6-1.2-6-.9 0 0-3.3 5.7-6.9 6 0 0 6.1-5.4 5.6-6.2 0 0-6.4.1-9.7 1.8 2.9-1.8 6.2-2.7 9.6-2.8-1.5-1.5-3.4-2.5-5.4-2.9 0 0 3.5-1.7 7 2.9 0 0 5 .2 5.7.7 0 0-2.8-5-6.1-7.1 0 0 4.7.5 7.4 7.4l5 1.5s-3.4-6.9-6.2-8.9c0 0 4.7 1.3 7.4 9.4l4.7 2.2s-2.5-6.1-5-9c0 0 4.1 2.1 6.4 9.7l2.9 1.8-2.5-5.7c-.6-1.3-.4-1.5-.4-1.5 2.1 2.2 3.5 4.9 4.2 7.9-.2 0 5.6 4.1 5.8 3.8zm-122.9 68.9s1-38.1-25.5-32.7c0 0-4.7-.7-6.7 3.6 0 0 2 0 1.4 3.9-.2 1.4-.2 2.8-.1 4.1.2 1.9 1 3.6 2.3 5 0 0 4.8 10.5 22.4 14.1 0 0 3.9 3 4.9 2.8l-3-6.3s-4.5 2.3-8.5.8c0 0 8.3-.5 8.1-1.7 0-.3-1.7-3.3-1.7-3.3s-7.9 4-13.9 1.4c0 0 10 .8 13.3-2.5l-2.8-4.4s-8.2 4.7-15.1 1.9c0 0 10.5.4 14.4-2.9l-3.3-4s-8.1 4.4-13.8 2.1c0 0 12.1-.7 13-2.9 0 0-3.3-3.5-4.6-4 0 0-5.9 3-9.1 1.4 0 0 8-1.3 8-2.2 0 0-5.5-3.4-9.2-3.6 3.4.1 6.7 1 9.7 2.8-.5-2-1.5-3.9-3-5.4 0 0 3.8.4 4.3 6.2 0 0 4.2 2.8 4.4 3.6 0 0 .3-5.8-1.4-9.2 0 0 3.7 3 2.3 10.2l3.4 3.9s.8-7.6-.5-10.8c0 0 3.3 3.6 1.3 11.9l2.8 4.3s1.2-6.5.5-10.3c0 0 2.3 4 .2 11.6l1.5 3.1s.8-4.8.9-6.2.5-1.5.5-1.5c.6 3 .4 6.1-.7 8.9.2-.1 2.9 6.5 3.3 6.3z"/><ellipse cx="699" cy="716.3" rx="26.9" ry="4.5" class="H I"/><ellipse cx="600.8" cy="785.4" rx="26.9" ry="4.5" class="H I"/><ellipse cx="93.1" cy="750" rx="26.9" ry="4.5" class="H I"/><ellipse cx="805.1" cy="780.8" rx="26.9" ry="4.5" class="H I"/><ellipse cx="833.1" cy="723.1" rx="40.2" ry="6.8"/><path d="M849.8 712c1.8-1.5 3.2-3.5 3.8-5.8.5-2.3-.5-5-2.7-5.9-2.5-.9-5.1.8-7.1 2.5s-4.3 3.7-6.9 3.3c2.7-2.5 4-6.2 3.2-9.8-.1-.7-.4-1.4-.9-2-1.4-1.5-3.8-.8-5.5.3-5.2 3.7-6.7 10.7-6.7 17.1-.5-2.3-.1-4.7-.1-7s-.7-5-2.7-6.2c-1.2-.7-2.6-1-4-1-2.3-.1-5 .2-6.5 1.9-2 2.1-1.5 5.7.3 8 1.7 2.3 4.3 3.8 6.8 5.4 1.9 1.2 3.6 2.7 4.8 4.6.1.3.3.5.3.8h14.7c3.4-1.7 6.5-3.8 9.2-6.2z"/></g><path d="M75.1 728.8s15.4-.5 20-3.8 23.6-7.2 24.8-1.9c1.1 5.3 23.1 26.3 5.7 26.4s-40.3-2.7-44.9-5.5c-4.7-2.8-5.6-15.2-5.6-15.2z" fill="#a8a8a8"/><path d="M125.9 747.7c-17.3.1-40.3-2.7-44.9-5.5-3.5-2.1-4.9-9.8-5.4-13.4h-.5s1 12.4 5.6 15.2 27.6 5.7 44.9 5.5c5 0 6.7-1.8 6.6-4.5-.7 1.7-2.6 2.7-6.3 2.7z" opacity=".2" class="H"/></svg>