<svg xmlns="http://www.w3.org/2000/svg" width="1105.615" height="981.038" viewBox="0 0 1105.615 981.038">
  <g id="Group_862" data-name="Group 862" transform="translate(1464.838 -2509.877)">
    <g id="Group_10" data-name="Group 10" transform="translate(-1464.838 2509.877)">
      <g id="Group_6" data-name="Group 6" transform="translate(0 0)">
        <path id="Path_21" data-name="Path 21" d="M56.67,492.56C72.307,548.739,105.416,597.3,157.748,620.834c108.75,48.92,354.019,23.69,537.059-5.275,94.635-14.976,177.9-56.292,238.354-114.49Z" transform="translate(-47.328 179.105)" fill="#fff" opacity="0.1"/>
        <path id="Path_22" data-name="Path 22" d="M1010.345,194.663H910.919c-3.017.175-5.848-2.528-7.387-7.051a23.893,23.893,0,0,1,0-14.669c1.538-4.523,4.37-7.226,7.387-7.051H928.1c-3.017.175-5.849-2.528-7.387-7.051a23.893,23.893,0,0,1,0-14.669c1.538-4.523,4.37-7.226,7.387-7.051H915.827c-3.017.175-5.849-2.528-7.387-7.051a23.893,23.893,0,0,1,0-14.669c1.538-4.523,4.37-7.226,7.387-7.051h51.9a98.547,98.547,0,0,0-40.532-18.675c-141.451-30.427-191.979-10.3-209.8,10.343-22.028,25.533-46.523,44.315-72.736,53.369-87.31,30.149-250.591,66.428-398.584-11.616-73.554-38.684-128.221,26.822-160.99,136.37h942.532c-1.234-31.84-4.917-61.242-11.675-86.974C1014.364,193.433,1012.386,194.67,1010.345,194.663Z" transform="translate(-53.634 -74.129)" fill="#fff" opacity="0.1"/>
        <path id="Path_23" data-name="Path 23" d="M651.392,417.288l-1.3-.177-13.531-1.7L506.835,399.254l-14.006-1.759L286.271,371.7l-57.892-7.2-9.163-1.134-8.136-1.015L46.8,341.85a1978.647,1978.647,0,0,0,3.86,246.179l138.21,10.765,10.947.879,1.939.136,65.561,5.118,3.526.254,7.554.587,66.109,5.159,9.072.723,31.613,2.4h.591l4.645.372,15.822,1.231h0l13.883,1.074,26.443,2.051h.564l2.353.177,2.5.2h.55l42.142,3.283,11.811.938H507l5.681.449h1.481l5.007.39,15.249,1.219h0l5.738.43,7.351.567h.275l10.1.8,29.211,2.285,8.039.609h.882l38.944,3.029,22.609,1.759,28.206,2.579,4.513.351,7.289.567,26.5,2.073,199.867,15.64c24.207-59.249,44.622-125.6,60.669-197.184ZM275.6,554.057c-2.1.01-4.13-1.655-5.721-4.69h0a22.261,22.261,0,0,1-1.816-4.875,36.5,36.5,0,0,1,.361-18.758,22.8,22.8,0,0,1,.96-2.521c1.643-3.672,3.882-5.728,6.215-5.706h17.188c-3.042.3-5.913-3.125-7.474-8.919a38.374,38.374,0,0,1,0-18.816c1.562-5.795,4.432-9.221,7.474-8.92H280.464a3.608,3.608,0,0,1-.8,0c-4.552-.49-8.062-9.067-7.841-19.157s4.091-17.871,8.642-17.38h99.445c3.1-.553,6.082,2.8,7.71,8.684a38.234,38.234,0,0,1,0,19.169c-1.628,5.881-4.607,9.237-7.71,8.684h12.34c3.047-.318,5.925,3.1,7.492,8.906a38.369,38.369,0,0,1,0,18.844c-1.566,5.8-4.445,9.223-7.492,8.905H375.06c3.041-.309,5.913,3.111,7.475,8.9a38.331,38.331,0,0,1,0,18.81c-1.562,5.792-4.434,9.212-7.475,8.9Z" transform="translate(-44.661 49.868)" fill="#fff" opacity="0.1"/>
        <path id="Path_24" data-name="Path 24" d="M1019.194,207.74,336.145,235.507l-75.074,3.053-191.1,7.733c-11.531,49.664-19.2,105.773-22.729,163.924h955.323c6.226-34.089,10.837-69.007,13.786-104.4C1019.194,271.57,1020.343,238.525,1019.194,207.74ZM239.932,334.224H222.818c4.631-.144,8.459,6.247,8.564,14.3v.87c-.192,4.517-1.6,8.609-3.8,11.036a6.432,6.432,0,0,1-4.744,2.412H123.815c-3,.174-5.824-2.515-7.356-7.013a23.738,23.738,0,0,1,0-14.591c1.532-4.5,4.352-7.187,7.356-7.014h17.113c-3,.174-5.825-2.515-7.357-7.013a23.737,23.737,0,0,1,0-14.591c1.532-4.5,4.352-7.187,7.357-7.013H128.712c-3,.174-5.825-2.515-7.357-7.013a23.737,23.737,0,0,1,0-14.591c1.532-4.5,4.352-7.187,7.357-7.013h99.022c3-.174,5.825,2.515,7.357,7.013a23.737,23.737,0,0,1,0,14.591c-1.532,4.5-4.352,7.188-7.357,7.013h12.224a6.058,6.058,0,0,1,4.063,1.745c2.732,2.4,4.469,7.24,4.5,12.562-.106,8.056-3.932,14.452-8.565,14.317Z" transform="translate(-45.234 -12.618)" fill="#fff" opacity="0.1"/>
      </g>
      <path id="Path_132" data-name="Path 132" d="M458.77,214.372s16.631,23.515,30.236,8.245a4.97,4.97,0,0,0,2.473-5.236s-1.2.9-2.614-1.649a13.584,13.584,0,0,0-1.838-2.531,6.513,6.513,0,0,0-3.619-2h0s-7.66-4.213-19.937,1.592c0,0-3.7,0-4.222.527L463.9,215.8s1.7-3.488,4.782-4.287c0,0-4.807,4.057-4.125,4.691.14.124,2.523,1.2,2.523,1.2s2.976-6.036,7.784-7.132c0,0-6.373,4.065-6.875,7.552l3.686,1.418s2.831-6.538,8.245-7.99c0,0-6.514,4.477-7.421,8.246l3.818.907s2.886-6.324,7.42-7.5c0,0-7,5.937-6.514,7.652,0,0,3.554.619,4.576.324,0,0,2.177-4.486,4.865-4.947,0,0-4.263,4.46-3.859,5,0,0,4.84-.429,7.182-1.946a14.711,14.711,0,0,1-7.083,2.7,8.121,8.121,0,0,0,4.254,1.888s-2.473,1.456-5.426-1.8c0,0-3.793.181-4.312-.162,0,0,2.473,3.619,5,4.947,0,0-3.559-.124-6.027-5.154l-3.859-.824s2.977,4.947,5.17,6.316c0,0-3.611-.684-6.126-6.6l-3.64-1.352s2.243,4.469,4.354,6.506c0,0-3.208-1.36-5.376-6.934l-2.35-1.146s1.69,3.235,2.265,4.125.371,1.113.371,1.113a12.431,12.431,0,0,1-3.619-5.714S458.956,214.073,458.77,214.372Z" transform="translate(-228.916 -2.774)" fill="#3f3d56"/>
      <path id="Path_132-2" data-name="Path 132" d="M458.77,214.372s16.631,23.515,30.236,8.245a4.97,4.97,0,0,0,2.473-5.236s-1.2.9-2.614-1.649a13.584,13.584,0,0,0-1.838-2.531,6.513,6.513,0,0,0-3.619-2h0s-7.66-4.213-19.937,1.592c0,0-3.7,0-4.222.527L463.9,215.8s1.7-3.488,4.782-4.287c0,0-4.807,4.057-4.125,4.691.14.124,2.523,1.2,2.523,1.2s2.976-6.036,7.784-7.132c0,0-6.373,4.065-6.875,7.552l3.686,1.418s2.831-6.538,8.245-7.99c0,0-6.514,4.477-7.421,8.246l3.818.907s2.886-6.324,7.42-7.5c0,0-7,5.937-6.514,7.652,0,0,3.554.619,4.576.324,0,0,2.177-4.486,4.865-4.947,0,0-4.263,4.46-3.859,5,0,0,4.84-.429,7.182-1.946a14.711,14.711,0,0,1-7.083,2.7,8.121,8.121,0,0,0,4.254,1.888s-2.473,1.456-5.426-1.8c0,0-3.793.181-4.312-.162,0,0,2.473,3.619,5,4.947,0,0-3.559-.124-6.027-5.154l-3.859-.824s2.977,4.947,5.17,6.316c0,0-3.611-.684-6.126-6.6l-3.64-1.352s2.243,4.469,4.354,6.506c0,0-3.208-1.36-5.376-6.934l-2.35-1.146s1.69,3.235,2.265,4.125.371,1.113.371,1.113a12.431,12.431,0,0,1-3.619-5.714S458.956,214.073,458.77,214.372Z" transform="translate(168.265 -65.487)" fill="#3f3d56"/>
      <path id="Path_133" data-name="Path 133" d="M420.887,244.337s-27.952-7.083-28.413,13.308a4.9,4.9,0,0,0,1.537,5.565s.33-1.451,3.084-.413a13.186,13.186,0,0,0,3.034.742,6.55,6.55,0,0,0,4.049-.825h0s8.567-1.756,14.141-14.141c0,0,2.831-2.391,2.878-3.141l-5.154,1.121s.965,3.752-.824,6.365c0,0,1.022-6.2.081-6.233-.189,0-2.7.717-2.7.717s1.649,6.53-1.294,10.479c0,0,2.218-7.231.338-10.216l-3.735,1.319s2.086,6.811-1.1,11.436c0,0,2.053-7.635.3-11.09l-3.538,1.773s1.9,6.687-.775,10.514c0,0,1.484-9.07,0-10.043,0,0-3.108,1.83-3.694,2.721,0,0,1.254,4.824-.5,6.909,0,0,.354-6.159-.3-6.309,0,0-3.414,3.471-4.213,6.147a14.7,14.7,0,0,1,3.644-6.646,8.08,8.08,0,0,0-4.46,1.319s.948-2.729,5.294-2.152c0,0,2.77-2.6,3.389-2.669,0,0-4.206-1.179-7.017-.527,0,0,2.787-2.21,7.932,0l3.463-1.88s-5.475-1.847-8.031-1.451c0,0,3.2-1.822,8.946,1.051l3.645-1.327s-4.6-1.954-7.528-2.127c0,0,3.3-1.051,8.583,1.779l2.54-.6s-3.381-1.36-4.4-1.649-1.006-.6-1.006-.6a12.369,12.369,0,0,1,6.465,2S420.887,244.675,420.887,244.337Z" transform="translate(-224.606 2.899)" fill="#3f3d56"/>
      <path id="Path_134" data-name="Path 134" d="M349.418,129.634s-13.375,25.511,6.389,30.681a4.913,4.913,0,0,0,5.771-.206s-1.344-.66.313-3.092a13.494,13.494,0,0,0,1.419-2.787,6.5,6.5,0,0,0,.124-4.125h0s.272-8.74-10.488-17.027c0,0-1.649-3.3-2.391-3.521l-.1,5.277s3.876-.081,5.995,2.3c0,0-5.772-2.473-6.044-1.517-.049.181.074,2.8.074,2.8s6.728-.1,9.895,3.678c0,0-6.514-3.826-9.854-2.688l.42,3.933s7.108-.454,10.868,3.72c0,0-6.951-3.768-10.719-2.861l.932,3.809s6.943-.3,10.051,3.182c0,0-8.468-3.538-9.779-2.317,0,0,1.072,3.446,1.8,4.222,0,0,4.989-.107,6.6,2.086,0,0-5.912-1.765-6.217-1.162,0,0,2.588,4.125,5,5.508a14.687,14.687,0,0,1-5.624-5.079,8.173,8.173,0,0,0,.256,4.651s-2.473-1.559-.874-5.657c0,0-1.889-3.3-1.814-3.908,0,0-2.119,3.817-2.127,6.7,0,0-1.517-3.224,1.847-7.709l-1.022-3.809s-3.067,4.906-3.3,7.479c0,0-1.031-3.529,3.092-8.46l-.446-3.851s-2.968,4.024-3.809,6.835c0,0-.256-3.478,3.72-7.949v-2.606s-2.111,2.976-2.638,3.892-.824.824-.824.824a12.366,12.366,0,0,1,3.438-5.83S349.74,129.683,349.418,129.634Z" transform="translate(-235.882 -14.509)" fill="#3f3d56"/>
      <path id="Path_172" data-name="Path 172" d="M30.417.044S-3.694-2.009.33,21.886a5.791,5.791,0,0,0,3.026,6.146s.065-1.773,3.5-1.171a15.773,15.773,0,0,0,3.711.181,7.685,7.685,0,0,0,4.529-1.872h0S24.682,21.214,28.408,5.54c0,0,2.763-3.414,2.655-4.3L25.292,3.717s1.962,4.125.42,7.6c0,0-.189-7.42-1.293-7.272-.223,0-2.993,1.435-2.993,1.435s3.38,7.239.825,12.491c0,0,.964-8.913-1.889-11.963L16.306,8.377s3.958,7.47,1.278,13.563c0,0,.685-9.35-2.126-12.986l-3.669,2.861s3.71,7.36,1.45,12.417c0,0-.3-10.884-2.251-11.708,0,0-3.208,2.836-3.7,4,0,0,2.547,5.343.971,8.163,0,0-.971-7.248-1.765-7.279,0,0-3.2,4.807-3.538,8.1a17.477,17.477,0,0,1,2.763-8.559,9.638,9.638,0,0,0-4.948,2.54s.5-3.4,5.7-3.694c0,0,2.639-3.645,3.348-3.867,0,0-5.162-.437-8.295.956,0,0,2.75-3.208,9.243-1.748l3.627-2.96s-6.8-.932-9.688.1c0,0,3.3-2.836,10.661-.775l3.949-2.358s-5.771-1.245-9.25-.824c0,0,3.644-1.962,10.405.162l2.82-1.262s-4.246-.824-5.492-.965-1.312-.478-1.312-.478a14.7,14.7,0,0,1,7.982.89S30.513.423,30.417.044Z" transform="matrix(-0.966, 0.259, -0.259, -0.966, 785.217, 219.296)" fill="#3f3d56"/>
      <path id="Path_172-2" data-name="Path 172" d="M1058.028,746.17s-34.111-2.053-30.086,21.842a5.791,5.791,0,0,0,3.026,6.146s.065-1.773,3.5-1.171a15.773,15.773,0,0,0,3.711.181,7.685,7.685,0,0,0,4.529-1.872h0s9.589-3.958,13.315-19.632c0,0,2.763-3.414,2.655-4.3l-5.771,2.473s1.962,4.125.42,7.6c0,0-.189-7.42-1.293-7.272-.223,0-2.993,1.435-2.993,1.435s3.38,7.239.825,12.491c0,0,.964-8.913-1.889-11.963l-4.057,2.366s3.958,7.47,1.278,13.563c0,0,.685-9.35-2.126-12.986l-3.669,2.861s3.71,7.36,1.45,12.417c0,0-.3-10.884-2.251-11.708,0,0-3.208,2.836-3.7,4,0,0,2.547,5.343.971,8.163,0,0-.971-7.248-1.765-7.279,0,0-3.2,4.807-3.538,8.1a17.477,17.477,0,0,1,2.763-8.559,9.638,9.638,0,0,0-4.948,2.54s.5-3.4,5.7-3.694c0,0,2.639-3.645,3.348-3.867,0,0-5.162-.437-8.295.956,0,0,2.75-3.208,9.243-1.748L1042,754.3s-6.8-.932-9.688.1c0,0,3.3-2.836,10.661-.775l3.949-2.358s-5.771-1.245-9.25-.824c0,0,3.644-1.962,10.405.162l2.82-1.262s-4.246-.824-5.492-.965-1.312-.478-1.312-.478a14.7,14.7,0,0,1,7.982.89S1058.125,746.55,1058.028,746.17Z" transform="translate(-638.9 -654.886)" fill="#3f3d56"/>
      <path id="Path_173" data-name="Path 173" d="M30.417.044S-3.693-2.017.33,21.887a5.8,5.8,0,0,0,3.026,6.147s.066-1.773,3.5-1.171a16.254,16.254,0,0,0,3.711.181,7.74,7.74,0,0,0,4.529-1.872h0S24.681,21.209,28.408,5.54c0,0,2.762-3.422,2.655-4.3L25.292,3.717s1.962,4.125.421,7.6c0,0-.189-7.421-1.294-7.279-.222,0-2.992,1.443-2.992,1.443s3.381,7.231.824,12.491c0,0,.964-8.913-1.889-11.97l-4.044,2.35s3.958,7.47,1.278,13.572c0,0,.684-9.351-2.127-13L11.8,11.794s3.71,7.36,1.451,12.425c0,0-.3-10.892-2.251-11.708,0,0-3.208,2.831-3.7,4,0,0,2.548,5.343.971,8.163,0,0-.971-7.256-1.765-7.289,0,0-3.2,4.807-3.537,8.1a17.473,17.473,0,0,1,2.762-8.559,9.671,9.671,0,0,0-4.9,2.54s.495-3.4,5.688-3.693c0,0,2.639-3.645,3.348-3.867,0,0-5.162-.429-8.294.956,0,0,2.753-3.2,9.242-1.748l3.628-2.96s-6.8-.924-9.688.1c0,0,3.3-2.831,10.662-.767l3.949-2.358S13.593,3.869,10.114,4.3c0,0,3.645-1.962,10.406.162l2.82-1.27s-4.246-.825-5.492-.964-1.311-.47-1.311-.47a14.741,14.741,0,0,1,7.981.882S30.516.417,30.417.044Z" transform="translate(862.606 235.459) rotate(90)" fill="#3f3d56"/>
    </g>
    <path id="Path_3" data-name="Path 3" d="M1130.023,1148.865h-891.3c-6.824-.009-12.355-6.141-12.364-13.707V510.736c.007-7.567,5.539-13.7,12.364-13.708h891.3c6.825.008,12.356,6.14,12.364,13.708v624.42c-.007,7.569-5.538,13.7-12.364,13.71Z" transform="translate(-1501.611 2342.05)" fill="#fff"/>
    <path id="Path_4" data-name="Path 4" d="M282.557,535.666c-3.2.005-5.787,2.988-5.791,6.669v554.978c0,3.682,2.594,6.665,5.791,6.669h794.954c3.2,0,5.786-2.987,5.791-6.669V542.335c0-3.68-2.594-6.664-5.791-6.669Z" transform="translate(-1497.272 2345.375)" fill="#ddd"/>
    <rect id="Rectangle_5" data-name="Rectangle 5" width="813.889" height="17.176" transform="translate(-1226.769 2933.677)" fill="#fff"/>
    <rect id="Rectangle_6" data-name="Rectangle 6" width="813.889" height="17.176" transform="translate(-1226.769 3017.651)" fill="#fff"/>
    <rect id="Rectangle_7" data-name="Rectangle 7" width="192.754" height="17.176" transform="translate(-1158.126 2971.848)" fill="#fff"/>
    <rect id="Rectangle_7-2" data-name="Rectangle 7" width="192.754" height="17.176" transform="translate(-684.209 2971.848)" fill="#fff"/>
    <rect id="Rectangle_7-3" data-name="Rectangle 7" width="192.754" height="17.176" transform="translate(-780.586 3382.965)" fill="#fff"/>
    <rect id="Rectangle_8" data-name="Rectangle 8" width="813.889" height="17.176" transform="translate(-1226.769 3106.393)" fill="#fff"/>
    <rect id="Rectangle_8-2" data-name="Rectangle 8" width="813.889" height="17.176" transform="translate(-1226.769 3227.847)" fill="#fff"/>
    <rect id="Rectangle_8-3" data-name="Rectangle 8" width="813.889" height="17.176" transform="translate(-1226.769 3318.432)" fill="#fff"/>
    <rect id="Rectangle_9" data-name="Rectangle 9" width="17.176" height="236.934" transform="translate(-1166.715 2879.955)" fill="#fff"/>
    <rect id="Rectangle_10" data-name="Rectangle 10" width="17.176" height="147.236" transform="translate(-846.095 2879.955)" fill="#fff"/>
    <rect id="Rectangle_11" data-name="Rectangle 11" width="17.176" height="569.404" transform="translate(-975.87 2879.955)" fill="#fff"/>
    <rect id="Rectangle_11-2" data-name="Rectangle 11" width="17.176" height="572.4" transform="translate(-508.632 2879.955)" fill="#fff"/>
    <rect id="Rectangle_11-3" data-name="Rectangle 11" width="17.176" height="440.006" transform="translate(-692.798 2879.955)" fill="#fff"/>
    <rect id="Rectangle_12" data-name="Rectangle 12" width="17.176" height="215.921" transform="translate(-1074.156 3020.512)" fill="#fff"/>
    <rect id="Rectangle_12-2" data-name="Rectangle 12" width="17.176" height="224.51" transform="translate(-1149.539 3236.434)" fill="#fff"/>
    <rect id="Rectangle_12-3" data-name="Rectangle 12" width="17.176" height="431.843" transform="translate(-596.42 3020.512)" fill="#fff"/>
    <rect id="Rectangle_12-4" data-name="Rectangle 12" width="17.176" height="431.843" transform="translate(-883.311 3020.512)" fill="#fff"/>
    <g id="Group_833" data-name="Group 833" transform="translate(-1100.036 2705.38)">
      <circle id="Ellipse_3" data-name="Ellipse 3" cx="21.947" cy="21.947" r="21.947" transform="translate(110.806 379.199)" fill="#ff584c"/>
      <circle id="Ellipse_4" data-name="Ellipse 4" cx="135.385" cy="135.385" r="135.385" transform="translate(0 0)" fill="#ff584c"/>
      <path id="Path_6" data-name="Path 6" d="M375.914,514.369,333.143,441.3l-42.772-73.065,84.662-.509,84.662-.509L417.8,440.795Z" transform="translate(-239.206 -158.903)" fill="#ff584c"/>
      <circle id="Ellipse_5" data-name="Ellipse 5" cx="48.574" cy="48.574" r="48.574" transform="translate(87.898 85.958)" fill="#fff"/>
    </g>
    <rect id="Rectangle_10-2" data-name="Rectangle 10" width="17.176" height="181.712" transform="translate(-769.446 2942.264)" fill="#fff"/>
    <rect id="Rectangle_10-3" data-name="Rectangle 10" width="17.176" height="215.92" transform="translate(-796.334 3233.438)" fill="#fff"/>
    <rect id="Rectangle_10-4" data-name="Rectangle 10" width="17.176" height="122.339" transform="translate(-1063.658 3327.019)" fill="#fff"/>
    <g id="Group_7" data-name="Group 7" transform="translate(-1381.879 3209.132)">
      <path id="Path_466" data-name="Path 466" d="M794.887,575.384c0,48.293,30.3,87.373,67.738,87.373Z" transform="translate(-794.887 -549.86)" fill="#3f3d56"/>
      <path id="Path_467" data-name="Path 467" d="M884.678,662.438c0-48.836,33.808-88.354,75.592-88.354Z" transform="translate(-816.939 -549.541)" fill="#ffa84c"/>
      <path id="Path_468" data-name="Path 468" d="M827.42,581.188c0,45.874,19.319,82.994,43.2,82.994Z" transform="translate(-802.877 -551.285)" fill="#ffa84c"/>
      <path id="Path_469" data-name="Path 469" d="M884.678,654.448c0-62.4,39.079-112.9,87.373-112.9Z" transform="translate(-816.939 -541.551)" fill="#3f3d56"/>
      <path id="Path_470" data-name="Path 470" d="M865.788,690.328s9.606-.3,12.5-2.358,14.777-4.523,15.5-1.213,14.437,16.444,3.591,16.532-25.2-1.69-28.09-3.45S865.788,690.328,865.788,690.328Z" transform="translate(-812.3 -576.815)" fill="#a8a8a8"/>
    </g>
  </g>
</svg>
