<svg xmlns="http://www.w3.org/2000/svg" xmlns:xlink="http://www.w3.org/1999/xlink" width="706" height="934.4"><style><![CDATA[.P{enable-background:new}.Q{opacity:.1}.R{fill:#ffa84c}.S{fill:#ffb8b8}.T{fill:#535461}.U{fill:#2f2e41}.V{stroke-miterlimit:10}]]></style><ellipse transform="matrix(.080692 -.9967 .9967 .080692 -759.9575 775.1386)" cx="40.2" cy="799.6" rx="4.4" ry="28.9" class="P Q"/><ellipse transform="matrix(.9967 -.080694 .080694 .9967 -57.6563 9.646)" cx="90.5" cy="718.2" rx="27.5" ry="4.2" class="P Q"/><path d="M433.6 115.5c-43.9-5.7-84.4-24.3-122.9-44S234.2 30.4 192 17.9c-27.1-8.1-58.7-11.8-82.3 1.2C86.8 31.6 77.5 56 71.5 79c-4.5 17.3-7.9 35.6-1.8 52.7 4.2 11.9 12.8 22.4 18.3 34 19.2 40.2-1.5 85.5-29.6 120.2-13.2 16.3-28.3 31.6-39 49.2-10.8 17.7-16.9 38.6-10.9 58.3 6 19.5 23.1 35.3 42.1 47.1 38.7 24 85.9 34.3 132.3 42 102.6 17.1 206.7 23.9 310.5 30.7 38.4 2.5 77 5.1 115.3 2.6 21.3-1.3 43.4-4.6 59.8-16.1 20.9-14.5 28.3-41.7 17.3-63.4-18.4-36.4-77.5-50.7-89.2-89-6.4-21.1 4.3-42.9 18.3-60.5 29.8-37.9 76.8-69.2 83.6-115.1 4.6-31.6-13.3-65.3-44.3-83.4-32.4-19-79.8-21.5-107.3 2.1-28.3 24.2-74.6 30.2-113.3 25.1z" opacity=".3" class="P R"/><ellipse transform="matrix(.9613 -.2754 .2754 .9613 -184.0765 165.62)" cx="497.8" cy="738.4" rx="70.8" ry="18" class="P Q"/><ellipse transform="matrix(.054681 -.9985 .9985 .054681 -480.9351 972.7559)" cx="273.3" cy="740.4" rx="13.2" ry="155.6" class="P Q"/><path d="M124.7 158.9h389.8v576.8H124.7z" class="T"/><path d="M408.3 750.6l-283.6-14.9V158.9L408.3 144z" class="R"/><g class="T"><circle cx="384.6" cy="474.9" r="3.5"/><path d="M384.6 475.5l2.4 4.2 2.5 4.2h-9.8l2.5-4.2z"/></g><path d="M420.6 750.6l-17.4-.1.7-606.5h16.7z" class="R"/><path d="M420.8 750.5h-17.6l.9-606.6h16.7z" fill="#fff" class="Q"/><circle cx="384.6" cy="449.5" r="11.4" class="P Q"/><circle cx="384.6" cy="447.7" r="11.4" class="T"/><path d="M171.1 158.1v580.3m50-583.9v585.7m50.1-588.3v591.6m50-594.2v597.9m50.1-600.6v601.3" class="Q V P" fill="none" stroke="#000" stroke-width="1.756"/><ellipse cx="531.4" cy="227.6" rx="34.7" ry="32.5" class="U"/><path d="M430.4 430l-8.8 12.3s-42.1 8.8-26.3 21.9c15.8 13.2 38.6-12.3 38.6-12.3l12.3-15.8-15.8-6.1z" class="S"/><use xlink:href="#B" class="R"/><use xlink:href="#B" class="P Q"/><path d="M511.2 245.6s-.9 34.2-11.4 36-7 13.2-7 13.2 34.2 20.2 57.1 0l4.4-10.5s-15.8-11.4-8.8-27.2l-34.3-11.5z" class="S"/><g class="U"><path d="M452.4 456.3s-51.8 96.6-32.5 126.4 48.3 91.3 52.7 91.3 29-12.3 27.2-20.2-28.1-66.7-35.1-72-3.5-19.3-2.6-20.2 29.8-47.4 29.8-47.4-.9 73.7 2.6 85.2c3.5 11.4-.9 93.1 3.5 96.6s24.6 9.7 28.1 4.4 14-85.2 7-103.6l13.2-126.4-93.9-14.1z"/><path d="M499.8 690.7l-21.9 40.4s-31.6 22.8-9.7 26.3 35.1-5.3 35.1-5.3l19.3-14v-40.4l-22.8-7z"/><path d="M469.9 667.9l11.4 27.2s4.4 11.4 0 14-16.7 18.4-8.8 20.2c1.6.3 3.2.5 4.8.5 13.3.2 26.1-5 35.5-14.4l7.1-7.1-24-55.7c.4.3-26 15.3-26 15.3z"/></g><circle cx="533.1" cy="236.8" r="29.8" class="S"/><path d="M550.3 278.5l-9.2 9.2s-28.1 10.5-41.3 0c0 0 4.8-10.1 4.8-9.2s-38.2 6.6-41.7 22.4 2.6 43 2.6 43-24.5 115.9-14.9 118.5c9.7 2.6 100.1 24.6 99.2 7.9s7-85.2 7-85.2l30.7-58.8s-4.4-19.3-14.9-25.5-22.3-22.3-22.3-22.3z" class="R"/><path d="M511.2 450.1l-11.4 7s-43.9 29.8-21.1 35.1 36-21.1 36-21.1l8.8-10.5-12.3-10.5z" class="S"/><path d="M576.2 321.1l7.9 7.9s5.3 73.7-5.3 88.7-58.8 55.3-61.5 52.6-19.3-15.8-15.8-17.6 50.2-50.5 50.2-50.5l-3.7-68 28.2-13.1z" class="P Q"/><path d="M579.7 318.5l7.9 7.9s5.3 73.7-5.3 88.7-58.8 55.3-61.5 52.7-19.3-15.8-15.8-17.6 50.2-50.5 50.2-50.5l-3.7-68 28.2-13.2z" class="R"/><path d="M520.8 194.4s-10.1-3.7-24 4.2l7.4 1.8s-11.1.9-12.5 15.7h5.1s-3.2 12.9 0 16.6l2.1-3.9 6 12 1.4-6 2.8.9 1.8-9.7s4.6 6.9 8.3 7.4v-6s10.1 11.5 13.4 11.1L528 232l6.5 1.4-2.8-4.6 16.6 4.6-3.7-4.6 11.5 3.7 5.5 2.3s7.8-18-3.2-30.4c-11.1-12.5-27.2-15.3-37.6-10z" class="U"/><path d="M8.2 783s15.4-.5 20-3.8 23.6-7.2 24.8-1.9c1.1 5.3 23.1 26.3 5.7 26.4s-40.3-2.7-44.9-5.5C9.1 795.4 8.2 783 8.2 783z" fill="#a8a8a8"/><g class="R"><ellipse cx="284.3" cy="820.1" rx="176.1" ry="33.4" class="P Q"/><ellipse cx="496.7" cy="820.1" rx="26.9" ry="4.5" class="P Q"/><ellipse cx="326.1" cy="889.1" rx="26.9" ry="4.5" class="P Q"/><ellipse cx="559.1" cy="880.1" rx="26.9" ry="4.5" class="P Q"/><ellipse cx="645.7" cy="796.4" rx="40.2" ry="6.8"/><path d="M662.5 789.8c1.8-1.5 3.2-3.5 3.8-5.8.5-2.3-.5-5-2.7-5.9-2.5-.9-5.1.8-7.1 2.5s-4.3 3.7-6.9 3.3c2.7-2.5 4-6.2 3.2-9.8-.1-.7-.4-1.4-.9-2-1.4-1.5-3.8-.8-5.5.3-5.2 3.7-6.7 10.7-6.7 17.1-.5-2.3-.1-4.7-.1-7s-.7-5-2.7-6.2c-1.2-.7-2.6-1-4-1-2.3-.1-5 .2-6.5 1.9-2 2.1-1.5 5.7.3 8 1.7 2.3 4.3 3.8 6.8 5.4 1.9 1.2 3.6 2.7 4.8 4.6.1.3.3.5.3.8h14.7c3.4-1.7 6.5-3.8 9.2-6.2z"/></g><path d="M63.7 573.9c-1.1 14.6-1.8 29.1-2.2 43.7-.1 4.4-.2 8.9 1.6 12.9 1.4 2.7 3.2 5.2 5.4 7.3 5.3 5.4 11.2 10.2 17.7 14.2 8.7 5.4 19.5 11.4 19.7 21.7.1 7.1-5.3 12.9-9.7 18.5s-8.3 13.3-4.9 19.5" fill="none" stroke="#3f3d56" stroke-width="4.542" class="V"/><path d="M47.2 573.1c-.4 8.7 6.4 16.2 15.1 16.6 8.8.4 16.2-6.3 16.7-15.1.4-8.8-6.3-16.2-15.1-16.7-1.8-.1-3.5.1-5.2.6l.1 8.6-3.6-7.1c-4.8 2.7-7.8 7.6-8 13.1zm26.7 100.6l10.9 2.5-10-8.1c1.6-4.4 5-7.8 9.4-9.5 8.2-3.1 17.4 1.1 20.5 9.3.8 2.1 1.1 4.3 1 6.5-.2 5.8-3.6 11-8.8 13.6-7.8 3.9-17.4.8-21.3-7.1-1.1-2.2-1.7-4.7-1.7-7.2zm9.6-23.8c-8.8-.4-15.6-7.9-15.2-16.6.4-8.8 7.9-15.6 16.6-15.2l3.6 7.1-.1-6.6c7.5 1.9 12.5 8.9 11.9 16.5-.4 8.9-8 15.5-16.8 14.8zM30 612c-.3-1.4-.5-2.9-.4-4.4.2-4.2 2-8.2 5.1-11l5.8 5.6-2.8-7.7c2.6-1.5 5.6-2.2 8.5-2 8.8.4 15.6 7.9 15.1 16.6-.4 8.8-7.9 15.6-16.6 15.1-7-.3-13-5.3-14.7-12.2z" class="R"/><path d="M47.5 577.2c.3 1.1.6 2.2 1.1 3.2 3.8 7.9 13.3 11.3 21.2 7.5s11.3-13.3 7.5-21.2c-1.6.9-3 2.2-4 3.8-1.1 1.7-1.7 3.6-2.9 5.2-2.3 2.9-6.4 3.8-10.1 3.5-3.7-.2-7.3-1.4-10.9-1.8-.7-.2-1.3-.2-1.9-.2zM30.1 612c.5 0 1.1.1 1.6.1 3.8.4 7.5 1.4 11.4 1.6 3.8.2 8.1-.8 10.6-3.7 1.3-1.6 2-3.6 3.2-5.3.8-1.3 1.9-2.4 3.2-3.2 1.1 2.4 1.7 5 1.5 7.6-.4 8.8-7.9 15.5-16.7 15.1-7.2-.3-13.2-5.3-14.8-12.2zM69 638.8c3.9.3 7.6 1.3 11.7 1.4s8.6-1 11.3-4c1.4-1.6 2.2-3.6 3.4-5.4.9-1.3 2.1-2.4 3.4-3.2 1 2.3 1.5 4.8 1.4 7.4-.5 8.8-7.9 15.5-16.7 15.1-6.7-.4-12.5-4.9-14.5-11.3zm14.7 42.6c4.7-.1 9.9-1.4 13.2-4.6 1.8-1.7 2.8-3.8 4.3-5.7 1-1.2 2.2-2.3 3.5-3.1.8 2.1 1.1 4.3 1 6.5-.2 5.8-3.6 11-8.8 13.6-7.8 3.9-17.4.8-21.3-7.1 2.7.2 5.4.4 8.1.4z" class="P Q"/><path d="M110.8 716.9c-3.8 2.3-22.6 4.6-36.8 4.5s3.7-17.3 4.7-21.6 16.5-1.1 20.3 1.6 16.4 3.1 16.4 3.1-.8 10-4.6 12.4z" fill="#656380"/><path d="M68.7 717.8c-.1 2.2 1.3 3.6 5.4 3.6 14.2.1 33-2.2 36.8-4.5 3.7-2.3 4.5-12.5 4.5-12.5h-.4c-.4 2.9-1.5 9.2-4.4 11-3.8 2.3-22.6 4.7-36.8 4.5-3 0-4.6-.8-5.1-2.1z" opacity=".2" class="P"/><g class="R P"><path d="M606.9 128.5s-4.5-37.9-29.9-28.8c0 0-4.8 0-6.1 4.5 0 0 2-.3 2 3.6 0 1.4.2 2.7.5 4.1.4 1.9 1.5 3.4 2.9 4.7 0 0 6.3 9.7 24.2 10.8 0 0 4.3 2.4 5.2 2.1l-3.8-5.8s-4.1 3-8.3 1.9c0 0 8.1-1.7 7.8-2.8-.1-.3-2.1-3-2.1-3s-7.3 5.2-13.6 3.4c0 0 10-.7 12.7-4.4l-3.4-4s-7.4 5.8-14.7 4.1c0 0 10.4-1.1 13.9-4.9l-3.9-3.5s-7.3 5.5-13.3 4c0 0 11.9-2.4 12.5-4.7 0 0-3.8-2.9-5.1-3.2 0 0-5.4 3.8-8.7 2.6 0 0 7.7-2.5 7.7-3.3 0 0-5.9-2.5-9.6-2.3 3.4-.5 6.8.1 10 1.4-.8-2-2.1-3.6-3.7-4.9 0 0 3.9-.2 5.2 5.5 0 0 4.5 2.2 4.9 3 0 0-.5-5.7-2.7-8.9 0 0 4.1 2.4 3.7 9.8l4 3.4s-.3-7.6-2-10.6c0 0 3.8 3.1 3 11.5l3.4 3.8s.2-6.6-1-10.4c0 0 2.9 3.6 1.8 11.5l2 2.8s.1-4.8 0-6.3c-.1-1.4.3-1.5.3-1.5 1.1 2.8 1.3 6 .6 8.9-.5 0 3.1 6.1 3.6 5.9zm-79.2 50.8c.5-3 1.9-5.8 3.9-8 0 0 .3.2-.3 1.5l-2.4 5.8 2.9-1.9c1.9-7.7 6-10 6-10-2.5 3-4.8 9.2-4.8 9.2l4.5-2.3c2.4-8.1 7.1-9.6 7.1-9.6-2.7 2.1-5.9 9.1-5.9 9.1l4.9-1.7c2.4-7 7.1-7.7 7.1-7.7-3.2 2.1-5.8 7.3-5.8 7.3.6-.5 5.7-.9 5.7-.9 3.3-4.8 6.8-3.1 6.8-3.1-2 .6-3.8 1.6-5.3 3.2 3.4 0 6.8.7 9.8 2.4-3.3-1.6-9.7-1.4-9.7-1.4-.4.7 5.9 5.9 5.9 5.9-3.5-.2-7.1-5.7-7.1-5.7-1.3-.2-5.9 1.1-5.9 1.1-.3 2.4 9.8 9 9.8 9-6.1-.9-10.9-8.7-10.9-8.7l-4.9 1.8c1.8 4.8 11 9.7 11 9.7-7.4-1.1-12.1-9.3-12.1-9.3l-4.7 2.5c1.1 4.5 10.2 8.8 10.2 8.8-6.5-.6-11.4-8.2-11.4-8.2s-2.9 1.7-3.1 2c-.8.9 6.1 5.5 6.1 5.5-4.3-.5-7-4.9-7-4.9l-5.7 3.9c.7.6 5.6 0 5.6 0 17 5.7 26.5-1 26.5-1 1.8-.6 3.4-1.7 4.5-3.2.8-1.1 1.5-2.3 2-3.6 1.4-3.6 3.2-2.6 3.2-2.6.5-4.7-4-6.5-4-6.5-20.2-17.9-38.5 15.5-38.5 15.5.6.5 6.3-3.8 6-3.9z" opacity=".3"/><path d="M88.5 301.4c-1.4-2.6-2.1-5.7-1.8-8.7 0 0 .4 0 .7 1.4s1.7 6 1.7 6l1.2-3.3c-3.1-7.3-1.3-11.6-1.3-11.6-.1 3.9 1.9 10.2 1.9 10.2l2.2-4.6c-3.1-7.9-.2-11.9-.2-11.9-.8 3.3.9 10.8.9 10.8l2.9-4.3c-2.3-7 .9-10.5.9-10.5-1.2 3.7-.2 9.3-.2 9.3.2-.8 3.9-4.2 3.9-4.2-.3-5.8 3.5-6.7 3.5-6.7-1.2 1.7-2 3.6-2.2 5.7 2.7-2.1 5.8-3.6 9.2-4-3.6.8-8.6 4.8-8.6 4.8.1.8 8.3 1.1 8.3 1.1-2.9 2-9.1-.2-9.1-.2-1.2.7-4 4.5-4 4.5 1.2 2 13.3 1.2 13.3 1.2-5.4 3-13.9-.3-13.9-.3l-2.8 4.4c4.3 2.7 14.7.9 14.7.9-6.5 3.6-15.2 0-15.2 0l-2.2 4.8c3.6 2.8 13.4.8 13.4.8-5.5 3.5-14 .4-14 .4s-1.3 3.2-1.2 3.5c0 1.2 8.2.6 8.2.6-3.7 2.2-8.5.4-8.5.4l-2.1 6.6c.9.1 4.4-3.4 4.4-3.4 16.9-5.9 20.3-16.9 20.3-16.9 1-1.5 1.6-3.4 1.6-5.3-.1-1.4-.2-2.7-.6-4.1-1.1-3.8.9-4 .9-4-2.5-4-7.1-2.7-7.1-2.7-26.9-1.9-21 35.8-21 35.8.3.2 2.2-6.7 1.9-6.5z"/><path d="M228 136.5s18.4-33.4-7.5-40.8c0 0-3.9-2.8-7.6.1 0 0 1.8 1-.5 4.1-.8 1.2-1.4 2.3-1.9 3.6-.7 1.8-.8 3.7-.3 5.5 0 0-.6 11.6 13.3 22.9 0 0 2.2 4.5 3 4.7l.3-6.9s-5.1 0-7.8-3.3c0 0 7.6 3.4 8 2.2.1-.3 0-3.7 0-3.7s-9 0-13-5.2c0 0 8.5 5.3 12.9 3.9l-.4-5.3s-9.4.4-14.3-5.2c0 0 9.1 5.2 14.1 4.1l-1.1-5.1s-9.2.2-13.2-4.5c0 0 11.1 4.9 12.9 3.4 0 0-1.4-4.6-2.2-5.6 0 0-6.6 0-8.6-2.9 0 0 7.7 2.5 8.1 1.8 0 0-3.3-5.5-6.4-7.4 3 1.6 5.5 4 7.3 6.9a11.43 11.43 0 0 0-.2-6.1s3.2 2.1 1 7.5c0 0 2.4 4.5 2.3 5.3 0 0 2.9-5 3-8.8 0 0 1.9 4.4-2.7 10.1l1.3 5.1s4.2-6.4 4.5-9.8c0 0 1.3 4.8-4.3 11.1l.5 5.1s4-5.3 5.2-9c0 0 .2 4.6-5.2 10.4v3.5s2.9-3.9 3.6-5.1 1.1-1.1 1.1-1.1c-.8 2.9-2.4 5.6-4.7 7.6-.5-.3-1 6.8-.5 6.9z" opacity=".3"/><path d="M620.7 281.4s5.9-37.7-21-35.8c0 0-4.6-1.3-7.1 2.7 0 0 2 .3.9 4-.4 1.4-.5 2.7-.6 4.1-.1 1.9.5 3.7 1.6 5.3 0 0 3.4 11.1 20.3 16.9 0 0 3.5 3.5 4.4 3.4l-2.1-6.6s-4.8 1.8-8.5-.4c0 0 8.3.6 8.2-.6 0-.3-1.2-3.5-1.2-3.5s-8.4 3-14-.4c0 0 9.8 2.1 13.5-.8l-2.2-4.8s-8.7 3.6-15.2 0c0 0 10.3 1.8 14.7-.9l-2.8-4.4s-8.6 3.3-13.9.3c0 0 12.1.9 13.3-1.2 0 0-2.8-3.8-4-4.5 0 0-6.2 2.2-9.1.2 0 0 8.1-.3 8.3-1.1 0 0-5-4-8.6-4.8 3.4.5 6.5 1.9 9.2 4a11.39 11.39 0 0 0-2.2-5.7s3.8.9 3.5 6.7c0 0 3.7 3.4 3.9 4.2 0 0 1.1-5.7-.2-9.3 0 0 3.2 3.5.9 10.5l2.9 4.3s1.7-7.4.9-10.8c0 0 2.8 4-.2 11.9l2.2 4.6s2-6.3 1.9-10.2c0 0 1.8 4.3-1.3 11.6l1.2 3.3s1.4-4.6 1.7-6 .7-1.4.7-1.4c.3 3-.4 6.1-1.8 8.7-.6-.3 1.3 6.6 1.8 6.5z"/><path d="M121.9 62.4c2.7-1.4 5.8-1.9 8.8-1.6 0 0 0 .4-1.4.6s-6.1 1.5-6.1 1.5l3.2 1.2c7.3-3 11.6-1 11.6-1-3.9-.2-10.3 1.6-10.3 1.6l4.5 2.3c7.9-2.9 11.9 0 11.9 0-3.3-.9-10.8.6-10.8.6l4.3 3c7.1-2.1 10.4 1.2 10.4 1.2-3.6-1.3-9.3-.4-9.3-.4.8.2 4.1 4 4.1 4 5.8-.1 6.6 3.7 6.6 3.7-1.6-1.3-3.5-2.1-5.7-2.4 2.1 2.8 3.4 5.9 3.8 9.3-.7-3.6-4.6-8.7-4.6-8.7-.8.1-1.3 8.2-1.3 8.2-2-3 .4-9.1.4-9.1-.6-1.2-4.4-4.1-4.4-4.1-2.1 1.1-1.5 13.2-1.5 13.2-2.9-5.4.6-13.9.6-13.9l-4.4-2.9c-2.8 4.3-1.3 14.6-1.3 14.6-3.4-6.6.4-15.2.4-15.2l-4.7-2.3c-2.9 3.6-1.1 13.4-1.1 13.4-3.3-5.6-.1-14-.1-14s-3.1-1.3-3.4-1.3c-1.2-.1-.8 8.2-.8 8.2-2.1-3.8-.2-8.5-.2-8.5l-6.5-2.3c-.1.9 3.3 4.5 3.3 4.5 5.5 17.1 16.4 20.8 16.4 20.8 1.5 1.1 3.3 1.7 5.2 1.7 1.4 0 2.7-.2 4.1-.5 3.8-1 4 1 4 1 4.1-2.4 2.9-7.1 2.9-7.1 2.5-26.9-35.3-21.9-35.3-21.9-.1.8 6.8 2.9 6.7 2.6z" opacity=".3"/></g><ellipse transform="matrix(.9967 -.080694 .080694 .9967 -65.4815 50.4105)" cx="591" cy="835.4" rx="28.9" ry="4.4" class="P Q"/><path d="M617.4 834c-4.6 2.8-27.5 5.6-44.9 5.5s1.4-22.1 8.2-24.8c1.2-5.3 19.3-1.6 24.9-2.6 11.6-2 4.5 8.9 9 9.5 4.6.5 8.2 1.9 6.8 6.3-1 2.6-2.2 5.1-4 6.1z" fill="#a8a8a8"/><defs ><path id="B" d="M476.1 290.4s-11.4 0-14 15.8-5.3 68.5-5.3 68.5-36.9 48.3-30.7 54.4c6.1 6.1 13.2 17.6 17.6 15.8s42.1-53.6 42.1-53.6l-9.7-100.9z"/></defs></svg>