<svg xmlns="http://www.w3.org/2000/svg" width="1124" height="776"><style><![CDATA[.G{enable-background:new}.H{opacity:.1}.I{fill:#ffa84c}.J{fill:#3f3d56}]]></style><g class="I G"><path d="M650.7 134.5c-72.3-2.5-141.2-25.9-206.9-51.4s-131-53.9-201.5-67.4C196.9 7 144.9 5.8 108.4 30.1 73.2 53.5 61.8 93.9 55.7 131.5c-4.6 28.2-7.3 57.9 5.3 84.4 8.8 18.3 24.3 33.8 35 51.3 37.4 61.1 11 136.5-29.6 196.3-19 28-41.1 54.7-55.7 84.5s-21.4 64-8.5 94.4c12.7 30.1 43 52.8 75.9 68.7 66.6 32.3 145.2 41.5 221.9 46.8 169.6 11.6 340.2 6.6 510.3 1.5 62.9-1.9 126.2-3.8 188.1-13.5 34.4-5.4 69.9-14 94.9-34.7 31.7-26.3 39.6-70.8 18.3-103.8-35.6-55.3-134.1-69-159-128.4-13.7-32.7.4-69 20.3-99.3 42.7-65 114.3-122 118.1-196.3 2.6-51-31.8-102.1-85.1-126.3C950 31.9 872.6 35.1 831.4 77c-42.4 43.1-116.9 59.7-180.7 57.5z" class="H"/><circle cx="52" cy="354.4" r="15.3" class="H"/><circle cx="1043.3" cy="405.6" r="25.6" class="H"/><circle cx="1078.8" cy="497" r="25.6" class="H"/></g><ellipse cx="562" cy="739" rx="562" ry="37" class="J"/><ellipse cx="534" cy="216" rx="58" ry="53" class="I"/><path d="M636.5 701.5s-123.5 49.5-211 1l.8-14 23.1-400h164l21.5 400 1.6 13z" class="J"/><path d="M636.5 701.5s-113.5 50.5-211 1l.8-14H635l1.5 13zm-8.5-143H433.9l7.1-123h180.4z" class="I"/><g class="J"><path d="M439.5 272.5h184v20h-184zm0-67h184v20h-184z"/><path d="M455.5 225.5h11v52h-11zm29 0h11v52h-11zm29 0h11v52h-11zm29 0h11v52h-11zm29 0h11v52h-11zm-87-79.5h11v68.5h-11zm29 0h11v68.5h-11zm29 0h11v68.5h-11zm29 0h11v68.5h-11zm29 79.5h11v52h-11zM456 154h11v61h-11zm145 0h11v61h-11z"/><path d="M624 165.5H440v-60L532 31l92 74.5z"/></g><g class="I G"><circle cx="534" cy="215" r="154.7" opacity=".3"/><circle cx="534" cy="215" r="215" opacity=".3"/></g><path d="M51.4 692.7c6.1 22.5 26.9 36.4 26.9 36.4s11-22.5 4.9-44.9-26.9-36.4-26.9-36.4-11 22.5-4.9 44.9z" fill="#8985a8"/><path d="M60.3 687.9C77 704.1 79 729.1 79 729.1s-25-1.4-41.6-17.6-18.7-41.2-18.7-41.2 25 1.4 41.6 17.6z" class="J"/><g fill="#8985a8"><path d="M316.8 660.4c-9 33.1-39.6 53.6-39.6 53.6s-16.2-33.2-7.2-66.3 39.6-53.6 39.6-53.6 16.1 33.2 7.2 66.3z"/><path d="M235.3 660.4c9 33.1 39.6 53.6 39.6 53.6s16.2-33.2 7.2-66.3-39.6-53.6-39.6-53.6-16.1 33.2-7.2 66.3z"/></g><g class="J"><path d="M248.5 653.3C273 677.2 276 714 276 714s-36.8-2-61.4-25.9-27.6-60.7-27.6-60.7 36.9 2 61.5 25.9z"/><path d="M303.6 653.3C279 677.2 276 714 276 714s36.8-2 61.4-25.9 27.6-60.7 27.6-60.7-36.8 2-61.4 25.9z"/></g><g class="I"><path d="M1004.3 600.7s-30.4-23.1-41.5 1.5c0 0-3.4 3.5-1 7.5 0 0 1.2-1.6 4 1.1 1 1 2.1 1.7 3.3 2.4 1.6 1 3.5 1.3 5.4 1.1 0 0 11.4 2.3 24.6-9.9 0 0 4.7-1.5 5.1-2.3l-6.8-1.3s-.7 5.1-4.4 7.3c0 0 4.4-7 3.4-7.5-.3-.2-3.6-.5-3.6-.5s-1.3 8.9-7 12.1c0 0 6.5-7.7 5.7-12.2l-5.3-.4s-.9 9.3-7.2 13.4c0 0 6.5-8.3 6.1-13.3l-5.2.4s-1.1 9.1-6.4 12.4c0 0 6.5-10.2 5.2-12.2 0 0-4.7.7-5.8 1.4 0 0-1 6.5-4.2 8.1 0 0 3.6-7.3 2.9-7.8 0 0-5.9 2.5-8.3 5.3 2-2.8 4.8-4.8 7.9-6.2-2-.8-4-1-6.1-.7 0 0 2.6-2.9 7.5.1 0 0 4.7-1.7 5.5-1.5 0 0-4.5-3.6-8.3-4.3 0 0 4.6-1.2 9.6 4.1l5.2-.5s-5.7-5.1-9.1-5.9c0 0 4.9-.6 10.4 5.9l5.1.3s-4.6-4.7-8.1-6.5c0 0 4.6.4 9.5 6.6l3.4.5s-3.4-3.4-4.5-4.3-.9-1.2-.9-1.2c2.8 1.2 5.2 3.2 6.8 5.7 0 .1 7 1.7 7.1 1.3zm-214.2-25.8s-37.9-4.2-34.8 22.6c0 0-1.1 4.7 3 7 0 0 .2-2 4-1.1 1.3.3 2.7.4 4.1.4 1.9 0 3.7-.7 5.1-1.8 0 0 10.9-3.9 15.9-21.1 0 0 3.3-3.6 3.2-4.6l-6.6 2.4s2 4.7 0 8.5c0 0 .2-8.3-1-8.2-.3 0-3.4 1.4-3.4 1.4s3.4 8.3.2 14c0 0 1.6-9.9-1.4-13.4l-4.7 2.4s4 8.5.7 15.2c0 0 1.3-10.4-1.6-14.6l-4.3 3s3.7 8.4.9 13.9c0 0 .3-12.1-1.8-13.2 0 0-3.7 3-4.3 4.2 0 0 2.5 6.1.6 9.1 0 0-.7-8.1-1.6-8.2 0 0-3.8 5.2-4.4 8.8.3-3.4 1.6-6.6 3.6-9.4-2.1.3-4 1.2-5.6 2.5 0 0 .8-3.8 6.6-3.8 0 0 3.2-3.9 4-4.1 0 0-5.7-.8-9.3.6 0 0 3.3-3.4 10.4-1.4l4.2-3.1s-7.5-1.4-10.8-.4c0 0 3.9-3 11.9-.3l4.5-2.4s-6.4-1.7-10.3-1.4c0 0 4.2-2 11.6.8l3.2-1.3s-4.7-1.2-6.1-1.4-1.4-.6-1.4-.6c3-.3 6.1.2 8.8 1.4.2.2 7-2 6.9-2.4zm98.5-340.1s-30.5-22.8-41.4 1.9c0 0-3.3 3.4-.9 7.6 0 0 1.1-1.6 4 1.1 1 .9 2.1 1.8 3.3 2.4 1.6.9 3.5 1.3 5.4 1 0 0 11.4 2.2 24.5-10.1 0 0 4.7-1.5 5.1-2.4l-6.9-1.2s-.7 5.1-4.3 7.3c0 0 4.4-7.1 3.3-7.6-.2-.1-3.7-.5-3.7-.5s-1.3 8.8-6.9 12.1c0 0 6.4-7.7 5.6-12.3l-5.2-.3s-.9 9.4-7.1 13.4c0 0 6.4-8.3 6-13.4l-5.2.4s-1 9.1-6.3 12.4c0 0 6.4-10.3 5.1-12.3 0 0-4.7.7-5.9 1.4 0 0-.9 6.5-4.1 8.2 0 0 3.5-7.4 2.8-7.9 0 0-5.9 2.5-8.3 5.4 2-2.7 4.7-4.9 7.8-6.3-1.9-.8-4.1-1-6.1-.6 0 0 2.5-2.9 7.6.1 0 0 4.7-1.8 5.5-1.6 0 0-4.5-3.6-8.3-4.2 0 0 4.5-1.3 9.7 4l5.2-.5s-5.8-5-9.1-5.8c0 0 4.8-.6 10.4 5.8l5.1.2s-4.6-4.7-8.1-6.4c0 0 4.6.4 9.6 6.5l3.4.6-4.5-4.3c-1-.9-.9-1.2-.9-1.2a16 16 0 0 1 6.9 5.7c-.1.3 6.8 1.9 6.9 1.4zm23.6 164.9s-10.5-36.6-34.2-23.5c0 0-4.7.7-5.3 5.5 0 0 1.9-.6 2.5 3.2.2 1.4.6 2.7 1.2 4 .7 1.7 2 3.2 3.7 4.1 0 0 7.7 8.6 25.6 6.7 0 0 4.6 1.6 5.5 1.2l-4.7-5.1s-3.6 3.6-7.8 3.3c0 0 7.8-3 7.2-4.1-.1-.2-2.6-2.6-2.6-2.6s-6.3 6.3-12.8 5.5c0 0 9.7-2.3 11.9-6.4l-4-3.4s-6.4 6.9-13.8 6.4c0 0 10.1-2.8 12.9-7.1l-4.4-2.8s-6.3 6.6-12.5 6.1c0 0 11.3-4.4 11.5-6.7 0 0-4.2-2.3-5.6-2.4 0 0-4.7 4.7-8.2 4.1 0 0 7.3-3.7 7-4.6 0 0-6.2-1.6-9.8-.7a18.88 18.88 0 0 1 10-.3c-1.1-1.8-2.6-3.3-4.5-4.2 0 0 3.8-.8 6 4.6 0 0 4.8 1.4 5.3 2.1 0 0-1.5-5.6-4.1-8.4 0 0 4.4 1.7 5.3 9.1l4.5 2.7s-1.6-7.5-3.7-10.1c0 0 4.2 2.4 4.8 10.9l4 3.3s-.8-6.6-2.6-10c0 0 3.4 3.1 3.7 11l2.4 2.5s-.7-4.8-1-6.1 0-1.5 0-1.5c1.5 2.7 2.2 5.7 2 8.7-.3-.2 4.2 5.2 4.6 5z" class="G H"/><path d="M812 317.8s-19.4-32.8-39-14.1c0 0-4.4 1.9-3.8 6.6 0 0 1.7-1.1 3.3 2.5.6 1.3 1.3 2.5 2.2 3.5 1.1 1.5 2.8 2.5 4.6 3 0 0 9.7 6.4 26.5 0 0 0 4.9.4 5.6-.2l-5.9-3.8s-2.6 4.4-6.8 5.1c0 0 6.8-4.8 5.9-5.7-.2-.2-3.2-1.9-3.2-1.9s-4.6 7.6-11 8.6c0 0 8.8-4.7 9.9-9.2l-4.7-2.2s-4.4 8.3-11.7 9.7c0 0 9.1-5.2 10.7-10.1l-4.9-1.6s-4.5 8-10.6 9.1c0 0 9.9-7.1 9.4-9.4 0 0-4.6-1.2-6-.9 0 0-3.3 5.7-6.9 6 0 0 6.1-5.4 5.6-6.2 0 0-6.4.1-9.7 1.8 2.9-1.8 6.2-2.7 9.6-2.8-1.5-1.5-3.4-2.5-5.4-2.9 0 0 3.5-1.7 7 2.9 0 0 5 .2 5.7.7 0 0-2.8-5-6.1-7.1 0 0 4.7.5 7.4 7.4l5 1.5s-3.4-6.9-6.2-8.9c0 0 4.7 1.3 7.4 9.4l4.7 2.2s-2.5-6.1-5-9c0 0 4.1 2.1 6.4 9.7l2.9 1.8-2.5-5.7c-.6-1.3-.4-1.5-.4-1.5 2.1 2.2 3.5 4.9 4.2 7.9-.2 0 5.6 4.1 5.8 3.8zm-151.5 52.8s4.8 10.5 22.4 14.1"/><path d="M201.7 549.8s4.2-37.9-22.6-34.8c0 0-4.7-1.1-7 3 0 0 2 .2 1.1 4-.3 1.4-.4 2.7-.4 4.1 0 1.9.7 3.7 1.8 5.2 0 0 3.9 10.9 21.1 16 0 0 3.7 3.3 4.6 3.2l-2.4-6.5s-4.7 2-8.5 0c0 0 8.3.2 8.2-1 0-.3-1.4-3.4-1.4-3.4s-8.3 3.4-14 .2c0 0 9.9 1.6 13.4-1.4l-2.4-4.7s-8.5 4-15.2.7c0 0 10.4 1.3 14.6-1.6l-3-4.3s-8.4 3.7-13.9.9c0 0 12.1.3 13.2-1.8 0 0-3-3.7-4.2-4.3 0 0-6.1 2.5-9.1.6 0 0 8.1-.7 8.2-1.5 0 0-5.2-3.8-8.8-4.4 3.4.3 6.6 1.6 9.4 3.6-.3-2.1-1.2-4-2.5-5.6 0 0 3.8.7 3.8 6.5 0 0 3.9 3.2 4.1 4 0 0 .8-5.7-.6-9.3 0 0 3.4 3.3 1.4 10.4l3.1 4.2s1.4-7.5.4-10.8c0 0 3 3.9.3 11.9l2.4 4.5s1.7-6.4 1.4-10.3c0 0 2 4.2-.8 11.6l1.3 3.2s1.2-4.7 1.4-6.1.6-1.4.6-1.4a15.66 15.66 0 0 1-1.4 8.8c-.2-.1 2 6.7 2.4 6.6zm-79.4 29.9s4.2-37.9-22.6-34.8c0 0-4.7-1.1-7 3 0 0 2 .2 1.1 4-.3 1.3-.4 2.7-.4 4.1 0 1.9.7 3.7 1.8 5.1 0 0 3.9 10.9 21.1 15.9 0 0 3.6 3.3 4.6 3.2l-2.4-6.6s-4.7 2-8.5 0c0 0 8.3.2 8.2-1 0-.3-1.4-3.4-1.4-3.4s-8.3 3.4-14 .2c0 0 9.9 1.6 13.4-1.4l-2.4-4.7s-8.5 4-15.2.7c0 0 10.4 1.3 14.6-1.6l-3-4.3s-8.4 3.7-13.9.9c0 0 12.1.3 13.2-1.8 0 0-3-3.7-4.2-4.3 0 0-6.1 2.5-9.1.6 0 0 8.1-.7 8.2-1.6 0 0-5.2-3.8-8.8-4.4 3.4.3 6.6 1.6 9.4 3.6-.3-2.1-1.2-4-2.5-5.6 0 0 3.8.8 3.8 6.6 0 0 3.9 3.2 4.1 4 0 0 .8-5.7-.6-9.3 0 0 3.4 3.3 1.4 10.4l3.1 4.2s1.4-7.5.4-10.8c0 0 3 3.9.3 11.9l2.4 4.5s1.7-6.4 1.4-10.3c0 0 2 4.2-.8 11.6l1.3 3.2s1.2-4.7 1.4-6.1.6-1.4.6-1.4c.3 3-.2 6.1-1.4 8.8-.2.2 2 7 2.4 6.9zM299 409.6s22.8-30.5-1.9-41.4c0 0-3.4-3.3-7.6-.9 0 0 1.6 1.1-1.1 4-.9 1-1.8 2.1-2.4 3.3-.9 1.6-1.3 3.5-1 5.4 0 0-2.2 11.4 10.1 24.5 0 0 1.5 4.7 2.4 5.1l1.2-6.9s-5.1-.7-7.3-4.3c0 0 7.1 4.4 7.6 3.3.1-.2.5-3.7.5-3.7s-8.8-1.3-12.1-6.9c0 0 7.7 6.4 12.3 5.6l.3-5.2s-9.4-.9-13.4-7.1c0 0 8.3 6.4 13.4 6l-.4-5.2s-9.1-1-12.4-6.3c0 0 10.3 6.4 12.3 5.1 0 0-.7-4.7-1.4-5.9 0 0-6.5-.9-8.2-4.1 0 0 7.4 3.5 7.9 2.8 0 0-2.5-5.9-5.4-8.3 2.7 2 4.9 4.7 6.3 7.8.8-1.9 1-4.1.6-6.1 0 0 2.9 2.5-.1 7.6 0 0 1.8 4.7 1.6 5.5 0 0 3.6-4.5 4.2-8.3 0 0 1.3 4.5-4 9.7l.5 5.2s5-5.8 5.8-9.1c0 0 .6 4.8-5.8 10.4l-.2 5.1s4.7-4.6 6.4-8.1c0 0-.4 4.6-6.5 9.6l-.6 3.4 4.3-4.5c.9-1 1.2-.9 1.2-.9a16 16 0 0 1-5.7 6.9c-.3-.1-1.9 6.8-1.4 6.9zm-128.6-12.2s36.6-10.5 23.5-34.2c0 0-.7-4.7-5.5-5.3 0 0 .6 1.9-3.2 2.5-1.4.2-2.7.6-4 1.2-1.7.7-3.2 2-4.1 3.7 0 0-8.6 7.7-6.7 25.6 0 0-1.6 4.6-1.2 5.5l5.1-4.7s-3.6-3.6-3.3-7.8c0 0 3 7.8 4.1 7.2.2-.1 2.6-2.6 2.6-2.6s-6.3-6.3-5.5-12.8c0 0 2.3 9.7 6.4 11.9l3.4-4s-6.9-6.4-6.4-13.8c0 0 2.8 10.1 7.1 12.9l2.8-4.4s-6.6-6.3-6.1-12.5c0 0 4.4 11.3 6.7 11.5 0 0 2.3-4.2 2.4-5.6 0 0-4.7-4.7-4.1-8.2 0 0 3.7 7.3 4.6 7 0 0 1.6-6.2.7-9.8a18.88 18.88 0 0 1 .3 10c1.8-1.1 3.3-2.6 4.2-4.5 0 0 .8 3.8-4.6 6 0 0-1.4 4.8-2.1 5.3 0 0 5.6-1.5 8.4-4.1 0 0-1.7 4.4-9.1 5.3l-2.7 4.5s7.5-1.6 10.1-3.7c0 0-2.4 4.2-10.9 4.8l-3.3 4s6.6-.8 10-2.6c0 0-3.1 3.4-11 3.7l-2.5 2.4s4.8-.7 6.1-1 1.5 0 1.5 0c-2.7 1.5-5.7 2.2-8.7 2 .2-.3-5.2 4.2-5 4.6z" class="G H"/><path d="M320.2 479.6s-13.6 35.6 13.2 39.3c0 0 4.2 2.3 7.5-1.1 0 0-1.9-.6-.1-4.1.6-1.3 1.2-2.6 1.4-3.9.5-1.8.2-3.7-.5-5.5 0 0-1-11.6-16.5-20.8 0 0-2.7-4.1-3.6-4.3l.7 7s5.1-.7 8.2 2.2c0 0-8-2.3-8.1-1.1 0 .3.5 3.7.5 3.7s8.8-1.1 13.6 3.3c0 0-9.2-4-13.4-2l1.2 5s9.2-1.7 14.9 3.1c0 0-9.7-3.9-14.6-2.1l1.8 4.8s9.1-1.4 13.7 2.6c0 0-11.7-3.3-13.2-1.5 0 0 1.9 4.3 3 5.3 0 0 6.5-1 9 1.7 0 0-8-1.4-8.3-.5 0 0 4.1 5 7.4 6.5-3.2-1.2-6-3.2-8.2-5.8a11.13 11.13 0 0 0 1.1 6s-3.5-1.7-2.1-7.3c0 0-3-4-3-4.9 0 0-2.2 5.3-1.8 9.2 0 0-2.5-4 1.2-10.4l-1.9-4.8s-3.3 7-3.1 10.4c0 0-1.9-4.5 2.8-11.6l-1.2-5s-3.2 5.7-3.9 9.5c0 0-.9-4.5 3.6-11l-.4-3.4s-2.3 4.2-2.9 5.5-.9 1.2-.9 1.2c.4-3 1.7-5.8 3.6-8.2 0 .1-.4-7-.7-7zm-65.4-222.7s-10.5 4.8-14.1 22.4"/><path d="M710.9 529.2s30-23.5 8.9-40.5c0 0-2.4-4.1-7.1-2.8 0 0 1.3 1.5-2 3.5-1.2.7-2.3 1.6-3.3 2.6a8.43 8.43 0 0 0-2.4 5s-5.1 10.4 3.4 26.2c0 0 .2 4.9 1 5.5l3-6.3s-4.7-2-6-6c0 0 5.7 6.1 6.5 5.1.1-.2 1.4-3.4 1.4-3.4s-8.2-3.5-9.9-9.8c0 0 5.8 8.1 10.4 8.6l1.6-5s-8.8-3.3-11.1-10.4c0 0 6.4 8.3 11.4 9.3l.9-5.1s-8.5-3.4-10.4-9.3c0 0 8.3 8.8 10.5 8.1 0 0 .5-4.8.1-6.1 0 0-6.1-2.6-6.9-6.1 0 0 6.2 5.4 6.9 4.8 0 0-.9-6.3-3-9.3 2.2 2.7 3.5 5.8 4 9.2 1.3-1.7 2.1-3.7 2.2-5.8 0 0 2.2 3.2-2 7.3 0 0 .5 5 .1 5.7 0 0 4.6-3.5 6.2-7 0 0 .1 4.7-6.4 8.3l-.8 5.2s6.3-4.3 8-7.2c0 0-.6 4.8-8.3 8.6l-1.6 4.9s5.8-3.2 8.3-6.2c0 0-1.6 4.3-8.8 7.6l-1.4 3.2 5.3-3.2c1.1-.8 1.4-.6 1.4-.6-1.9 2.4-4.5 4.2-7.3 5.1.1-.2-3.2 6-2.8 6.3z" class="G H"/><path d="M880.7 587.9s29.9-62.8-18.4-73.5c0 0-7.4-4.7-13.9 1 0 0 3.4 1.5-.4 7.5-1.4 2.2-2.5 4.5-3.1 6.9-1.2 3.2-.9 6.8.1 10 0 0 .2 21.2 27 40.2 0 0 4.4 7.8 6 8.3l-.3-12.8s-9.3.5-14.7-5.1c0 0 14.2 5.4 14.7 3.1.1-.5-.4-6.8-.4-6.8s-16.2.8-24.2-7.9c0 0 16.1 8.5 24 5.6l-1.5-9.4s-17.1 1.8-26.6-7.8c0 0 17.2 8.5 26.2 5.9l-2.6-9.1s-16.7 1.3-24.6-6.8c0 0 20.8 7.8 23.8 4.7 0 0-2.9-8.2-4.8-10 0 0-12 .8-16.1-4.3 0 0 14.4 3.7 15.1 2.2 0 0-6.7-9.6-12.6-12.9 5.7 2.6 10.4 6.6 14 11.7.7-3.8.3-7.7-1.1-11.1 0 0 6.1 3.6 2.7 13.6 0 0 4.8 7.8 4.7 9.4 0 0 4.7-9.3 4.5-16.5 0 0 4 7.6-3.7 18.8l2.8 9.1s7-12.2 7.2-18.5c0 0 2.8 8.4-6.7 20.8l1.5 9.4s6.7-10 8.5-16.8c0 0 1 8.4-8.2 19.6l.2 6.2 6.1-9.6c1.4-2.2 1.9-2.1 1.9-2.1-1.2 5.4-3.9 10.3-7.7 14.4.2-.3-.1 12.7.6 12.6z"/></g></svg>