<svg xmlns="http://www.w3.org/2000/svg" xmlns:xlink="http://www.w3.org/1999/xlink" width="1009.52" height="839.61" viewBox="0 0 1009.52 839.61">
  <defs>
    <clipPath id="clip-Custom_Size_1">
      <rect width="1009.52" height="839.61"/>
    </clipPath>
  </defs>
  <g id="Custom_Size_1" data-name="Custom Size – 1" clip-path="url(#clip-Custom_Size_1)">
    <g id="Group_1" data-name="Group 1" transform="translate(-0.026 0.009)">
      <path id="Path_1" data-name="Path 1" d="M586.6,111.4c-64.7-2.3-126.4-23.1-185.2-46S284.2,17.2,221,5.1C180.4-2.7,133.9-3.8,101.2,18,69.7,39,59.5,75.1,54,108.7c-4.1,25.3-6.5,51.9,4.7,75.5,7.8,16.4,21.7,30.2,31.4,46,33.5,54.7,9.8,122.2-26.4,175.6-17,25.1-36.8,49-49.9,75.7S-5.4,538.8,6.1,566c11.4,27,38.5,47.2,67.9,61.5,59.7,29,130,37.2,198.6,41.9,151.8,10.4,304.5,5.9,456.7,1.4,56.3-1.7,112.9-3.4,168.3-12.1,30.8-4.8,62.6-12.5,84.9-31,28.4-23.5,35.4-63.4,16.4-92.9C967,485.3,878.9,473,856.6,419.9c-12.3-29.2.3-61.8,18.2-88.9C913,272.8,977.1,221.8,980.5,155.3c2.3-45.7-28.5-91.4-76.1-113C854.5,19.7,785.2,22.5,748.4,60c-38,38.5-104.7,53.4-161.8,51.4Z" fill="#ff584c" opacity="0.1"/>
      <ellipse id="Ellipse_1" data-name="Ellipse 1" cx="304" cy="41.1" rx="304" ry="41.1" transform="translate(179.5 739.9)" fill="#ff584c" opacity="0.1"/>
    </g>
    <g id="Group_2" data-name="Group 2" transform="translate(-0.026 0.009)">
      <path id="Path_2" data-name="Path 2" d="M645.1,289.8h4.3a2.26,2.26,0,0,1,2.3,2.3v68.4a2.26,2.26,0,0,1-2.3,2.3h-4.3a2.26,2.26,0,0,1-2.3-2.3V292.1a2.26,2.26,0,0,1,2.3-2.3ZM350.7,232.6h.4a2.26,2.26,0,0,1,2.3,2.3v19.5a2.26,2.26,0,0,1-2.3,2.3h-.4a2.26,2.26,0,0,1-2.3-2.3V234.9a2.26,2.26,0,0,1,2.3-2.3Zm-.2,44h1a2.26,2.26,0,0,1,2.3,2.3v37.3a2.26,2.26,0,0,1-2.3,2.3h-1a2.26,2.26,0,0,1-2.3-2.3V278.9A2.326,2.326,0,0,1,350.5,276.6Zm.1,56.5h.7a2.26,2.26,0,0,1,2.3,2.3V373a2.26,2.26,0,0,1-2.3,2.3h-.7a2.26,2.26,0,0,1-2.3-2.3V335.4a2.26,2.26,0,0,1,2.3-2.3Z" fill="#3a3768"/>
      <path id="Path_3" data-name="Path 3" d="M390.2,153.2H608.6a39.05,39.05,0,0,1,39,39V716.6a39.05,39.05,0,0,1-39,39H390.2a39.05,39.05,0,0,1-39-39V192.2A38.922,38.922,0,0,1,390.2,153.2Z" fill="#3a3768"/>
    </g>
    <path id="Path_4" data-name="Path 4" d="M605.8,168.8h-34v4.1a19.418,19.418,0,0,1-19.4,19.4H444.2a19.418,19.418,0,0,1-19.4-19.4v-4.1H393a23.473,23.473,0,0,0-23.5,23.5v524A23.473,23.473,0,0,0,393,739.8H605.7a23.473,23.473,0,0,0,23.5-23.5V192.4a23.41,23.41,0,0,0-23.4-23.6Z" transform="translate(-0.026 0.009)" fill="#ff584c"/>
    <g id="Group_3" data-name="Group 3" transform="translate(-0.026 0.009)">
      <path id="Path_5" data-name="Path 5" d="M474.7,171.2h33.6a3.9,3.9,0,0,1,3.9,3.9v.7a3.9,3.9,0,0,1-3.9,3.9H474.7a3.9,3.9,0,0,1-3.9-3.9V175a3.821,3.821,0,0,1,3.9-3.8Z" fill="#e6e8ec"/>
      <circle id="Ellipse_2" data-name="Ellipse 2" cx="4.8" cy="4.8" r="4.8" transform="translate(518.4 170.6)" fill="#e6e8ec"/>
    </g>
    <g id="Group_4" data-name="Group 4" transform="translate(-0.026 0.009)">
      <path id="Path_6" data-name="Path 6" d="M750.2,126.7s-84.2-5.1-74.3,53.9c0,0-2,10.4,7.5,15.2,0,0,.2-4.4,8.6-2.9a40.3,40.3,0,0,0,9.2.4,19.554,19.554,0,0,0,11.2-4.6s23.7-9.8,32.9-48.5c0,0,6.8-8.4,6.5-10.6l-14.2,6.1s4.9,10.3,1,18.8c0,0-.5-18.4-3.2-18-.5.1-7.4,3.6-7.4,3.6s8.3,17.9,2,30.8c0,0,2.4-22-4.7-29.5l-10,5.8s9.8,18.4,3.1,33.5c0,0,1.7-23.1-5.3-32.1l-9.1,7.1s9.2,18.2,3.6,30.6c0,0-.7-26.9-5.5-28.9,0,0-7.9,7-9.1,9.9,0,0,6.3,13.2,2.4,20.2,0,0-2.4-17.9-4.3-18,0,0-7.9,11.9-8.7,20,0,0,.3-12.1,6.8-21.1,0,0-7.6,1.3-12.1,6.3,0,0,1.2-8.4,14-9.1,0,0,6.5-9,8.3-9.5,0,0-12.7-1.1-20.5,2.4,0,0,6.8-7.9,22.8-4.3l9-7.3s-16.8-2.3-23.9.2c0,0,8.2-7,26.3-1.9l9.7-5.8s-14.3-3.1-22.8-2c0,0,9-4.9,25.7.4l7-3.1s-10.5-2.1-13.5-2.4c-3.1-.3-3.2-1.2-3.2-1.2a36.839,36.839,0,0,1,19.7,2.2c0-.1,14.8-5.6,14.5-6.6ZM332.1,102.4s38,2.9,34-23.9a6.587,6.587,0,0,0-3.3-7s-.1,2-3.9,1.2a29.338,29.338,0,0,0-4.1-.3,8.235,8.235,0,0,0-5,2S339,78.6,334.6,96.1c0,0-3.2,3.8-3.1,4.8l6.4-2.6s-2.1-4.6-.4-8.5c0,0,.1,8.3,1.3,8.1a35.194,35.194,0,0,0,3.3-1.5s-3.7-8.2-.7-13.9c0,0-1.3,9.9,1.9,13.4l4.5-2.6s-4.3-8.4-1.2-15.1c0,0-1,10.4,2.2,14.5l4.1-3.1s-4-8.3-1.4-13.9c0,0,.1,12.1,2.3,13.1,0,0,3.6-3.1,4.2-4.4,0,0-2.7-6-1-9.1,0,0,1,8.1,1.9,8.1,0,0,3.7-5.3,4-8.9a19.933,19.933,0,0,1-3.2,9.5,10.985,10.985,0,0,0,5.5-2.7s-.7,3.8-6.4,4c0,0-3.1,4.1-3.8,4.2,0,0,5.8.6,9.3-1,0,0-3.2,3.6-10.3,1.7l-4.1,3.2s7.6,1.1,10.8.1c0,0-3.7,3.1-11.9.7l-4.4,2.5s6.5,1.5,10.3,1.1c0,0-4.1,2.1-11.6-.4l-3.2,1.3s4.7,1,6.1,1.2,1.5.5,1.5.5a15.982,15.982,0,0,1-8.9-1.1c.1.2-6.7,2.7-6.5,3.1Z" fill="#ff584c"/>
      <ellipse id="Ellipse_3" data-name="Ellipse 3" cx="26.9" cy="4.5" rx="26.9" ry="4.5" transform="translate(837.3 768.8)" fill="#ff584c" opacity="0.1"/>
      <ellipse id="Ellipse_4" data-name="Ellipse 4" cx="26.9" cy="4.5" rx="26.9" ry="4.5" transform="translate(64.2 806.2)" fill="#ff584c" opacity="0.1"/>
      <ellipse id="Ellipse_5" data-name="Ellipse 5" cx="26.9" cy="4.5" rx="26.9" ry="4.5" transform="translate(168.4 830.6)" fill="#ff584c" opacity="0.1"/>
      <ellipse id="Ellipse_6" data-name="Ellipse 6" cx="40.2" cy="6.8" rx="40.2" ry="6.8" transform="translate(765 815.3)" fill="#ff584c"/>
      <path id="Path_7" data-name="Path 7" d="M821.9,811a11.383,11.383,0,0,0,3.8-5.8c.5-2.3-.5-5-2.7-5.9-2.5-.9-5.1.8-7.1,2.5s-4.3,3.7-6.9,3.3a10.645,10.645,0,0,0,3.3-9.8,4.024,4.024,0,0,0-.9-2c-1.4-1.5-3.8-.8-5.5.3-5.2,3.7-6.7,10.7-6.7,17.1-.5-2.3-.1-4.7-.1-7s-.7-5-2.6-6.2a6.952,6.952,0,0,0-4-.9c-2.3-.1-4.9.2-6.5,1.9-2,2.1-1.5,5.7.3,8s4.3,3.8,6.8,5.4a15.072,15.072,0,0,1,4.8,4.6c.1.3.3.5.4.8h14.6a45.631,45.631,0,0,0,9-6.3ZM196.6,723.3s5.5,7.2-2.5,18-14.6,20-12,26.8c0,0,12.1-20.2,22-20.4s3.4-12.3-7.5-24.4Z" fill="#ff584c"/>
    </g>
    <path id="Path_8" data-name="Path 8" d="M196.6,723.3a6.963,6.963,0,0,1,1.1,2.3c9.6,11.3,14.8,21.8,5.5,22.1-8.6.3-18.9,15.7-21.4,19.5l.3.9s12.1-20.2,22-20.4,3.4-12.3-7.5-24.4Z" transform="translate(-0.026 0.009)" opacity="0.1"/>
    <g id="Group_5" data-name="Group 5" transform="translate(-0.026 0.009)">
      <path id="Path_9" data-name="Path 9" d="M206.9,732.4c0,2.5-.3,4.6-.6,4.6s-.6-2-.6-4.6.4-1.3.7-1.3.5-1.2.5,1.3Z" fill="#ffd037"/>
      <path id="Path_10" data-name="Path 10" d="M210.4,735.5c-2.2,1.2-4.2,1.9-4.3,1.6s1.5-1.5,3.7-2.8,1.4-.3,1.5,0S212.6,734.2,210.4,735.5Z" fill="#ffd037"/>
    </g>
    <path id="Path_11" data-name="Path 11" d="M167.6,723.3s-5.5,7.2,2.5,18,14.6,20,12,26.8c0,0-12.1-20.2-22-20.4s-3.3-12.3,7.5-24.4Z" transform="translate(-0.026 0.009)" fill="#ff584c"/>
    <path id="Path_12" data-name="Path 12" d="M167.6,723.3a6.963,6.963,0,0,0-1.1,2.3c-9.6,11.3-14.7,21.8-5.5,22.1,8.6.3,19,15.7,21.4,19.5l-.3.9s-12.1-20.2-22-20.4-3.3-12.3,7.5-24.4Z" transform="translate(-0.026 0.009)" opacity="0.1"/>
    <g id="Group_6" data-name="Group 6" transform="translate(-0.026 0.009)">
      <path id="Path_13" data-name="Path 13" d="M157.4,732.4c0,2.5.3,4.6.6,4.6s.6-2,.6-4.6-.4-1.3-.7-1.3-.5-1.2-.5,1.3Z" fill="#ffd037"/>
      <path id="Path_14" data-name="Path 14" d="M153.9,735.5c2.2,1.2,4.1,1.9,4.3,1.6s-1.5-1.5-3.7-2.8-1.3-.3-1.5,0C152.8,734.7,151.7,734.2,153.9,735.5Z" fill="#ffd037"/>
    </g>
    <path id="Path_15" data-name="Path 15" d="M159.2,767.1s15.4-.5,20-3.8,23.6-7.2,24.8-2,23.1,26.3,5.8,26.4-40.3-2.7-44.9-5.5-5.7-15.1-5.7-15.1Z" transform="translate(-0.026 0.009)" fill="#a8a8a8"/>
    <path id="Path_16" data-name="Path 16" d="M210,786c-17.3.1-40.3-2.7-44.9-5.5-3.5-2.2-4.9-9.8-5.4-13.4h-.5s1,12.4,5.6,15.2,27.6,5.7,44.9,5.5c5,0,6.7-1.8,6.6-4.5-.7,1.7-2.6,2.7-6.3,2.7Z" transform="translate(-0.026 0.009)" opacity="0.2"/>
    <g id="Group_8" data-name="Group 8" transform="translate(18 -232)">
      <circle id="Ellipse_8" data-name="Ellipse 8" cx="75" cy="75" r="75" transform="translate(407 611)" fill="#c82f24"/>
      <path id="close" d="M74.7,12.02,67.68,5,39.85,32.83,12.02,5,5,12.02,32.83,39.85,5,67.68l7.02,7.02L39.85,46.87,67.68,74.7l7.02-7.02L46.87,39.85Z" transform="translate(442 646)" fill="#fff" stroke="#fff" stroke-linecap="round" stroke-linejoin="round" stroke-width="10"/>
    </g>
    <g id="Group_7" data-name="Group 7" transform="translate(-0.026 0.009)">
      <path id="Path_18" data-name="Path 18" d="M166.9,385.8s-2.3,38,24.4,33.6a6.565,6.565,0,0,0,6.9-3.4s-2-.1-1.3-3.9a19.1,19.1,0,0,0,.2-4.1,8.89,8.89,0,0,0-2.1-5.1s-4.4-10.7-21.9-14.8c0,0-3.8-3.1-4.8-3l2.8,6.4s4.6-2.2,8.5-.5c0,0-8.3.2-8.1,1.4a34.176,34.176,0,0,0,1.6,3.3s8.1-3.8,13.9-.9c0,0-9.9-1.1-13.4,2.1l2.6,4.5s8.3-4.4,15.1-1.4c0,0-10.4-.8-14.5,2.4l3.2,4.1s8.2-4.2,13.9-1.6c0,0-12.1.3-13.1,2.5,0,0,3.2,3.6,4.5,4.1,0,0,6-2.8,9.1-1.1,0,0-8.1,1.1-8.1,2,0,0,5.4,3.6,9,3.9a18.807,18.807,0,0,1-9.5-3.1,11.13,11.13,0,0,0,2.8,5.5s-3.8-.5-4.1-6.3c0,0-4.1-3-4.3-3.7,0,0-.5,5.8,1.1,9.3,0,0-3.6-3.1-2-10.3l-3.3-4s-1,7.6.1,10.8c0,0-3.2-3.7-.9-11.9l-2.6-4.4s-1.4,6.5-.9,10.3c0,0-2.2-4.1.2-11.6l-1.4-3.2-1.1,6.1c-.2,1.4-.5,1.5-.5,1.5a15.941,15.941,0,0,1,1-8.9c-.2,0-2.6-6.8-3-6.6Z" fill="#ff584c"/>
      <path id="Path_19" data-name="Path 19" d="M283.7,236.5s-2.3,38,24.4,33.6a6.565,6.565,0,0,0,6.9-3.4s-2-.1-1.3-3.9a19.1,19.1,0,0,0,.2-4.1,8.6,8.6,0,0,0-2.1-5s-4.4-10.7-21.9-14.9c0,0-3.8-3.1-4.8-3l2.7,6.4s4.6-2.2,8.5-.5c0,0-8.3.2-8.1,1.4a34.175,34.175,0,0,0,1.6,3.3s8.1-3.8,13.9-.9c0,0-9.9-1.1-13.4,2.1l2.6,4.5s8.3-4.4,15.1-1.4c0,0-10.4-.8-14.5,2.4l3.2,4.1s8.2-4.1,13.9-1.6c0,0-12.1.3-13.1,2.5,0,0,3.2,3.6,4.5,4.1,0,0,6-2.8,9.1-1.1,0,0-8.1,1.1-8.1,2,0,0,5.4,3.6,9,3.9a18.807,18.807,0,0,1-9.5-3.1,11.13,11.13,0,0,0,2.8,5.5s-3.8-.6-4.1-6.3c0,0-4.1-3-4.3-3.7,0,0-.5,5.8,1.1,9.3,0,0-3.6-3.1-2-10.3l-3.3-4s-1,7.6.1,10.8c0,0-3.2-3.7-.9-11.9l-2.6-4.4s-1.4,6.5-.9,10.3c0,0-2.2-4.1.2-11.6l-1.4-3.2-1.1,6.1c-.2,1.4-.5,1.5-.5,1.5a15.941,15.941,0,0,1,1-8.9c-.1,0-2.5-6.8-2.9-6.6ZM206.3,577s-37.1-8.8-37.2,18.3c0,0-1.7,4.5,2.2,7.3,0,0,.4-1.9,4.1-.6a13.669,13.669,0,0,0,4,.9,8.19,8.19,0,0,0,5.3-1.2s11.3-2.5,18.4-19c0,0,3.7-3.2,3.7-4.2L200,580s1.4,4.9-1,8.4c0,0,1.2-8.2,0-8.2-.3,0-3.6,1-3.6,1s2.3,8.6-1.5,13.9c0,0,2.8-9.6.2-13.5l-4.9,1.8s2.9,9-1.2,15.2c0,0,2.5-10.2.1-14.7l-4.6,2.5s2.7,8.8-.8,13.9c0,0,1.7-12-.2-13.3,0,0-4.1,2.5-4.8,3.7,0,0,1.8,6.4-.5,9.2,0,0,.3-8.2-.6-8.3,0,0-4.4,4.7-5.4,8.2a20.182,20.182,0,0,1,4.7-8.9,10.607,10.607,0,0,0-5.9,1.9s1.2-3.6,7-3c0,0,3.6-3.5,4.4-3.6,0,0-5.6-1.5-9.3-.5,0,0,3.6-3,10.5-.2l4.6-2.6s-7.3-2.3-10.7-1.7c0,0,4.2-2.5,11.9,1.2l4.8-1.8s-6.1-2.5-10-2.6c0,0,4.4-1.5,11.4,2.2l3.3-.9s-4.5-1.7-5.9-2.1-1.4-.8-1.4-.8a16.532,16.532,0,0,1,8.6,2.5c.2-.2,7.2-1.5,7.1-1.9ZM194.4,269.7s-36.1,12.2-21.9,35.2c0,0,1,4.7,5.7,5.1,0,0-.7-1.8,3.1-2.7a16.416,16.416,0,0,0,3.9-1.4,8.949,8.949,0,0,0,3.9-3.8s8.3-8.1,5.5-25.9c0,0,1.4-4.7.9-5.5l-4.9,5s3.8,3.5,3.6,7.7c0,0-3.3-7.6-4.4-7-.2.1-2.5,2.7-2.5,2.7s6.5,6.1,6.1,12.6c0,0-2.7-9.6-7-11.6l-3.2,4.1s7.2,6.1,7,13.5c0,0-3.2-10-7.7-12.5l-2.6,4.5s6.9,6,6.7,12.2c0,0-4.9-11.1-7.2-11.2,0,0-2.1,4.3-2.1,5.7,0,0,4.9,4.5,4.4,8,0,0-4.1-7.1-4.9-6.8,0,0-1.3,6.3-.3,9.8a20.023,20.023,0,0,1-.8-10,10.159,10.159,0,0,0-4,4.7s-.9-3.7,4.3-6.2c0,0,1.2-4.9,1.8-5.4,0,0-5.5,1.7-8.2,4.5,0,0,1.5-4.5,8.8-5.7l2.5-4.6s-7.4,1.9-10,4.2c0,0,2.2-4.3,10.7-5.3l3.1-4.1s-6.5,1.1-9.9,3.1c0,0,2.9-3.6,10.8-4.2l2.4-2.5s-4.7.9-6.1,1.3c-1.3.4-1.4.1-1.4.1a16.427,16.427,0,0,1,8.6-2.4c.4,0,5.6-4.9,5.3-5.2ZM67.2,488S63,525.9,89.9,522.8c0,0,4.7,1.1,7-3,0,0-2-.2-1.1-4a19,19,0,0,0,.4-4.1,8.844,8.844,0,0,0-1.8-5.2s-3.9-10.9-21.1-16c0,0-3.7-3.3-4.6-3.2l2.4,6.5s4.7-2,8.5,0c0,0-8.3-.2-8.2,1,0,.3,1.4,3.4,1.4,3.4s8.3-3.4,14-.2c0,0-9.9-1.6-13.4,1.4l2.4,4.7s8.6-4,15.2-.7c0,0-10.4-1.3-14.6,1.6l3,4.3s8.4-3.7,13.9-.9c0,0-12.1-.3-13.2,1.8,0,0,3,3.7,4.2,4.3,0,0,6.1-2.5,9.2-.6,0,0-8.1.7-8.2,1.5,0,0,5.2,3.8,8.8,4.4a19.078,19.078,0,0,1-9.4-3.6,11.433,11.433,0,0,0,2.5,5.6s-3.8-.7-3.8-6.5c0,0-3.9-3.2-4.1-4,0,0-.8,5.7.6,9.3,0,0-3.4-3.3-1.4-10.4L75.4,506s-1.5,7.6-.5,10.8c0,0-3-3.9-.3-11.9l-2.4-4.5s-1.7,6.4-1.4,10.3c0,0-2-4.2.8-11.6l-1.3-3.2s-1.2,4.7-1.4,6.1-.6,1.4-.6,1.4a17.6,17.6,0,0,1,1.4-8.8c.1.1-2-6.7-2.5-6.6ZM156.4,56.4S152.2,94.3,179,91.2c0,0,4.7,1.1,7-3,0,0-2-.2-1.1-4a19,19,0,0,0,.4-4.1,8.844,8.844,0,0,0-1.8-5.2s-3.9-10.9-21.1-16c0,0-3.7-3.3-4.6-3.2l2.4,6.5s4.7-2,8.5,0c0,0-8.3-.2-8.2,1,0,.3,1.4,3.4,1.4,3.4s8.3-3.4,14-.2c0,0-9.9-1.6-13.4,1.4l2.4,4.7s8.5-4,15.2-.7c0,0-10.4-1.3-14.6,1.6l3,4.3s8.4-3.7,13.9-.9c0,0-12.1-.3-13.2,1.8,0,0,3,3.7,4.2,4.3,0,0,6.1-2.5,9.1-.6,0,0-8.1.7-8.2,1.5,0,0,5.2,3.8,8.8,4.4a19.078,19.078,0,0,1-9.4-3.6,11.433,11.433,0,0,0,2.5,5.6s-3.8-.7-3.8-6.5c0,0-3.9-3.2-4.1-4,0,0-.8,5.7.6,9.3,0,0-3.4-3.3-1.4-10.4l-3.1-4.2s-1.4,7.5-.4,10.8c0,0-3-3.9-.3-11.9l-2.4-4.5s-1.7,6.4-1.4,10.3c0,0-2-4.2.8-11.6l-1.3-3.2s-1.2,4.7-1.4,6.1-.6,1.4-.6,1.4a15.66,15.66,0,0,1,1.4-8.8c.3.1-1.9-6.7-2.4-6.6Zm-5.1,92.7s-36.6,10.5-23.5,34.2a6.448,6.448,0,0,0,5.5,5.3s-.6-1.9,3.2-2.5a14.192,14.192,0,0,0,4-1.2,8.192,8.192,0,0,0,4.1-3.7s8.6-7.7,6.7-25.6c0,0,1.6-4.6,1.2-5.5l-5.1,4.7s3.6,3.6,3.3,7.8c0,0-3-7.8-4.1-7.2-.2.1-2.6,2.6-2.6,2.6s6.3,6.3,5.5,12.8c0,0-2.3-9.7-6.4-11.9l-3.4,4s6.9,6.4,6.4,13.8c0,0-2.8-10.1-7.1-12.9l-2.8,4.4s6.6,6.3,6.1,12.5c0,0-4.4-11.3-6.7-11.5,0,0-2.3,4.2-2.4,5.6,0,0,4.7,4.7,4.1,8.2,0,0-3.7-7.3-4.6-7,0,0-1.6,6.2-.7,9.8a18.88,18.88,0,0,1-.3-10,10.717,10.717,0,0,0-4.2,4.5s-.8-3.8,4.6-6c0,0,1.4-4.8,2.1-5.3,0,0-5.6,1.5-8.4,4.1,0,0,1.7-4.4,9.1-5.3l2.7-4.5s-7.5,1.6-10.1,3.7c0,0,2.4-4.2,10.9-4.8l3.3-4s-6.6.8-10,2.6c0,0,3.1-3.4,11-3.7l2.5-2.4s-4.8.7-6.1,1c-1.4.3-1.5,0-1.5,0a16.728,16.728,0,0,1,8.7-2.1c-.1.4,5.3-4.2,5-4.5Z" fill="#ff584c" opacity="0.1"/>
      <path id="Path_20" data-name="Path 20" d="M243.8,179.8s-32.8,19.4-14.1,39c0,0,1.9,4.4,6.6,3.8,0,0-1.1-1.7,2.5-3.3a13.846,13.846,0,0,0,3.5-2.2,8.469,8.469,0,0,0,3-4.6s6.4-9.7,0-26.5c0,0,.4-4.9-.2-5.6l-3.8,5.9s4.4,2.6,5.1,6.8c0,0-4.8-6.8-5.7-5.9-.2.2-1.9,3.2-1.9,3.2s7.6,4.6,8.6,11c0,0-4.7-8.8-9.2-9.9l-2.2,4.7s8.3,4.4,9.7,11.7c0,0-5.2-9.1-10.1-10.7l-1.6,4.9s8,4.5,9.1,10.6c0,0-7.1-9.9-9.4-9.4,0,0-1.2,4.6-.9,6,0,0,5.7,3.3,6,6.9,0,0-5.4-6.1-6.2-5.6,0,0,.1,6.4,1.8,9.7a19.143,19.143,0,0,1-2.8-9.6,10.612,10.612,0,0,0-2.9,5.4s-1.7-3.5,2.9-7c0,0,.2-5,.7-5.7,0,0-5,2.8-7.1,6.1,0,0,.5-4.7,7.4-7.4l1.5-5s-6.9,3.4-8.9,6.2c0,0,1.3-4.7,9.4-7.4l2.2-4.7s-6.1,2.5-9,5c0,0,2.1-4.1,9.7-6.4l1.8-2.9-5.7,2.5c-1.3.6-1.5.4-1.5.4a16.858,16.858,0,0,1,7.9-4.2c.1.2,4.2-5.6,3.8-5.8ZM292.2,489s-38.1-1-32.7,25.5c0,0-.7,4.7,3.6,6.7,0,0,0-2,3.9-1.4a18.893,18.893,0,0,0,4.1.1,8.583,8.583,0,0,0,5-2.3s10.5-4.8,14.1-22.4c0,0,3-3.9,2.8-4.9l-6.3,3s2.3,4.5.8,8.5c0,0-.5-8.3-1.7-8.1a33.363,33.363,0,0,0-3.3,1.7s4,7.9,1.4,13.9c0,0,.8-10-2.5-13.3l-4.4,2.8s4.7,8.2,1.9,15.1c0,0,.4-10.5-2.9-14.4l-4,3.3s4.4,8.1,2.1,13.8c0,0-.7-12.1-2.9-13,0,0-3.5,3.3-4,4.6,0,0,3,5.9,1.4,9.1,0,0-1.3-8-2.2-8,0,0-3.4,5.5-3.6,9.2a19.806,19.806,0,0,1,2.8-9.7,11.6,11.6,0,0,0-5.4,3s.4-3.8,6.2-4.3c0,0,2.8-4.2,3.6-4.4,0,0-5.8-.3-9.2,1.4,0,0,3-3.7,10.2-2.3l3.9-3.4s-7.6-.8-10.8.5c0,0,3.6-3.3,11.9-1.3l4.3-2.8s-6.5-1.2-10.3-.5c0,0,4-2.3,11.6-.2l3.1-1.5s-4.8-.8-6.2-.9-1.5-.5-1.5-.5a15.852,15.852,0,0,1,8.9.7c-.2-.2,6.4-2.8,6.3-3.3Z" fill="#ff584c"/>
      <path id="Path_21" data-name="Path 21" d="M906.7,478.4s2.3-38-24.4-33.6c0,0-4.7-.9-6.8,3.4,0,0,2,.1,1.3,3.9a19.1,19.1,0,0,0-.2,4.1,8.6,8.6,0,0,0,2.1,5s4.4,10.7,21.9,14.9c0,0,3.8,3.1,4.8,3l-2.7-6.4s-4.6,2.2-8.5.5c0,0,8.3-.2,8.1-1.4a34.176,34.176,0,0,0-1.6-3.3s-8.1,3.8-13.9.9c0,0,9.9,1.1,13.3-2.1l-2.6-4.5s-8.3,4.4-15.1,1.4c0,0,10.4.8,14.5-2.4l-3.2-4.1s-8.2,4.1-13.8,1.6c0,0,12.1-.3,13.1-2.5,0,0-3.2-3.6-4.5-4.1,0,0-6,2.8-9.1,1.1,0,0,8.1-1.1,8.1-2,0,0-5.4-3.6-9-3.9A18.807,18.807,0,0,1,888,451a11.13,11.13,0,0,0-2.8-5.5s3.8.6,4.1,6.3c0,0,4.1,3,4.3,3.7,0,0,.5-5.8-1.1-9.3,0,0,3.6,3.1,2,10.3l3.3,4s1-7.6-.1-10.8c0,0,3.2,3.7.9,11.9l2.6,4.4s1.4-6.5.9-10.3c0,0,2.2,4.1-.2,11.6l1.4,3.2,1.1-6.1c.2-1.4.5-1.5.5-1.5a15.941,15.941,0,0,1-1,8.9c-.1-.1,2.4,6.7,2.8,6.6ZM833.5,222.8s22.8-30.5-1.9-41.4c0,0-3.5-3.3-7.6-.9,0,0,1.6,1.1-1.1,4a15.474,15.474,0,0,0-2.4,3.3,8.374,8.374,0,0,0-1,5.4s-2.2,11.4,10.1,24.4c0,0,1.5,4.7,2.4,5.1l1.2-6.9s-5.1-.7-7.3-4.3c0,0,7.1,4.4,7.6,3.3.1-.2.5-3.7.5-3.7s-8.8-1.3-12.1-6.9c0,0,7.7,6.4,12.3,5.6l.3-5.2s-9.4-.9-13.4-7.1c0,0,8.3,6.4,13.4,6l-.4-5.2s-9.1-1-12.5-6.3c0,0,10.3,6.4,12.3,5.1,0,0-.7-4.7-1.5-5.9,0,0-6.5-.9-8.2-4.1,0,0,7.3,3.5,7.9,2.8,0,0-2.5-5.9-5.4-8.3a20,20,0,0,1,6.3,7.8,10.627,10.627,0,0,0,.6-6.1s2.9,2.5,0,7.6c0,0,1.8,4.7,1.5,5.5,0,0,3.6-4.5,4.2-8.3,0,0,1.3,4.5-4,9.7l.5,5.2s5-5.8,5.8-9.1c0,0,.6,4.8-5.8,10.4l-.2,5.1s4.7-4.6,6.4-8.1c0,0-.4,4.6-6.5,9.6l-.5,3.4,4.3-4.5c.9-1,1.3-.9,1.3-.9a16,16,0,0,1-5.7,6.9c-.2-.1-1.8,6.9-1.4,7ZM817.1,546.4s4.2-37.9-22.6-34.8c0,0-4.7-1.1-7,3,0,0,2,.2,1.1,4a19,19,0,0,0-.4,4.1,8.844,8.844,0,0,0,1.8,5.2s3.9,10.9,21.1,16c0,0,3.7,3.3,4.6,3.2l-2.4-6.5s-4.7,2-8.5,0c0,0,8.3.2,8.2-1,0-.3-1.4-3.4-1.4-3.4s-8.3,3.4-14,.2c0,0,9.9,1.6,13.4-1.4l-2.4-4.7s-8.5,4-15.2.7c0,0,10.4,1.3,14.6-1.6l-3-4.3s-8.4,3.7-13.9.9c0,0,12.1.3,13.2-1.8,0,0-3-3.7-4.2-4.3,0,0-6.1,2.5-9.1.6,0,0,8.1-.7,8.2-1.5,0,0-5.2-3.8-8.8-4.4a19.078,19.078,0,0,1,9.4,3.6,11.433,11.433,0,0,0-2.5-5.6s3.8.7,3.8,6.5c0,0,3.9,3.2,4.1,4,0,0,.8-5.7-.6-9.3,0,0,3.4,3.3,1.4,10.4l3.1,4.2s1.4-7.5.4-10.8c0,0,3,3.9.3,11.9l2.4,4.5s1.7-6.4,1.4-10.3c0,0,2,4.2-.8,11.6l1.3,3.2s1.2-4.7,1.4-6.1.6-1.4.6-1.4a15.661,15.661,0,0,1-1.4,8.8c-.2,0,2,6.7,2.4,6.6ZM744.4,626s4.2-37.9-22.6-34.8c0,0-4.7-1.1-7,3,0,0,2,.2,1.1,4a18.4,18.4,0,0,0-.4,4.1,8.324,8.324,0,0,0,1.8,5.1s3.9,10.9,21.1,15.9c0,0,3.6,3.3,4.6,3.2l-2.4-6.6s-4.7,2-8.5,0c0,0,8.3.2,8.2-1,0-.3-1.4-3.4-1.4-3.4s-8.3,3.4-14,.2c0,0,9.9,1.6,13.4-1.4l-2.4-4.7s-8.5,4-15.2.7c0,0,10.4,1.3,14.6-1.6l-3-4.3s-8.4,3.7-13.9.9c0,0,12.1.3,13.2-1.8,0,0-3-3.7-4.2-4.3,0,0-6.1,2.5-9.1.6,0,0,8.1-.7,8.2-1.6,0,0-5.2-3.8-8.8-4.4a19.078,19.078,0,0,1,9.4,3.6,11.433,11.433,0,0,0-2.5-5.6s3.8.8,3.8,6.6c0,0,3.9,3.2,4.1,4,0,0,.8-5.7-.6-9.3,0,0,3.4,3.3,1.4,10.4l3.1,4.2s1.4-7.5.4-10.8c0,0,3,3.9.3,11.9l2.4,4.5s1.7-6.4,1.4-10.3c0,0,2,4.2-.8,11.6l1.3,3.2s1.2-4.7,1.4-6.1.6-1.4.6-1.4a17.6,17.6,0,0,1-1.4,8.8c-.3.2,1.9,7,2.4,6.9ZM909,618.9s22.8-30.5-1.9-41.4c0,0-3.5-3.3-7.6-.9,0,0,1.6,1.1-1.1,4a15.473,15.473,0,0,0-2.4,3.3,8.374,8.374,0,0,0-1,5.4s-2.2,11.4,10.1,24.5c0,0,1.5,4.7,2.4,5.1l1.2-6.9s-5.1-.7-7.3-4.3c0,0,7.1,4.4,7.6,3.3.1-.2.5-3.7.5-3.7s-8.8-1.3-12.2-6.9c0,0,7.7,6.4,12.3,5.6l.3-5.2s-9.4-.9-13.4-7.1c0,0,8.3,6.4,13.4,6l-.4-5.2s-9.1-1-12.5-6.3c0,0,10.3,6.4,12.3,5.1,0,0-.7-4.7-1.5-5.9,0,0-6.5-.9-8.2-4.1,0,0,7.4,3.5,7.9,2.8,0,0-2.5-5.9-5.4-8.3a20,20,0,0,1,6.3,7.8,10.627,10.627,0,0,0,.6-6.1s2.9,2.5,0,7.6c0,0,1.8,4.7,1.5,5.5,0,0,3.6-4.5,4.2-8.3,0,0,1.3,4.5-4,9.7l.5,5.2s5-5.8,5.8-9.1c0,0,.6,4.8-5.8,10.4l-.2,5.1s4.7-4.6,6.4-8.1c0,0-.4,4.6-6.5,9.6l-.5,3.4,4.3-4.5c.9-1,1.2-.9,1.2-.9a16,16,0,0,1-5.7,6.9c-.1-.2-1.6,6.7-1.2,6.9ZM747.9,402.4s36.6-10.5,23.5-34.2a6.448,6.448,0,0,0-5.5-5.3s.6,1.9-3.2,2.5a14.192,14.192,0,0,0-4,1.2,8.192,8.192,0,0,0-4.1,3.7s-8.6,7.7-6.7,25.6c0,0-1.6,4.6-1.2,5.5l5.1-4.7s-3.6-3.6-3.3-7.8c0,0,3,7.8,4.1,7.2.2-.1,2.6-2.6,2.6-2.6s-6.3-6.3-5.5-12.8c0,0,2.3,9.7,6.4,11.9l3.4-4s-6.9-6.4-6.4-13.8c0,0,2.8,10.1,7.1,12.9l2.8-4.4s-6.7-6.3-6.2-12.5c0,0,4.4,11.3,6.7,11.5,0,0,2.3-4.2,2.4-5.6,0,0-4.7-4.7-4.1-8.2,0,0,3.7,7.3,4.6,7,0,0,1.6-6.2.7-9.8a18.881,18.881,0,0,1,.3,10,10.717,10.717,0,0,0,4.2-4.5s.8,3.8-4.6,6c0,0-1.4,4.8-2.1,5.3,0,0,5.6-1.5,8.4-4.1,0,0-1.7,4.4-9.1,5.3l-2.7,4.5s7.5-1.6,10.1-3.7c0,0-2.4,4.2-10.9,4.8l-3.3,4s6.6-.8,10-2.6c0,0-3.1,3.4-11,3.7l-2.5,2.4s4.8-.7,6.1-1c1.4-.3,1.5,0,1.5,0a15.73,15.73,0,0,1-8.7,2c.3-.4-5.1,4.2-4.9,4.6ZM722.7,289.8s32.2-20.4,12.9-39.4a6.589,6.589,0,0,0-6.8-3.6s1.1,1.7-2.4,3.3a19.182,19.182,0,0,0-3.5,2.3,8.571,8.571,0,0,0-2.9,4.7s-6.1,9.8.8,26.5c0,0-.3,4.9.4,5.6l3.6-6s-4.5-2.5-5.3-6.6c0,0,5,6.6,5.9,5.7.2-.2,1.8-3.3,1.8-3.3s-7.8-4.3-8.9-10.8c0,0,5,8.7,9.5,9.6l2.1-4.8s-8.5-4.2-10-11.4c0,0,5.5,8.9,10.4,10.3l1.4-5s-8.2-4.2-9.4-10.3c0,0,7.4,9.6,9.7,9.1,0,0,1-4.7.7-6,0,0-5.8-3.2-6.2-6.8,0,0,5.6,5.9,6.4,5.4,0,0-.3-6.4-2.1-9.6a20.173,20.173,0,0,1,3.1,9.5,11.13,11.13,0,0,0,2.8-5.5s1.8,3.4-2.7,7c0,0,0,5-.5,5.7,0,0,5-3,6.9-6.3,0,0-.4,4.7-7.2,7.6l-1.3,5s6.8-3.6,8.7-6.4c0,0-1.1,4.7-9.1,7.7l-2,4.7s6-2.7,8.9-5.3c0,0-2,4.2-9.5,6.7l-1.7,3s4.4-2,5.6-2.7,1.5-.4,1.5-.4a15.615,15.615,0,0,1-7.8,4.4c-.2.2-4.2,6.2-3.8,6.4Z" fill="#ff584c" opacity="0.1"/>
      <path id="Path_22" data-name="Path 22" d="M835.3,332.5s32.8-19.4,14.1-39c0,0-1.9-4.4-6.6-3.8,0,0,1.1,1.7-2.5,3.3a13.845,13.845,0,0,0-3.5,2.2,8.469,8.469,0,0,0-3,4.6s-6.4,9.7,0,26.5c0,0-.4,4.9.2,5.6l3.8-5.9s-4.4-2.6-5.1-6.8c0,0,4.8,6.8,5.7,5.9.2-.2,1.9-3.2,1.9-3.2s-7.7-4.6-8.6-11c0,0,4.7,8.8,9.2,9.9l2.2-4.7s-8.3-4.4-9.7-11.7c0,0,5.2,9.1,10.1,10.7l1.6-4.9s-8-4.5-9.1-10.6c0,0,7.1,9.9,9.4,9.4,0,0,1.2-4.6.9-6,0,0-5.7-3.3-6-6.9,0,0,5.4,6.1,6.2,5.6,0,0,0-6.4-1.8-9.7a19.143,19.143,0,0,1,2.8,9.6,10.612,10.612,0,0,0,2.9-5.4s1.7,3.5-2.9,7c0,0-.2,5-.7,5.7,0,0,5-2.8,7.1-6.1,0,0-.5,4.7-7.4,7.4l-1.5,5s6.9-3.4,8.9-6.2c0,0-1.3,4.7-9.4,7.4l-2.2,4.7s6.1-2.5,9-5c0,0-2.1,4.1-9.7,6.4l-1.8,2.9,5.7-2.5c1.2-.7,1.5-.4,1.5-.4a16.858,16.858,0,0,1-7.9,4.2c0-.2-4.1,5.6-3.8,5.8ZM713.4,477.9s38.1,1,32.7-25.5c0,0,.7-4.7-3.6-6.7,0,0,0,2-3.8,1.4a18.9,18.9,0,0,0-4.1-.1,8.583,8.583,0,0,0-5,2.3s-10.5,4.8-14.1,22.4c0,0-3,3.9-2.8,4.9l6.3-3s-2.3-4.5-.8-8.5c0,0,.5,8.3,1.7,8.1a33.363,33.363,0,0,0,3.3-1.7s-4-7.9-1.4-13.9c0,0-.8,10,2.5,13.3l4.4-2.8s-4.7-8.2-1.9-15.1c0,0-.4,10.5,2.9,14.4l4-3.3s-4.4-8.1-2.1-13.8c0,0,.7,12.1,2.9,13,0,0,3.5-3.3,4-4.6,0,0-3-5.9-1.4-9.1,0,0,1.3,8,2.2,8,0,0,3.4-5.5,3.6-9.2a19.805,19.805,0,0,1-2.8,9.7,11.6,11.6,0,0,0,5.4-3s-.4,3.8-6.2,4.3c0,0-2.8,4.2-3.6,4.4,0,0,5.8.3,9.2-1.4,0,0-3,3.7-10.2,2.3l-3.9,3.4s7.6.8,10.8-.5c0,0-3.6,3.3-11.9,1.3l-4.3,2.8s6.5,1.2,10.3.5c0,0-4,2.3-11.6.2l-3.1,1.5s4.8.8,6.2.9,1.5.5,1.5.5a15.852,15.852,0,0,1-8.9-.7c.1.1-6.5,2.8-6.4,3.3Z" fill="#ff584c"/>
    </g>
  </g>
</svg>
