<svg xmlns="http://www.w3.org/2000/svg" width="1009.5" height="839.6"><style><![CDATA[.K{enable-background:new}.L{opacity:.1}.M{fill:#ffa84c}]]></style><g class="M K"><path d="M586.6 111.4c-64.7-2.3-126.4-23.1-185.2-46S284.2 17.2 221 5.1C180.4-2.7 133.9-3.8 101.2 18 69.7 39 59.5 75.1 54 108.7c-4.1 25.3-6.5 51.9 4.7 75.5 7.8 16.4 21.7 30.2 31.4 46 33.5 54.7 9.8 122.2-26.4 175.6-17 25.1-36.8 49-49.9 75.7S-5.4 538.8 6.1 566c11.4 27 38.5 47.2 67.9 61.5 59.7 29 130 37.2 198.6 41.9 151.8 10.4 304.5 5.9 456.7 1.4 56.3-1.7 112.9-3.4 168.3-12.1 30.8-4.8 62.6-12.5 84.9-31 28.4-23.5 35.4-63.4 16.4-92.9-31.9-49.5-120-61.8-142.3-114.9-12.3-29.2.3-61.8 18.2-88.9 38.2-58.2 102.3-109.2 105.7-175.7 2.3-45.7-28.5-91.4-76.1-113-49.9-22.6-119.2-19.8-156 17.7-38 38.5-104.7 53.4-161.8 51.4z" class="L"/><ellipse cx="483.5" cy="781" rx="304" ry="41.1" class="L"/></g><g fill="#3a3768"><path d="M645.1 289.8h4.3a2.26 2.26 0 0 1 2.3 2.3v68.4a2.26 2.26 0 0 1-2.3 2.3h-4.3a2.26 2.26 0 0 1-2.3-2.3v-68.4a2.26 2.26 0 0 1 2.3-2.3zm-294.4-57.2h.4a2.26 2.26 0 0 1 2.3 2.3v19.5a2.26 2.26 0 0 1-2.3 2.3h-.4a2.26 2.26 0 0 1-2.3-2.3v-19.5a2.26 2.26 0 0 1 2.3-2.3zm-.2 44h1a2.26 2.26 0 0 1 2.3 2.3v37.3a2.26 2.26 0 0 1-2.3 2.3h-1a2.26 2.26 0 0 1-2.3-2.3v-37.3c0-1.2 1-2.3 2.3-2.3zm.1 56.5h.7a2.26 2.26 0 0 1 2.3 2.3V373a2.26 2.26 0 0 1-2.3 2.3h-.7a2.26 2.26 0 0 1-2.3-2.3v-37.6a2.26 2.26 0 0 1 2.3-2.3z"/><path d="M390.2 153.2h218.4c21.5 0 39 17.5 39 39v524.4c0 21.5-17.5 39-39 39H390.2c-21.5 0-39-17.5-39-39V192.2c0-21.6 17.4-39 39-39z"/></g><path d="M605.8 168.8h-34v4.1c0 10.7-8.7 19.4-19.4 19.4H444.2c-10.7 0-19.4-8.7-19.4-19.4v-4.1H393c-13 0-23.5 10.5-23.5 23.5v524c0 13 10.5 23.5 23.5 23.5h212.7c13 0 23.5-10.5 23.5-23.5V192.4c.1-13-10.4-23.6-23.4-23.6z" class="M"/><g fill="#e6e8ec"><path d="M474.7 171.2h33.6c2.1 0 3.9 1.7 3.9 3.9v.7c0 2.1-1.7 3.9-3.9 3.9h-33.6c-2.1 0-3.9-1.7-3.9-3.9v-.8c0-2.1 1.7-3.8 3.9-3.8z"/><circle cx="523.2" cy="175.4" r="4.8"/></g><g class="M"><path d="M750.2 126.7s-84.2-5.1-74.3 53.9c0 0-2 10.4 7.5 15.2 0 0 .2-4.4 8.6-2.9 3 .5 6.1.6 9.2.4 4.1-.3 8-1.9 11.2-4.6 0 0 23.7-9.8 32.9-48.5 0 0 6.8-8.4 6.5-10.6l-14.2 6.1s4.9 10.3 1 18.8c0 0-.5-18.4-3.2-18-.5.1-7.4 3.6-7.4 3.6s8.3 17.9 2 30.8c0 0 2.4-22-4.7-29.5l-10 5.8s9.8 18.4 3.1 33.5c0 0 1.7-23.1-5.3-32.1l-9.1 7.1s9.2 18.2 3.6 30.6c0 0-.7-26.9-5.5-28.9 0 0-7.9 7-9.1 9.9 0 0 6.3 13.2 2.4 20.2 0 0-2.4-17.9-4.3-18 0 0-7.9 11.9-8.7 20 0 0 .3-12.1 6.8-21.1 0 0-7.6 1.3-12.1 6.3 0 0 1.2-8.4 14-9.1 0 0 6.5-9 8.3-9.5 0 0-12.7-1.1-20.5 2.4 0 0 6.8-7.9 22.8-4.3l9-7.3s-16.8-2.3-23.9.2c0 0 8.2-7 26.3-1.9l9.7-5.8s-14.3-3.1-22.8-2c0 0 9-4.9 25.7.4l7-3.1s-10.5-2.1-13.5-2.4c-3.1-.3-3.2-1.2-3.2-1.2 6.6-1.1 13.5-.3 19.7 2.2 0-.1 14.8-5.6 14.5-6.6zm-418.1-24.3s38 2.9 34-23.9c0 0 1-4.7-3.3-7 0 0-.1 2-3.9 1.2-1.4-.2-2.8-.3-4.1-.3-1.9.1-3.6.8-5 2 0 0-10.8 4.2-15.2 21.7 0 0-3.2 3.8-3.1 4.8l6.4-2.6s-2.1-4.6-.4-8.5c0 0 .1 8.3 1.3 8.1.3 0 3.3-1.5 3.3-1.5s-3.7-8.2-.7-13.9c0 0-1.3 9.9 1.9 13.4l4.5-2.6s-4.3-8.4-1.2-15.1c0 0-1 10.4 2.2 14.5l4.1-3.1s-4-8.3-1.4-13.9c0 0 .1 12.1 2.3 13.1 0 0 3.6-3.1 4.2-4.4 0 0-2.7-6-1-9.1 0 0 1 8.1 1.9 8.1 0 0 3.7-5.3 4-8.9-.3 3.4-1.3 6.7-3.2 9.5 2.1-.4 4-1.3 5.5-2.7 0 0-.7 3.8-6.4 4 0 0-3.1 4.1-3.8 4.2 0 0 5.8.6 9.3-1 0 0-3.2 3.6-10.3 1.7l-4.1 3.2s7.6 1.1 10.8.1c0 0-3.7 3.1-11.9.7l-4.4 2.5s6.5 1.5 10.3 1.1c0 0-4.1 2.1-11.6-.4l-3.2 1.3s4.7 1 6.1 1.2 1.5.5 1.5.5c-3 .5-6.1.1-8.9-1.1.1.2-6.7 2.7-6.5 3.1z"/><ellipse cx="864.2" cy="773.3" rx="26.9" ry="4.5" class="K L"/><ellipse cx="91.1" cy="810.7" rx="26.9" ry="4.5" class="K L"/><ellipse cx="195.3" cy="835.1" rx="26.9" ry="4.5" class="K L"/><ellipse cx="805.2" cy="822.1" rx="40.2" ry="6.8"/><path d="M821.9 811c1.8-1.5 3.2-3.5 3.8-5.8.5-2.3-.5-5-2.7-5.9-2.5-.9-5.1.8-7.1 2.5s-4.3 3.7-6.9 3.3c2.7-2.5 4-6.2 3.3-9.8-.1-.7-.4-1.4-.9-2-1.4-1.5-3.8-.8-5.5.3-5.2 3.7-6.7 10.7-6.7 17.1-.5-2.3-.1-4.7-.1-7s-.7-5-2.6-6.2c-1.2-.7-2.6-1-4-.9-2.3-.1-4.9.2-6.5 1.9-2 2.1-1.5 5.7.3 8s4.3 3.8 6.8 5.4c1.9 1.2 3.6 2.7 4.8 4.6.1.3.3.5.4.8h14.6c3.2-1.7 6.2-3.8 9-6.3zm-625.3-87.7s5.5 7.2-2.5 18-14.6 20-12 26.8c0 0 12.1-20.2 22-20.4s3.4-12.3-7.5-24.4z"/></g><path d="M196.6 723.3c.5.7.9 1.5 1.1 2.3 9.6 11.3 14.8 21.8 5.5 22.1-8.6.3-18.9 15.7-21.4 19.5l.3.9s12.1-20.2 22-20.4 3.4-12.3-7.5-24.4z" class="K L"/><g fill="#ffd037"><path d="M206.9 732.4c0 2.5-.3 4.6-.6 4.6s-.6-2-.6-4.6.4-1.3.7-1.3.5-1.2.5 1.3z"/><path d="M210.4 735.5c-2.2 1.2-4.2 1.9-4.3 1.6s1.5-1.5 3.7-2.8 1.4-.3 1.5 0 1.3-.1-.9 1.2z"/></g><path d="M167.6 723.3s-5.5 7.2 2.5 18 14.6 20 12 26.8c0 0-12.1-20.2-22-20.4s-3.3-12.3 7.5-24.4z" class="M"/><path d="M167.6 723.3c-.5.7-.9 1.5-1.1 2.3-9.6 11.3-14.7 21.8-5.5 22.1 8.6.3 19 15.7 21.4 19.5l-.3.9s-12.1-20.2-22-20.4-3.3-12.3 7.5-24.4z" class="K L"/><g fill="#ffd037"><path d="M157.4 732.4c0 2.5.3 4.6.6 4.6s.6-2 .6-4.6-.4-1.3-.7-1.3-.5-1.2-.5 1.3z"/><path d="M153.9 735.5c2.2 1.2 4.1 1.9 4.3 1.6s-1.5-1.5-3.7-2.8-1.3-.3-1.5 0c-.2.4-1.3-.1.9 1.2z"/></g><path d="M159.2 767.1s15.4-.5 20-3.8 23.6-7.2 24.8-2 23.1 26.3 5.8 26.4-40.3-2.7-44.9-5.5-5.7-15.1-5.7-15.1z" fill="#a8a8a8"/><path d="M210 786c-17.3.1-40.3-2.7-44.9-5.5-3.5-2.2-4.9-9.8-5.4-13.4h-.5s1 12.4 5.6 15.2 27.6 5.7 44.9 5.5c5 0 6.7-1.8 6.6-4.5-.7 1.7-2.6 2.7-6.3 2.7z" opacity=".2" class="K"/><circle cx="501.2" cy="461.8" r="56.1" fill="#fff"/><path d="M574.9 454.4c0 41.4-33.6 74.9-74.9 74.9s-75-33.5-75-74.9 33.6-74.9 74.9-74.9 75 33.5 75 74.9zM491.3 494l55.6-55.6c1.9-1.9 1.9-4.9 0-6.8l-6.8-6.8c-1.9-1.9-4.9-1.9-6.8 0L488 470.1l-21.2-21.2c-1.9-1.9-4.9-1.9-6.8 0l-6.8 6.9c-1.9 1.9-1.9 4.9 0 6.8l31.4 31.4c1.7 2 4.8 2 6.7 0 0 .1 0 .1 0 0z" fill="#8e5624"/><g class="M"><path d="M166.9 385.8s-2.3 38 24.4 33.6c0 0 4.7.9 6.9-3.4 0 0-2-.1-1.3-3.9.2-1.4.3-2.8.2-4.1-.1-1.9-.9-3.6-2.1-5.1 0 0-4.4-10.7-21.9-14.8 0 0-3.8-3.1-4.8-3l2.8 6.4s4.6-2.2 8.5-.5c0 0-8.3.2-8.1 1.4 0 .3 1.6 3.3 1.6 3.3s8.1-3.8 13.9-.9c0 0-9.9-1.1-13.4 2.1l2.6 4.5s8.3-4.4 15.1-1.4c0 0-10.4-.8-14.5 2.4l3.2 4.1s8.2-4.2 13.9-1.6c0 0-12.1.3-13.1 2.5 0 0 3.2 3.6 4.5 4.1 0 0 6-2.8 9.1-1.1 0 0-8.1 1.1-8.1 2 0 0 5.4 3.6 9 3.9-3.4-.2-6.7-1.2-9.5-3.1a11.13 11.13 0 0 0 2.8 5.5s-3.8-.5-4.1-6.3c0 0-4.1-3-4.3-3.7 0 0-.5 5.8 1.1 9.3 0 0-3.6-3.1-2-10.3l-3.3-4s-1 7.6.1 10.8c0 0-3.2-3.7-.9-11.9l-2.6-4.4s-1.4 6.5-.9 10.3c0 0-2.2-4.1.2-11.6l-1.4-3.2-1.1 6.1c-.2 1.4-.5 1.5-.5 1.5-.5-3-.2-6.1 1-8.9-.2 0-2.6-6.8-3-6.6z"/><path d="M283.7 236.5s-2.3 38 24.4 33.6c0 0 4.7.9 6.9-3.4 0 0-2-.1-1.3-3.9.2-1.4.3-2.8.2-4.1-.1-1.8-.9-3.6-2.1-5 0 0-4.4-10.7-21.9-14.9 0 0-3.8-3.1-4.8-3l2.7 6.4s4.6-2.2 8.5-.5c0 0-8.3.2-8.1 1.4 0 .3 1.6 3.3 1.6 3.3s8.1-3.8 13.9-.9c0 0-9.9-1.1-13.4 2.1l2.6 4.5s8.3-4.4 15.1-1.4c0 0-10.4-.8-14.5 2.4l3.2 4.1s8.2-4.1 13.9-1.6c0 0-12.1.3-13.1 2.5 0 0 3.2 3.6 4.5 4.1 0 0 6-2.8 9.1-1.1 0 0-8.1 1.1-8.1 2 0 0 5.4 3.6 9 3.9-3.4-.2-6.7-1.2-9.5-3.1a11.13 11.13 0 0 0 2.8 5.5s-3.8-.6-4.1-6.3c0 0-4.1-3-4.3-3.7 0 0-.5 5.8 1.1 9.3 0 0-3.6-3.1-2-10.3l-3.3-4s-1 7.6.1 10.8c0 0-3.2-3.7-.9-11.9l-2.6-4.4s-1.4 6.5-.9 10.3c0 0-2.2-4.1.2-11.6l-1.4-3.2-1.1 6.1c-.2 1.4-.5 1.5-.5 1.5-.5-3-.2-6.1 1-8.9-.1 0-2.5-6.8-2.9-6.6zM206.3 577s-37.1-8.8-37.2 18.3c0 0-1.7 4.5 2.2 7.3 0 0 .4-1.9 4.1-.6a13.67 13.67 0 0 0 4 .9 8.19 8.19 0 0 0 5.3-1.2s11.3-2.5 18.4-19c0 0 3.7-3.2 3.7-4.2L200 580s1.4 4.9-1 8.4c0 0 1.2-8.2 0-8.2-.3 0-3.6 1-3.6 1s2.3 8.6-1.5 13.9c0 0 2.8-9.6.2-13.5l-4.9 1.8s2.9 9-1.2 15.2c0 0 2.5-10.2.1-14.7l-4.6 2.5s2.7 8.8-.8 13.9c0 0 1.7-12-.2-13.3 0 0-4.1 2.5-4.8 3.7 0 0 1.8 6.4-.5 9.2 0 0 .3-8.2-.6-8.3 0 0-4.4 4.7-5.4 8.2.8-3.3 2.4-6.4 4.7-8.9-2.1 0-4.1.7-5.9 1.9 0 0 1.2-3.6 7-3 0 0 3.6-3.5 4.4-3.6 0 0-5.6-1.5-9.3-.5 0 0 3.6-3 10.5-.2l4.6-2.6s-7.3-2.3-10.7-1.7c0 0 4.2-2.5 11.9 1.2l4.8-1.8s-6.1-2.5-10-2.6c0 0 4.4-1.5 11.4 2.2l3.3-.9s-4.5-1.7-5.9-2.1-1.4-.8-1.4-.8c3 0 6 .9 8.6 2.5.2-.2 7.2-1.5 7.1-1.9zm-11.9-307.3s-36.1 12.2-21.9 35.2c0 0 1 4.7 5.7 5.1 0 0-.7-1.8 3.1-2.7 1.4-.3 2.7-.8 3.9-1.4 1.7-.8 3-2.2 3.9-3.8 0 0 8.3-8.1 5.5-25.9 0 0 1.4-4.7.9-5.5l-4.9 5s3.8 3.5 3.6 7.7c0 0-3.3-7.6-4.4-7-.2.1-2.5 2.7-2.5 2.7s6.5 6.1 6.1 12.6c0 0-2.7-9.6-7-11.6l-3.2 4.1s7.2 6.1 7 13.5c0 0-3.2-10-7.7-12.5l-2.6 4.5s6.9 6 6.7 12.2c0 0-4.9-11.1-7.2-11.2 0 0-2.1 4.3-2.1 5.7 0 0 4.9 4.5 4.4 8 0 0-4.1-7.1-4.9-6.8 0 0-1.3 6.3-.3 9.8-1.1-3.2-1.4-6.7-.8-10-1.8 1.1-3.2 2.8-4 4.7 0 0-.9-3.7 4.3-6.2 0 0 1.2-4.9 1.8-5.4 0 0-5.5 1.7-8.2 4.5 0 0 1.5-4.5 8.8-5.7l2.5-4.6s-7.4 1.9-10 4.2c0 0 2.2-4.3 10.7-5.3l3.1-4.1s-6.5 1.1-9.9 3.1c0 0 2.9-3.6 10.8-4.2l2.4-2.5s-4.7.9-6.1 1.3c-1.3.4-1.4.1-1.4.1 2.6-1.6 5.6-2.4 8.6-2.4.4 0 5.6-4.9 5.3-5.2zM67.2 488s-4.2 37.9 22.7 34.8c0 0 4.7 1.1 7-3 0 0-2-.2-1.1-4 .3-1.4.4-2.7.4-4.1 0-1.9-.7-3.7-1.8-5.2 0 0-3.9-10.9-21.1-16 0 0-3.7-3.3-4.6-3.2l2.4 6.5s4.7-2 8.5 0c0 0-8.3-.2-8.2 1 0 .3 1.4 3.4 1.4 3.4s8.3-3.4 14-.2c0 0-9.9-1.6-13.4 1.4l2.4 4.7s8.6-4 15.2-.7c0 0-10.4-1.3-14.6 1.6l3 4.3s8.4-3.7 13.9-.9c0 0-12.1-.3-13.2 1.8 0 0 3 3.7 4.2 4.3 0 0 6.1-2.5 9.2-.6 0 0-8.1.7-8.2 1.5 0 0 5.2 3.8 8.8 4.4-3.4-.3-6.6-1.6-9.4-3.6.3 2.1 1.2 4 2.5 5.6 0 0-3.8-.7-3.8-6.5 0 0-3.9-3.2-4.1-4 0 0-.8 5.7.6 9.3 0 0-3.4-3.3-1.4-10.4l-3.1-4.2s-1.5 7.6-.5 10.8c0 0-3-3.9-.3-11.9l-2.4-4.5s-1.7 6.4-1.4 10.3c0 0-2-4.2.8-11.6l-1.3-3.2s-1.2 4.7-1.4 6.1-.6 1.4-.6 1.4c-.3-3 .2-6.1 1.4-8.8.1.1-2-6.7-2.5-6.6zm89.2-431.6s-4.2 37.9 22.6 34.8c0 0 4.7 1.1 7-3 0 0-2-.2-1.1-4 .3-1.4.4-2.7.4-4.1 0-1.9-.7-3.7-1.8-5.2 0 0-3.9-10.9-21.1-16 0 0-3.7-3.3-4.6-3.2l2.4 6.5s4.7-2 8.5 0c0 0-8.3-.2-8.2 1 0 .3 1.4 3.4 1.4 3.4s8.3-3.4 14-.2c0 0-9.9-1.6-13.4 1.4l2.4 4.7s8.5-4 15.2-.7c0 0-10.4-1.3-14.6 1.6l3 4.3s8.4-3.7 13.9-.9c0 0-12.1-.3-13.2 1.8 0 0 3 3.7 4.2 4.3 0 0 6.1-2.5 9.1-.6 0 0-8.1.7-8.2 1.5 0 0 5.2 3.8 8.8 4.4-3.4-.3-6.6-1.6-9.4-3.6.3 2.1 1.2 4 2.5 5.6 0 0-3.8-.7-3.8-6.5 0 0-3.9-3.2-4.1-4 0 0-.8 5.7.6 9.3 0 0-3.4-3.3-1.4-10.4l-3.1-4.2s-1.4 7.5-.4 10.8c0 0-3-3.9-.3-11.9l-2.4-4.5s-1.7 6.4-1.4 10.3c0 0-2-4.2.8-11.6l-1.3-3.2s-1.2 4.7-1.4 6.1-.6 1.4-.6 1.4a15.66 15.66 0 0 1 1.4-8.8c.3.1-1.9-6.7-2.4-6.6zm-5.1 92.7s-36.6 10.5-23.5 34.2c0 0 .7 4.7 5.5 5.3 0 0-.6-1.9 3.2-2.5 1.4-.2 2.7-.6 4-1.2 1.7-.7 3.2-2 4.1-3.7 0 0 8.6-7.7 6.7-25.6 0 0 1.6-4.6 1.2-5.5l-5.1 4.7s3.6 3.6 3.3 7.8c0 0-3-7.8-4.1-7.2-.2.1-2.6 2.6-2.6 2.6s6.3 6.3 5.5 12.8c0 0-2.3-9.7-6.4-11.9l-3.4 4s6.9 6.4 6.4 13.8c0 0-2.8-10.1-7.1-12.9l-2.8 4.4s6.6 6.3 6.1 12.5c0 0-4.4-11.3-6.7-11.5 0 0-2.3 4.2-2.4 5.6 0 0 4.7 4.7 4.1 8.2 0 0-3.7-7.3-4.6-7 0 0-1.6 6.2-.7 9.8a18.88 18.88 0 0 1-.3-10c-1.8 1.1-3.3 2.6-4.2 4.5 0 0-.8-3.8 4.6-6 0 0 1.4-4.8 2.1-5.3 0 0-5.6 1.5-8.4 4.1 0 0 1.7-4.4 9.1-5.3l2.7-4.5s-7.5 1.6-10.1 3.7c0 0 2.4-4.2 10.9-4.8l3.3-4s-6.6.8-10 2.6c0 0 3.1-3.4 11-3.7l2.5-2.4s-4.8.7-6.1 1c-1.4.3-1.5 0-1.5 0 2.7-1.5 5.7-2.2 8.7-2.1-.1.4 5.3-4.2 5-4.5z" class="K L"/><path d="M243.8 179.8s-32.8 19.4-14.1 39c0 0 1.9 4.4 6.6 3.8 0 0-1.1-1.7 2.5-3.3 1.3-.6 2.5-1.3 3.5-2.2 1.5-1.1 2.5-2.8 3-4.6 0 0 6.4-9.7 0-26.5 0 0 .4-4.9-.2-5.6l-3.8 5.9s4.4 2.6 5.1 6.8c0 0-4.8-6.8-5.7-5.9-.2.2-1.9 3.2-1.9 3.2s7.6 4.6 8.6 11c0 0-4.7-8.8-9.2-9.9l-2.2 4.7s8.3 4.4 9.7 11.7c0 0-5.2-9.1-10.1-10.7l-1.6 4.9s8 4.5 9.1 10.6c0 0-7.1-9.9-9.4-9.4 0 0-1.2 4.6-.9 6 0 0 5.7 3.3 6 6.9 0 0-5.4-6.1-6.2-5.6 0 0 .1 6.4 1.8 9.7-1.8-2.9-2.7-6.2-2.8-9.6-1.5 1.5-2.5 3.4-2.9 5.4 0 0-1.7-3.5 2.9-7 0 0 .2-5 .7-5.7 0 0-5 2.8-7.1 6.1 0 0 .5-4.7 7.4-7.4l1.5-5s-6.9 3.4-8.9 6.2c0 0 1.3-4.7 9.4-7.4l2.2-4.7s-6.1 2.5-9 5c0 0 2.1-4.1 9.7-6.4l1.8-2.9-5.7 2.5c-1.3.6-1.5.4-1.5.4 2.2-2.1 4.9-3.5 7.9-4.2.1.2 4.2-5.6 3.8-5.8zM292.2 489s-38.1-1-32.7 25.5c0 0-.7 4.7 3.6 6.7 0 0 0-2 3.9-1.4 1.4.2 2.8.2 4.1.1 1.9-.2 3.6-1 5-2.3 0 0 10.5-4.8 14.1-22.4 0 0 3-3.9 2.8-4.9l-6.3 3s2.3 4.5.8 8.5c0 0-.5-8.3-1.7-8.1-.3 0-3.3 1.7-3.3 1.7s4 7.9 1.4 13.9c0 0 .8-10-2.5-13.3l-4.4 2.8s4.7 8.2 1.9 15.1c0 0 .4-10.5-2.9-14.4l-4 3.3s4.4 8.1 2.1 13.8c0 0-.7-12.1-2.9-13 0 0-3.5 3.3-4 4.6 0 0 3 5.9 1.4 9.1 0 0-1.3-8-2.2-8 0 0-3.4 5.5-3.6 9.2.1-3.4 1-6.7 2.8-9.7-2 .5-3.9 1.5-5.4 3 0 0 .4-3.8 6.2-4.3 0 0 2.8-4.2 3.6-4.4 0 0-5.8-.3-9.2 1.4 0 0 3-3.7 10.2-2.3l3.9-3.4s-7.6-.8-10.8.5c0 0 3.6-3.3 11.9-1.3l4.3-2.8s-6.5-1.2-10.3-.5c0 0 4-2.3 11.6-.2l3.1-1.5s-4.8-.8-6.2-.9-1.5-.5-1.5-.5c3-.6 6.1-.4 8.9.7-.2-.2 6.4-2.8 6.3-3.3z"/><path d="M906.7 478.4s2.3-38-24.4-33.6c0 0-4.7-.9-6.8 3.4 0 0 2 .1 1.3 3.9-.2 1.4-.3 2.8-.2 4.1.1 1.8.9 3.6 2.1 5 0 0 4.4 10.7 21.9 14.9 0 0 3.8 3.1 4.8 3l-2.7-6.4s-4.6 2.2-8.5.5c0 0 8.3-.2 8.1-1.4 0-.3-1.6-3.3-1.6-3.3s-8.1 3.8-13.9.9c0 0 9.9 1.1 13.3-2.1l-2.6-4.5s-8.3 4.4-15.1 1.4c0 0 10.4.8 14.5-2.4l-3.2-4.1s-8.2 4.1-13.8 1.6c0 0 12.1-.3 13.1-2.5 0 0-3.2-3.6-4.5-4.1 0 0-6 2.8-9.1 1.1 0 0 8.1-1.1 8.1-2 0 0-5.4-3.6-9-3.9 3.4.2 6.7 1.2 9.5 3.1a11.13 11.13 0 0 0-2.8-5.5s3.8.6 4.1 6.3c0 0 4.1 3 4.3 3.7 0 0 .5-5.8-1.1-9.3 0 0 3.6 3.1 2 10.3l3.3 4s1-7.6-.1-10.8c0 0 3.2 3.7.9 11.9l2.6 4.4s1.4-6.5.9-10.3c0 0 2.2 4.1-.2 11.6l1.4 3.2 1.1-6.1c.2-1.4.5-1.5.5-1.5.5 3 .2 6.1-1 8.9-.1-.1 2.4 6.7 2.8 6.6zm-73.2-255.6s22.8-30.5-1.9-41.4c0 0-3.5-3.3-7.6-.9 0 0 1.6 1.1-1.1 4-.9 1-1.8 2.1-2.4 3.3-.9 1.6-1.3 3.5-1 5.4 0 0-2.2 11.4 10.1 24.4 0 0 1.5 4.7 2.4 5.1l1.2-6.9s-5.1-.7-7.3-4.3c0 0 7.1 4.4 7.6 3.3.1-.2.5-3.7.5-3.7s-8.8-1.3-12.1-6.9c0 0 7.7 6.4 12.3 5.6l.3-5.2s-9.4-.9-13.4-7.1c0 0 8.3 6.4 13.4 6l-.4-5.2s-9.1-1-12.5-6.3c0 0 10.3 6.4 12.3 5.1 0 0-.7-4.7-1.5-5.9 0 0-6.5-.9-8.2-4.1 0 0 7.3 3.5 7.9 2.8 0 0-2.5-5.9-5.4-8.3 2.7 2 4.9 4.7 6.3 7.8.8-1.9 1-4.1.6-6.1 0 0 2.9 2.5 0 7.6 0 0 1.8 4.7 1.5 5.5 0 0 3.6-4.5 4.2-8.3 0 0 1.3 4.5-4 9.7l.5 5.2s5-5.8 5.8-9.1c0 0 .6 4.8-5.8 10.4l-.2 5.1s4.7-4.6 6.4-8.1c0 0-.4 4.6-6.5 9.6l-.5 3.4 4.3-4.5c.9-1 1.3-.9 1.3-.9a16 16 0 0 1-5.7 6.9c-.2-.1-1.8 6.9-1.4 7zm-16.4 323.6s4.2-37.9-22.6-34.8c0 0-4.7-1.1-7 3 0 0 2 .2 1.1 4-.3 1.4-.4 2.7-.4 4.1 0 1.9.7 3.7 1.8 5.2 0 0 3.9 10.9 21.1 16 0 0 3.7 3.3 4.6 3.2l-2.4-6.5s-4.7 2-8.5 0c0 0 8.3.2 8.2-1 0-.3-1.4-3.4-1.4-3.4s-8.3 3.4-14 .2c0 0 9.9 1.6 13.4-1.4l-2.4-4.7s-8.5 4-15.2.7c0 0 10.4 1.3 14.6-1.6l-3-4.3s-8.4 3.7-13.9.9c0 0 12.1.3 13.2-1.8 0 0-3-3.7-4.2-4.3 0 0-6.1 2.5-9.1.6 0 0 8.1-.7 8.2-1.5 0 0-5.2-3.8-8.8-4.4 3.4.3 6.6 1.6 9.4 3.6-.3-2.1-1.2-4-2.5-5.6 0 0 3.8.7 3.8 6.5 0 0 3.9 3.2 4.1 4 0 0 .8-5.7-.6-9.3 0 0 3.4 3.3 1.4 10.4l3.1 4.2s1.4-7.5.4-10.8c0 0 3 3.9.3 11.9l2.4 4.5s1.7-6.4 1.4-10.3c0 0 2 4.2-.8 11.6l1.3 3.2s1.2-4.7 1.4-6.1.6-1.4.6-1.4a15.66 15.66 0 0 1-1.4 8.8c-.2 0 2 6.7 2.4 6.6zM744.4 626s4.2-37.9-22.6-34.8c0 0-4.7-1.1-7 3 0 0 2 .2 1.1 4-.3 1.3-.4 2.7-.4 4.1 0 1.9.7 3.7 1.8 5.1 0 0 3.9 10.9 21.1 15.9 0 0 3.6 3.3 4.6 3.2l-2.4-6.6s-4.7 2-8.5 0c0 0 8.3.2 8.2-1 0-.3-1.4-3.4-1.4-3.4s-8.3 3.4-14 .2c0 0 9.9 1.6 13.4-1.4l-2.4-4.7s-8.5 4-15.2.7c0 0 10.4 1.3 14.6-1.6l-3-4.3s-8.4 3.7-13.9.9c0 0 12.1.3 13.2-1.8 0 0-3-3.7-4.2-4.3 0 0-6.1 2.5-9.1.6 0 0 8.1-.7 8.2-1.6 0 0-5.2-3.8-8.8-4.4 3.4.3 6.6 1.6 9.4 3.6-.3-2.1-1.2-4-2.5-5.6 0 0 3.8.8 3.8 6.6 0 0 3.9 3.2 4.1 4 0 0 .8-5.7-.6-9.3 0 0 3.4 3.3 1.4 10.4l3.1 4.2s1.4-7.5.4-10.8c0 0 3 3.9.3 11.9l2.4 4.5s1.7-6.4 1.4-10.3c0 0 2 4.2-.8 11.6l1.3 3.2s1.2-4.7 1.4-6.1.6-1.4.6-1.4c.3 3-.2 6.1-1.4 8.8-.3.2 1.9 7 2.4 6.9zm164.6-7.1s22.8-30.5-1.9-41.4c0 0-3.5-3.3-7.6-.9 0 0 1.6 1.1-1.1 4-.9 1-1.8 2.1-2.4 3.3-.9 1.6-1.3 3.5-1 5.4 0 0-2.2 11.4 10.1 24.5 0 0 1.5 4.7 2.4 5.1l1.2-6.9s-5.1-.7-7.3-4.3c0 0 7.1 4.4 7.6 3.3.1-.2.5-3.7.5-3.7s-8.8-1.3-12.2-6.9c0 0 7.7 6.4 12.3 5.6l.3-5.2s-9.4-.9-13.4-7.1c0 0 8.3 6.4 13.4 6l-.4-5.2s-9.1-1-12.5-6.3c0 0 10.3 6.4 12.3 5.1 0 0-.7-4.7-1.5-5.9 0 0-6.5-.9-8.2-4.1 0 0 7.4 3.5 7.9 2.8 0 0-2.5-5.9-5.4-8.3 2.7 2 4.9 4.7 6.3 7.8.8-1.9 1-4.1.6-6.1 0 0 2.9 2.5 0 7.6 0 0 1.8 4.7 1.5 5.5 0 0 3.6-4.5 4.2-8.3 0 0 1.3 4.5-4 9.7l.5 5.2s5-5.8 5.8-9.1c0 0 .6 4.8-5.8 10.4l-.2 5.1s4.7-4.6 6.4-8.1c0 0-.4 4.6-6.5 9.6l-.5 3.4 4.3-4.5c.9-1 1.2-.9 1.2-.9a16 16 0 0 1-5.7 6.9c-.1-.2-1.6 6.7-1.2 6.9zM747.9 402.4s36.6-10.5 23.5-34.2c0 0-.7-4.7-5.5-5.3 0 0 .6 1.9-3.2 2.5-1.4.2-2.7.6-4 1.2-1.7.7-3.2 2-4.1 3.7 0 0-8.6 7.7-6.7 25.6 0 0-1.6 4.6-1.2 5.5l5.1-4.7s-3.6-3.6-3.3-7.8c0 0 3 7.8 4.1 7.2.2-.1 2.6-2.6 2.6-2.6s-6.3-6.3-5.5-12.8c0 0 2.3 9.7 6.4 11.9l3.4-4s-6.9-6.4-6.4-13.8c0 0 2.8 10.1 7.1 12.9l2.8-4.4s-6.7-6.3-6.2-12.5c0 0 4.4 11.3 6.7 11.5 0 0 2.3-4.2 2.4-5.6 0 0-4.7-4.7-4.1-8.2 0 0 3.7 7.3 4.6 7 0 0 1.6-6.2.7-9.8a18.88 18.88 0 0 1 .3 10c1.8-1.1 3.3-2.6 4.2-4.5 0 0 .8 3.8-4.6 6 0 0-1.4 4.8-2.1 5.3 0 0 5.6-1.5 8.4-4.1 0 0-1.7 4.4-9.1 5.3l-2.7 4.5s7.5-1.6 10.1-3.7c0 0-2.4 4.2-10.9 4.8l-3.3 4s6.6-.8 10-2.6c0 0-3.1 3.4-11 3.7l-2.5 2.4s4.8-.7 6.1-1c1.4-.3 1.5 0 1.5 0-2.7 1.5-5.7 2.2-8.7 2 .3-.4-5.1 4.2-4.9 4.6zm-25.2-112.6s32.2-20.4 12.9-39.4c0 0-2-4.3-6.8-3.6 0 0 1.1 1.7-2.4 3.3-1.2.6-2.4 1.4-3.5 2.3-1.4 1.2-2.5 2.8-2.9 4.7 0 0-6.1 9.8.8 26.5 0 0-.3 4.9.4 5.6l3.6-6s-4.5-2.5-5.3-6.6c0 0 5 6.6 5.9 5.7.2-.2 1.8-3.3 1.8-3.3s-7.8-4.3-8.9-10.8c0 0 5 8.7 9.5 9.6l2.1-4.8s-8.5-4.2-10-11.4c0 0 5.5 8.9 10.4 10.3l1.4-5s-8.2-4.2-9.4-10.3c0 0 7.4 9.6 9.7 9.1 0 0 1-4.7.7-6 0 0-5.8-3.2-6.2-6.8 0 0 5.6 5.9 6.4 5.4 0 0-.3-6.4-2.1-9.6 1.8 2.9 2.9 6.1 3.1 9.5a11.13 11.13 0 0 0 2.8-5.5s1.8 3.4-2.7 7c0 0 0 5-.5 5.7 0 0 5-3 6.9-6.3 0 0-.4 4.7-7.2 7.6l-1.3 5s6.8-3.6 8.7-6.4c0 0-1.1 4.7-9.1 7.7l-2 4.7s6-2.7 8.9-5.3c0 0-2 4.2-9.5 6.7l-1.7 3s4.4-2 5.6-2.7 1.5-.4 1.5-.4c-2.1 2.2-4.8 3.7-7.8 4.4-.2.2-4.2 6.2-3.8 6.4z" class="K L"/><path d="M835.3 332.5s32.8-19.4 14.1-39c0 0-1.9-4.4-6.6-3.8 0 0 1.1 1.7-2.5 3.3-1.3.6-2.5 1.3-3.5 2.2-1.5 1.1-2.5 2.8-3 4.6 0 0-6.4 9.7 0 26.5 0 0-.4 4.9.2 5.6l3.8-5.9s-4.4-2.6-5.1-6.8c0 0 4.8 6.8 5.7 5.9.2-.2 1.9-3.2 1.9-3.2s-7.7-4.6-8.6-11c0 0 4.7 8.8 9.2 9.9l2.2-4.7s-8.3-4.4-9.7-11.7c0 0 5.2 9.1 10.1 10.7l1.6-4.9s-8-4.5-9.1-10.6c0 0 7.1 9.9 9.4 9.4 0 0 1.2-4.6.9-6 0 0-5.7-3.3-6-6.9 0 0 5.4 6.1 6.2 5.6 0 0 0-6.4-1.8-9.7 1.8 2.9 2.7 6.2 2.8 9.6 1.5-1.5 2.5-3.4 2.9-5.4 0 0 1.7 3.5-2.9 7 0 0-.2 5-.7 5.7 0 0 5-2.8 7.1-6.1 0 0-.5 4.7-7.4 7.4l-1.5 5s6.9-3.4 8.9-6.2c0 0-1.3 4.7-9.4 7.4l-2.2 4.7s6.1-2.5 9-5c0 0-2.1 4.1-9.7 6.4l-1.8 2.9 5.7-2.5c1.2-.7 1.5-.4 1.5-.4-2.2 2.1-4.9 3.5-7.9 4.2 0-.2-4.1 5.6-3.8 5.8zM713.4 477.9s38.1 1 32.7-25.5c0 0 .7-4.7-3.6-6.7 0 0 0 2-3.8 1.4-1.4-.2-2.8-.2-4.1-.1-1.9.2-3.6 1-5 2.3 0 0-10.5 4.8-14.1 22.4 0 0-3 3.9-2.8 4.9l6.3-3s-2.3-4.5-.8-8.5c0 0 .5 8.3 1.7 8.1.3 0 3.3-1.7 3.3-1.7s-4-7.9-1.4-13.9c0 0-.8 10 2.5 13.3l4.4-2.8s-4.7-8.2-1.9-15.1c0 0-.4 10.5 2.9 14.4l4-3.3s-4.4-8.1-2.1-13.8c0 0 .7 12.1 2.9 13 0 0 3.5-3.3 4-4.6 0 0-3-5.9-1.4-9.1 0 0 1.3 8 2.2 8 0 0 3.4-5.5 3.6-9.2-.1 3.4-1 6.7-2.8 9.7 2-.5 3.9-1.5 5.4-3 0 0-.4 3.8-6.2 4.3 0 0-2.8 4.2-3.6 4.4 0 0 5.8.3 9.2-1.4 0 0-3 3.7-10.2 2.3l-3.9 3.4s7.6.8 10.8-.5c0 0-3.6 3.3-11.9 1.3l-4.3 2.8s6.5 1.2 10.3.5c0 0-4 2.3-11.6.2l-3.1 1.5s4.8.8 6.2.9 1.5.5 1.5.5c-3 .6-6.1.4-8.9-.7.1.1-6.5 2.8-6.4 3.3z"/></g></svg>