<svg xmlns="http://www.w3.org/2000/svg" xmlns:xlink="http://www.w3.org/1999/xlink" width="630.6" height="486.3"><style><![CDATA[.K{enable-background:new}.L{opacity:.3}.M{fill:#ffa84c}.N{fill:#f2f2f2}]]></style><path d="M365 100.8c-39.8-1.3-77.7-14-113.9-28S178.9 43.3 140 36c-25-4.7-53.6-5.3-73.6 8.1C47.1 57 40.8 79.3 37.5 99.9c-2.5 15.6-3.9 31.9 3 46.4 4.8 10.1 13.4 18.5 19.4 28.2 20.7 33.6 6.2 75.1-16 108-10.4 15.5-22.6 30.2-30.6 46.6s-11.7 35.3-4.6 52c7 16.6 23.7 29 41.8 37.7 36.7 17.7 80 22.7 122.2 25.5 93.3 6.2 187.2 3.2 280.8.2 34.6-1.1 69.4-2.3 103.5-7.7 18.9-3 38.5-7.8 52.2-19.2 17.4-14.5 21.7-39 10-57.1-19.7-30.4-73.9-37.8-87.7-70.4-7.6-17.9.1-38 11.1-54.7 23.4-35.8 62.7-67.3 64.7-108.2 1.3-28.1-17.7-56.2-46.9-69.4-30.7-13.8-73.3-12-95.9 11.1-23.4 23.8-64.4 33.1-99.5 31.9z" class="K L M"/><path d="M584.1 213.9v227.5c0 11.6-9.4 21.1-21.1 21.1H82.6c-11.6 0-21.1-9.4-21.1-21.1V213.9c.1-11.5 9.5-20.8 21.1-20.8H563c11.6 0 21 9.2 21.1 20.8z" class="N"/><path d="M183.6 242.5h-82.1c-5 0-9.1 4.1-9.1 9.1V363c0 5 4.1 9.1 9.1 9.1h82.1c5 0 9.1-4 9.1-9.1V251.6c0-5-4.1-9.1-9.1-9.1z" class="K L M"/><path d="M584.1 213.9H61.6c.1-11.5 9.5-20.8 21.1-20.8H563c11.6 0 21 9.2 21.1 20.8z" fill="#e6e6e6"/><g class="N"><circle cx="81.7" cy="203.5" r="4.6"/><circle cx="95.4" cy="203.5" r="4.6"/><circle cx="109.1" cy="203.5" r="4.6"/></g><path d="M232.9 235.4h100.5a3.37 3.37 0 0 1 3.4 3.4v14.7a3.37 3.37 0 0 1-3.4 3.4H232.9a3.37 3.37 0 0 1-3.4-3.4v-14.7a3.37 3.37 0 0 1 3.4-3.4zm214.7 0h100.5a3.37 3.37 0 0 1 3.4 3.4v14.7a3.37 3.37 0 0 1-3.4 3.4H447.6a3.37 3.37 0 0 1-3.4-3.4v-14.7a3.37 3.37 0 0 1 3.4-3.4zM234 278.3h313c2.5 0 4.6 2 4.6 4.6V413c0 2.5-2 4.6-4.6 4.6H234c-2.5 0-4.6-2-4.6-4.6V282.9c.1-2.5 2.1-4.6 4.6-4.6z" fill="#e6e6e6"/><g class="N"><use xlink:href="#B"/><use xlink:href="#B" y="18.2"/><path d="M256.8 331h267.4c.5 0 1 .4 1 1v4.5c0 .5-.4 1-1 1H256.8c-.5 0-1-.4-1-1V332a1.08 1.08 0 0 1 1-1zm0 18.2h267.4c.5 0 1 .4 1 1v4.5c0 .5-.4 1-1 1H256.8c-.5 0-1-.4-1-1v-4.5a1.08 1.08 0 0 1 1-1z"/><use xlink:href="#B" y="72.9"/><use xlink:href="#B" y="91.1"/></g><path d="M98.9 326.1c-3.3 1.3-11.1 1.4-14.5 1.4h-1.7l-2.2-4.5 2.2-3.7s2-.6 4.7-1c4-.7 9.4-1.3 12 .3 4.3 2.6 3.8 5.8-.5 7.5z" fill="#fec2be"/><path d="M84.3 327.5h-1.7l-2.2-4.5 2.2-3.7s2-.6 4.7-1c-2.1 1.5-7.4 5-3 9.2z" opacity=".1" class="K"/><path d="M75.2 233.4h82.1c5 0 9.1 4.1 9.1 9.1v111.4c0 5-4.1 9.1-9.1 9.1H75.2c-5 0-9.1-4.1-9.1-9.1V242.5c0-5 4.1-9.1 9.1-9.1z" class="M"/><g class="N"><circle cx="116.2" cy="310.8" r="24.1"/><path d="M152 362.9H80.5a21.13 21.13 0 0 1 21.1-20.2H131c11.2 0 20.5 8.9 21 20.2z"/></g><path d="M566.7 466.8c2-3.6-.3-8-2.8-11.2s-5.6-6.5-5.5-10.6c.1-5.9 6.3-9.3 11.3-12.4 3.7-2.3 7.1-5 10.1-8.1 1.3-1.2 2.3-2.6 3.1-4.2 1-2.3 1-4.9.9-7.4a516.51 516.51 0 0 0-1.2-25" fill="none" stroke="#3f3d56" stroke-width="2.603" stroke-miterlimit="10"/><path d="M592 387.4c-.1-3.1-1.9-5.9-4.6-7.5l-2 4 .1-4.9c-1-.3-2-.4-3-.4-5 .2-8.9 4.5-8.6 9.6s4.5 8.9 9.6 8.6c4.9-.2 8.8-4.4 8.5-9.4zm-16.3 61.8c-2.3 4.5-7.7 6.3-12.2 4.1-3-1.5-4.9-4.5-5-7.8-.1-1.3.1-2.5.6-3.7 1.8-4.7 7-7.1 11.7-5.3 2.5.9 4.5 2.9 5.4 5.4l-5.7 4.6 6.3-1.5c0 1.5-.4 2.9-1.1 4.2zm-4.5-17.7c-5 .4-9.4-3.4-9.7-8.4-.3-4.4 2.6-8.4 6.8-9.5v3.8l2.1-4.1c5-.2 9.3 3.7 9.5 8.7.2 4.9-3.7 9.2-8.7 9.5zm22.2-14.8c-5 .2-9.3-3.6-9.5-8.7-.2-5 3.6-9.3 8.7-9.5 1.7-.1 3.4.3 4.9 1.2l-1.6 4.4 3.3-3.2c1.8 1.6 2.8 3.9 2.9 6.3 0 .8 0 1.7-.2 2.5-1 4-4.4 6.8-8.5 7z" class="M"/><path d="M590.8 389.8c-2.1.2-4.2.9-6.3 1s-4.4-.4-5.8-2c-.7-.9-1.1-2-1.7-3-.6-.9-1.4-1.6-2.3-2.2-2.2 4.5-.3 10 4.3 12.2 4.5 2.2 10 .3 12.2-4.3.3-.6.5-1.2.6-1.8-.3 0-.6.1-1 .1zm2.6 26.9c-5 .3-9.3-3.6-9.6-8.6-.1-1.5.2-3 .9-4.4a7.69 7.69 0 0 1 1.8 1.8c.7 1 1 2.1 1.8 3 1.4 1.7 3.9 2.2 6.1 2.1s4.3-.7 6.5-.9c.3 0 .6 0 .9-.1-.9 4-4.3 6.9-8.4 7.1zm-22.2 14.8c-5 .3-9.3-3.6-9.6-8.6-.1-1.5.2-2.9.8-4.2.8.5 1.4 1.1 2 1.9.7 1 1.2 2.2 2 3.1 1.5 1.7 4.1 2.3 6.5 2.3 2.3-.1 4.4-.6 6.7-.8-1.2 3.5-4.5 6.1-8.4 6.3zm4.5 17.7c-2.3 4.5-7.7 6.3-12.2 4.1-3-1.5-4.9-4.5-5-7.8-.1-1.3.1-2.5.6-3.7.8.5 1.4 1.1 2 1.8.9 1.1 1.4 2.3 2.4 3.3 1.9 1.8 4.9 2.6 7.6 2.7 1.6-.2 3.1-.2 4.6-.4z" opacity=".1" class="K"/><path d="M552.9 462.6s7.2-.2 9.4-1.8 11.1-3.4 11.6-.9c.6 2.5 10.8 12.4 2.7 12.4s-18.9-1.3-21.1-2.6c-2.1-1.3-2.6-7.1-2.6-7.1z" fill="#656380"/><path d="M576.8 471.5c-8.1.1-18.9-1.3-21.1-2.6-1.6-1-2.3-4.6-2.5-6.3h-.2s.5 5.8 2.6 7.2 12.9 2.7 21.1 2.6c2.3 0 3.2-.9 3.1-2.1-.4.7-1.3 1.2-3 1.2z" opacity=".2" class="K"/><g class="M"><circle transform="matrix(.4587 -.8886 .8886 .4587 120.3868 281.1939)" cx="291" cy="41.8" r="30.4" class="K L"/><circle transform="matrix(.4587 -.8886 .8886 .4587 146.4377 656.4547)" cx="612" cy="208" r="13.6" class="K L"/><circle transform="matrix(.4587 -.8886 .8886 .4587 282.9382 530.3185)" cx="576.8" cy="32.9" r="13.6" class="K L"/><circle transform="matrix(.4587 -.8886 .8886 .4587 -187.5598 158.9162)" cx="36.7" cy="233.4" r="8.5" class="K L"/><path d="M546.1 148.6s-51.1-21-57.4 17.7c0 0-3.4 6 1.4 11 0 0 1.1-2.7 5.9 0 1.8.9 3.7 1.7 5.6 2.2 2.6.7 5.4.5 7.9-.5 0 0 16.8-1.1 30.6-23.1 0 0 6-3.8 6.3-5.2l-10.1.8s.9 7.4-3.4 11.9c0 0 3.6-11.5 1.8-11.8-.3 0-5.3.7-5.3.7s1.4 12.8-5.3 19.5c0 0 6.1-13.1 3.3-19.3L520 154s2.2 13.5-5.2 21.4c0 0 5.9-13.9 3.5-21l-7.1 2.5s1.8 13.2-4.2 19.7c0 0 5.3-16.8 2.7-19.1 0 0-6.4 2.7-7.7 4.2 0 0 1.1 9.5-2.8 13 0 0 2.3-11.6 1.1-12.1 0 0-7.4 5.7-9.6 10.5 0 0 2.7-7.4 8.7-11.6 0 0-5-.8-8.8 1.3 0 0 2.5-4.9 10.6-2.7 0 0 5.9-4.2 7.1-4.1 0 0-7.6-3.4-13.2-2.8 0 0 5.9-3.5 15 2.2l7.1-2.6s-9.9-5-14.8-4.9c0 0 6.6-2.6 16.7 4.4l7.2-1.5s-8.2-4.9-13.7-6.1c0 0 6.6-1.1 15.8 5.7l5-.4s-6.1-3.5-7.9-4.3c-1.9-.8-1.7-1.4-1.7-1.4 4.3.7 8.4 2.7 11.7 5.5.2-.3 10.5-.6 10.6-1.2zm-81.8-23.4s-4.1-22.1-18.8-15.7c0 0-2.8.2-3.4 2.9 0 0 1.2-.3 1.3 2 .1.8.2 1.6.5 2.4.3 1.1 1 1.9 1.9 2.6 0 0 4.1 5.5 14.7 5.3 0 0 2.6 1.2 3.1 1l-2.5-3.3s-2.3 1.9-4.8 1.5c0 0 4.7-1.3 4.4-2-.1-.2-1.4-1.7-1.4-1.7s-4.1 3.3-7.8 2.5c0 0 5.8-.8 7.3-3.1l-2.2-2.2s-4.1 3.7-8.4 3c0 0 6.1-1 8-3.4l-2.4-1.9s-4.1 3.5-7.7 2.9c0 0 6.9-1.9 7.1-3.3 0 0-2.3-1.6-3.1-1.7 0 0-3 2.5-5 1.9 0 0 4.5-1.8 4.3-2.3 0 0-3.6-1.2-5.7-1 2-.4 4-.2 5.9.4-.5-1.1-1.4-2.1-2.4-2.7 0 0 2.3-.2 3.3 3 0 0 2.7 1.1 3 1.5 0 0-.5-3.3-1.9-5.2 0 0 2.5 1.2 2.6 5.6l2.5 1.8s-.5-4.5-1.6-6.2c0 0 2.3 1.7 2.2 6.7l2.2 2.2s-.2-3.9-1-6c0 0 1.8 2 1.6 6.7l1.2 1.6s-.2-2.8-.2-3.7.1-.9.1-.9c.7 1.6 1 3.4.7 5.2-.1.3 2.2 3.7 2.4 3.6z"/><path d="M219.7 159.8s-11.4-19.3-23-8.3c0 0-2.6 1.1-2.2 3.9 0 0 1-.6 1.9 1.5.4.8.8 1.5 1.3 2.1.6.9 1.6 1.5 2.7 1.8 0 0 5.7 3.8 15.6 0 0 0 2.9.2 3.3-.1l-3.5-2.2s-1.5 2.6-4 3c0 0 4-2.8 3.5-3.4-.1-.1-1.9-1.1-1.9-1.1s-2.7 4.5-6.5 5.1c0 0 5.2-2.8 5.8-5.4l-2.8-1.3s-2.6 4.9-6.9 5.7c0 0 5.4-3.1 6.3-6l-2.9-.9s-2.7 4.7-6.2 5.4c0 0 5.8-4.2 5.5-5.5 0 0-2.7-.7-3.5-.5 0 0-1.9 3.4-4.1 3.5 0 0 3.6-3.2 3.3-3.7 0 0-3.8.1-5.7 1.1 1.7-1.1 3.7-1.6 5.7-1.6-.9-.9-2-1.5-3.2-1.7 0 0 2.1-1 4.1 1.7 0 0 2.9.1 3.4.4 0 0-1.6-2.9-3.6-4.2 0 0 2.8.3 4.4 4.4l2.9.9s-2-4.1-3.7-5.2c0 0 2.8.8 4.4 5.5l2.8 1.3s-1.5-3.6-2.9-5.3c0 0 2.4 1.2 3.8 5.7l1.7 1.1-1.5-3.4c-.4-.8-.2-.9-.2-.9 1.2 1.3 2.1 2.9 2.5 4.7-.1-.3 3.3 2.1 3.4 1.9z" class="L"/><path d="M87.8 154.5c.9-1.6 2.1-2.9 3.6-3.8 0 0 .1.1-.5.8l-2.3 2.8 1.9-.6c2.5-3.9 5.2-4.5 5.2-4.5-1.9 1.2-4.3 4.3-4.3 4.3l3-.5c2.8-4.2 5.7-4.1 5.7-4.1-1.9.7-4.9 4.1-4.9 4.1h3.1c2.6-3.5 5.4-3 5.4-3-2.2.7-4.6 3-4.6 3 .5-.2 3.3.5 3.3.5 2.7-2 4.4-.5 4.4-.5-1.2-.1-2.4.2-3.5.8 1.9.6 3.6 1.6 5 3.1-1.6-1.5-5.2-2.6-5.2-2.6-.4.4 2.2 4.4 2.2 4.4-2-.7-2.9-4.5-2.9-4.5-.7-.4-3.5-.5-3.5-.5-.7 1.2 3.8 6.8 3.8 6.8-3.3-1.6-4.5-6.9-4.5-6.9l-3 .1c.1 3 4.4 7.4 4.4 7.4-3.9-2-5.1-7.4-5.1-7.4l-3 .5c-.1 2.7 4.1 6.8 4.1 6.8-3.5-1.6-4.9-6.6-4.9-6.6l-2.1.6c-.7.4 2.4 4.2 2.4 4.2-2.3-1.1-3-4-3-4l-4 1.2c.3.5 3.1 1 3.1 1 8.5 6.3 15 4.3 15 4.3 1.1 0 2.2-.3 3.1-1 .7-.4 1.3-1 1.8-1.6 1.5-1.8 2.3-.9 2.3-.9 1.1-2.6-1.1-4.4-1.1-4.4-8.1-13.7-24.4 1.7-24.4 1.7.2.5 4.1-.9 4-1z"/><path d="M414.5 160.2s8.8-20.6-6.9-23.4c0 0-2.4-1.4-4.5.5 0 0 1.1.4 0 2.4-.4.7-.7 1.5-.9 2.3-.3 1-.2 2.2.2 3.2 0 0 .3 6.8 9.2 12.6 0 0 1.5 2.5 2 2.6l-.2-4.1s-3 .3-4.8-1.5c0 0 4.6 1.6 4.8.8 0-.2-.2-2.2-.2-2.2s-5.2.5-7.9-2.2c0 0 5.3 2.5 7.8 1.5l-.6-3s-5.5.8-8.7-2.2c0 0 5.6 2.5 8.5 1.6l-.9-2.9s-5.4.6-8-1.9c0 0 6.8 2.2 7.7 1.2 0 0-1-2.6-1.7-3.2 0 0-3.9.4-5.3-1.2 0 0 4.7 1 4.9.5 0 0-2.3-3-4.2-4 1.9.8 3.4 2 4.7 3.6.2-1.2 0-2.5-.5-3.6 0 0 2 1.1 1.1 4.3 0 0 1.6 2.4 1.7 3 0 0 1.4-3.1 1.2-5.4 0 0 1.4 2.4-.9 6.1l1 2.9s2.1-4 2.1-6c0 0 1 2.7-1.9 6.8l.6 3s2-3.3 2.5-5.5c0 0 .4 2.7-2.4 6.4l.2 2s1.4-2.4 1.8-3.2c.4-.7.6-.7.6-.7a9.07 9.07 0 0 1-2.3 4.7c-.1.1-.1 4.2.2 4.2zm-152.4-40.1c-.7-1.7-1-3.4-.8-5.2 0 0 .2 0 .3.8l.8 3.6.7-1.9c-1.6-4.4-.4-6.8-.4-6.8-.2 2.3.8 6 .8 6l1.4-2.7c-1.6-4.8.2-7 .2-7-.6 1.9.2 6.4.2 6.4l1.8-2.5c-1.2-4.2.9-6.1.9-6.1-.8 2.2-.4 5.5-.4 5.5.2-.5 2.4-2.3 2.4-2.3 0-3.4 2.3-3.8 2.3-3.8-.8.9-1.3 2-1.5 3.3 1.6-1.2 3.5-1.9 5.5-2.1-2.2.4-5.2 2.6-5.2 2.6 0 .6 4.8.9 4.8.9-1.8 1.1-5.4-.4-5.4-.4-.8.4-2.5 2.5-2.5 2.5.6 1.3 7.8 1.1 7.8 1.1-3.3 1.6-8.2-.5-8.2-.5l-1.7 2.5c2.5 1.7 8.6 1 8.6 1-3.9 1.9-8.9-.4-8.9-.4l-1.4 2.7c2.1 1.7 7.9.8 7.9.8-3.4 1.8-8.2-.2-8.2-.2l-.8 2c-.1.7 4.8.6 4.8.6-2.2 1.2-5 0-5 0l-1.4 3.9c.5 0 2.7-1.9 2.7-1.9 10.2-2.9 12.5-9.4 12.5-9.4.7-.9 1.1-1.9 1.1-3 .1-.8 0-1.6-.2-2.4-.5-2.3.7-2.3.7-2.3-1.4-2.4-4.1-1.8-4.1-1.8-15.8-1.9-13.4 20.4-13.4 20.4.2.1 1.4-3.9 1.3-3.9zm-154.8-18.3c0-1.8.5-3.5 1.4-5.1 0 0 .1.1 0 .9s-.7 3.6-.7 3.6l1.4-1.4c.4-4.7 2.4-6.4 2.4-6.4-1.1 2-1.7 5.8-1.7 5.8l2.4-1.9c.5-5 3.1-6.4 3.1-6.4-1.4 1.5-2.4 5.9-2.4 5.9l2.7-1.5c.7-4.3 3.3-5.2 3.3-5.2-1.6 1.6-2.6 4.9-2.6 4.9.3-.4 3.2-1.1 3.2-1.1 1.4-3.1 3.7-2.6 3.7-2.6-1.1.5-2.1 1.3-2.7 2.4 2-.4 4-.3 5.9.4-2.1-.6-5.8.2-5.8.2-.2.5 4 2.9 4 2.9-2.1.3-4.7-2.6-4.7-2.6-.8 0-3.3 1.3-3.3 1.3 0 1.4 6.6 4.2 6.6 4.2-3.6.1-7.3-3.9-7.3-3.9l-2.6 1.5c1.5 2.6 7.4 4.4 7.4 4.4-4.4.1-8-4.1-8-4.1l-2.4 1.9c1.2 2.4 6.9 4 6.9 4-3.8.2-7.4-3.5-7.4-3.5l-1.6 1.5c-.4.6 4.1 2.5 4.1 2.5-2.5.1-4.6-2.1-4.6-2.1l-2.9 2.9c.5.3 3.2-.6 3.2-.6 10.5 1.5 15.2-3.4 15.2-3.4a5.12 5.12 0 0 0 2.3-2.3c.4-.7.6-1.5.8-2.3.5-2.3 1.6-1.9 1.6-1.9-.3-2.8-3-3.3-3-3.3-13.7-8.3-20.6 13.1-20.6 13.1 0 .4 2.8-2.7 2.7-2.7zm210.8 77.7c0-1.8.5-3.5 1.4-5.1 0 0 .1.1 0 .9-.2.8-.7 3.6-.7 3.6l1.4-1.4c.4-4.7 2.4-6.4 2.4-6.4-1.1 2-1.7 5.8-1.7 5.8l2.4-1.9c.5-5 3.1-6.4 3.1-6.4-1.4 1.5-2.4 5.9-2.4 5.9l2.7-1.5c.7-4.3 3.3-5.2 3.3-5.2-1.6 1.6-2.6 4.9-2.6 4.9.3-.4 3.2-1.1 3.2-1.1 1.4-3.1 3.7-2.6 3.7-2.6-1.1.5-2.1 1.3-2.7 2.4 2-.4 4-.3 5.9.4-2.1-.6-5.8.2-5.8.2-.2.5 4 2.9 4 2.9-2.1.3-4.7-2.6-4.7-2.6-.8 0-3.3 1.3-3.3 1.3 0 1.4 6.6 4.2 6.6 4.2-3.6.1-7.3-3.9-7.3-3.9l-2.6 1.5c1.5 2.6 7.4 4.4 7.4 4.4-4.4.1-8-4.1-8-4.1l-2.4 1.9c1.2 2.4 6.9 4 6.9 4-3.8.2-7.4-3.5-7.4-3.5l-1.6 1.5c-.4.6 4.1 2.5 4.1 2.5-2.5.1-4.6-2.1-4.6-2.1l-2.9 2.9c.5.3 3.2-.6 3.2-.6 10.5 1.5 15.2-3.4 15.2-3.4a5.12 5.12 0 0 0 2.3-2.3c.4-.7.6-1.5.8-2.3.5-2.3 1.6-1.9 1.6-1.9-.3-2.8-3-3.3-3-3.3-13.7-8.3-20.6 13.1-20.6 13.1.1.4 2.9-2.7 2.7-2.7zm220.5-65.8s8.8-20.6-6.9-23.4c0 0-2.4-1.4-4.5.5 0 0 1.1.4 0 2.4-.4.7-.7 1.5-.9 2.3-.3 1-.2 2.2.2 3.2 0 0 .3 6.8 9.2 12.6 0 0 1.5 2.5 2 2.6l-.2-4.1s-3 .3-4.8-1.5c0 0 4.6 1.6 4.8.8 0-.2-.2-2.2-.2-2.2s-5.2.5-7.9-2.2c0 0 5.3 2.5 7.8 1.5l-.6-3s-5.5.8-8.7-2.2c0 0 5.6 2.5 8.5 1.6l-.9-2.9s-5.4.6-8-1.9c0 0 6.8 2.2 7.7 1.2 0 0-1-2.6-1.7-3.2 0 0-3.9.4-5.3-1.2 0 0 4.7 1 4.9.5 0 0-2.3-3-4.2-4 1.9.8 3.4 2 4.7 3.6.2-1.2 0-2.5-.5-3.6 0 0 2 1.1 1.1 4.3 0 0 1.6 2.4 1.7 3 0 0 1.4-3.1 1.2-5.4 0 0 1.4 2.4-.9 6.1l1 2.9s2.1-4 2.1-6c0 0 1 2.7-1.9 6.8l.6 3s2-3.3 2.5-5.5c0 0 .4 2.7-2.4 6.4l.2 2s1.4-2.4 1.8-3.2c.4-.7.6-.7.6-.7a9.07 9.07 0 0 1-2.3 4.7c-.1.1 0 4.2.2 4.2z" class="L"/><path d="M188.7 102.8s-21.8-5.5-22.1 10.4c0 0-1 2.6 1.2 4.3 0 0 .2-1.2 2.4-.3.8.3 1.6.5 2.4.5 1.1.2 2.2-.1 3.2-.7 0 0 6.7-1.4 11-11.1 0 0 2.2-1.9 2.2-2.4l-4 .9s.8 2.9-.7 5c0 0 .8-4.8.1-4.8-.2 0-2.1.5-2.1.5s1.3 5.1-1 8.2c0 0 1.7-5.6.3-8l-2.9 1.1s1.6 5.3-.8 8.9c0 0 1.6-6 .2-8.7l-2.7 1.4s1.5 5.2-.6 8.2c0 0 1.1-7.1 0-7.8 0 0-2.4 1.4-2.9 2.1 0 0 1 3.7-.4 5.4 0 0 .3-4.8-.3-4.9 0 0-2.6 2.7-3.3 4.8.5-2 1.4-3.7 2.8-5.2-1.2 0-2.5.4-3.5 1.1 0 0 .7-2.2 4.1-1.7 0 0 2.2-2 2.7-2.1 0 0-3.3-.9-5.5-.4 0 0 2.2-1.8 6.2 0l2.7-1.5s-4.3-1.4-6.3-1.1c0 0 2.5-1.4 7 .8l2.9-1.1s-3.6-1.5-5.8-1.6c0 0 2.6-.8 6.7 1.4l2-.5-3.4-1.3c-.8-.3-.8-.5-.8-.5 1.8 0 3.5.6 5 1.5-.1.2 4.1-.6 4-.8z"/></g><defs ><path id="B" d="M256.8 294.6h267.4c.5 0 1 .4 1 1v4.5c0 .5-.4 1-1 1H256.8c-.5 0-1-.4-1-1v-4.5c0-.6.5-1 1-1z"/></defs></svg>