<svg xmlns="http://www.w3.org/2000/svg" xmlns:xlink="http://www.w3.org/1999/xlink" width="999" height="797.3"><style><![CDATA[.U{enable-background:new}.V{opacity:.1}.W{fill:#ffa84c}.X{fill:#5f5d7e}.Y{fill:#474157}.Z{opacity:.3}]]></style><ellipse cx="551.9" cy="701.9" rx="551.1" ry="47.6" class="U V"/><ellipse transform="matrix(.005381 -1 1 .005381 -400.687 980.7951)" cx="292.7" cy="691.8" rx="3" ry="46.5" class="U V"/><path d="M308.7 44c33-29.5 84.8-35.4 132-33.1 148.2 7.4 281.9 78.9 397.6 159.8 41.8 29.3 83.1 60.8 110.2 101.1 55.3 82.1 38.9 195.8-38.1 263.5-26.2 23.1-57.9 40.6-90.5 56.3-57.9 27.8-120.4 50.1-186.2 56.5-46.9 4.5-94.4.9-141-5.5-130.3-17.7-258-56.7-365.3-123.5-46.7-29.3-91-65.8-110.4-113.2s-7-107.5 41.1-135.6c19.8-11.6 43.5-16.8 66.8-21.8 34.2-7.3 69-14.4 99.8-29.1 31.9-15.2 69.6-44.6 63.3-78.3-6.9-36-12.2-67.8 20.7-97.1z" fill="#ff7900" class="U Z"/><g class="W U"><circle cx="175.1" cy="160.9" r="31.5" class="Z"/><circle cx="98" cy="82.9" r="19.5" class="Z"/><circle cx="913.6" cy="161.3" r="12" class="Z"/></g><path d="M214 487.3l-.4 20-2.9 161.7-25.4 59.3-87.3 1V496.5l91.1-7.2z" class="X"/><path d="M214 487.3l-.4 20-2.9 161.7-25.4 59.3-87.3 1V496.5l91.1-7.2z" class="U V"/><path d="M214 487.3l-.4 20-2.9 161.7-25.4 59.3 6.7-220.8-2.9-18.2z" class="X"/><path d="M189.1 489.3l24.9-2-.4 20-21.6 1H98v-11.8z" class="U V"/><path d="M999 496.8v231.5h-20.4L897 668.9V490.3l72.9-6.9 4.5 2.1 4.2 1.9z" class="X"/><path d="M979 485.3h20v243h-20z" class="U V"/><path d="M999 485.3v13l-20.3 1H897V490l73-6.9 4.5 2.1 3.5 1.9v-1.8z" class="U V"/><path d="M999 477.3v19L0 507.4v-24l94-19.1 818-6z" class="X"/><path d="M999 477.3v19L0 507.5v-24.2z" class="U V"/><path d="M387.8 195.3h304.4c12.6 0 22.8 10.2 22.8 22.8v226.4c0 12.6-10.2 22.8-22.8 22.8H387.8c-12.6 0-22.8-10.2-22.8-22.8V218.1c0-12.6 10.2-22.8 22.8-22.8z" class="Y"/><path d="M394 219.3h294v222H394z" fill="#ededf4"/><g fill="#e6e8ec"><circle cx="382.2" cy="330.3" r="4.8"/><circle cx="700.8" cy="330.8" r="8"/></g><path d="M572.2 331.1l-37.6-22.9c-2.5-1.4-5.6-.5-7 2a5.42 5.42 0 0 0-.6 2.5v44.5c0 2.8 2.3 5.1 5.2 5.1a5.42 5.42 0 0 0 2.5-.6l37.6-21.6c2.5-1.4 3.4-4.5 2-7-.6-.8-1.2-1.5-2.1-2zm28.5 3.9c0-29.3-23.7-53-53-53s-53 23.7-53 53 23.7 53 53 53 53-23.7 53-53zm-95.7 0c0-23.6 19.1-42.7 42.7-42.7s42.7 19.1 42.7 42.7-19.1 42.7-42.7 42.7S505 358.6 505 335z" class="W"/><ellipse cx="667.1" cy="752.5" rx="85.1" ry="24.5" class="X"/><ellipse cx="667.1" cy="744.6" rx="17" ry="4.9" class="U V"/><path d="M657.1 614.8h18v130h-18z" class="X"/><path d="M675.1 621.2v15c-3.6-1.1-11.8-5.6-18-9.2v-12.2h3.8l14.2 6.4z" class="U V"/><use xlink:href="#B" class="Y"/><use xlink:href="#B" class="U V"/><g class="Y"><use xlink:href="#B" x="-5" y="-6"/><path d="M576.4 508.5c-5.8-1.4-21.7-2.7-29.3 22.7-1.8 5.9-4 11.6-6.7 17.2-7.3 14.9-16.6 45.6 24.6 52.3l99 22.5s53 6.5 56.5 4 3-8 3-8-58.5 0-70-18-12-42.5-12-42.5 1.4-37.8-59-48.8c-1.9-.4-4-.9-6.1-1.4z"/></g><path d="M576.4 508.7c-5.8-1.4-21.7-2.7-29.3 22.7-1.8 5.9-4 11.6-6.7 17.2-7.3 14.9-16.6 45.6 24.6 52.3l99 22.5s53 6.5 56.5 4 3-8 3-8-58.5 0-70-18-12-42.5-12-42.5 1.4-37.8-59-48.8c-1.9-.5-4-1-6.1-1.4z" class="U V"/><path d="M784 482.6c-1.2-7.6-7.8-13.1-15.5-12.9-14.2.3-58.1 2.2-78.4 15.5 0 0-15.5 10-20 10s-65.5 52 25 98.5c0 0 48.5 13.8 67.5-18.6 0 0 13.5-34.8 12.5-46.8s9-44.5 9-44.5 0-.5-.1-1.2z" class="Y"/><path d="M784 491.4c-1.1-7-7.8-12.1-15.5-11.9-14.2.2-58.1 2-78.4 14.3 0 0-15.5 9.2-20 9.2s-65.5 48 25 90.9c0 0 48.5 12.7 67.5-17.2 0 0 13.5-32.1 12.5-43.3s9-41.1 9-41.1 0-.3-.1-.9z" class="U V"/><path d="M720.1 593.8h16v34h-16z" class="X"/><ellipse cx="170.2" cy="470.7" rx="45" ry="2.9" class="U V"/><use xlink:href="#C" class="W"/><use xlink:href="#C" class="U V"/><path d="M161.2 366l-2.7 8.1-3.5-2.8c-3.9-3.4-9.4-9.2-7.6-13.7 1.9-4.8 8.1 1.5 11.5 5.6 1.4 1.6 2.3 2.8 2.3 2.8zm5.8-4.6c-.8 1.1-1.7 2.1-2.7 3.1l-.5-4.2c-.2-4.1.2-9.6 4.3-8.4s1.4 6.2-1.1 9.5zm35.5 1.3l-.3 4.8a25.03 25.03 0 0 1-3.4-3.1c-3.1-3.2-6.5-8.2-1.7-11.2 4.9-3.1 5.5 4.2 5.4 9.5zm16.2 3.5c-1.9 2.4-4.4 4.3-7.2 5.5l-2.4.9-3.2-4.5c.3-1.5.8-3 1.3-4.4.6-1.5 1.3-3 2.3-4.3 4.5-6.1 13.6.7 9.2 6.8z" class="W"/><path d="M158.9 363.2l2.3 2.8-2.7 8.1-3.5-2.8c.4-2.6 1.5-5 3.1-7.1.3-.3.6-.7.8-1zm8.1-1.8c-.8 1.1-1.7 2.1-2.7 3.1l-.5-4.2c1.2.1 2.3.5 3.2 1.1z" class="U V"/><path d="M180.5 393.4l-6.8 3s-1.5-.7-3.6-2.1c-7.2-4.4-21.6-15.6-12-28.7 9.7-13.1 17.8 10.4 21 21.9.9 3.5 1.4 5.9 1.4 5.9z" class="W"/><path d="M198.7 364.4c1-1 2.3-1.6 3.8-1.7l-.3 4.8c-1.3-1-2.4-2-3.5-3.1zm12.8 7.2l-2.4.9-3.2-4.5c.3-1.5.8-3 1.3-4.4 2.1 1.2 3.6 4.2 4.3 8z" class="U V"/><path d="M194.5 401.4l-1.1.2c-22.9 3.5-7.6-8.9-7.6-8.9s1-1 2.4-2.5c2.8-3 6.9-8.4 7.4-13.3.7-7.4 1.5-14.4 10.3-12.4 8.7 2 10.4 32.5-11.4 36.9z" class="W"/><g class="Y"><path d="M150 458.3h44v12h-44z"/><path d="M143 421.3h57v40h-57z"/></g><path d="M150 458.3h44v12h-44z" class="U V"/><path d="M143 421.3h57v40h-57z" class="U V"/><path d="M153 458.3h44v12h-44z" class="Y"/><path d="M179.1 387.6l1.5 5.8-6.8 3s-1.5-.7-3.6-2.1c2.5-3.3 5.6-5.9 8.9-6.7zm15.4 13.8l-1.1.2c-22.9 3.5-7.6-8.9-7.6-8.9s1-1 2.4-2.5c4.3 3.4 6.1 7.3 6.3 11.2z" class="U V"/><path d="M157.3 423.3s12.8-46 30.9-31.8-7.3 36-7.3 36l-23.6-4.2z" class="W"/><circle cx="163.7" cy="372.9" r="1.4" class="U V"/><circle cx="163.6" cy="379.6" r="1.4" class="U V"/><circle cx="205.4" cy="374.2" r="1.4" class="U V"/><circle cx="171.8" cy="408.6" r="1.4" class="U V"/><circle cx="202.4" cy="385.4" r="1.4" class="U V"/><circle cx="187.5" cy="400.2" r="1.4" class="U V"/><circle cx="168.7" cy="375.8" r="1.4" class="U V"/><circle cx="201.4" cy="378.5" r="1.4" class="U V"/><circle cx="196.5" cy="389.7" r="1.4" class="U V"/><circle cx="181.4" cy="407.6" r="1.4" class="U V"/><circle cx="178.3" cy="400.5" r="1.4" class="U V"/><circle cx="170.8" cy="384.5" r="1.4" class="U V"/><path d="M153 458.3h44v4h-44z" class="U V"/><path d="M146 421.3h57v40h-57z" class="Y"/><circle cx="183.3" cy="414" r="1.4" class="U V"/><circle cx="174.7" cy="415.8" r="1.4" class="U V"/><path d="M311.9 574.6s7.1 9.3-3.3 23.4-19 26-15.6 34.8c0 0 15.7-26.2 28.5-26.5s4.5-15.9-9.6-31.7z" class="W"/><path d="M311.9 574.6c.6.9 1.1 1.9 1.5 2.9 12.5 14.7 19.1 28.4 7.1 28.7-11.2.4-24.6 20.4-27.8 25.4.1.4.2.8.4 1.2 0 0 15.7-26.2 28.5-26.5s4.4-15.9-9.7-31.7z" class="U V"/><g fill="#ffd037"><path d="M325.1 586.5c0 3.3-.4 5.9-.8 5.9s-.8-2.7-.8-5.9.5-1.7.9-1.7.7-1.6.7 1.7z"/><path d="M329.7 590.5c-2.9 1.6-5.4 2.5-5.6 2.1s1.9-2 4.8-3.6 1.7-.4 2 0 1.7-.1-1.2 1.5z"/></g><path d="M274.2 574.6s-7.1 9.3 3.3 23.4 19 26 15.5 34.8c0 0-15.7-26.2-28.5-26.5s-4.4-15.9 9.7-31.7z" class="W"/><path d="M274.2 574.6c-.6.9-1.1 1.9-1.5 2.9-12.5 14.7-19.1 28.4-7.1 28.7 11.2.4 24.6 20.4 27.8 25.4-.1.4-.2.8-.4 1.2 0 0-15.7-26.2-28.5-26.5s-4.4-15.9 9.7-31.7z" class="U V"/><g fill="#ffd037"><path d="M260.9 586.5c0 3.3.4 5.9.8 5.9s.8-2.7.8-5.9-.5-1.7-.9-1.7-.7-1.6-.7 1.7z"/><path d="M256.4 590.5c2.9 1.6 5.4 2.5 5.6 2.1s-1.9-2-4.8-3.6-1.7-.4-2 0-1.7-.1 1.2 1.5z"/></g><path d="M331.3 620.7l-.4 2.9-.5 4.1-.2 1.7-.5 4.1-.2 1.7-6.2 50.8c-.5 4.2-7.3 7.4-15.6 7.4h-29.6c-8.2 0-15-3.3-15.6-7.4l-7.6-62.4-.4-2.9c-.3-2.4 3.4-4.4 8.1-4.4h60.5c4.8.1 8.5 2.1 8.2 4.4z" fill="#65617d"/><path d="M330.2 623.3l-.5 4h-73.3l-.5-4zm-.7 6l-.5 4h-71.9l-.5-4zm-.7 6l-.5 4h-70.5l-.5-4z" fill="#9d9cb5"/><g class="W"><path d="M809.1 278.3s-37.9-4.2-34.8 22.6c0 0-1.1 4.7 3 7 0 0 .2-2 4-1.1 1.3.3 2.7.4 4.1.4 1.9 0 3.7-.7 5.1-1.8 0 0 10.9-3.9 15.9-21.1 0 0 3.3-3.6 3.2-4.6l-6.6 2.4s2 4.7 0 8.5c0 0 .2-8.3-1-8.2-.3 0-3.4 1.4-3.4 1.4s3.4 8.3.2 14c0 0 1.6-9.9-1.4-13.4l-4.7 2.4s4 8.5.7 15.2c0 0 1.3-10.4-1.6-14.6l-4.3 3s3.7 8.4.9 13.9c0 0 .3-12.1-1.8-13.2 0 0-3.7 3-4.3 4.2 0 0 2.5 6.1.6 9.1 0 0-.7-8.1-1.6-8.2 0 0-3.8 5.2-4.4 8.8.3-3.4 1.6-6.6 3.6-9.4-2.1.3-4 1.2-5.6 2.5 0 0 .8-3.8 6.6-3.8 0 0 3.2-3.9 4-4.1 0 0-5.7-.8-9.3.6 0 0 3.3-3.4 10.4-1.4l4.2-3.1s-7.5-1.4-10.8-.4c0 0 3.9-3 11.9-.3l4.5-2.4s-6.4-1.7-10.3-1.4c0 0 4.2-2 11.6.8l3.2-1.3s-4.7-1.2-6.1-1.4-1.4-.6-1.4-.6c3-.3 6.1.2 8.8 1.4.2.2 7-2 6.9-2.4zM376.6 96.5s-30.5-22.8-41.4 1.9c0 0-3.3 3.4-.9 7.6 0 0 1.1-1.6 4 1.1 1 .9 2.1 1.8 3.3 2.4 1.6.9 3.5 1.3 5.4 1 0 0 11.4 2.2 24.5-10.1 0 0 4.7-1.5 5.1-2.4l-6.9-1.2s-.7 5.1-4.3 7.3c0 0 4.4-7.1 3.3-7.6-.2-.1-3.7-.5-3.7-.5s-1.3 8.8-6.9 12.1c0 0 6.4-7.7 5.6-12.3l-5.2-.3s-.9 9.4-7.1 13.4c0 0 6.4-8.3 6-13.4l-5.2.4s-1 9.1-6.3 12.4c0 0 6.4-10.3 5.1-12.3 0 0-4.7.7-5.9 1.4 0 0-.9 6.5-4.1 8.2 0 0 3.5-7.4 2.8-7.9 0 0-5.9 2.5-8.3 5.4 2-2.7 4.7-4.9 7.8-6.3-1.9-.8-4.1-1-6.1-.6 0 0 2.5-2.9 7.6.1 0 0 4.7-1.8 5.5-1.6 0 0-4.5-3.6-8.3-4.2 0 0 4.5-1.3 9.7 4l5.2-.5s-5.8-5-9.1-5.8c0 0 4.8-.6 10.4 5.8l5.1.2s-4.6-4.7-8.1-6.4c0 0 4.6.4 9.6 6.5l3.4.6-4.5-4.3c-1-.9-.9-1.2-.9-1.2a16 16 0 0 1 6.9 5.7c-.1.3 6.8 1.9 6.9 1.4zm76.5 26.6s-10.5-36.6-34.2-23.5c0 0-4.7.7-5.3 5.5 0 0 1.9-.6 2.5 3.2.2 1.4.6 2.7 1.2 4 .7 1.7 2 3.2 3.7 4.1 0 0 7.7 8.6 25.6 6.7 0 0 4.6 1.6 5.5 1.2l-4.7-5.1s-3.6 3.6-7.8 3.3c0 0 7.8-3 7.2-4.1-.1-.2-2.6-2.6-2.6-2.6s-6.3 6.3-12.8 5.5c0 0 9.7-2.3 11.9-6.4l-4-3.4s-6.4 6.9-13.8 6.4c0 0 10.1-2.8 12.9-7.1L434 108s-6.3 6.6-12.5 6.1c0 0 11.3-4.4 11.5-6.7 0 0-4.2-2.3-5.6-2.4 0 0-4.7 4.7-8.2 4.1 0 0 7.3-3.7 7-4.6 0 0-6.2-1.6-9.8-.7a18.88 18.88 0 0 1 10-.3c-1.1-1.8-2.6-3.3-4.5-4.2 0 0 3.8-.8 6 4.6 0 0 4.8 1.4 5.3 2.1 0 0-1.5-5.6-4.1-8.4 0 0 4.4 1.7 5.3 9.1l4.5 2.7s-1.6-7.5-3.7-10.1c0 0 4.2 2.4 4.8 10.9l4 3.3s-.8-6.6-2.6-10c0 0 3.4 3.1 3.7 11l2.4 2.5s-.7-4.8-1-6.1 0-1.5 0-1.5c1.5 2.7 2.2 5.7 2 8.7-.3-.2 4.2 5.2 4.6 5zM241.4 332.4S221 300.2 202 319.5c0 0-4.3 2-3.6 6.8 0 0 1.7-1.1 3.3 2.4.6 1.2 1.4 2.4 2.3 3.5 1.2 1.4 2.8 2.5 4.7 2.9 0 0 9.8 6.1 26.5-.8 0 0 4.9.3 5.6-.4l-6-3.6s-2.5 4.5-6.6 5.4c0 0 6.6-5 5.7-5.9-.2-.2-3.3-1.8-3.3-1.8s-4.3 7.8-10.8 8.9c0 0 8.7-5 9.6-9.5l-4.8-2.1s-4.2 8.5-11.4 10c0 0 8.9-5.5 10.3-10.4l-5-1.4s-4.2 8.2-10.3 9.4c0 0 9.6-7.4 9.1-9.7 0 0-4.7-1-6-.7 0 0-3.2 5.8-6.8 6.2 0 0 5.9-5.6 5.4-6.4 0 0-6.4.3-9.6 2.1 2.9-1.8 6.1-2.9 9.5-3.1a11.13 11.13 0 0 0-5.5-2.8s3.4-1.8 7 2.7c0 0 5 0 5.7.5 0 0-3-5-6.3-6.9 0 0 4.7.4 7.6 7.2l5 1.3s-3.6-6.8-6.4-8.7c0 0 4.7 1.1 7.7 9.1l4.7 2s-2.7-6-5.3-8.9c0 0 4.2 2 6.7 9.5l3 1.7s-2-4.4-2.7-5.6-.4-1.5-.4-1.5c2.2 2.1 3.7 4.8 4.4 7.8.1.1 6.1 4 6.4 3.7z" class="U Z"/><path d="M736.8 181s-19.4-32.8-39-14.1c0 0-4.4 1.9-3.8 6.6 0 0 1.7-1.1 3.3 2.5.6 1.3 1.3 2.5 2.2 3.5 1.1 1.5 2.8 2.5 4.6 3 0 0 9.7 6.4 26.5 0 0 0 4.9.4 5.6-.2l-5.9-3.8s-2.6 4.4-6.8 5.1c0 0 6.8-4.8 5.9-5.7-.2-.2-3.2-1.9-3.2-1.9s-4.6 7.6-11 8.6c0 0 8.8-4.7 9.9-9.2l-4.7-2.2s-4.4 8.3-11.7 9.7c0 0 9.1-5.2 10.7-10.1l-4.9-1.6s-4.5 8-10.6 9.1c0 0 9.9-7.1 9.4-9.4 0 0-4.6-1.2-6-.9 0 0-3.3 5.7-6.9 6 0 0 6.1-5.4 5.6-6.2 0 0-6.4.1-9.7 1.8 2.9-1.8 6.2-2.7 9.6-2.8-1.5-1.5-3.4-2.5-5.4-2.9 0 0 3.5-1.7 7 2.9 0 0 5 .2 5.7.7 0 0-2.8-5-6.1-7.1 0 0 4.7.5 7.4 7.4l5 1.5s-3.4-6.9-6.2-8.9c0 0 4.7 1.3 7.4 9.4l4.7 2.2s-2.5-6.1-5-9c0 0 4.1 2.1 6.4 9.7l2.9 1.8-2.5-5.7c-.6-1.3-.4-1.5-.4-1.5 2.1 2.2 3.5 4.9 4.2 7.9-.2 0 5.6 4.1 5.8 3.8zm-428.5 98.4s1-38.1-25.5-32.7c0 0-4.7-.7-6.7 3.6 0 0 2 0 1.4 3.9-.2 1.4-.2 2.8-.1 4.1.2 1.9 1 3.6 2.3 5 0 0 4.8 10.5 22.4 14.1 0 0 3.9 3 4.9 2.8l-3-6.3s-4.5 2.3-8.5.8c0 0 8.3-.5 8.1-1.7 0-.3-1.7-3.3-1.7-3.3s-7.9 4-13.9 1.4c0 0 10 .8 13.3-2.5l-2.8-4.4s-8.2 4.7-15.1 1.9c0 0 10.5.4 14.4-2.9l-3.3-4s-8.1 4.4-13.8 2.1c0 0 12.1-.7 13-2.9 0 0-3.3-3.5-4.6-4 0 0-5.9 3-9.1 1.4 0 0 8-1.3 8-2.2 0 0-5.5-3.4-9.2-3.6 3.4.1 6.7 1 9.7 2.8-.5-2-1.5-3.9-3-5.4 0 0 3.8.4 4.3 6.2 0 0 4.2 2.8 4.4 3.6 0 0 .3-5.8-1.4-9.2 0 0 3.7 3 2.3 10.2l3.4 3.9s.8-7.6-.5-10.8c0 0 3.3 3.6 1.3 11.9l2.8 4.3s1.2-6.5.5-10.3c0 0 2.3 4 .2 11.6l1.5 3.1s.8-4.8.9-6.2.5-1.5.5-1.5c.6 3 .4 6.1-.7 8.9.2-.1 2.9 6.5 3.3 6.3z"/></g><ellipse transform="matrix(.9996 -.027013 .027013 .9996 -12.3506 21.5184)" cx="790.3" cy="467.9" rx="46.5" ry="3" class="U V"/><path d="M754.3 457.2s-6.3 12.5-.9 12.5 73.3.3 75.2-3.2c1.3-2.5.6-11.2 0-16.2-.2-2-2-3.5-4-3.4l-69.3 3.4c.5-.7.1-.5.1-.5s-2.1 6.8-1.1 7.4z" fill="#3f3d56"/><path d="M828.7 450.3c-.2-2-2-3.5-4-3.4l-69.3 3.4c.5-.7.1-.5.1-.5s-.5 1.5-.9 3.2c.1 0 .1 0-.1.4v.2c2.2.2 54.9-2.7 69.2-3.5 2-.1 3.8 1.4 4 3.4.4 3.7.9 9.5.6 13.2l.3-.3c1.4-2.4.7-11.1.1-16.1z" class="U V"/><path d="M761.9 438.4c-.7-.2-1.6-.5-1.5-.9 0-.2.4-.4.6-.6.4-.4.6-.9.1-1.3s-1.6-.4-2.1 0c-.2.2-.2.5-.3.7-.4.7-1.8 1-3 1.3s-2.6.8-2.5 1.5c.1.8 2 1.5 1.2 2.2-.3.3-.8.4-1 .7-.1.2.1.4.3.6l1.2 1.3c.5.5 1 1.1.8 1.7-.3 1.2-2.9 1.6-4.9 1.5-.7 0-1.6-.1-2.1.2-.4.2-.4.6-.3.9.3.8 1.4 1.5 2.8 1.9-1.5.3-2.2 1.6-1.1 2.3-.6.2-1.3.2-1.9.1-.5.5-.2 1.2.5 1.6s1.6.7 2.5.9l-.9.8c.6.5 2 .3 2.9 0s1.9-.7 2.9-.6c1 .2 1.7.8 2.6.7.8-.1 1.1-.6 1.3-1l1-1.8c1.4.2 2.9-.7 2.3-1.5 1.6.2 3.1-.9 2.6-1.7.8.7 1.4 1.4 1.7 2.2.1.4.2.7.6 1 .5.3 1.1.5 1.6.3-.3.6-.5 1.2.1 1.7s2.3.3 2.2-.2c.9.4 1.9.8 3 .8s2.4-.4 2.5-1c1.6.5 3.3.8 4.9.8.1-.4 1.1-.6 1.9-.5.7.1 1.4.4 2.2.4s1.6-.5 1.2-.8c1.6.3 3.3.4 4.9.2 1.5-.2 3-.6 4.6-.6 1.6-.1 3.2.2 4.7.7.5.2 1.2.5 1.7.3.3-.1.5-.3.7-.5.9-.7 2.9-.6 4.3-.3 1.5.3 3.2.6 4.5.1.5-.2.8-.5 1.4-.6 1.9-.6 4.1.9 6.1.5.6-.1 1.2-.5 1.8-.5 1.2-.1 2 .7 3.2.9s2.5-.6 2.2-1.3c1.2 0 2.3-.1 3.5-.5l-.6-1c1.4 0 2.4-1 1.8-1.7 1.4-.3 2.5-1 2.8-1.8s-.3-1.7-1.4-2.3c-.7-.3-1.5-.5-1.9-1-.3-.3-.2-.7-.3-1-.2-.8-1.2-1.4-2.5-1.7l-1.7-.3c-.5-.2-.9-.6-.6-.9.2-.2.4-.2.6-.4.8-.6-.6-1.3-1.7-1.6l2.7-.1.6-2.6c-1.1.9-3.8.7-4.5-.3.9.3 2-.1 2.5-.6.4-.5.3-1.1.2-1.7 0-.3-.2-.5-.5-.7-.3-.1-.7-.2-.8-.4s.3-.4.3-.6c.1-.4-.8-.6-1.4-.7-1.4-.4-2.1-1.7-3.7-1.6-1.6 0-2 1.2-2 2.2 0 .9-.5 2.1-2.1 2.1-.6 0-1.2-.2-1.7-.5l-4.5-2c-.6-.3-1.2-.5-1.9-.7-.9-.2-1.9-.2-2.9-.3l-6.3-.1c-.3 0-.6 0-1 .1-.3.1-.5.3-.7.5-.9.8-3 1.2-4.5.7-.4-.1-.8-.3-1.2-.4-1.3-.3-2.7.2-4.1.4-2.3.3-5.1-.2-6.7.7-.5.3-.8.7-1.3 1.1-.5.3-1.4.6-2 .3.1.6.2 1.3-.3 1.8-.4.6-1.5 1-2.5.9-.6-.1-.5-.6-.3-.9.3-.3.7-.6.5-1-.1-.3-.7-.5-1.2-.8-.4-.2-.7-.7-.3-.9-.3-.4-1.5-.4-2 0-.5.3-.6.8-.6 1.3-.1.4-.2.9-.8 1.2-1 .5-2.9.2-3.6.9-.2.2-.2.5-.3.7-.5 1-2.9 1.3-4.8 1.4v.7c1.2-.3.2-.9-.3-1z" fill="#61ab43"/><path d="M827.7 437.2c.1.6.2 1.2-.2 1.7l-.2.2c.6 0 1.1 0 1.7-.1l.6-2.6c-.4.4-1.2.5-1.9.6v.2z" class="U V"/><path d="M828.2 440.3c-.1-.4-.7-.7-1.3-1-.6.3-1.2.3-1.9.2.5.7 2 1 3.2.8zm.8 1.9v.2l-2.7.1c1.1.3 2.5 1 1.7 1.6-.2.1-.5.2-.6.4-.3.3.1.7.6.9s1.1.2 1.7.3c1.3.3 2.3.9 2.5 1.7.1.3.1.7.3 1 .4.4 1.2.7 1.9 1 .1 0 .1.1.2.1a2.76 2.76 0 0 0 1.2-1.2c.3-.8-.3-1.7-1.4-2.3-.7-.3-1.5-.5-1.9-1-.3-.3-.2-.7-.3-1-.2-.8-1.2-1.4-2.5-1.7-.3 0-.5 0-.7-.1zm-79.3 12.2c.2-.4.7-.8 1.5-1-.7-.2-1.4-.5-2-.9-.3 0-.6 0-.9-.1-.5.5-.2 1.2.5 1.6l.9.4zm4.8-13.2c.4-.1.8-.3 1.2-.4 1.2-.3 2.6-.6 3-1.3.1-.2.1-.5.3-.7.4-.4 1.6-.3 2.1 0 .5.4.4.9-.1 1.3-.2.2-.6.4-.6.6-.1.5.8.7 1.5.9.3.1.6.3.9.5v-.1c1.9-.1 4.2-.4 4.8-1.4.1-.2.1-.5.3-.7.7-.7 2.6-.4 3.6-.9.6-.3.7-.8.8-1.2s.1-.9.6-1.3c.5-.3 1.7-.4 2 0-.5.2-.2.7.3.9.4.2 1 .4 1.2.8.1.3-.3.7-.5 1-.3.3-.3.8.3.9 1.1.1 2.1-.3 2.5-.9s.3-1.2.3-1.8c.6.3 1.5 0 2-.3s.8-.8 1.3-1.1c1.6-.9 4.4-.4 6.7-.7 1.4-.2 2.8-.7 4.1-.4.4.1.8.3 1.2.4 1.5.5 3.6.1 4.5-.7.2-.2.4-.4.7-.5s.6-.1 1-.1l6.3.1c1 0 2 0 2.9.3.6.2 1.3.4 1.9.7l4.5 2c.5.2 1.1.4 1.7.5 1.6 0 2.1-1.2 2.1-2.1s.4-2.1 2-2.1 2.3 1.2 3.7 1.6c.6.2 1.5.4 1.4.7 0 .2-.3.3-.3.5.4-.1.8-.3 1-.6.4-.5.3-1.1.2-1.7 0-.3-.2-.5-.5-.7-.3-.1-.7-.2-.8-.4s.3-.4.3-.6c.1-.4-.8-.6-1.4-.7-1.4-.4-2.1-1.7-3.7-1.6-1.6 0-2 1.2-2 2.1s-.5 2.1-2.1 2.1c-.6 0-1.2-.2-1.7-.5l-4.5-2c-.6-.3-1.2-.5-1.9-.7-.9-.2-1.9-.2-2.9-.3-2.1 0-4.2-.1-6.3-.1-.3 0-.6 0-1 .1-.3.1-.5.3-.7.5-.9.8-3 1.2-4.5.7-.4-.1-.8-.3-1.2-.4-1.3-.3-2.7.2-4.1.4-2.3.3-5.1-.2-6.7.7-.5.3-.8.7-1.3 1.1-.5.3-1.4.6-2 .3.1.6.2 1.3-.3 1.8-.4.6-1.5 1-2.5.9-.6-.1-.5-.6-.3-.9.3-.3.7-.6.5-1-.1-.3-.7-.5-1.2-.8-.4-.2-.7-.7-.3-.9-.3-.4-1.5-.4-2 0-.5.3-.6.8-.6 1.3-.1.4-.2.9-.8 1.2-1 .5-2.9.2-3.6.9-.2.2-.2.5-.3.7-.5 1-2.9 1.3-4.8 1.4v.1c-.3-.2-.6-.4-.9-.5-.7-.2-1.6-.5-1.5-.9 0-.2.4-.4.6-.6.4-.4.6-.9.1-1.3s-1.6-.4-2.1 0c-.2.2-.2.5-.3.7-.4.7-1.8 1-3 1.3s-2.6.8-2.5 1.5c.2 1 2.1 1.8 1.4 2.4zm-3.3 8.8c-.3.1-.7.2-.9.4h.5c2 .1 4.6-.3 4.9-1.5.2-.6-.3-1.2-.8-1.7l-.6-.6c-1 .3-2.3.5-3.5.4-.7 0-1.6-.1-2.1.2-.4.2-.4.6-.3.9.4.9 1.5 1.6 2.8 1.9z" class="U V"/><ellipse cx="792.6" cy="431.4" rx="20.2" ry="13.3" fill="#ea565c"/><path d="M785.7 430.4s-9.2.9-6.5-3 6.1-5.3 7.7-4.2 2.3 4 2 4-4.2-2.3-5.5-.5 2.3 3.7 2.3 3.7zm7.9.4s7.6 5.3 3 6.5-8 0-8.5-1.8c-.5-1.9.9-4.6 1.1-4.4s1.7 4.5 3.8 4c2.2-.5.6-4.3.6-4.3zm1.8-3.3s.6-9.2 4-5.9 4.2 6.9 2.8 8.3-4.4 1.6-4.3 1.3c0-.3 3-3.7 1.5-5.4-1.5-1.6-4 1.7-4 1.7z" opacity=".2" fill="#fff" class="U"/><ellipse cx="768.2" cy="430.3" rx="20.2" ry="13.3" fill="#ea565c"/><path d="M761.3 429.4s-9.2.9-6.5-3 6.1-5.3 7.7-4.2 2.3 4 2 4-4.2-2.3-5.5-.5 2.3 3.7 2.3 3.7zm8 .3s7.6 5.3 3 6.5-8 0-8.5-1.8c-.5-1.9.9-4.6 1.1-4.4s1.7 4.5 3.8 4 .6-4.3.6-4.3zm1.7-3.3s.6-9.2 4-5.9 4.2 6.9 2.8 8.3c-1.3 1.4-4.4 1.6-4.3 1.3 0-.3 3-3.7 1.5-5.4-1.5-1.5-4 1.7-4 1.7z" opacity=".2" fill="#fff" class="U"/><path d="M778.7 418.9c4.4 2.4 7.2 6.1 7.2 10.2 0 7.4-9 13.3-20.2 13.3-3.8 0-7.4-.7-10.4-1.9 3.5 2 8.1 3.1 13 3.1 11.2 0 20.2-6 20.2-13.3 0-4.8-3.9-9-9.8-11.4z" class="U V"/><path d="M803.1 419.9c4.4 2.4 7.2 6.1 7.2 10.2 0 7.4-9 13.3-20.2 13.3-3.8 0-7.4-.7-10.4-1.9 3.5 2 8.1 3.1 13 3.1 11.2 0 20.2-6 20.2-13.3-.1-4.8-4-9.1-9.8-11.4z" class="U V"/><path d="M755.9 427.7s17.4-18.6 60-10.9c33.7 6.1 6 16.5-7 20.6-3.8 1.2-7.7 1.9-11.7 2.1-14.8.8-51.8 1.5-41.3-11.8z" fill="#714b4f"/><path d="M808.8 433.3c-3.8 1.2-7.7 1.9-11.7 2.1-11.9.6-38.5 1.2-42.6-5.7-5.1 11.1 28.7 10.4 42.6 9.7 4-.2 7.9-.9 11.7-2.1 9.6-3 27-9.4 22.3-15-3.1 4.4-15 8.7-22.3 11z" class="U V"/><g fill="none" stroke="#000" stroke-width=".338" stroke-miterlimit="10" class="U"><path d="M793 416.9l4.7 9.3m-19.2-5.9l4 7.8m19-11.2l6.3 9.3" class="V"/><path d="M778.5 428.9l42.4-5.4m-1.6-4.9l3 4.2m-52.2.7l1.9 3.9" class="V"/></g><path d="M776.5 410.8l39.1-.5c.4-.4 8.5-.5 10.1 1.7 1.6 2.3 2.1 3.3 0 3.7S753.3 452 753.3 452s-3.9.4-2-3.5c2-3.8 25.2-37.7 25.2-37.7z" fill="#f6c964"/><g fill="#61ab43"><path d="M792.7 426.9c0 1.5-7 5-15.6 5s-15.6-3.5-15.6-5 7-2 15.6-2 15.6.5 15.6 2z"/><ellipse cx="777.1" cy="426.8" rx="15.6" ry="2.6"/><path d="M811.6 424.4c0 1.5-7 5-15.6 5s-15.6-3.5-15.6-5 7-2 15.6-2 15.6.6 15.6 2z"/><ellipse cx="796" cy="424.4" rx="15.6" ry="2.6"/><path d="M830.4 422c0 1.5-7 5-15.6 5s-15.6-3.5-15.6-5 7-2 15.6-2 15.6.6 15.6 2z"/><ellipse cx="814.8" cy="422" rx="15.6" ry="2.6"/></g><path d="M757.3 422.8s-6.4-1-3.1-6.3c3.3-5.2 4.4-11.1 5.8-12.4 1.6-1.5 34.7-27.1 60.5 1.3 2.7 3 5 6.5 6.6 10.3.3.7.7 1.3 1 1.7 1 1 1.9 4 0 5.5-2 1.4-59.3 7.3-70.8-.1z" fill="#3f3d56"/><g fill="#f2f2f2"><use xlink:href="#D"/><path d="M776.6 398.2c-.4.3-.9.4-1.3.4-.7 0-1.3-.2-1.3-.4s.6-.4 1.3-.4c.5-.1.9.1 1.3.4zm29.3 4.1c-.5.1-1 .2-1.4 0-.7-.2-1.2-.6-1.2-.8.1-.2.7-.2 1.4 0 .5.1.9.4 1.2.8zm-19.9-7.6c-.5.1-1 .2-1.4 0-.7-.2-1.2-.6-1.2-.8s.7-.2 1.4 0c.5.1.9.4 1.2.8zm21.7 2.7c-.5.1-1 .2-1.4 0-.7-.2-1.2-.6-1.2-.8.1-.2.7-.2 1.4 0 .5.1.9.4 1.2.8zm-4.5-.4c-.4.3-.9.4-1.3.4-.7 0-1.3-.2-1.3-.4s.6-.4 1.3-.4c.5 0 .9.1 1.3.4z"/><use xlink:href="#D" x="3" y="-6.7"/><path d="M800.2 394.3c-.4.3-.9.4-1.3.4-.7 0-1.3-.2-1.3-.4s.6-.4 1.3-.4c.5 0 .9.1 1.3.4z"/><use xlink:href="#D" x="9.1" y="-0.9"/><path d="M785.6 399.1c.1-.5.4-.9.7-1.2.6-.5 1.1-.7 1.3-.6.2.2-.2.7-.7 1.2-.3.3-.8.5-1.3.6zm-6.7-1.7c.1-.5.4-.9.7-1.2.6-.5 1.1-.7 1.3-.6.2.2-.2.7-.7 1.2-.4.4-.8.6-1.3.6zm-11.7 8.1c.1-.5.4-.9.7-1.2.6-.5 1.1-.7 1.3-.6.2.2-.2.7-.7 1.2-.3.3-.8.5-1.3.6zm25.9-9c.1-.5.4-.9.7-1.2.6-.5 1.1-.7 1.3-.6.2.2-.2.7-.7 1.2-.4.4-.8.6-1.3.6zm-2.7 5.4c.1-.5.4-.9.7-1.2.6-.5 1.1-.7 1.3-.6s-.2.7-.7 1.2c-.4.4-.8.6-1.3.6z"/></g><path d="M690 743.6c48.6-1.2 87.2 8.5 86.1 21.7s-41.4 24.8-90.1 26c-48.6 1.2-87.2-8.5-86.1-21.7s41.4-24.8 90.1-26z" class="U V"/><defs ><path id="B" d="M633.9 558.8s57.8-14.9 72.2-26 70.8 41.2 63.4 61-34.6 34.1-34.6 34.1-75.1 12.2-87.9-13.3-13.1-55.8-13.1-55.8z"/><path id="C" d="M208 359.3c-1 1.3-1.7 2.8-2.3 4.3-.1.4-.3.8-.4 1.2l-.8-.3c-1.2-.3-2.4-.4-3.6-.3 0-.5.1-1 .1-1.5.1-5.3-.5-12.6-5.5-9.5-4.8 3-1.4 8 1.7 11.2l.8.8c-2.8 2-3.4 6.7-3.9 11.6s-4.6 10.3-7.4 13.3c-.3.3-.5.6-.8.9-2.3-1.8-5.2-2.6-8-2.1-.1-.4-.2-.9-.4-1.4-2.2-8.1-6.9-22.1-12.8-25.2l.8-1c2.5-3.3 5.4-8.2 1.2-9.5s-4.6 4.3-4.3 8.4c0 .5.1 1 .1 1.5-1.7.1-3.3.9-4.4 2.1l-.6-.8c-3.4-4-9.6-10.4-11.5-5.6-1.8 4.5 3.7 10.3 7.6 13.7l.2.2c-2.6 10.5 8.7 19.1 14.8 22.9l.8.5c-8.4 9.9-13.6 28.5-13.6 28.5l23.5 4.2s15.6-13.5 13.6-26.1h.2c15.6-3.1 19.1-19.7 16.7-29.6l.3-.1c2.8-1.2 5.3-3 7.2-5.5 4.4-6-4.8-12.8-9.3-6.8z"/><path id="D" d="M787.4 401c-.4.3-.9.4-1.3.4-.7 0-1.3-.2-1.3-.4s.6-.4 1.3-.4c.4 0 .9.1 1.3.4z"/></defs></svg>