<svg xmlns="http://www.w3.org/2000/svg" xmlns:xlink="http://www.w3.org/1999/xlink" width="1080" height="678.39" viewBox="0 0 1080 678.39">
  <defs>
    <linearGradient id="linear-gradient" x1="0.5" y1="1" x2="0.5" gradientUnits="objectBoundingBox">
      <stop offset="0" stop-opacity="0.2"/>
      <stop offset="0.48" stop-color="#fff" stop-opacity="0"/>
      <stop offset="1" stop-color="#fff" stop-opacity="0"/>
    </linearGradient>
    <clipPath id="clip-Instagram_Story_1">
      <rect width="1080" height="678.39"/>
    </clipPath>
  </defs>
  <g id="Instagram_Story_1" data-name="Instagram Story – 1" clip-path="url(#clip-Instagram_Story_1)">
    <g id="Group_5" data-name="Group 5" transform="translate(18 -198)">
      <path id="Path_1" data-name="Path 1" d="M1023.592,529.593a113.052,113.052,0,0,0,3.032,87.995c.772,1.646,1.6,3.311,2.446,4.976,10.073,19.736,24.117,40.254,16.518,60.539-5.906,15.811-22.889,24.126-38.579,30.33a703.329,703.329,0,0,1-189.733,45.946c-47.991,4.734-96.327,4.5-144.56,4.26-104.307-.511-208.725-1.023-312.707-9.3-47.536-3.72-95.239-9.18-140.97-22.675A412.371,412.371,0,0,1,51.423,634.6c-1.693-1.609-3.358-3.246-5.013-4.911-9.97-10.054-19.066-21.187-23.661-34.5-9.115-26.656,1.814-55.944,15.867-80.368S70.3,467.1,76.041,439.487c8.473-40.654-10.38-81.28-24.87-120.194S27.157,233.66,51.125,199.75c11.691-16.537,29.762-27.335,47.945-36.273A410.963,410.963,0,0,1,271.262,121.5c34.831-.725,70.9,2.79,103.46-9.6,18.332-6.994,34.812-18.825,53.879-23.494,32.227-7.868,65.588,6.036,94.495,22.322,16.63,9.375,32.831,19.625,50.224,27.642,12.64,5.832,27.177,12.361,40.625,15.979,13.179,3.544,26.758-3.562,38.328-9.394,25.112-12.668,48.717-31.548,77.6-34.525,36.58-3.72,72.815,19.876,108.818,12.314,15.346-3.227,28.972-11.9,43.908-16.667,39.063-12.5,81.316,2.79,118.249,20.694,22.889,11.087,46.15,24.033,60.454,45.081,10.956,16.155,15.607,35.65,20.006,54.661,16.741,72.351,32.022,152.384-3.478,217.639C1061.632,473.853,1035.85,498.082,1023.592,529.593Z" transform="translate(-37.405 112.625)" fill="#ffa84c"/>
      <path id="Path_2" data-name="Path 2" d="M1092.52,405.9a167.028,167.028,0,0,1-14.741,37.352c-16.165,29.7-41.927,53.945-54.186,85.465a107.679,107.679,0,0,0-4.446,14.36q-.725,3.014-1.255,6.064a113.081,113.081,0,0,0,8.734,67.58c.772,1.646,1.6,3.311,2.446,4.976,10.073,19.736,24.117,40.254,16.518,60.539a32.737,32.737,0,0,1-2.883,5.869c-7.44,12.091-22.07,19.076-35.7,24.461a703.334,703.334,0,0,1-189.733,45.946c-12.547,1.237-25.112,2.139-37.686,2.79h0c-35.547,1.86-71.224,1.656-106.846,1.479-104.307-.512-208.725-1.023-312.707-9.3-47.536-3.72-95.239-9.18-140.97-22.675A412.372,412.372,0,0,1,51.423,633.768c-1.693-1.609-3.358-3.246-5.013-4.911-9.97-10.063-19.066-21.2-23.661-34.506-6.287-18.416-3.032-38.077,4.222-56.521a179.622,179.622,0,0,1,11.644-23.847c1.209-2.093,2.446-4.195,3.72-6.269,13.3-22.192,28.479-43.816,33.724-69.04,6.51-31.111-3.041-62.213-14.351-92.543-1-2.669-2.009-5.339-3.023-7.989-2.511-6.594-5.06-13.161-7.487-19.671-14.5-38.905-24.014-85.623-.047-119.534.66-.93,1.358-1.86,2.074-2.79,11.161-14.342,27.27-24.182,43.648-32.395l2.223-1.116A410.964,410.964,0,0,1,271.29,120.662c34.831-.725,70.9,2.79,103.46-9.6,18.332-6.994,34.812-18.825,53.879-23.494,32.227-7.868,65.588,6.036,94.495,22.322,16.63,9.366,32.831,19.625,50.224,27.642,12.64,5.832,27.177,12.361,40.625,15.979,13.179,3.544,26.758-3.562,38.328-9.394,25.112-12.668,48.717-31.548,77.6-34.525,36.58-3.72,72.815,19.876,108.818,12.314,15.346-3.227,28.972-11.9,43.908-16.667,39.063-12.51,81.316,2.79,118.249,20.694,20.136,9.747,40.56,20.945,54.874,37.836a84.44,84.44,0,0,1,5.515,7.245c.2.279.381.567.567.856,10.547,15.979,15.123,35.12,19.438,53.805,8.445,36.5,16.527,74.946,17.894,112.474C1100,361.32,1098.286,384.144,1092.52,405.9Z" transform="translate(-37.405 112.694)" fill="url(#linear-gradient)"/>
      <g id="Group_1" data-name="Group 1" transform="translate(-17.997 198.009)" opacity="0.1">
        <path id="Path_3" data-name="Path 3" d="M1046.233,714.475a32.154,32.154,0,0,1-2.885,5.8,607.5,607.5,0,0,1-164.008,55.107c-31.94,5.878-65.211,11.664-99.291,17.147h0c-35.569,1.837-71.269,1.635-106.913,1.46-104.372-.505-208.856-1.01-312.9-9.184-47.565-3.674-95.3-9.065-141.059-22.392A413.944,413.944,0,0,1,51.443,666.587c-1.694-1.589-3.36-3.205-5.016-4.849-9.977-9.937-19.078-20.931-23.676-34.074-6.291-18.185-3.034-37.6,4.225-55.814l991.57,11.159a110.338,110.338,0,0,0,8.739,66.734c.772,1.626,1.6,3.27,2.448,4.914C1039.783,674.183,1053.836,694.444,1046.233,714.475Z" transform="translate(-19.408 -116.518)"/>
        <path id="Path_4" data-name="Path 4" d="M1063.075,162.781H102.7l2.226-1.1A416.383,416.383,0,0,1,277.391,120.23c34.886-.716,71.011,2.755,103.624-9.478,18.361-6.907,34.867-18.589,53.964-23.2,32.278-7.77,65.692,5.961,94.644,22.043,16.656,9.249,32.883,19.379,50.3,27.3,12.66,5.759,27.219,12.206,40.689,15.779,13.2,3.5,26.8-3.518,38.389-9.276,25.151-12.509,48.794-31.154,77.727-34.093,36.637-3.674,72.93,19.627,108.989,12.16,15.37-3.187,29.017-11.747,43.978-16.458,39.125-12.353,81.444,2.755,118.435,20.435C1028.254,135.044,1048.71,146.1,1063.075,162.781Z" transform="translate(-26.201 -85.316)"/>
        <path id="Path_5" data-name="Path 5" d="M63.45,365.74c11.314,29.95,20.841,60.663,14.356,91.385C72.559,482.033,57.337,503.387,44.07,525.3l977.148,34.9a105.325,105.325,0,0,1,4.447-14.181c12.263-31.108,38.035-55.107,54.2-84.4a163.681,163.681,0,0,0,14.747-36.866ZM455.8,475.8H431.05a12.308,12.308,0,0,1,10.908,5.957,11.98,11.98,0,0,1,0,12.306,12.308,12.308,0,0,1-10.908,5.957H287.769a12.308,12.308,0,0,1-10.908-5.957,11.98,11.98,0,0,1,0-12.306,12.308,12.308,0,0,1,10.908-5.957h24.767a12.309,12.309,0,0,1-10.909-5.956,11.98,11.98,0,0,1,0-12.306,12.309,12.309,0,0,1,10.909-5.956H294.858a12.106,12.106,0,1,1,0-24.21H438.139a12.106,12.106,0,1,1,0,24.21h17.677a12.308,12.308,0,0,1,10.909,5.956,11.981,11.981,0,0,1,0,12.306,12.309,12.309,0,0,1-10.909,5.956Z" transform="translate(-21.42 -103.586)"/>
        <path id="Path_6" data-name="Path 6" d="M1082.758,231.5c-4.316-18.451-8.893-37.353-19.442-53.132L54.518,202.36c-.716.918-1.414,1.837-2.074,2.755-23.973,33.477-14.456,79.61.047,118.029,2.428,6.429,4.977,12.9,7.5,19.416H1100.656C1099.288,305.51,1091.2,267.541,1082.758,231.5ZM236.793,278.25H212.038a12.306,12.306,0,0,1,10.907,5.956,11.982,11.982,0,0,1,0,12.306,12.306,12.306,0,0,1-10.907,5.956H68.779a12.306,12.306,0,0,1-10.907-5.956,11.982,11.982,0,0,1,0-12.306,12.306,12.306,0,0,1,10.907-5.956H93.524a12.306,12.306,0,0,1-10.907-5.957,11.982,11.982,0,0,1,0-12.306,12.306,12.306,0,0,1,10.907-5.957H75.849a12.106,12.106,0,1,1,0-24.21H219.108a12.106,12.106,0,1,1,0,24.21h17.675a12.306,12.306,0,0,1,10.907,5.957,11.982,11.982,0,0,1,0,12.306,12.306,12.306,0,0,1-10.907,5.957Z" transform="translate(-20.91 -92.906)"/>
      </g>
      <path id="Path_7" data-name="Path 7" d="M1048.6,722.189c-5.912,15.613-22.911,23.824-38.617,29.95a711.975,711.975,0,0,1-189.92,45.371c-48.039,4.675-96.422,4.445-144.7,4.206-104.409-.505-208.93-1.01-313.014-9.184-47.582-3.674-95.332-9.065-141.108-22.392A414.122,414.122,0,0,1,53.458,674.274c-1.694-1.589-3.361-3.205-5.018-4.849a217.848,217.848,0,0,1,43-1.12c40.228,2.709,79.422,13.731,119.463,18.516,155.027,18.479,313.963-57.109,465.359-19.342,46.726,11.664,90.975,33.909,138.967,38.372,70.838,6.594,138.548-26.075,207.943-41.642,2.914-.661,5.893-1.277,8.891-1.837C1042.148,681.879,1056.206,702.14,1048.6,722.189Z" transform="translate(-39.773 74.566)" fill="#3f3d56"/>
      <rect id="Rectangle_1" data-name="Rectangle 1" width="4.712" height="259.992" transform="translate(817.082 470.292)" fill="#3f3d56"/>
      <path id="Path_8" data-name="Path 8" d="M925.856,707.481a12.316,12.316,0,0,1-15.1,0c-2.1-13.914,3.242-41.266,4.5-47.391.174-.8.266-1.24.266-1.24h6.043a4.39,4.39,0,0,1,.918,1.414C926.683,669.155,925.856,707.481,925.856,707.481Z" transform="translate(-99.553 74.395)" fill="#3f3d56"/>
      <path id="Path_9" data-name="Path 9" d="M920.993,652.721v5.621H918.44v-5.63a7.879,7.879,0,0,1,1.24-.092,8.738,8.738,0,0,1,1.313.1Z" transform="translate(-100.254 73.076)" opacity="0.1"/>
      <path id="Path_10" data-name="Path 10" d="M922.947,660.264a7.209,7.209,0,0,1-3.49.817,7.027,7.027,0,0,1-3.757-.992c.175-.8.266-1.24.266-1.24h6.043A4.39,4.39,0,0,1,922.947,660.264Z" transform="translate(-100.016 72.606)" opacity="0.1"/>
      <ellipse id="Ellipse_1" data-name="Ellipse 1" cx="5.088" cy="3.022" rx="5.088" ry="3.022" transform="translate(814.374 726.667)" fill="#3f3d56"/>
      <path id="Path_11" data-name="Path 11" d="M876,243.273l17.625-7.449,26.718,5.189-20.5-15.5Z" transform="translate(-78.788 182.313)" fill="#3f3d56"/>
      <path id="Path_12" data-name="Path 12" d="M881.244,246.834,876,244.088l17.919-8.578,26.424,6.319-4.647,2.259L893.919,239.2Z" transform="translate(-78.788 181.59)" fill="#ffa84c"/>
      <path id="Path_13" data-name="Path 13" d="M881.244,246.763,876,244.016l18.442-9.386,25.9,7.127-4.647,2.259-21.776-4.886Z" transform="translate(-78.788 181.654)" fill="#3f3d56"/>
      <path id="Path_14" data-name="Path 14" d="M880.94,244.963l14.42,40.411h7.145l13.354-42.91-21.537-5.015Z" transform="translate(-79.229 181.62)" fill="#3f3d56"/>
      <path id="Path_15" data-name="Path 15" d="M906.984,276.99l-2.856,9.166-.689,2.213h-7.145l-.533-1.5-3.371-9.442,5.41-3.251Z" transform="translate(-80.232 178.907)" fill="#3f3d56"/>
      <path id="Path_16" data-name="Path 16" d="M894.385,239.53l3.417,46.014h-2.379L881.71,247.162Z" transform="translate(-79.472 181.467)" fill="#ffa84c" opacity="0.2"/>
      <path id="Path_17" data-name="Path 17" d="M899.843,225.51l-5.924,9.184L876,243.273Z" transform="translate(-78.997 182.313)" opacity="0.1"/>
      <path id="Path_18" data-name="Path 18" d="M923.867,372.449l-.689,2.213h-7.146l-.533-1.5a5.961,5.961,0,0,1,4.592-1.727,6.9,6.9,0,0,1,3.775,1.01Z" transform="translate(-99.991 92.7)" opacity="0.1"/>
      <path id="Path_19" data-name="Path 19" d="M921,375.767V379.7a5.376,5.376,0,0,1-.67,0,8.2,8.2,0,0,1-1.837-.22V375.73Z" transform="translate(-100.258 92.403)" opacity="0.1"/>
      <ellipse id="Ellipse_2" data-name="Ellipse 2" cx="5.088" cy="3.022" rx="5.088" ry="3.022" transform="translate(815.016 465.121)" fill="#3f3d56"/>
      <path id="Path_20" data-name="Path 20" d="M648.627,621.359s-61.223-2.581-67.652-122.4,57.338-140.117,57.338-140.117,20.206-11.288,29.161-11.756,38.905,2.36,38.905,2.36l-33.009-6.374s46.455-17.68,60.36-19.094l-50.211,10.58s-.707-27.82,11.315-37.022c0,0-10.25-.762-15.714,19.287a38.308,38.308,0,0,1-22.961,25.716c-18.635,7.265-44.388,18.736-50.248,28.554,0,0-10.847,11.324-9.184-18.148s9.432-54.712,12.261-55.419c0,0,22.171-23.576,53.27-24.991,0,0-18.148-7.348-48.806,15.568,0,0-2.59-11.554,8.964-25.23s29.473-42.45,49.045-45.509c0,0-27.351-1.653-49.045,33.716,0,0-8.018,5.189-8.725-8.018s-5.428-29.712-5.428-29.712-6.6,30.419,7.348,44.085c0,0-26.635,34.662-25.459,73.567,0,0-8.266,17.689-11.324-3.068,0,0-1.773-28.573-5.318-52.81a71.785,71.785,0,0,1,15.053-55.373c5.887-7.348,9.993-14.456,7.715-18.194L565.389,238.3s-25.937-60.13-44.8-73.1-21.225-15.8-21.225-15.8L529.781,185l-38.2-13.437,38.2,17.689s17.689,14.383,27.829,53.756,11.076,64,11.076,64-54.464-43.167-64.842-41.734l35.25,26.635a83.946,83.946,0,0,1,33.128,61.288h0s-68.139-17.45-84.644-20.748l-31.126-31.833,23.576,30.18-48.567-.707-27.829-19.8s21.932,18.369,19.811,19.572-34.194,2.59-34.194,2.59,81.585-.468,90.549,5.428,29,8.009,29,8.009l-57.77,8.725,68.883-4.95s52.112,9.432,54.941,25.716c0,0-10.617,27.682-17.689,38.666-5.869,9.12-17.68,38.666-20.04,64.6s-5.658,65.788,3.306,90.071,12.252,38.2,7.779,45.509-8.725,16.743,5.9,18.626,78.747-.918,78.747-.918S652.4,635.806,648.627,621.359Z" transform="translate(-61.219 107.466)" fill="#3f3d56"/>
      <path id="Path_21" data-name="Path 21" d="M629.646,648.962a30.777,30.777,0,0,0-20.775-2.6c-12.013,2.6-30.4,1.221-32.081.918" transform="translate(-76.048 73.543)" opacity="0.1"/>
      <path id="Path_22" data-name="Path 22" d="M592.437,495.52s-2.921,46.1,2.278,55.18Z" transform="translate(-77.403 84.434)" opacity="0.1"/>
      <path id="Path_23" data-name="Path 23" d="M580.77,555.6s3.747,43.167,6.337,51.607S580.77,555.6,580.77,555.6Z" transform="translate(-76.622 80.268)" opacity="0.1"/>
      <path id="Path_24" data-name="Path 24" d="M575.721,440c-2.645.974-14.006,24.017-11.738,30.832S575.721,440,575.721,440Z" transform="translate(-75.397 88.093)" opacity="0.1"/>
      <path id="Path_25" data-name="Path 25" d="M607.662,414c-1.24.56-6.521,13.832-5.465,17.763S607.662,414,607.662,414Z" transform="translate(-78.117 89.814)" opacity="0.1"/>
      <path id="Path_26" data-name="Path 26" d="M554.6,498.27c1.3,13.382,2.021,22.144,1.185,32.853a127.512,127.512,0,0,0,.358,25" transform="translate(-74.825 84.267)" opacity="0.1"/>
      <path id="Path_27" data-name="Path 27" d="M708.943,328.58a10.755,10.755,0,0,0-2.213,6.787c-.083,2.425.239,4.859.074,7.274-.165,2.553-1.378,5.511-3.9,5.878" transform="translate(-85.16 95.767)" opacity="0.1"/>
      <path id="Path_28" data-name="Path 28" d="M660.02,241.7a61.531,61.531,0,0,0-8.532,10.59,24.449,24.449,0,0,1-2.425,3.444,39.144,39.144,0,0,1-4.675,3.83,22.043,22.043,0,0,0-7.458,11.7" transform="translate(-80.433 101.84)" opacity="0.1"/>
      <path id="Path_29" data-name="Path 29" d="M527.87,166.68a15.2,15.2,0,0,0,3.022,4.05,39.987,39.987,0,0,1,3.26,2.985,25.133,25.133,0,0,1,2.085,3.077,84.386,84.386,0,0,0,8.716,11.021" transform="translate(-72.868 106.057)" opacity="0.1"/>
      <path id="Path_30" data-name="Path 30" d="M589.54,241c-2.03,1.267-2.562,3.986-2.517,6.429s.45,4.886-.441,7.109c-.4,1.019-1.056,1.91-1.479,2.911a13.575,13.575,0,0,0-.707,5.511q.055,3.27.2,6.512c.11,2.618.358,5.446,2.131,7.348" transform="translate(-76.883 101.908)" opacity="0.1"/>
      <path id="Path_31" data-name="Path 31" d="M571.42,314.61a28.024,28.024,0,0,1,5.29,3.674,9.515,9.515,0,0,1,3.077,5.511c.119.918.055,1.837.257,2.755a8.635,8.635,0,0,0,1.837,3.316,45.548,45.548,0,0,0,4.464,4.941" transform="translate(-75.919 96.74)" fill="none"/>
      <path id="Path_32" data-name="Path 32" d="M586.192,380.886a33.35,33.35,0,0,0-4.271-2.957,17.837,17.837,0,0,0-4.39-1.929c-2.351-.625-4.822-.533-7.237-.781s-4.95-.918-6.6-2.709" transform="translate(-75.333 92.651)" opacity="0.1"/>
      <path id="Path_33" data-name="Path 33" d="M483.8,349.2c2.866.083,5.85.184,8.395,1.5,1.3.67,2.434,1.626,3.72,2.342a11.26,11.26,0,0,0,5.41,1.414" transform="translate(-69.792 94.263)" opacity="0.1"/>
      <path id="Path_34" data-name="Path 34" d="M526.428,362.073a1.6,1.6,0,0,0-2.057.478c-.514.588-.8,1.35-1.323,1.929-1.047,1.13-2.755,1.258-4.3,1.313" transform="translate(-72.285 93.371)" opacity="0.1"/>
      <path id="Path_35" data-name="Path 35" d="M545,295.74l2.755,1.442a48.324,48.324,0,0,1,8.128,4.96" transform="translate(-74.099 98.001)" opacity="0.1"/>
      <path id="Path_36" data-name="Path 36" d="M579.27,325.085c1.837-.432,3.38,1.506,3.674,3.334s-.055,3.766.468,5.511a10.334,10.334,0,0,0,2.755,4.078" transform="translate(-76.517 95.984)" opacity="0.1"/>
      <path id="Path_37" data-name="Path 37" d="M612.424,328.76c1.644,4.923-1.837,10.3-.827,15.384.312,1.552,1.029,2.994,1.4,4.528.918,4.05-.689,8.367-3.334,11.582" transform="translate(-78.661 95.808)" opacity="0.1"/>
      <path id="Path_38" data-name="Path 38" d="M293.43,621.371l1.414,3.012V602.01H293.43Z" transform="translate(-38.484 157.392)" fill="#3f3d56"/>
      <path id="Path_39" data-name="Path 39" d="M194.024,621.371l-1.414,3.012V602.01h1.414Z" transform="translate(-33.677 157.392)" fill="#3f3d56"/>
      <rect id="Rectangle_2" data-name="Rectangle 2" width="3.913" height="27.507" transform="translate(166.051 716.569)" fill="#3f3d56"/>
      <rect id="Rectangle_3" data-name="Rectangle 3" width="3.913" height="27.507" transform="translate(248.081 716.569)" fill="#3f3d56"/>
      <g id="Group_2" data-name="Group 2" transform="translate(168.576 716.569)" opacity="0.1">
        <rect id="Rectangle_4" data-name="Rectangle 4" width="3.913" height="27.507"/>
        <rect id="Rectangle_5" data-name="Rectangle 5" width="3.913" height="27.507" transform="translate(78.692)"/>
      </g>
      <rect id="Rectangle_6" data-name="Rectangle 6" width="3.913" height="3.205" transform="translate(166.051 716.323)" opacity="0.1"/>
      <rect id="Rectangle_7" data-name="Rectangle 7" width="3.913" height="3.205" transform="translate(248.081 716.323)" opacity="0.1"/>
      <rect id="Rectangle_8" data-name="Rectangle 8" width="94.205" height="4.105" transform="translate(162.497 715.16)" fill="#3f3d56"/>
      <rect id="Rectangle_9" data-name="Rectangle 9" width="3.913" height="4.105" transform="translate(166.051 721.076)" opacity="0.1"/>
      <rect id="Rectangle_10" data-name="Rectangle 10" width="3.913" height="4.105" transform="translate(248.081 721.076)" opacity="0.1"/>
      <rect id="Rectangle_11" data-name="Rectangle 11" width="94.205" height="4.105" transform="translate(162.497 720.815)" fill="#3f3d56"/>
      <rect id="Rectangle_12" data-name="Rectangle 12" width="3.913" height="4.105" transform="translate(166.051 726.721)" opacity="0.1"/>
      <rect id="Rectangle_13" data-name="Rectangle 13" width="3.913" height="4.105" transform="translate(248.081 726.721)" opacity="0.1"/>
      <rect id="Rectangle_14" data-name="Rectangle 14" width="94.205" height="4.105" transform="translate(162.497 726.461)" fill="#3f3d56"/>
      <rect id="Rectangle_15" data-name="Rectangle 15" width="3.913" height="4.105" transform="translate(166.051 732.377)" opacity="0.1"/>
      <rect id="Rectangle_16" data-name="Rectangle 16" width="3.913" height="4.105" transform="translate(248.081 732.377)" opacity="0.1"/>
      <rect id="Rectangle_17" data-name="Rectangle 17" width="94.205" height="4.105" transform="translate(162.497 732.116)" fill="#3f3d56"/>
      <rect id="Rectangle_18" data-name="Rectangle 18" width="3.913" height="4.105" transform="translate(166.051 738.023)" opacity="0.1"/>
      <rect id="Rectangle_19" data-name="Rectangle 19" width="3.913" height="4.105" transform="translate(248.081 738.023)" opacity="0.1"/>
      <rect id="Rectangle_20" data-name="Rectangle 20" width="94.205" height="4.105" transform="translate(162.497 737.762)" fill="#3f3d56"/>
      <g id="Group_3" data-name="Group 3" transform="translate(169.975 717.122)" opacity="0.1">
        <circle id="Ellipse_3" data-name="Ellipse 3" cx="0.569" cy="0.569" r="0.569"/>
        <circle id="Ellipse_4" data-name="Ellipse 4" cx="0.569" cy="0.569" r="0.569" transform="translate(0 5.575)"/>
        <circle id="Ellipse_5" data-name="Ellipse 5" cx="0.569" cy="0.569" r="0.569" transform="translate(0 11.159)"/>
        <circle id="Ellipse_6" data-name="Ellipse 6" cx="0.569" cy="0.569" r="0.569" transform="translate(0 16.734)"/>
        <circle id="Ellipse_7" data-name="Ellipse 7" cx="0.569" cy="0.569" r="0.569" transform="translate(0 22.318)"/>
        <circle id="Ellipse_8" data-name="Ellipse 8" cx="0.569" cy="0.569" r="0.569" transform="translate(78.692)"/>
        <circle id="Ellipse_9" data-name="Ellipse 9" cx="0.569" cy="0.569" r="0.569" transform="translate(78.692 5.575)"/>
        <circle id="Ellipse_10" data-name="Ellipse 10" cx="0.569" cy="0.569" r="0.569" transform="translate(78.692 11.159)"/>
        <circle id="Ellipse_11" data-name="Ellipse 11" cx="0.569" cy="0.569" r="0.569" transform="translate(78.692 16.734)"/>
        <circle id="Ellipse_12" data-name="Ellipse 12" cx="0.569" cy="0.569" r="0.569" transform="translate(78.692 22.318)"/>
      </g>
      <circle id="Ellipse_13" data-name="Ellipse 13" cx="0.569" cy="0.569" r="0.569" transform="translate(167.438 716.638)" fill="#3f3d56"/>
      <circle id="Ellipse_14" data-name="Ellipse 14" cx="0.569" cy="0.569" r="0.569" transform="translate(167.438 722.283)" fill="#3f3d56"/>
      <circle id="Ellipse_15" data-name="Ellipse 15" cx="0.569" cy="0.569" r="0.569" transform="translate(167.438 727.938)" fill="#3f3d56"/>
      <circle id="Ellipse_16" data-name="Ellipse 16" cx="0.569" cy="0.569" r="0.569" transform="translate(167.438 733.584)" fill="#3f3d56"/>
      <circle id="Ellipse_17" data-name="Ellipse 17" cx="0.569" cy="0.569" r="0.569" transform="translate(167.438 739.239)" fill="#3f3d56"/>
      <circle id="Ellipse_18" data-name="Ellipse 18" cx="0.569" cy="0.569" r="0.569" transform="translate(167.438 716.638)" fill="#3f3d56"/>
      <circle id="Ellipse_19" data-name="Ellipse 19" cx="0.569" cy="0.569" r="0.569" transform="translate(167.438 722.283)" fill="#3f3d56"/>
      <circle id="Ellipse_20" data-name="Ellipse 20" cx="0.569" cy="0.569" r="0.569" transform="translate(167.438 727.938)" fill="#3f3d56"/>
      <circle id="Ellipse_21" data-name="Ellipse 21" cx="0.569" cy="0.569" r="0.569" transform="translate(167.438 733.584)" fill="#3f3d56"/>
      <circle id="Ellipse_22" data-name="Ellipse 22" cx="0.569" cy="0.569" r="0.569" transform="translate(167.438 739.239)" fill="#3f3d56"/>
      <circle id="Ellipse_23" data-name="Ellipse 23" cx="0.569" cy="0.569" r="0.569" transform="translate(249.476 716.638)" fill="#3f3d56"/>
      <circle id="Ellipse_24" data-name="Ellipse 24" cx="0.569" cy="0.569" r="0.569" transform="translate(249.476 722.283)" fill="#3f3d56"/>
      <circle id="Ellipse_25" data-name="Ellipse 25" cx="0.569" cy="0.569" r="0.569" transform="translate(249.476 727.938)" fill="#3f3d56"/>
      <circle id="Ellipse_26" data-name="Ellipse 26" cx="0.569" cy="0.569" r="0.569" transform="translate(249.476 733.584)" fill="#3f3d56"/>
      <circle id="Ellipse_27" data-name="Ellipse 27" cx="0.569" cy="0.569" r="0.569" transform="translate(249.476 739.239)" fill="#3f3d56"/>
      <g id="Group_4" data-name="Group 4" transform="translate(169.975 716.862)" opacity="0.1">
        <circle id="Ellipse_28" data-name="Ellipse 28" cx="0.569" cy="0.569" r="0.569"/>
        <circle id="Ellipse_29" data-name="Ellipse 29" cx="0.569" cy="0.569" r="0.569" transform="translate(0 5.575)"/>
        <circle id="Ellipse_30" data-name="Ellipse 30" cx="0.569" cy="0.569" r="0.569" transform="translate(0 11.159)"/>
        <circle id="Ellipse_31" data-name="Ellipse 31" cx="0.569" cy="0.569" r="0.569" transform="translate(0 16.734)"/>
        <circle id="Ellipse_32" data-name="Ellipse 32" cx="0.569" cy="0.569" r="0.569" transform="translate(0 22.318)"/>
        <circle id="Ellipse_33" data-name="Ellipse 33" cx="0.569" cy="0.569" r="0.569"/>
        <circle id="Ellipse_34" data-name="Ellipse 34" cx="0.569" cy="0.569" r="0.569" transform="translate(0 5.575)"/>
        <circle id="Ellipse_35" data-name="Ellipse 35" cx="0.569" cy="0.569" r="0.569" transform="translate(0 11.159)"/>
        <circle id="Ellipse_36" data-name="Ellipse 36" cx="0.569" cy="0.569" r="0.569" transform="translate(0 16.734)"/>
        <circle id="Ellipse_37" data-name="Ellipse 37" cx="0.569" cy="0.569" r="0.569" transform="translate(0 22.318)"/>
        <circle id="Ellipse_38" data-name="Ellipse 38" cx="0.569" cy="0.569" r="0.569" transform="translate(78.692)"/>
        <circle id="Ellipse_39" data-name="Ellipse 39" cx="0.569" cy="0.569" r="0.569" transform="translate(78.692 5.575)"/>
        <circle id="Ellipse_40" data-name="Ellipse 40" cx="0.569" cy="0.569" r="0.569" transform="translate(78.692 11.159)"/>
        <circle id="Ellipse_41" data-name="Ellipse 41" cx="0.569" cy="0.569" r="0.569" transform="translate(78.692 16.734)"/>
        <circle id="Ellipse_42" data-name="Ellipse 42" cx="0.569" cy="0.569" r="0.569" transform="translate(78.692 22.318)"/>
      </g>
      <path id="Path_40" data-name="Path 40" d="M289.981,588.705H191.35l2.25-2.755h94.2Z" transform="translate(-31.123 158.702)" fill="#3f3d56"/>
      <path id="Path_41" data-name="Path 41" d="M293.114,593.271,187.3,593.014l3.591-3.784h99.146Z" transform="translate(-30.827 158.435)" fill="#3f3d56"/>
      <path id="Path_42" data-name="Path 42" d="M296.112,597.683H183.18l3.463-3.913,106.392.129Z" transform="translate(-30.526 158.064)" fill="#3f3d56"/>
      <path id="Path_43" data-name="Path 43" d="M201.7,602.01v8.073l-1.387,2.7-.459-9.625-.055-1.148Z" transform="translate(-34.264 157.392)" fill="#3f3d56"/>
      <path id="Path_44" data-name="Path 44" d="M287.951,602.01l-.055,1.148-.459,9.625-1.387-2.7V602.01Z" transform="translate(-37.966 157.392)" fill="#3f3d56"/>
      <rect id="Rectangle_21" data-name="Rectangle 21" width="3.591" height="11.416" transform="translate(162.46 758.759)" fill="#3f3d56"/>
      <rect id="Rectangle_22" data-name="Rectangle 22" width="3.591" height="11.416" transform="translate(249.503 758.759)" fill="#3f3d56"/>
      <path id="Path_45" data-name="Path 45" d="M200.041,601.953h1.387V603.1H196.45V601.31h3.591Z" transform="translate(-33.99 157.449)" opacity="0.1"/>
      <rect id="Rectangle_23" data-name="Rectangle 23" width="3.591" height="11.416" transform="translate(162.46 758.759)" opacity="0.1"/>
      <rect id="Rectangle_24" data-name="Rectangle 24" width="3.591" height="11.416" transform="translate(249.503 758.759)" opacity="0.1"/>
      <path id="Path_46" data-name="Path 46" d="M291.037,601.31V603.1H286.05v-1.148h1.387v-.643Z" transform="translate(-37.957 157.449)" opacity="0.1"/>
      <rect id="Rectangle_25" data-name="Rectangle 25" width="96.446" height="2.82" transform="translate(160.222 757.474)" fill="#3f3d56"/>
      <rect id="Rectangle_26" data-name="Rectangle 26" width="96.446" height="2.82" transform="translate(160.222 757.474)" opacity="0.1"/>
      <rect id="Rectangle_27" data-name="Rectangle 27" width="4.105" height="24.816" transform="translate(154.827 756.959)" fill="#3f3d56"/>
      <rect id="Rectangle_28" data-name="Rectangle 28" width="4.105" height="24.816" transform="translate(260.493 781.776) rotate(180)" fill="#3f3d56"/>
      <rect id="Rectangle_29" data-name="Rectangle 29" width="4.105" height="24.816" transform="translate(154.827 756.959)" opacity="0.1"/>
      <rect id="Rectangle_30" data-name="Rectangle 30" width="4.105" height="24.816" transform="translate(260.493 781.776) rotate(180)" opacity="0.1"/>
      <rect id="Rectangle_31" data-name="Rectangle 31" width="96.446" height="0.257" transform="translate(160.222 757.474)" opacity="0.1"/>
      <circle id="Ellipse_43" data-name="Ellipse 43" cx="0.569" cy="0.569" r="0.569" transform="translate(156.067 758.447)" opacity="0.1"/>
      <circle id="Ellipse_44" data-name="Ellipse 44" cx="0.569" cy="0.569" r="0.569" transform="translate(258.219 758.364)" opacity="0.1"/>
      <path id="Path_47" data-name="Path 47" d="M184.108,596.89l-.928,1.047v.863H296.112v-.863l-.845-1.047Z" transform="translate(-30.526 157.81)" fill="#3f3d56"/>
      <rect id="Rectangle_32" data-name="Rectangle 32" width="112.922" height="1.736" transform="translate(152.654 755.747)" fill="#3f3d56"/>
      <path id="Path_48" data-name="Path 48" d="M510.266,633.98a9.443,9.443,0,0,0-1.231,2.333c-.083.2-.156.432-.23.652a2.384,2.384,0,0,0-.432-.147,6.222,6.222,0,0,0-1.938-.165v-.8c.083-2.866-.257-6.852-2.985-5.162s-.753,4.335.918,6.089l.432.423c-1.543,1.111-1.837,3.674-2.094,6.328s-2.517,5.584-4.023,7.247l-.422.459a5.51,5.51,0,0,0-4.372-1.12c-.064-.239-.129-.478-.2-.735-1.222-4.4-3.747-12.013-6.971-13.676.138-.175.285-.349.422-.542,1.378-1.837,2.911-4.445.634-5.134s-2.48,2.314-2.351,4.592a3.205,3.205,0,0,0,.064.8,3.316,3.316,0,0,0-2.379,1.166l-.358-.422c-1.837-2.177-5.226-5.63-6.255-3.022-.918,2.434,2.03,5.6,4.124,7.43l.129.11c-1.405,5.713,4.739,10.369,8.046,12.408l.432.266c-4.592,5.373-7.348,15.457-7.348,15.457l12.785,2.287s8.468-7.348,7.348-14.181h.092c8.468-1.7,10.4-10.727,9.074-16.091l.147-.055a9.671,9.671,0,0,0,3.922-2.967C517.668,634.467,512.7,630.747,510.266,633.98Z" transform="translate(-69.155 75.02)" fill="#3f3d56"/>
      <path id="Path_49" data-name="Path 49" d="M510.266,633.98a9.443,9.443,0,0,0-1.231,2.333c-.083.2-.156.432-.23.652a2.384,2.384,0,0,0-.432-.147,6.222,6.222,0,0,0-1.938-.165v-.8c.083-2.866-.257-6.852-2.985-5.162s-.753,4.335.918,6.089l.432.423c-1.543,1.111-1.837,3.674-2.094,6.328s-2.517,5.584-4.023,7.247l-.422.459a5.51,5.51,0,0,0-4.372-1.12c-.064-.239-.129-.478-.2-.735-1.222-4.4-3.747-12.013-6.971-13.676.138-.175.285-.349.422-.542,1.378-1.837,2.911-4.445.634-5.134s-2.48,2.314-2.351,4.592a3.205,3.205,0,0,0,.064.8,3.316,3.316,0,0,0-2.379,1.166l-.358-.422c-1.837-2.177-5.226-5.63-6.255-3.022-.918,2.434,2.03,5.6,4.124,7.43l.129.11c-1.405,5.713,4.739,10.369,8.046,12.408l.432.266c-4.592,5.373-7.348,15.457-7.348,15.457l12.785,2.287s8.468-7.348,7.348-14.181h.092c8.468-1.7,10.4-10.727,9.074-16.091l.147-.055a9.671,9.671,0,0,0,3.922-2.967C517.668,634.467,512.7,630.747,510.266,633.98Z" transform="translate(-69.155 75.02)" opacity="0.1"/>
      <path id="Path_50" data-name="Path 50" d="M484.906,637.862l-1.451,4.372a20.387,20.387,0,0,1-1.837-1.506c-2.094-1.837-5.079-5-4.124-7.43,1.029-2.608,4.418.845,6.264,3.022C484.419,637.191,484.906,637.862,484.906,637.862Z" transform="translate(-69.39 74.531)" fill="#3f3d56"/>
      <path id="Path_51" data-name="Path 51" d="M488.844,635.163a20.421,20.421,0,0,1-1.46,1.717s-.184-1.038-.266-2.305c-.119-2.232.11-5.208,2.36-4.592S490.231,633.372,488.844,635.163Z" transform="translate(-70.095 74.675)" fill="#3f3d56"/>
      <path id="Path_52" data-name="Path 52" d="M509.622,635.888c-.046,1.442-.184,2.59-.184,2.59a18.854,18.854,0,0,1-1.837-1.662c-1.69-1.754-3.564-4.464-.918-6.089S509.7,633.022,509.622,635.888Z" transform="translate(-71.368 74.655)" fill="#3f3d56"/>
      <path id="Path_53" data-name="Path 53" d="M518.989,638a9.615,9.615,0,0,1-3.922,2.967,12.591,12.591,0,0,1-1.313.478L512,638.96a17.9,17.9,0,0,1,.726-2.4,9.444,9.444,0,0,1,1.231-2.333C516.39,631,521.359,634.716,518.989,638Z" transform="translate(-71.813 74.474)" fill="#3f3d56"/>
      <path id="Path_54" data-name="Path 54" d="M484.057,636.67c.744.918,1.231,1.543,1.231,1.543l-1.451,4.372A20.387,20.387,0,0,1,482,641.078a8.615,8.615,0,0,1,1.681-3.839A1.758,1.758,0,0,1,484.057,636.67Z" transform="translate(-69.74 74.192)" opacity="0.1"/>
      <path id="Path_55" data-name="Path 55" d="M488.847,635.578a20.422,20.422,0,0,1-1.46,1.718s-.184-1.038-.266-2.305a3.05,3.05,0,0,1,1.727.588Z" transform="translate(-70.106 74.274)" opacity="0.1"/>
      <path id="Path_56" data-name="Path 56" d="M495.765,653.011l-3.674,1.635s-.817-.395-1.984-1.12c-3.9-2.4-11.756-8.45-6.493-15.613s9.662,5.658,11.389,11.94C495.5,651.726,495.765,653.011,495.765,653.011Z" transform="translate(-69.675 74.381)" fill="#3f3d56"/>
      <path id="Path_57" data-name="Path 57" d="M507.77,637.308a3.058,3.058,0,0,1,2.048-.918c-.046,1.442-.184,2.59-.184,2.59a18.843,18.843,0,0,1-1.864-1.672Z" transform="translate(-71.548 74.179)" opacity="0.1"/>
      <path id="Path_58" data-name="Path 58" d="M515.068,641.279a12.585,12.585,0,0,1-1.313.478L512,639.277a17.888,17.888,0,0,1,.726-2.4C513.837,637.541,514.7,639.194,515.068,641.279Z" transform="translate(-71.838 74.167)" opacity="0.1"/>
      <path id="Path_59" data-name="Path 59" d="M504.636,657.453a5.258,5.258,0,0,0-.625.11c-12.463,1.892-4.115-4.831-4.115-4.831s.569-.514,1.323-1.359c1.506-1.662,3.766-4.592,4.023-7.247.395-4.041.845-7.825,5.612-6.714S516.429,655.093,504.636,657.453Z" transform="translate(-70.727 74.301)" fill="#3f3d56"/>
      <path id="Path_60" data-name="Path 60" d="M495.709,651.11c.524,1.837.808,3.15.808,3.15l-3.674,1.635s-.817-.395-1.984-1.12A9.252,9.252,0,0,1,495.709,651.11Z" transform="translate(-70.347 73.172)" opacity="0.1"/>
      <path id="Path_61" data-name="Path 61" d="M504.636,658.71a5.258,5.258,0,0,0-.625.11c-12.463,1.892-4.115-4.831-4.115-4.831s.569-.514,1.323-1.359A8.266,8.266,0,0,1,504.636,658.71Z" transform="translate(-70.777 73.083)" opacity="0.1"/>
      <path id="Path_62" data-name="Path 62" d="M483.24,670.555s6.98-24.972,16.762-17.276-3.977,19.563-3.977,19.563Z" transform="translate(-69.739 73.289)" fill="#3f3d56"/>
      <circle id="Ellipse_45" data-name="Ellipse 45" cx="0.781" cy="0.781" r="0.781" transform="translate(416.186 715.358)" opacity="0.1"/>
      <circle id="Ellipse_46" data-name="Ellipse 46" cx="0.781" cy="0.781" r="0.781" transform="translate(416.121 719.06)" opacity="0.1"/>
      <circle id="Ellipse_47" data-name="Ellipse 47" cx="0.781" cy="0.781" r="0.781" transform="translate(439.103 716.093)" opacity="0.1"/>
      <circle id="Ellipse_48" data-name="Ellipse 48" cx="0.781" cy="0.781" r="0.781" transform="translate(420.613 735.039)" opacity="0.1"/>
      <circle id="Ellipse_49" data-name="Ellipse 49" cx="0.781" cy="0.781" r="0.781" transform="translate(437.447 722.232)" opacity="0.1"/>
      <circle id="Ellipse_50" data-name="Ellipse 50" cx="0.781" cy="0.781" r="0.781" transform="translate(429.263 730.417)" opacity="0.1"/>
      <circle id="Ellipse_51" data-name="Ellipse 51" cx="0.781" cy="0.781" r="0.781" transform="translate(418.892 716.949)" opacity="0.1"/>
      <circle id="Ellipse_52" data-name="Ellipse 52" cx="0.781" cy="0.781" r="0.781" transform="translate(436.917 718.465)" opacity="0.1"/>
      <circle id="Ellipse_53" data-name="Ellipse 53" cx="0.781" cy="0.781" r="0.781" transform="translate(434.211 724.613)" opacity="0.1"/>
      <circle id="Ellipse_54" data-name="Ellipse 54" cx="0.781" cy="0.781" r="0.781" transform="translate(425.896 734.444)" opacity="0.1"/>
      <circle id="Ellipse_55" data-name="Ellipse 55" cx="0.781" cy="0.781" r="0.781" transform="translate(424.175 730.556)" opacity="0.1"/>
      <circle id="Ellipse_56" data-name="Ellipse 56" cx="0.781" cy="0.781" r="0.781" transform="translate(420.083 721.767)" opacity="0.1"/>
      <circle id="Ellipse_57" data-name="Ellipse 57" cx="0.781" cy="0.781" r="0.781" transform="translate(426.947 738.015)" opacity="0.1"/>
      <circle id="Ellipse_58" data-name="Ellipse 58" cx="0.781" cy="0.781" r="0.781" transform="translate(422.194 739.001)" opacity="0.1"/>
      <path id="Path_63" data-name="Path 63" d="M365.84,687.44s14.511-29.142,20.986-30.41Z" transform="translate(-61.552 73.027)" fill="#3f3d56"/>
      <path id="Path_64" data-name="Path 64" d="M369.82,694.18s14.511-29.142,20.986-30.41Z" transform="translate(-61.83 72.559)" fill="#3f3d56"/>
      <path id="Path_65" data-name="Path 65" d="M373.27,701.18s14.5-29.151,20.977-30.41Z" transform="translate(-62.07 73.423)" fill="#3f3d56"/>
      <path id="Path_66" data-name="Path 66" d="M434.05,681.3s14.511-29.142,20.977-30.41Z" transform="translate(-66.306 73.453)" fill="#3f3d56"/>
      <path id="Path_67" data-name="Path 67" d="M438,687.99s14.511-29.142,20.977-30.41Z" transform="translate(-66.582 72.989)" fill="#3f3d56"/>
      <path id="Path_68" data-name="Path 68" d="M441.47,694.99s14.511-29.142,20.986-30.41Z" transform="translate(-66.824 72.503)" fill="#3f3d56"/>
      <path id="Path_69" data-name="Path 69" d="M639.6,649.38s14.5-29.142,20.977-30.4Z" transform="translate(-80.634 75.667)" fill="#3f3d56"/>
      <path id="Path_70" data-name="Path 70" d="M643.58,656.13s14.5-29.151,20.977-30.41Z" transform="translate(-80.911 75.199)" fill="#3f3d56"/>
      <path id="Path_71" data-name="Path 71" d="M647,663.12s14.5-29.142,20.977-30.4Z" transform="translate(-81.149 74.713)" fill="#3f3d56"/>
      <path id="Path_72" data-name="Path 72" d="M384.488,693.087s-10.02-30.97-6.282-36.407Z" transform="translate(-62.411 73.117)" fill="#3f3d56"/>
      <path id="Path_73" data-name="Path 73" d="M446.5,689.348s-10.02-30.97-6.282-36.4Z" transform="translate(-66.743 73.375)" fill="#3f3d56"/>
      <path id="Path_74" data-name="Path 74" d="M646.369,667.425s-10.011-30.97-6.264-36.425Z" transform="translate(-80.706 74.896)" fill="#3f3d56"/>
      <path id="Path_75" data-name="Path 75" d="M906.6,713.9s-12.711-22.511-31.879-29a39.135,39.135,0,0,1-19.82-14.833,65.431,65.431,0,0,1-5.851-10.525" transform="translate(-94.876 74.339)" fill="none" stroke="#3f3d56" stroke-miterlimit="10" stroke-width="2"/>
      <path id="Path_76" data-name="Path 76" d="M836.55,654.91c2.177,2.122,12.335,4.307,12.335,4.307s-2.489-10.1-4.675-12.206a5.511,5.511,0,1,0-7.66,7.9Z" transform="translate(-94.29 73.675)" fill="#3f3d56"/>
      <path id="Path_77" data-name="Path 77" d="M841.834,673.907c2.985.6,12.7-3.1,12.7-3.1s-7.577-7.109-10.562-7.7a5.511,5.511,0,0,0-2.14,10.792Z" transform="translate(-94.481 72.4)" fill="#3f3d56"/>
      <path id="Path_78" data-name="Path 78" d="M864.37,695.434c2.875-.992,9.4-9.083,9.4-9.083s-10.1-2.315-13.005-1.323a5.511,5.511,0,0,0,3.6,10.406Z" transform="translate(-95.849 72.28)" fill="#3f3d56"/>
      <path id="Path_79" data-name="Path 79" d="M885.292,707.8c3-.5,10.8-7.348,10.8-7.348s-9.589-4-12.592-3.5a5.511,5.511,0,1,0,1.837,10.856Z" transform="translate(-97.331 71.291)" fill="#3f3d56"/>
      <path id="Path_80" data-name="Path 80" d="M864.271,662.431c0,3.04-5.511,11.857-5.511,11.857s-5.511-8.808-5.511-11.848a5.511,5.511,0,0,1,11.021,0Z" transform="translate(-95.618 72.894)" fill="#3f3d56"/>
      <path id="Path_81" data-name="Path 81" d="M888.56,677.106c-.918,2.9-8.8,9.671-8.8,9.671s-2.618-10.1-1.708-12.959a5.511,5.511,0,0,1,10.507,3.288Z" transform="translate(-97.338 73.47)" fill="#3f3d56"/>
      <path id="Path_82" data-name="Path 82" d="M910.149,694.819c-.413,3.013-7.035,11.021-7.035,11.021s-4.28-9.469-3.876-12.482a5.511,5.511,0,0,1,10.911,1.47Z" transform="translate(-98.828 71.95)" fill="#3f3d56"/>
      <path id="Path_83" data-name="Path 83" d="M908.195,711.764s-2.489-25.716-17.368-39.429A39.208,39.208,0,0,1,878.7,650.725a65.763,65.763,0,0,1-1.084-11.995" transform="translate(-97.13 76.036)" fill="none" stroke="#3f3d56" stroke-miterlimit="10" stroke-width="2"/>
      <path id="Path_84" data-name="Path 84" d="M867.442,630.168c1.139,2.82,9.543,8.946,9.543,8.946s1.837-10.241.67-13.06a5.511,5.511,0,0,0-10.213,4.115Z" transform="translate(-96.588 75.259)" fill="#3f3d56"/>
      <path id="Path_85" data-name="Path 85" d="M864.952,649.125c2.489,1.745,12.858,2.315,12.858,2.315s-4.041-9.57-6.521-11.315a5.511,5.511,0,0,0-6.337,9Z" transform="translate(-96.25 74.072)" fill="#3f3d56"/>
      <path id="Path_86" data-name="Path 86" d="M876.775,677.891c3.031.257,12.28-4.491,12.28-4.491s-8.33-6.218-11.352-6.475a5.511,5.511,0,1,0-.918,10.966Z" transform="translate(-96.825 72.135)" fill="#3f3d56"/>
      <path id="Path_87" data-name="Path 87" d="M890.947,697.7c2.939.762,12.858-2.351,12.858-2.351s-7.155-7.54-10.1-8.266a5.511,5.511,0,1,0-2.755,10.654Z" transform="translate(-97.88 72.113)" fill="#3f3d56"/>
      <path id="Path_88" data-name="Path 88" d="M890.113,647.687c-1.231,2.755-9.827,8.606-9.827,8.606s-1.46-10.286-.23-13.069a5.511,5.511,0,1,1,10.057,4.464Z" transform="translate(-97.454 74.09)" fill="#3f3d56"/>
      <path id="Path_89" data-name="Path 89" d="M906.18,670.968c-2.011,2.287-11.94,5.272-11.94,5.272s1.681-10.25,3.674-12.537a5.511,5.511,0,0,1,8.266,7.265Z" transform="translate(-98.46 72.505)" fill="#3f3d56"/>
      <path id="Path_90" data-name="Path 90" d="M918.883,695.865c-1.589,2.59-10.893,7.219-10.893,7.219s-.083-10.4,1.515-12.987a5.511,5.511,0,1,1,9.377,5.768Z" transform="translate(-99.432 72.079)" fill="#3f3d56"/>
      <path id="Path_91" data-name="Path 91" d="M297.284,488.8s17.193-1.029,15.163,11.021a2.948,2.948,0,0,1-1.525,3.1s0-.918-1.763-.6a7.768,7.768,0,0,1-1.837.092,3.857,3.857,0,0,1-2.287-.918h0s-4.831-1.993-6.714-9.892c0,0-1.387-1.727-1.332-2.168l2.9,1.24a5.226,5.226,0,0,0-.22,3.83s.1-3.756.652-3.674c.119,0,1.515.726,1.515.726s-1.708,3.674-.422,6.291c0,0-.487-4.491.918-6.025l2.039,1.185s-1.993,3.775-.643,6.842c0,0-.349-4.712,1.075-6.548l1.837,1.442s-1.837,3.674-.726,6.264c0,0,.147-5.511,1.13-5.906a11.379,11.379,0,0,1,1.837,2.021s-1.286,2.691-.487,4.115c0,0,.487-3.674.918-3.674a12.307,12.307,0,0,1,1.782,4.087,8.836,8.836,0,0,0-1.4-4.317,4.85,4.85,0,0,1,2.471,1.277s-.248-1.708-2.866-1.837a11.111,11.111,0,0,0-1.69-1.947,10.48,10.48,0,0,1,4.179.487s-1.387-1.617-4.656-.918l-1.837-1.5s3.426-.468,4.886.055c0,0-1.681-1.433-5.373-.395l-1.993-1.185a17.893,17.893,0,0,1,4.666-.4s-1.837-.992-5.254.083l-1.424-.643s2.149-.413,2.755-.487.661-.239.661-.239a7.476,7.476,0,0,0-4.023.45A18.164,18.164,0,0,1,297.284,488.8Z" transform="translate(-56.77 84.579)" fill="#3f3d56"/>
      <path id="Path_92" data-name="Path 92" d="M387.914,449.608s17.193-1.038,15.163,11.021a2.939,2.939,0,0,1-1.525,3.1s0-.918-1.763-.588a8.331,8.331,0,0,1-1.837.083,3.876,3.876,0,0,1-2.278-.918h0s-4.84-2-6.714-9.9c0,0-1.4-1.727-1.341-2.168l2.9,1.24a5.2,5.2,0,0,0-.211,3.83s.092-3.756.652-3.674c.11,0,1.506.726,1.506.726s-1.7,3.674-.413,6.3c0,0-.487-4.491.918-6.034l2.048,1.194s-1.993,3.766-.643,6.833c0,0-.349-4.712,1.065-6.548l1.837,1.442s-1.837,3.72-.735,6.264c0,0,.156-5.511,1.139-5.906a11.379,11.379,0,0,1,1.837,2.021s-1.286,2.691-.487,4.115c0,0,.487-3.674.918-3.674a12.306,12.306,0,0,1,1.782,4.087,8.835,8.835,0,0,0-1.4-4.317,4.849,4.849,0,0,1,2.471,1.277s-.248-1.708-2.866-1.837a11.112,11.112,0,0,0-1.69-1.947,10.672,10.672,0,0,1,4.179.487s-1.387-1.616-4.657-.918l-1.837-1.5s3.426-.468,4.877.055c0,0-1.672-1.433-5.373-.386l-1.984-1.194a17.856,17.856,0,0,1,4.656-.4s-1.837-.992-5.244.083l-1.424-.634s2.14-.422,2.755-.487.661-.239.661-.239a7.421,7.421,0,0,0-4.023.441,18.473,18.473,0,0,1-2.93-1.323Z" transform="translate(-63.092 87.309)" fill="#3f3d56"/>
      <path id="Path_93" data-name="Path 93" d="M448.695,305.078s17.2-1.038,15.173,11.021a2.939,2.939,0,0,1-1.525,3.1s0-.918-1.763-.588a8.331,8.331,0,0,1-1.837.083,3.9,3.9,0,0,1-2.287-.918h0s-4.831-2-6.7-9.9c0,0-1.4-1.717-1.341-2.168l2.9,1.24a5.217,5.217,0,0,0-.211,3.839s.092-3.756.652-3.674c.11,0,1.506.726,1.506.726s-1.708,3.674-.413,6.3c0,0-.5-4.491.918-6.034l2.048,1.194s-1.993,3.766-.643,6.833c0,0-.349-4.712,1.065-6.548l1.837,1.451s-1.837,3.674-.735,6.255c0,0,.156-5.511,1.139-5.9a11.249,11.249,0,0,1,1.837,2.011s-1.286,2.691-.487,4.115c0,0,.487-3.674.918-3.674a12.106,12.106,0,0,1,1.782,4.087,8.771,8.771,0,0,0-1.387-4.317,4.85,4.85,0,0,1,2.471,1.277s-.248-1.708-2.865-1.837a11.942,11.942,0,0,0-1.69-1.956,10.672,10.672,0,0,1,4.179.487s-1.387-1.616-4.657-.918l-1.837-1.488s3.426-.478,4.877.046c0,0-1.672-1.433-5.373-.386l-1.993-1.194a18.366,18.366,0,0,1,4.666-.4s-1.837-.992-5.244.083l-1.424-.634s2.14-.422,2.755-.487.661-.239.661-.239a7.421,7.421,0,0,0-4.023.441,18.841,18.841,0,0,1-2.948-1.322Z" transform="translate(-67.333 97.381)" fill="#3f3d56"/>
      <path id="Path_94" data-name="Path 94" d="M503.2,262.588s17.193-1.038,15.173,11.021a2.948,2.948,0,0,1-1.534,3.1s0-.918-1.763-.588a7.769,7.769,0,0,1-1.837.092,3.912,3.912,0,0,1-2.287-.918h0s-4.831-1.993-6.714-9.892c0,0-1.387-1.727-1.332-2.168l2.838,1.2a5.2,5.2,0,0,0-.211,3.83s.092-3.756.652-3.674c.11,0,1.506.726,1.506.726s-1.708,3.674-.422,6.291c0,0-.487-4.491.918-6.034l2.039,1.194s-1.993,3.766-.643,6.842c0,0-.34-4.712,1.075-6.548L512.5,268.5s-1.837,3.674-.735,6.264c0,0,.147-5.511,1.13-5.906a10.921,10.921,0,0,1,1.837,2.011s-1.277,2.7-.487,4.124c0,0,.5-3.674.918-3.674a12.03,12.03,0,0,1,1.782,4.078,8.772,8.772,0,0,0-1.387-4.317,4.822,4.822,0,0,1,2.471,1.286s-.257-1.717-2.875-1.837a11.113,11.113,0,0,0-1.69-1.947,10.636,10.636,0,0,1,4.188.478s-1.4-1.616-4.666-.918l-1.727-1.506s3.435-.468,4.886,0c0,0-1.672-1.424-5.373-.386l-1.993-1.194a18.046,18.046,0,0,1,4.666-.395s-1.837-.992-5.244.083l-1.424-.643s2.14-.422,2.755-.487.661-.239.661-.239a7.347,7.347,0,0,0-4.023.45A17.647,17.647,0,0,1,503.2,262.588Z" transform="translate(-71.135 100.342)" fill="#3f3d56"/>
      <path id="Path_95" data-name="Path 95" d="M619.779,189.813s6.108,16.109-6.007,17.763a2.948,2.948,0,0,1-3.407-.542s.845-.294,0-1.837a7.624,7.624,0,0,1-.634-1.763A3.848,3.848,0,0,1,609.97,201h0s.468-5.208,7.448-9.35c0,0,1.231-1.837,1.672-1.92l-.321,3.141a5.217,5.217,0,0,0-3.72.918s3.619-1.029,3.674-.468c0,.11-.239,1.653-.239,1.653s-3.986-.542-6.135,1.47c0,0,4.142-1.837,6.043-.918l-.533,2.305s-4.188-.781-6.723,1.424c0,0,4.4-1.736,6.567-.918l-.827,2.2s-4.1-.68-6.19,1.166c0,0,5.281-1.488,5.97-.67a11.36,11.36,0,0,1-1.368,2.379s-2.957-.423-4.078.753c0,0,3.674-.615,3.775-.239a12.168,12.168,0,0,1-3.371,2.911,8.8,8.8,0,0,0,3.674-2.608,4.868,4.868,0,0,1-.5,2.755s1.561-.744.919-3.288a11.148,11.148,0,0,0,1.359-2.2,10.57,10.57,0,0,1,.781,4.133s1.13-1.837-.542-4.712l.918-2.186s1.469,3.132,1.405,4.675c0,0,.863-2.021-1.231-5.244l.551-2.25a17.8,17.8,0,0,1,1.763,4.326s.4-2.048-1.635-4.978l.184-1.552s1.038,1.92,1.295,2.5.422.56.422.56a7.4,7.4,0,0,0-1.626-3.674,18.467,18.467,0,0,1,.423-3.279Z" transform="translate(-78.606 104.177)" fill="#3f3d56"/>
      <path id="Path_96" data-name="Path 96" d="M961.224,498.288s17.193-1.038,15.164,11.021a2.939,2.939,0,0,1-1.525,3.1s0-.918-1.763-.588a7.764,7.764,0,0,1-1.837.092,3.912,3.912,0,0,1-2.287-.918h0s-4.831-1.993-6.714-9.892c0,0-1.387-1.727-1.332-2.168l2.9,1.24a5.2,5.2,0,0,0-.211,3.83s.092-3.756.652-3.674c.11,0,1.506.726,1.506.726s-1.708,3.674-.422,6.291c0,0-.487-4.491.918-6.034l2.039,1.194s-1.993,3.766-.643,6.842c0,0-.349-4.712,1.075-6.548l1.837,1.442s-1.837,3.674-.726,6.264c0,0,.147-5.511,1.13-5.906a11.251,11.251,0,0,1,1.837,2.011s-1.277,2.7-.487,4.124c0,0,.487-3.674.918-3.674a12.03,12.03,0,0,1,1.782,4.078,8.882,8.882,0,0,0-1.387-4.317,4.932,4.932,0,0,1,2.471,1.286s-.257-1.717-2.875-1.837a11.113,11.113,0,0,0-1.69-1.947,10.636,10.636,0,0,1,4.188.478s-1.4-1.616-4.666-.918l-1.837-1.488s3.426-.468,4.886.046c0,0-1.672-1.424-5.373-.386l-1.993-1.194a18.046,18.046,0,0,1,4.666-.395s-1.837-.992-5.244.083l-1.424-.643s2.14-.422,2.755-.487.661-.239.661-.239a7.347,7.347,0,0,0-4.023.45A17.486,17.486,0,0,1,961.224,498.288Z" transform="translate(-100.696 83.917)" fill="#3f3d56"/>
      <path id="Path_97" data-name="Path 97" d="M377.547,543s10.636,13.556-.432,18.736a2.939,2.939,0,0,1-3.417.505s.716-.533-.514-1.782a8.268,8.268,0,0,1-1.139-1.488,3.894,3.894,0,0,1-.523-2.415h0s-1.1-5.107,4.326-11.15c0,0,.625-2.122,1.019-2.333l.634,3.1a5.235,5.235,0,0,0-3.279,2s3.15-2.057,3.389-1.543c.055.1.266,1.653.266,1.653s-3.977.67-5.419,3.233c0,0,3.417-2.957,5.511-2.645l.184,2.351s-4.234.505-6,3.361c0,0,3.674-2.967,6-2.838l-.129,2.342s-4.124.569-5.566,2.957c0,0,4.592-2.994,5.511-2.425a10.94,10.94,0,0,1-.6,2.682s-2.939.478-3.674,1.938c0,0,3.279-1.672,3.518-1.35a12.186,12.186,0,0,1-2.342,3.784,8.827,8.827,0,0,0,2.755-3.6,4.9,4.9,0,0,1,.349,2.755s1.267-1.185-.1-3.426a11.258,11.258,0,0,0,.643-2.5,10.608,10.608,0,0,1,1.984,3.674s.533-2.066-1.929-4.335l.193-2.351s2.333,2.553,2.755,4.041c0,0,.23-2.186-2.755-4.592l-.156-2.315a18.24,18.24,0,0,1,2.985,3.609s-.23-2.076-3.058-4.271l-.276-1.534s1.561,1.525,1.965,2,.579.4.579.4a7.421,7.421,0,0,0-2.654-3.049A18.432,18.432,0,0,1,377.547,543Z" transform="translate(-61.982 80.845)" fill="#3f3d56"/>
      <path id="Path_98" data-name="Path 98" d="M975.537,433.84s10.636,13.556-.432,18.745a2.939,2.939,0,0,1-3.417.505s.716-.533-.514-1.791a8.264,8.264,0,0,1-1.139-1.488,3.867,3.867,0,0,1-.524-2.406h0s-1.1-5.116,4.326-11.159c0,0,.625-2.122,1.019-2.324l.634,3.086a5.217,5.217,0,0,0-3.279,2.011s3.15-2.057,3.389-1.552c.055.1.266,1.653.266,1.653s-3.968.67-5.419,3.233c0,0,3.417-2.957,5.511-2.645l.184,2.36s-4.234.5-6,3.362c0,0,3.674-2.967,6-2.847l-.129,2.342s-4.124.569-5.566,2.967c0,0,4.592-3,5.511-2.425a10.885,10.885,0,0,1-.6,2.673s-2.939.478-3.674,1.947c0,0,3.279-1.681,3.527-1.359a12.28,12.28,0,0,1-2.351,3.784,8.826,8.826,0,0,0,2.755-3.6,4.915,4.915,0,0,1,.349,2.755s1.267-1.185-.1-3.417a11.26,11.26,0,0,0,.643-2.5,10.526,10.526,0,0,1,1.984,3.674s.533-2.057-1.929-4.335l.193-2.351s2.333,2.553,2.755,4.041c0,0,.23-2.186-2.755-4.638l-.156-2.314a18.241,18.241,0,0,1,2.985,3.609s-.23-2.076-3.058-4.271l-.276-1.534s1.561,1.525,1.975,2,.569.4.569.4a7.476,7.476,0,0,0-2.654-3.049A17.691,17.691,0,0,1,975.537,433.84Z" transform="translate(-101.389 88.441)" fill="#3f3d56"/>
      <path id="Path_99" data-name="Path 99" d="M1023.821,536.381s2.021,17.111-10.1,15.77a2.939,2.939,0,0,1-3.178-1.35s.918-.073.5-1.837a8.208,8.208,0,0,1-.2-1.837,3.9,3.9,0,0,1,.808-2.342h0s1.717-4.932,9.5-7.265c0,0,1.644-1.488,2.094-1.46l-1.075,2.976a5.217,5.217,0,0,0-3.839,0s3.757-.119,3.674.441c0,.119-.643,1.552-.643,1.552s-3.738-1.5-6.31-.064c0,0,4.464-.744,6.08.606l-1.075,2.112s-3.876-1.773-6.861-.248c0,0,4.684-.615,6.594.689l-1.332,1.929s-3.812-1.653-6.291-.367c0,0,5.511-.165,5.951.79a11.479,11.479,0,0,1-1.9,1.984s-2.755-1.13-4.142-.257c0,0,3.674.285,3.72.68a12.006,12.006,0,0,1-3.977,2.011,8.845,8.845,0,0,0,4.234-1.635,4.932,4.932,0,0,1-1.139,2.544s1.7-.349,1.7-2.976c0,0,1.754-1.433,1.837-1.837a10.647,10.647,0,0,1-.239,4.206s1.534-1.479.606-4.7l1.387-1.91s.661,3.4.23,4.877c0,0,1.332-1.754.083-5.391l1.075-2.048a18.366,18.366,0,0,1,.671,4.592s.918-1.892-.386-5.235l.56-1.451s.542,2.112.643,2.755.276.643.276.643a7.347,7.347,0,0,0-.68-3.986S1023.591,536.335,1023.821,536.381Z" transform="translate(-104.743 81.3)" fill="#3f3d56"/>
      <path id="Path_100" data-name="Path 100" d="M1064.732,670.729a10.177,10.177,0,0,0,3.306-5c.432-1.984-.413-4.363-2.314-5.088-2.122-.817-4.39.661-6.117,2.149s-3.674,3.178-5.942,2.866a9.047,9.047,0,0,0,2.755-8.468,3.674,3.674,0,0,0-.781-1.727c-1.185-1.258-3.316-.716-4.73.276-4.491,3.159-5.74,9.258-5.768,14.75-.45-1.984-.073-4.041-.083-6.08s-.569-4.28-2.287-5.373a6.9,6.9,0,0,0-3.472-.817c-2.021-.074-4.271.129-5.648,1.607-1.718,1.837-1.267,4.914.22,6.934s3.756,3.279,5.841,4.675a13.034,13.034,0,0,1,4.179,3.986,4.591,4.591,0,0,1,.312.707h12.647a35.4,35.4,0,0,0,7.88-5.4Z" transform="translate(-106.537 73.09)" fill="#3f3d56"/>
      <path id="Path_101" data-name="Path 101" d="M795.423,681.88a10.1,10.1,0,0,0,3.316-4.987c.422-1.993-.423-4.372-2.315-5.088-2.131-.817-4.4.652-6.117,2.14s-3.674,3.187-5.951,2.875a9.046,9.046,0,0,0,2.755-8.477,3.462,3.462,0,0,0-.781-1.717c-1.176-1.258-3.316-.716-4.721.276-4.491,3.159-5.749,9.258-5.768,14.75-.459-1.984-.073-4.05-.083-6.08s-.569-4.28-2.287-5.373a6.833,6.833,0,0,0-3.481-.817c-2.021-.074-4.262.129-5.639,1.607-1.717,1.837-1.277,4.9.22,6.925s3.756,3.288,5.841,4.684a13.106,13.106,0,0,1,4.179,3.977,4.208,4.208,0,0,1,.3.716h12.656A35.087,35.087,0,0,0,795.423,681.88Z" transform="translate(-89.127 72.314)" fill="#3f3d56"/>
      <path id="Path_102" data-name="Path 102" d="M207.58,614.8s3.913-.34,5.208.753c0,0-4.427,1.148-4.886,2.066,0,0,.092.092.459,0s2.7-.588,3.2,0l.165.285.174.11.257.174a.919.919,0,0,1,.349.432c.083.257.285,0,.285,0s.294.606.2.772.285.579.285.579v1.837l.147-.138a8.192,8.192,0,0,0,.836,3.334s1.754,4.454,2.36,4.794h.367s2.645,3.508,5.18,4.252,2.673,1.525,2.673,1.525l-3.169,3.508a11.238,11.238,0,0,0-1.782.285,23.3,23.3,0,0,0,3.306.12l2.443-3.224a1.891,1.891,0,0,1,.836.432,1.663,1.663,0,0,1,.432.2c.2.147.349,0,.514.064a15.252,15.252,0,0,1-1.3,2.526H224.5l1.35.487c.459.175,1.405-.4,1.405-.4l1.3-2.351.524.459v-.321s.542.321.771.266-.285-.377-.285-.377a2.249,2.249,0,0,0,.771,0c.147-.083-.138-.551-.138-.551v-.34s-.854,0-.744-.174.423-.257.964,0,3.867,1.7,5.134,1.176A15.122,15.122,0,0,0,238.192,639c.625.147,1.35,1.231,1.35,1.231s2.673,2.755,4.252,2.076a6.86,6.86,0,0,1-.716-1.525c-.092-.487-2.048-2.067-2.048-2.067s4.142.974,4.142.689c0,0,2.066,1.176,2.186,1.176s0-.716-1.12-1.552l1.561.23a1.837,1.837,0,0,0-1.277-1.607,4.344,4.344,0,0,0-1.433-1.268l-6.475-3.591s.634-.321-.083-1.24a5.365,5.365,0,0,1,.606-.165c.367-.092-2.9-2.847-2.994-2.838a3.5,3.5,0,0,1-1.029-1.13,20.6,20.6,0,0,0-3.077-2.076s-2.553-.174-4.307-3.674-5.924-3.885-5.924-3.885-1.5-7.412-8.569-4.592C213.164,613.248,208.324,613.505,207.58,614.8Z" transform="translate(-52.753 76.107)" fill="#3f3d56"/>
      <path id="Path_117" data-name="Path 117" d="M665.561,661.593h-4.776l-.165-.193C661.658,661.042,663.9,660.509,665.561,661.593Z" transform="translate(-82.213 72.443)" opacity="0.1"/>
      <path id="Path_118" data-name="Path 118" d="M678.2,661.593h-4.776l-.165-.193C674.3,661.042,676.539,660.509,678.2,661.593Z" transform="translate(-83.097 72.443)" opacity="0.1"/>
      <path id="Path_121" data-name="Path 121" d="M658.441,553.66s.285,2.287-.7,2.856S658.441,553.66,658.441,553.66Z" transform="translate(-82.018 79.964)" opacity="0.1"/>
      <path id="Path_122" data-name="Path 122" d="M663.791,550.74s-3.463.22-3.481.716S663.791,550.74,663.791,550.74Z" transform="translate(-82.202 80.151)" opacity="0.1"/>
      <circle id="Ellipse_62" data-name="Ellipse 62" cx="1.029" cy="1.029" r="1.029" transform="translate(75.401 314.407)" fill="#fff"/>
      <circle id="Ellipse_63" data-name="Ellipse 63" cx="1.029" cy="1.029" r="1.029" transform="translate(185.301 291.519)" fill="#fff"/>
      <circle id="Ellipse_64" data-name="Ellipse 64" cx="1.029" cy="1.029" r="1.029" transform="translate(690.843 292.842)" fill="#fff"/>
      <circle id="Ellipse_65" data-name="Ellipse 65" cx="1.029" cy="1.029" r="1.029" transform="translate(75.401 361.832)" fill="#fff"/>
      <circle id="Ellipse_66" data-name="Ellipse 66" cx="1.029" cy="1.029" r="1.029" transform="translate(724.205 328.633)" fill="#fff"/>
      <circle id="Ellipse_67" data-name="Ellipse 67" cx="1.029" cy="1.029" r="1.029" transform="translate(732.818 392.683)" fill="#fff"/>
      <circle id="Ellipse_68" data-name="Ellipse 68" cx="1.029" cy="1.029" r="1.029" transform="translate(941.773 318.567)" fill="#fff"/>
      <circle id="Ellipse_69" data-name="Ellipse 69" cx="1.029" cy="1.029" r="1.029" transform="translate(313.897 271.718)" fill="#fff"/>
      <circle id="Ellipse_70" data-name="Ellipse 70" cx="1.029" cy="1.029" r="1.029" transform="translate(808.109 282.28)" fill="#fff"/>
      <circle id="Ellipse_71" data-name="Ellipse 71" cx="1.029" cy="1.029" r="1.029" transform="translate(708.85 457.79)" fill="#fff"/>
      <circle id="Ellipse_72" data-name="Ellipse 72" cx="1.029" cy="1.029" r="1.029" transform="translate(184.263 500.249)" fill="#fff"/>
      <circle id="Ellipse_73" data-name="Ellipse 73" cx="1.029" cy="1.029" r="1.029" transform="translate(723.164 468.328)" fill="#fff"/>
      <circle id="Ellipse_74" data-name="Ellipse 74" cx="1.029" cy="1.029" r="1.029" transform="translate(976.334 391.539)" fill="#fff"/>
      <circle id="Ellipse_75" data-name="Ellipse 75" cx="1.029" cy="1.029" r="1.029" transform="translate(276.154 351.647)" fill="#fff"/>
    </g>
  </g>
</svg>
