<svg xmlns="http://www.w3.org/2000/svg" xmlns:xlink="http://www.w3.org/1999/xlink" width="867.2" height="752.7"><style><![CDATA[.g{fill:#fff}.h{enable-background:new}.i{opacity:.6}.j{fill:#ffa84c}.k{opacity:.25}.l{opacity:.3}.m{fill:#535461}.n{fill:#f55f44}.o{stroke-width:2}.p{stroke-miterlimit:10}.q{stroke:#535461}]]></style><path d="M393.3 45.9c36.3-9.4 77.5 6.3 112.1 26.3C614 135.3 686.7 241 742.2 346.6c20.1 38.2 38.9 78 43.6 118.8 9.7 83.2-46.7 162.3-130.9 183.3-28.6 7.2-59.3 8.1-89.9 7.2-54.3-1.6-110-9.1-161.9-29.8-37-14.8-71.3-36-103.9-58.8-91.1-63.9-171.9-142.8-226.6-234.6-23.6-40.2-42.7-84.8-38.9-127.9s36.5-83.5 83.5-85.9c19.4-1 39.3 4.2 58.7 9.6 28.5 7.8 57.4 16 86.3 16.9 29.8.9 69.6-6.5 77.9-34.3 8.8-29.9 17.1-55.9 53.2-65.2z" fill="#ff7900" class="h l"/><g class="j h"><circle transform="matrix(.4587 -.8886 .8886 .4587 -407.6147 486.2625)" cx="195.3" cy="577.7" r="26.6" class="l"/><circle transform="matrix(.4587 -.8886 .8886 .4587 -404.4736 359.0114)" cx="92.4" cy="511.5" r="16.5" class="l"/><circle transform="matrix(.4587 -.8886 .8886 .4587 125.8887 907.1044)" cx="807.5" cy="350.2" r="10.2" class="l"/></g><linearGradient id="A" gradientUnits="userSpaceOnUse" x1="466.481" y1="530.185" x2="448.088" y2="468.49"><stop offset="0" stop-color="gray" stop-opacity=".25"/><stop offset=".54" stop-color="gray" stop-opacity=".12"/><stop offset="1" stop-color="gray" stop-opacity=".1"/></linearGradient><path d="M397.9 483.4l100.4-29.9 18.4 61.7-100.4 29.9z" fill="url(#A)"/><path d="M399.526 484.606l96.98-28.913 17.17 57.594-96.98 28.913z" class="g"/><path d="M405.1 487.63l12.362-3.686 2.714 9.104-12.362 3.686zm17.272 20.883l47.34-14.114.886 2.97-47.34 14.114zm15.064 3.56l34.5-10.285.6 2.012-34.5 10.285z" class="i j"/><linearGradient id="B" gradientUnits="userSpaceOnUse" x1="693.839" y1="380.42" x2="706.149" y2="317.224"><stop offset="0" stop-color="gray" stop-opacity=".25"/><stop offset=".54" stop-color="gray" stop-opacity=".12"/><stop offset="1" stop-color="gray" stop-opacity=".1"/></linearGradient><path d="M642.4 370.4l12.3-63.2 102.9 20.1-12.3 63.2z" fill="url(#B)"/><path d="M642.655 368.886l11.418-58.902 99.152 19.22-11.418 58.902z" class="g"/><path d="M657.37 323.7l1.816-9.325 12.663 2.466-1.816 9.325zm6.822 20.286l.593-3.043 48.5 9.445-.593 3.043zm11.806 9.14l.402-2.06 35.338 6.883-.402 2.06z" class="i j"/><linearGradient id="C" gradientUnits="userSpaceOnUse" x1="680.478" y1="505.678" x2="739.54" y2="480.061"><stop offset="0" stop-color="gray" stop-opacity=".25"/><stop offset=".54" stop-color="gray" stop-opacity=".12"/><stop offset="1" stop-color="gray" stop-opacity=".1"/></linearGradient><path d="M659.6 457.6l59.1-25.6 41.7 96.1-59.1 25.6z" fill="url(#C)"/><path d="M662.61 457.746l55.136-23.914 40.267 92.84-55.136 23.914z" class="g"/><path d="M706.483 443.448l8.715-3.78 5.133 11.834-8.715 3.78zm-12.815 17.138l2.844-1.233 19.656 45.32-2.844 1.233zm-.788 14.926l1.927-.836 14.324 33.026-1.927.836z" class="i j"/><linearGradient id="D" gradientUnits="userSpaceOnUse" x1="400.02" y1="226.702" x2="381.627" y2="165.007"><stop offset="0" stop-color="gray" stop-opacity=".25"/><stop offset=".54" stop-color="gray" stop-opacity=".12"/><stop offset="1" stop-color="gray" stop-opacity=".1"/></linearGradient><path d="M331.4 180l100.4-30 18.4 61.7-100.4 29.9z" fill="url(#D)"/><path d="M333.116 181.098l96.98-28.913 17.17 57.594-96.98 28.913z" class="g"/><path d="M338.596 184.136l12.362-3.686 2.714 9.104-12.362 3.686zm17.274 20.884l47.34-14.114.886 2.97L356.756 208zm15.1 3.654l34.5-10.285.6 2.012-34.5 10.285z" class="i n"/><linearGradient id="E" gradientUnits="userSpaceOnUse" x1="627.366" y1="76.928" x2="639.676" y2="13.732"><stop offset="0" stop-color="gray" stop-opacity=".25"/><stop offset=".54" stop-color="gray" stop-opacity=".12"/><stop offset="1" stop-color="gray" stop-opacity=".1"/></linearGradient><path d="M575.9 67l12.3-63.2 102.9 20L678.8 87z" fill="url(#E)"/><path d="M577.793 64.553l11.49-58.994 99.338 19.35-11.49 58.994z" class="g"/><path d="M590.835 20.23l1.816-9.325 12.663 2.466-1.816 9.325zm6.822 20.285l.593-3.043 48.5 9.445-.593 3.043zm11.835 9.038l.402-2.06 35.338 6.883-.402 2.06z" class="i j"/><linearGradient id="F" gradientUnits="userSpaceOnUse" x1="613.998" y1="202.217" x2="673.06" y2="176.6"><stop offset="0" stop-color="gray" stop-opacity=".25"/><stop offset=".54" stop-color="gray" stop-opacity=".12"/><stop offset="1" stop-color="gray" stop-opacity=".1"/></linearGradient><path d="M593.1 154.2l59.1-25.7 41.7 96.1-59.1 25.7z" fill="url(#F)"/><path d="M596.116 154.254l55.136-23.914 40.267 92.84-55.136 23.914z" class="g"/><path d="M640.026 140.05l8.715-3.78 5.133 11.834-8.715 3.78zm-12.856 17.042l2.844-1.233 19.656 45.32-2.844 1.233zm-.8 14.928l1.927-.836L642.63 204.2l-1.927.836z" fill="#fc9e5e" class="i"/><linearGradient id="G" gradientUnits="userSpaceOnUse" x1="117.978" y1="455.096" x2="99.584" y2="393.401"><stop offset="0" stop-color="gray" stop-opacity=".25"/><stop offset=".54" stop-color="gray" stop-opacity=".12"/><stop offset="1" stop-color="gray" stop-opacity=".1"/></linearGradient><path d="M49.4 408.3l100.4-29.9 18.4 61.7L67.8 470z" fill="url(#G)"/><path d="M51.03 409.512L148 380.6l17.17 57.594-96.98 28.913z" class="g"/><path d="M56.625 412.632l12.362-3.686 2.714 9.104-12.362 3.686zM73.9 433.518l47.34-14.114.886 2.97-47.34 14.114zm15.063 3.56l34.5-10.285.6 2.012-34.5 10.285z" class="i j"/><linearGradient id="H" gradientUnits="userSpaceOnUse" x1="345.323" y1="305.338" x2="357.633" y2="242.142"><stop offset="0" stop-color="gray" stop-opacity=".25"/><stop offset=".54" stop-color="gray" stop-opacity=".12"/><stop offset="1" stop-color="gray" stop-opacity=".1"/></linearGradient><path d="M293.9 295.4l12.3-63.2 102.9 20-12.4 63.2z" fill="url(#H)"/><path d="M294.702 293.38l11.418-58.902 99.152 19.22-11.418 58.902z" class="g"/><path d="M308.787 248.72l1.816-9.325 12.663 2.466-1.816 9.325zm6.848 20.2l.593-3.043 48.5 9.445-.593 3.043zm11.905 9.16l.402-2.06 35.436 6.902-.402 2.06z" class="i n"/><linearGradient id="I" gradientUnits="userSpaceOnUse" x1="331.98" y1="430.605" x2="391.042" y2="404.988"><stop offset="0" stop-color="gray" stop-opacity=".25"/><stop offset=".54" stop-color="gray" stop-opacity=".12"/><stop offset="1" stop-color="gray" stop-opacity=".1"/></linearGradient><path d="M311.1 382.6l59.1-25.7 41.7 96.2-59.1 25.6z" fill="url(#I)"/><path d="M314.103 382.633l55.136-23.914 40.267 92.84-55.136 23.914z" class="g"/><path d="M358.013 368.425l8.715-3.78 5.133 11.834-8.715 3.78zm-12.85 17.045l2.844-1.233 19.656 45.32-2.844 1.233zm-.79 14.928l1.927-.836 14.324 33.026-1.927.836z" fill="#c47b39" class="i"/><linearGradient id="J" gradientUnits="userSpaceOnUse" x1="129.787" y1="273.872" x2="111.394" y2="212.176"><stop offset="0" stop-color="gray" stop-opacity=".25"/><stop offset=".54" stop-color="gray" stop-opacity=".12"/><stop offset="1" stop-color="gray" stop-opacity=".1"/></linearGradient><path d="M61.2 227.1l100.4-29.9 18.4 61.7-100.4 29.9z" fill="url(#J)"/><path d="M64.468 227.78l97.166-29.354 17.44 57.725-97.166 29.354z" class="g"/><path d="M68.4 231.335l12.362-3.686 2.714 9.104-12.362 3.686zm17.3 20.98l47.34-14.114.886 2.97-47.34 14.114zm15.066 3.56l34.5-10.285.6 2.012-34.5 10.285z" class="i j"/><linearGradient id="K" gradientUnits="userSpaceOnUse" x1="356.289" y1="124.75" x2="368.521" y2="61.657"><stop offset="0" stop-color="gray" stop-opacity=".25"/><stop offset=".54" stop-color="gray" stop-opacity=".12"/><stop offset="1" stop-color="gray" stop-opacity=".1"/></linearGradient><path d="M305 114.8l12.2-63.1 102.7 19.9-12.3 63.1z" fill="url(#K)"/><path d="M307.478 111.7l11.49-58.994 99.338 19.35-11.49 58.994z" class="g"/><g class="i"><path d="M320.6 67.504l1.816-9.325 12.663 2.466-1.816 9.325zm6.852 20.18l.593-3.043 48.5 9.445-.593 3.043z" class="j"/><path d="M339.25 96.817l.402-2.06 35.436 6.902-.402 2.06z" class="n"/></g><linearGradient id="L" gradientUnits="userSpaceOnUse" x1="343.787" y1="249.392" x2="402.849" y2="223.775"><stop offset="0" stop-color="gray" stop-opacity=".25"/><stop offset=".54" stop-color="gray" stop-opacity=".12"/><stop offset="1" stop-color="gray" stop-opacity=".1"/></linearGradient><path d="M322.9 201.3l59.1-25.6 41.7 96.1-59.1 25.7z" fill="url(#L)"/><path d="M325.825 201.47l55.136-23.914 40.267 92.84-55.136 23.914z" class="g"/><path d="M369.83 187.228l8.715-3.78 5.133 11.834-8.715 3.78zm-12.856 17.042l2.844-1.233 19.656 45.32-2.844 1.233zm-.78 14.928l1.927-.836 14.324 33.026-1.927.836z" fill="#47e6b1" class="i"/><g class="m h"><circle cx="63.9" cy="61.3" r="5.5" class="k"/><circle cx="635" cy="540.4" r="5.5" class="k"/><circle cx="151.8" cy="513.2" r="5.5" class="k"/><circle cx="685.8" cy="437" r="5.5" class="k"/><circle cx="737.3" cy="186.1" r="5.5" class="k"/><path d="M333.4 4.9h-4.8V0h-2v4.9h-4.9v1.9h4.9v4.9h2V6.8h4.8zM146.3 79.4h-4.9v-4.9h-2v4.9h-4.8v2h4.8v4.9h2v-4.9h4.9zM70.2 357.1h-4.9v-4.8h-2v4.8h-4.8v2h4.8v4.9h2v-4.9h4.9zm-11-198h-4.8v-4.9h-2v4.9h-4.9v2h4.9v4.8h2v-4.8h4.8zM11.7 295.2H6.8v-4.9H4.9v4.9H0v1.9h4.9v4.9h1.9v-4.9h4.9zM867.2 225h-4.9v-4.9h-2v4.9h-4.8v2h4.8v4.8h2V227h4.9zm-169.4 63.3h-4.9v-4.9h-2v4.9H686v1.9h4.9v4.9h2v-4.9h4.9zM553.1 117.6h-4.9v-4.8h-2v4.8h-4.8v2h4.8v4.9h2v-4.9h4.9z" class="k"/></g><linearGradient id="M" gradientUnits="userSpaceOnUse" x1="271.818" y1="493.715" x2="374.915" y2="493.715"><stop offset="0" stop-color="gray" stop-opacity=".25"/><stop offset=".54" stop-color="gray" stop-opacity=".12"/><stop offset="1" stop-color="gray" stop-opacity=".1"/></linearGradient><g fill="none" class="o p"><use xlink:href="#S" stroke="url(#M)"/><use xlink:href="#S" x="1.1" class="q"/></g><linearGradient id="N" gradientUnits="userSpaceOnUse" x1="388.06" y1="451.457" x2="420.023" y2="451.457"><stop offset="0" stop-color="gray" stop-opacity=".25"/><stop offset=".54" stop-color="gray" stop-opacity=".12"/><stop offset="1" stop-color="gray" stop-opacity=".1"/></linearGradient><g fill="none" class="o p"><use xlink:href="#T" stroke="url(#N)"/><use xlink:href="#T" x="1.1" class="q"/></g><linearGradient id="O" gradientUnits="userSpaceOnUse" x1="503.28" y1="509.039" x2="534.171" y2="509.039"><stop offset="0" stop-color="gray" stop-opacity=".25"/><stop offset=".54" stop-color="gray" stop-opacity=".12"/><stop offset="1" stop-color="gray" stop-opacity=".1"/></linearGradient><g fill="none" class="o p"><path d="M528.6 419.1l4.2 34c.5 4.5 1 9.5-1.4 13.3-2.3 3.7-6.6 5.4-10 8.1-11 8.8-10 25.8-6.2 39.5 3.8 13.6 9.3 28.3 4 41.4-2.2 5.4-6 10-8.9 15-4.9 8.7-6.8 18.7-5.5 28.6" stroke="url(#O)"/><path d="M529.6 419.1l4.2 34c.5 4.5 1 9.5-1.4 13.3-2.3 3.7-6.6 5.4-10 8.1-11 8.8-10 25.8-6.2 39.5s9.3 28.3 4 41.4c-2.2 5.4-6 10-8.9 15-4.9 8.7-6.8 18.7-5.5 28.6" class="q"/></g><g opacity=".7"><linearGradient id="P" gradientUnits="userSpaceOnUse" x1="404.66" y1="432.95" x2="404.66" y2="65.38"><stop offset="0" stop-color="gray" stop-opacity=".25"/><stop offset=".54" stop-color="gray" stop-opacity=".12"/><stop offset="1" stop-color="gray" stop-opacity=".1"/></linearGradient><path d="M636.8 279.3c0-55.7-45.3-100.9-101-100.8-10.6 0-21 1.7-31.1 4.9.8-5.7 1.3-11.4 1.3-17.1.3-55.7-44.5-101.1-100.2-101.5-53.4-.3-97.7 41-101.2 94.2-53-17.2-109.9 11.8-127.2 64.8-3.3 10.1-4.9 20.6-4.9 31.1 0 50.6 37.3 122.6 85.9 135.3l7.5 4.3-4.1 14.1h24.3l-5.3-14.1 7.5-4.3c37.5-9.9 68.3-55 80.4-98.4 6.6 4.4 13.9 7.7 21.5 9.8l7.5 4.3-4.1 14.1H418l-5.3-14.1 7.5-4.3a69.78 69.78 0 0 0 16-6.5c6.5 48.6 41 108.1 84.7 119.5l7.6 4.3-4.1 14.1h24.3l-5.3-14.1 7.5-4.3c48.7-12.8 85.9-84.8 85.9-135.3z" fill="url(#P)"/></g><path d="M289.9 403.4h-23.5l4.1-14.1h14.1zm85.3-148.7c0 53.9-43.7 132.8-97.6 132.8s-97.6-79-97.6-132.8c0-53.9 43.7-97.6 97.6-97.5 53.9 0 97.5 43.6 97.6 97.5z" class="j"/><path d="M284.6 389.9h-14.1l-8.2-4.7h30.6z" class="m"/><path d="M242.3 178.9s-41.1 22.3-47 67" opacity=".1" class="g h"/><path d="M417.5 317.6H394l4.1-14.1h14.2zm85.3-148.7c0 53.9-43.7 132.9-97.6 132.9s-97.6-78.9-97.6-132.9c0-53.9 43.7-97.6 97.6-97.6s97.6 43.7 97.6 97.6z" fill="#fc9e5e"/><path d="M412.3 304.1h-14.2l-8.2-4.7h30.6z" class="m"/><path d="M369.9 93.1s-41.1 22.3-47 67" opacity=".1" class="g h"/><path d="M544.1 427h-23.5l4.1-14.1h14.1zm85.2-148.7c0 53.9-43.7 132.8-97.6 132.8s-97.6-79-97.6-132.8c0-53.9 43.7-97.6 97.6-97.6s97.6 43.7 97.6 97.6z" fill="#c47b39"/><path d="M538.8 413.5h-14.1l-8.2-4.7H547z" class="m"/><path d="M496.5 202.4s-41.2 22.3-47 67" opacity=".1" class="g h"/><linearGradient id="Q" gradientUnits="userSpaceOnUse" x1="438.529" y1="747.56" x2="430.236" y2="581.71"><stop offset="0" stop-color="gray" stop-opacity=".25"/><stop offset=".54" stop-color="gray" stop-opacity=".12"/><stop offset="1" stop-color="gray" stop-opacity=".1"/></linearGradient><path d="M295.3 588.5L565.2 575l8.3 165.8-269.9 13.5z" fill="url(#Q)"/><path d="M298.918 591.07l260.36-13.326 7.913 154.6-260.36 13.326z" fill="#eee"/><g class="j"><path d="M310.797 602.267l33.157-1.697 1.252 24.468-33.157 1.697zm30.486 62.896l127.234-6.512.4 8-127.234 6.512zm35.447 18.117l92.78-4.75.27 5.293-92.78 4.75z"/><circle transform="matrix(.4587 -.8886 .8886 .4587 92.5689 268.1943)" cx="266.4" cy="58.1" r="30.4" class="h l"/></g><defs ><path id="S" d="M273.9 395.7c-3.5 11.4 1.8 24.8 12 30.8 4.3 2.5 9.2 3.8 13.4 6.5 9 5.9 12.6 17.2 15.6 27.6 3.4 12 6.8 24.6 3.7 36.6-2 7.7-6.5 14.4-9 21.9-2.1 6.3-2.9 12.9-2.2 19.5.4 3.5 1.3 7.1 3.6 9.7 3.5 3.7 9 4.3 14 5.2 21.5 4.1 39.7 18.2 49 38"/><path id="T" d="M407.4 310.9c-8.6 12-17.6 25-18.3 39.8-1.1 22.7 17 41.3 25.2 62.6 7.1 18.9 6.2 39.9-2.5 58.2-4 8.2-9.6 16.3-8.9 25.4.4 5.5 3.2 10.6 5.4 15.7 11.1 25.9 9.2 55.5-5.1 79.7"/></defs></svg>