<svg xmlns="http://www.w3.org/2000/svg" xmlns:xlink="http://www.w3.org/1999/xlink" width="1080" height="803.68" viewBox="0 0 1080 803.68">
  <defs>
    <linearGradient id="linear-gradient" x1="0.5" y1="1" x2="0.5" gradientUnits="objectBoundingBox">
      <stop offset="0" stop-color="gray" stop-opacity="0.251"/>
      <stop offset="0.54" stop-color="gray" stop-opacity="0.122"/>
      <stop offset="1" stop-color="gray" stop-opacity="0.102"/>
    </linearGradient>
    <clipPath id="clip-Instagram_Story_1">
      <rect width="1080" height="803.68"/>
    </clipPath>
  </defs>
  <g id="Instagram_Story_1" data-name="Instagram Story – 1" clip-path="url(#clip-Instagram_Story_1)">
    <g id="Group_3" data-name="Group 3">
      <path id="Path_1" data-name="Path 1" d="M189.721,144.332C183,147.121,176.1,150.7,172.405,156.975c-3.913,6.629-3.444,14.86-2.716,22.53,6.348,66.517,23.071,137.259-5.807,197.512-14.017,29.231-37.463,52.656-56.111,79.2s-32.728,59.691-24.07,90.92c10.573,38.16,50.033,59.316,76.632,88.682,17.41,19.2,29.616,42.531,45.861,62.729s38.5,37.993,64.436,39.18c37.3,1.717,67.641-30.49,104.209-37.952,37.463-7.638,75.186,11.8,105.561,35.069s58,51.459,93.4,65.986c39.086,16.057,83.146,13.6,124.293,23.248,37.463,8.793,71.949,27.493,109.141,37.463s80.784,9.366,109.6-16.1c37.556-33.3,34.6-92.616,58.587-136.666,22.28-40.928,65.893-65.362,95.249-101.545,52.822-65.123,51.095-164.659,6.244-235.484S950.817,258.041,867.744,246.876c-37.463-5.026-76.039-4.339-112.055-15.776-96.4-30.595-153.774-140.215-252.2-163.025C440.93,53.6,380.084,78.668,326.793,109.523,280.537,136.308,237.861,124.362,189.721,144.332Z" transform="translate(-81.087 -63.864)" fill="#ffa84c" opacity="0.1"/>
      <path id="Path_2" data-name="Path 2" d="M281,347.69s-35.517,33.519-73.635,34.518a73.978,73.978,0,0,0-44.091,15.682,124.429,124.429,0,0,0-16.484,15.682" transform="translate(-78.418 -52.333)" fill="none" stroke="#535461" stroke-miterlimit="10" stroke-width="2"/>
      <path id="Path_3" data-name="Path 3" d="M123.936,411.846c5.12-2.6,24.663-.874,24.663-.874s-10.136,16.806-15.256,19.408a10.406,10.406,0,1,1-9.366-18.534Z" transform="translate(-79.602 -49.784)" fill="#ffa84c"/>
      <path id="Path_4" data-name="Path 4" d="M143.891,383.241c5.713.6,21.177,12.675,21.177,12.675s-17.691,8.6-23.352,8a10.406,10.406,0,0,1,2.175-20.677Z" transform="translate(-78.983 -50.889)" fill="#ffa84c"/>
      <path id="Path_5" data-name="Path 5" d="M190.972,360.3c4.62,3.4,11.884,21.635,11.884,21.635s-19.574-1.488-24.195-4.881A10.406,10.406,0,0,1,190.972,360.3Z" transform="translate(-77.28 -51.891)" fill="#ffa84c"/>
      <path id="Path_6" data-name="Path 6" d="M230.337,350.873c5.13,2.57,15.37,19.314,15.37,19.314s-19.543,1.842-24.673-.728a10.406,10.406,0,1,1,9.3-18.586Z" transform="translate(-75.655 -52.259)" fill="#ffa84c"/>
      <path id="Path_7" data-name="Path 7" d="M175.06,414.585c1.707-5.484-3.288-24.465-3.288-24.465s-14.86,12.821-16.567,18.3a10.406,10.406,0,1,0,19.855,6.161Z" transform="translate(-78.101 -50.609)" fill="#ffa84c"/>
      <path id="Path_8" data-name="Path 8" d="M221,402.873c0-5.744-10.458-22.353-10.458-22.353S200.2,397.17,200.21,402.935a10.406,10.406,0,1,0,20.813-.062Z" transform="translate(-76.247 -50.999)" fill="#ffa84c"/>
      <path id="Path_9" data-name="Path 9" d="M264.083,385.569c.957-5.661-6.535-23.8-6.535-23.8s-13.018,14.694-13.965,20.355a10.406,10.406,0,0,0,20.5,3.455Z" transform="translate(-74.488 -51.761)" fill="#ffa84c"/>
      <path id="Path_10" data-name="Path 10" d="M324.171,266.585s-42.78-23.5-55.5-59.493a73.979,73.979,0,0,0-28.482-37.14A124.43,124.43,0,0,0,220.17,159.13" transform="translate(-75.436 -59.994)" fill="none" stroke="#535461" stroke-miterlimit="10" stroke-width="2"/>
      <path id="Path_11" data-name="Path 11" d="M213.05,137.486c4.048,4.069,8.408,23.206,8.408,23.206s-19.106-4.475-23.154-8.554a10.406,10.406,0,0,1,14.746-14.652Z" transform="translate(-76.433 -60.984)" fill="#ffa84c"/>
      <path id="Path_12" data-name="Path 12" d="M246.427,147.751c1.186,5.619-5.547,24.049-5.547,24.049s-13.6-14.142-14.787-19.772a10.406,10.406,0,1,1,20.344-4.287Z" transform="translate(-75.209 -60.811)" fill="#ffa84c"/>
      <path id="Path_13" data-name="Path 13" d="M282.706,185.535c-1.811,5.442-16.931,17.961-16.931,17.961s-4.6-19.075-2.789-24.528a10.417,10.417,0,1,1,19.772,6.566Z" transform="translate(-73.714 -59.478)" fill="#ffa84c"/>
      <path id="Path_14" data-name="Path 14" d="M303.805,220.037c-.864,5.671-13.653,20.563-13.653,20.563s-7.763-18.024-6.9-23.7a10.406,10.406,0,1,1,20.552,3.122Z" transform="translate(-72.876 -58.026)" fill="#ffa84c"/>
      <path id="Path_15" data-name="Path 15" d="M226.571,186.882c5.744-.062,22.269-10.656,22.269-10.656s-16.765-10.2-22.509-10.136a10.407,10.407,0,0,0,.239,20.813Z" transform="translate(-75.604 -59.711)" fill="#ffa84c"/>
      <path id="Path_16" data-name="Path 16" d="M251.867,227c5.453-1.779,18.055-16.827,18.055-16.827s-19.054-4.714-24.507-2.935a10.406,10.406,0,1,0,6.452,19.772Z" transform="translate(-74.717 -58.056)" fill="#ffa84c"/>
      <path id="Path_17" data-name="Path 17" d="M281.6,262.675c5.682-.832,20.646-13.528,20.646-13.528s-17.982-7.867-23.654-7.035a10.406,10.406,0,1,0,3.018,20.573Z" transform="translate(-73.442 -56.625)" fill="#ffa84c"/>
      <circle id="Ellipse_1" data-name="Ellipse 1" cx="376.708" cy="376.708" r="376.708" transform="translate(166.431 23.316)" fill="url(#linear-gradient)"/>
      <circle id="Ellipse_2" data-name="Ellipse 2" cx="370.464" cy="370.464" r="370.464" transform="translate(172.675 29.56)" fill="#ffa84c"/>
      <circle id="Ellipse_3" data-name="Ellipse 3" cx="294.498" cy="294.498" r="294.498" transform="translate(248.641 105.526)" fill="#dde1ec"/>
      <rect id="Rectangle_1" data-name="Rectangle 1" width="16.65" height="260.157" transform="translate(534.814 157.557)" fill="#535461" opacity="0.3"/>
      <g id="Group_1" data-name="Group 1" transform="translate(385.131 315.912)" opacity="0.1">
        <rect id="Rectangle_2" data-name="Rectangle 2" width="235.182" height="20.813" transform="translate(175.699 77.868)"/>
        <rect id="Rectangle_3" data-name="Rectangle 3" width="20.813" height="167.042" transform="translate(0 18.437) rotate(-62.36)"/>
        <circle id="Ellipse_4" data-name="Ellipse 4" cx="31.219" cy="31.219" r="31.219" transform="translate(126.789 57.055)"/>
      </g>
      <rect id="Rectangle_4" data-name="Rectangle 4" width="235.182" height="20.813" transform="translate(560.83 389.618)" fill="#535461"/>
      <rect id="Rectangle_5" data-name="Rectangle 5" width="167.042" height="20.813" transform="translate(394.859 311.773) rotate(27.64)" fill="#535461"/>
      <circle id="Ellipse_5" data-name="Ellipse 5" cx="31.219" cy="31.219" r="31.219" transform="translate(511.92 368.805)" fill="#535461"/>
      <g id="Group_2" data-name="Group 2" transform="translate(248.62 105.526)" opacity="0.1">
        <path id="Path_18" data-name="Path 18" d="M342.894,495.15c0-162.65,131.848-294.5,294.5-294.5A294.04,294.04,0,0,1,872.741,318.076C822.624,227,725.846,165.27,614.5,165.27c-162.65,0-294.5,131.848-294.5,294.5a293.187,293.187,0,0,0,59.181,177.074A293.156,293.156,0,0,1,342.894,495.15Z" transform="translate(-320 -165.27)"/>
      </g>
      <path id="Path_42" data-name="Path 42" d="M811.385,313.09s-3.8,9.033-1.9,11.884" transform="translate(-51.514 -53.738)" opacity="0.05"/>
      <path id="Path_43" data-name="Path 43" d="M665.58,310.35s1.9,9.033,0,11.884" transform="translate(-57.339 -53.85)" opacity="0.05"/>
      <path id="Path_44" data-name="Path 44" d="M1046.785,508.14s-43.54,43.54-18.96,108.142S985.7,788.319,985.7,788.319s.718-.1,2.081-.333c89.421-15.786,133.846-118.049,84.125-194.025C1053.372,565.708,1038.2,532.574,1046.785,508.14Z" transform="translate(-44.333 -45.814)" fill="#ffa84c"/>
      <path id="Path_45" data-name="Path 45" d="M1046.785,508.84s-43.54,43.54-18.96,108.142S985.7,789.009,985.7,789.009s.718-.1,2.081-.333c89.421-15.786,133.846-118.049,84.125-194.025C1053.372,566.408,1038.2,533.274,1046.785,508.84Z" transform="translate(-44.333 -45.785)" opacity="0.1"/>
      <path id="Path_46" data-name="Path 46" d="M1046.785,508.14s-24.58,53.364,0,96.9,4.162,165.72-61.1,183.276" transform="translate(-44.333 -45.814)" fill="none" stroke="#535461" stroke-miterlimit="10" stroke-width="1"/>
      <path id="Path_47" data-name="Path 47" d="M1124.767,677.381s-49.68-7.909-54.206,36.609S975,764.68,975,764.68l1.707,1.134c75.133,49.326,146.968,31.417,136.135-34.081C1108.846,707.393,1109.179,682.938,1124.767,677.381Z" transform="translate(-44.768 -38.96)" fill="#ffa84c"/>
      <path id="Path_48" data-name="Path 48" d="M1124.766,677.36s-38.566,8.46-35.381,43.53-57.235,77.1-114.344,43.779" transform="translate(-44.766 -38.938)" fill="none" stroke="#535461" stroke-miterlimit="10" stroke-width="1"/>
      <path id="Path_49" data-name="Path 49" d="M1082.918,764.31s-39.128-7.826-49.565-18.263-57.391-28.69-62.6-15.609-70.43,57.391-26.089,65.216,104.344,10.406,117.383,5.2S1082.918,764.31,1082.918,764.31Z" transform="translate(-46.625 -36.967)" fill="#a8a8a8"/>
      <path id="Path_50" data-name="Path 50" d="M944.659,789.284c44.352,7.826,104.344,10.406,117.383,5.2,9.938-3.975,16.837-23.06,19.564-31.947l1.3.271s-7.826,31.3-20.865,36.516-73.042,2.612-117.383-5.2c-12.8-2.258-16.463-7.565-15.079-14.277C930.663,784.227,935.127,787.6,944.659,789.284Z" transform="translate(-46.624 -35.477)" opacity="0.2"/>
    </g>
  </g>
</svg>
