<svg xmlns="http://www.w3.org/2000/svg" viewBox="0 0 300 510"><defs><style>.cls-1{fill:#ffa84c;}</style></defs><g id="Layer_2" data-name="Layer 2"><g id="Layer_1-2" data-name="Layer 1"><path class="cls-1" d="M0,330H60a0,0,0,0,1,0,0V450A60,60,0,0,1,0,510H0a0,0,0,0,1,0,0V330A0,0,0,0,1,0,330Z"/><path class="cls-1" d="M300,149A149.84,149.84,0,0,1,150,300H0a60,60,0,0,1,60-60h90a89.94,89.94,0,0,0,90-88.19c1-49.68-39.06-91.13-88.74-91.8A90,90,0,0,0,60,150h0C23.62,150,.55,111.17,17.77,79.13A150,150,0,0,1,148,0C230.81-1.1,299.43,66.09,300,149Z"/></g></g></svg>