<svg xmlns="http://www.w3.org/2000/svg" width="470.617" height="275.391" viewBox="0 0 470.617 275.391">
  <g id="Group_1890" data-name="Group 1890" transform="translate(-12047 -1229.305)">
    <g id="Layer_2" data-name="Layer 2" transform="translate(12047 1229.318)">
      <g id="Layer_1" data-name="Layer 1" transform="translate(0 -0.013)">
        <path id="Path_133" data-name="Path 133" d="M0,330H32.4v64.8A32.4,32.4,0,0,1,0,427.194H0Z" transform="translate(0 -151.804)" fill="#ffa84c"/>
        <path id="Path_135" data-name="Path 135" d="M161.99,80.449a80.909,80.909,0,0,1-81,81.535H0a32.4,32.4,0,0,1,32.4-32.4H81a48.6,48.6,0,1,0-48.6-48.6h0A25.939,25.939,0,0,1,9.6,42.722a81,81,0,0,1,152.4,37.728Z" transform="translate(0 0.013)" fill="#ffa84c"/>
      </g>
    </g>
    <g id="Group_1889" data-name="Group 1889">
      <path id="Path_139" data-name="Path 139" d="M57.06,1.8q-15.3,0-26.55-6.39A44.128,44.128,0,0,1,13.23-21.96,50.741,50.741,0,0,1,7.2-46.8q0-16.2,6.57-27.63A46.467,46.467,0,0,1,30.96-91.98a44.37,44.37,0,0,1,22.5-6.12,40.959,40.959,0,0,1,17.37,3.78A47.482,47.482,0,0,1,85.32-83.97a50.314,50.314,0,0,1,9.99,15.21A46.254,46.254,0,0,1,99-50.4a9.243,9.243,0,0,1-3.42,7.02,11.451,11.451,0,0,1-7.56,2.7H19.26l-5.4-18H79.92l-3.96,3.6v-4.86a16.416,16.416,0,0,0-3.69-9.36,24.1,24.1,0,0,0-8.28-6.57A23.583,23.583,0,0,0,53.46-78.3a34.111,34.111,0,0,0-10.08,1.44A19.31,19.31,0,0,0,35.28-72a23.583,23.583,0,0,0-5.4,9.18A45.5,45.5,0,0,0,27.9-48.24q0,9.72,4.05,16.47A27.6,27.6,0,0,0,42.39-21.51,27.8,27.8,0,0,0,55.98-18,41.836,41.836,0,0,0,66.6-19.08a23.871,23.871,0,0,0,6.39-2.61q2.43-1.53,4.41-2.61a13.732,13.732,0,0,1,6.12-1.62,8.754,8.754,0,0,1,6.57,2.7,8.781,8.781,0,0,1,2.61,6.3q0,4.86-5.04,8.82Q82.98-4.14,74.52-1.17A52.336,52.336,0,0,1,57.06,1.8Z" transform="translate(12128 1501)" fill="#555"/>
      <path id="Path_138" data-name="Path 138" d="M73.08-19.8a9.936,9.936,0,0,1,7.2,2.79A9.472,9.472,0,0,1,83.16-9.9a9.553,9.553,0,0,1-2.88,7.02A9.769,9.769,0,0,1,73.08,0H15.12a8.9,8.9,0,0,1-7.2-3.24A9.293,9.293,0,0,1,5.4-9.72a25.824,25.824,0,0,1,.72-4.77,13.6,13.6,0,0,1,2.7-4.77L53.64-77.22l-.36,2.52H16.74a9.769,9.769,0,0,1-7.2-2.88,9.769,9.769,0,0,1-2.88-7.2,9.258,9.258,0,0,1,2.88-6.93,9.936,9.936,0,0,1,7.2-2.79H72.18a9.276,9.276,0,0,1,7.02,3.06,9.687,9.687,0,0,1,2.52,7.74,25.144,25.144,0,0,1-.63,3.6,12.413,12.413,0,0,1-2.43,4.32L34.56-18.72V-19.8Z" transform="translate(12234 1501)" fill="#555"/>
      <path id="Path_137" data-name="Path 137" d="M57.06,1.8q-15.3,0-26.55-6.39A44.128,44.128,0,0,1,13.23-21.96,50.741,50.741,0,0,1,7.2-46.8q0-16.2,6.57-27.63A46.467,46.467,0,0,1,30.96-91.98a44.37,44.37,0,0,1,22.5-6.12,40.959,40.959,0,0,1,17.37,3.78A47.482,47.482,0,0,1,85.32-83.97a50.314,50.314,0,0,1,9.99,15.21A46.254,46.254,0,0,1,99-50.4a9.243,9.243,0,0,1-3.42,7.02,11.451,11.451,0,0,1-7.56,2.7H19.26l-5.4-18H79.92l-3.96,3.6v-4.86a16.416,16.416,0,0,0-3.69-9.36,24.1,24.1,0,0,0-8.28-6.57A23.583,23.583,0,0,0,53.46-78.3a34.111,34.111,0,0,0-10.08,1.44A19.31,19.31,0,0,0,35.28-72a23.583,23.583,0,0,0-5.4,9.18A45.5,45.5,0,0,0,27.9-48.24q0,9.72,4.05,16.47A27.6,27.6,0,0,0,42.39-21.51,27.8,27.8,0,0,0,55.98-18,41.836,41.836,0,0,0,66.6-19.08a23.871,23.871,0,0,0,6.39-2.61q2.43-1.53,4.41-2.61a13.732,13.732,0,0,1,6.12-1.62,8.754,8.754,0,0,1,6.57,2.7,8.781,8.781,0,0,1,2.61,6.3q0,4.86-5.04,8.82Q82.98-4.14,74.52-1.17A52.336,52.336,0,0,1,57.06,1.8Z" transform="translate(12322.349 1501)" fill="#555"/>
      <path id="Path_136" data-name="Path 136" d="M63.18-98.1q13.32,0,20.25,5.58a28.363,28.363,0,0,1,9.54,14.85,75.96,75.96,0,0,1,2.61,20.61v46.08a10.794,10.794,0,0,1-3.06,7.83A10.334,10.334,0,0,1,84.78,0a10.334,10.334,0,0,1-7.74-3.15,10.794,10.794,0,0,1-3.06-7.83V-57.06a34.978,34.978,0,0,0-1.53-10.71,14.8,14.8,0,0,0-5.49-7.65Q63-78.3,55.62-78.3a23.8,23.8,0,0,0-12.15,2.88,19.7,19.7,0,0,0-7.56,7.65A21.941,21.941,0,0,0,33.3-57.06v46.08a10.794,10.794,0,0,1-3.06,7.83A10.334,10.334,0,0,1,22.5,0a10.334,10.334,0,0,1-7.74-3.15,10.794,10.794,0,0,1-3.06-7.83V-85.32a10.794,10.794,0,0,1,3.06-7.83A10.334,10.334,0,0,1,22.5-96.3a10.334,10.334,0,0,1,7.74,3.15,10.794,10.794,0,0,1,3.06,7.83v7.74l-2.7-.54a35.6,35.6,0,0,1,4.68-6.57,44.9,44.9,0,0,1,7.2-6.57,36.6,36.6,0,0,1,9.36-4.95A33.072,33.072,0,0,1,63.18-98.1Z" transform="translate(12422.037 1501)" fill="#555"/>
    </g>
  </g>
</svg>
